<svg width="44" height="44" viewBox="0 0 44 44" fill="none" xmlns="http://www.w3.org/2000/svg">
<path d="M33.0165 11L33.0365 11M12.0215 2L32.0215 2C37.5443 2 42.019 6.47715 42.0159 12L42.0047 32C42.0016 37.5228 37.522 42 31.9991 42L11.9991 42C6.47627 42 2.00162 37.5228 2.00471 32L2.01589 12C2.01898 6.47715 6.49864 2 12.0215 2ZM30.011 20.74C30.2569 22.4045 29.9716 24.1044 29.1958 25.598C28.42 27.0916 27.1931 28.3028 25.6896 29.0593C24.1861 29.8159 22.4827 30.0792 20.8215 29.8119C19.1603 29.5445 17.626 28.7602 16.4369 27.5703C15.2477 26.3805 14.4642 24.8457 14.1978 23.1844C13.9314 21.5231 14.1957 19.8198 14.953 18.3167C15.7104 16.8137 16.9223 15.5875 18.4163 14.8125C19.9103 14.0375 21.6104 13.7532 23.2748 14C24.9725 14.2518 26.5439 15.0429 27.7569 16.2566C28.9699 17.4703 29.7602 19.0422 30.011 20.74Z" stroke="#A5A5A5" stroke-width="3" stroke-linecap="round" stroke-linejoin="round"/>
</svg>
