<svg width="45" height="45" viewBox="0 0 45 45" fill="none" xmlns="http://www.w3.org/2000/svg">
<mask id="path-1-inside-1_437_5438" fill="white">
<path d="M33.75 25.0431L33.75 33.3614L28.9283 33.3614L28.9283 25.5989C28.9283 23.6504 28.2308 22.3206 26.4848 22.3206C25.1528 22.3206 24.3585 23.2161 24.0098 24.0846C23.8838 24.3951 23.85 24.8271 23.85 25.2591L23.85 33.3614L19.026 33.3614C19.026 33.3614 19.0913 20.2169 19.026 18.8556L23.85 18.8556L23.85 20.9099L23.8185 20.9571L23.85 20.9571L23.85 20.9099C24.4913 19.9199 25.6343 18.5136 28.197 18.5136C31.3695 18.5136 33.75 20.5881 33.75 25.0431ZM13.9793 11.8604C12.33 11.8604 11.25 12.9449 11.25 14.3669C11.25 15.7619 12.2985 16.8756 13.9163 16.8756L13.9478 16.8756C15.6308 16.8756 16.677 15.7596 16.677 14.3669C16.6455 12.9449 15.6308 11.8604 13.9793 11.8604ZM11.5357 33.3614L16.3598 33.3614L16.3598 18.8556L11.5357 18.8556L11.5357 33.3614Z"/>
</mask>
<path d="M33.75 25.0431L33.75 33.3614L28.9283 33.3614L28.9283 25.5989C28.9283 23.6504 28.2308 22.3206 26.4848 22.3206C25.1528 22.3206 24.3585 23.2161 24.0098 24.0846C23.8838 24.3951 23.85 24.8271 23.85 25.2591L23.85 33.3614L19.026 33.3614C19.026 33.3614 19.0913 20.2169 19.026 18.8556L23.85 18.8556L23.85 20.9099L23.8185 20.9571L23.85 20.9571L23.85 20.9099C24.4913 19.9199 25.6343 18.5136 28.197 18.5136C31.3695 18.5136 33.75 20.5881 33.75 25.0431ZM13.9793 11.8604C12.33 11.8604 11.25 12.9449 11.25 14.3669C11.25 15.7619 12.2985 16.8756 13.9163 16.8756L13.9478 16.8756C15.6308 16.8756 16.677 15.7596 16.677 14.3669C16.6455 12.9449 15.6308 11.8604 13.9793 11.8604ZM11.5357 33.3614L16.3598 33.3614L16.3598 18.8556L11.5357 18.8556L11.5357 33.3614Z" fill="white"/>
<path d="M33.75 33.3614L33.75 66.6947L67.0833 66.6947L67.0833 33.3614L33.75 33.3614ZM28.9283 33.3614L-4.40507 33.3614L-4.40507 66.6947L28.9283 66.6947L28.9283 33.3614ZM24.0098 24.0846L54.8968 36.6185L54.9197 36.5622L54.9424 36.5057L24.0098 24.0846ZM23.85 33.3614L23.85 66.6947L57.1833 66.6947L57.1833 33.3614L23.85 33.3614ZM19.026 33.3614L-14.3069 33.1959L-14.4732 66.6947L19.026 66.6947L19.026 33.3614ZM19.026 18.8556L19.026 -14.4777L-15.9434 -14.4777L-14.2691 20.4516L19.026 18.8556ZM23.85 18.8556L57.1833 18.8556L57.1833 -14.4777L23.85 -14.4777L23.85 18.8556ZM23.8185 20.9571L-3.9165 2.46709L-38.4654 54.2904L23.8185 54.2904L23.8185 20.9571ZM23.85 20.9571L23.85 54.2904L57.1833 54.2904L57.1833 20.9571L23.85 20.9571ZM16.677 14.3669L50.0103 14.3669L50.0103 13.9977L50.0022 13.6286L16.677 14.3669ZM11.5357 33.3614L-21.7976 33.3614L-21.7976 66.6947L11.5357 66.6947L11.5357 33.3614ZM16.3598 33.3614L16.3598 66.6947L49.6931 66.6947L49.6931 33.3614L16.3598 33.3614ZM16.3598 18.8556L49.6931 18.8556L49.6931 -14.4777L16.3598 -14.4777L16.3598 18.8556ZM11.5357 18.8556L11.5357 -14.4777L-21.7976 -14.4777L-21.7976 18.8556L11.5357 18.8556ZM0.416674 25.0431L0.416674 33.3614L67.0833 33.3614L67.0833 25.0431L0.416674 25.0431ZM33.75 0.028019L28.9283 0.028019L28.9283 66.6947L33.75 66.6947L33.75 0.028019ZM62.2616 33.3614L62.2616 25.5989L-4.40507 25.5989L-4.40507 33.3614L62.2616 33.3614ZM62.2616 25.5989C62.2616 21.5921 61.7089 12.9699 55.9044 4.45446C48.6522 -6.18493 37.1735 -11.0127 26.4848 -11.0127L26.4848 55.6539C22.6531 55.6539 17.774 54.9063 12.723 52.3865C7.56376 49.8128 3.58518 46.0631 0.818088 42.0036C-4.20113 34.6402 -4.40507 27.6571 -4.40507 25.5989L62.2616 25.5989ZM26.4848 -11.0127C7.11072 -11.0127 -3.38232 2.84639 -6.92286 11.6635L54.9424 36.5057C53.439 40.2495 50.7036 44.8383 45.9137 48.7349C40.6921 52.9826 33.8763 55.6539 26.4848 55.6539L26.4848 -11.0127ZM-6.87734 11.5507C-9.62716 18.327 -9.48333 24.4437 -9.48333 25.2591L57.1833 25.2591C57.1833 25.8091 57.1677 27.0273 56.9768 28.6123C56.8063 30.0281 56.3531 33.0299 54.8968 36.6185L-6.87734 11.5507ZM-9.48333 25.2591L-9.48333 33.3614L57.1833 33.3614L57.1833 25.2591L-9.48333 25.2591ZM23.85 0.028019L19.026 0.028019L19.026 66.6947L23.85 66.6947L23.85 0.028019ZM19.026 33.3614C52.3589 33.5268 52.3589 33.5267 52.3589 33.5265C52.3589 33.5264 52.3589 33.5261 52.3589 33.5259C52.3589 33.5253 52.3589 33.5246 52.3589 33.5237C52.3589 33.5219 52.359 33.5192 52.359 33.5158C52.359 33.509 52.3591 33.4991 52.3591 33.4861C52.3593 33.4602 52.3594 33.4222 52.3597 33.3728C52.3601 33.2741 52.3608 33.1299 52.3617 32.9464C52.3633 32.5795 52.3657 32.055 52.3682 31.4218C52.3734 30.1569 52.3796 28.451 52.3837 26.6976C52.3901 23.9756 52.4064 19.0381 52.3211 17.2596L-14.2691 20.4516C-14.2891 20.0344 -14.2729 22.3497 -14.2828 26.5403C-14.2868 28.2431 -14.2928 29.9085 -14.2979 31.1507C-14.3004 31.771 -14.3027 32.2841 -14.3043 32.6414C-14.3051 32.82 -14.3058 32.9595 -14.3062 33.054C-14.3065 33.1012 -14.3066 33.1372 -14.3067 33.1611C-14.3068 33.173 -14.3068 33.182 -14.3069 33.1878C-14.3069 33.1907 -14.3069 33.1929 -14.3069 33.1942C-14.3069 33.1949 -14.3069 33.1954 -14.3069 33.1956C-14.3069 33.1958 -14.3069 33.1958 -14.3069 33.1959C-14.3069 33.1959 -14.3069 33.1959 19.026 33.3614ZM19.026 52.1889L23.85 52.1889L23.85 -14.4777L19.026 -14.4777L19.026 52.1889ZM-9.48333 18.8556L-9.48333 20.9099L57.1833 20.9099L57.1833 18.8556L-9.48333 18.8556ZM-3.885 2.41984L-3.9165 2.46709L51.5535 39.4471L51.585 39.3999L-3.885 2.41984ZM23.8185 54.2904L23.85 54.2904L23.85 -12.3762L23.8185 -12.3762L23.8185 54.2904ZM57.1833 20.9571L57.1833 20.9099L-9.48333 20.9099L-9.48333 20.9571L57.1833 20.9571ZM51.8271 39.0314C51.1898 40.0154 48.8163 43.6026 44.2825 46.7428C39.2527 50.2266 33.5255 51.8469 28.197 51.8469L28.197 -14.8197C20.3057 -14.8197 12.7257 -12.4963 6.32343 -8.06188C0.417069 -3.971 -2.84853 0.814315 -4.12713 2.78829L51.8271 39.0314ZM28.197 51.8469C22.3516 51.8469 14.146 49.7407 7.65747 42.7038C1.41237 35.9308 0.416674 28.5606 0.416674 25.0431L67.0833 25.0431C67.0833 17.0706 64.8974 6.4356 56.6689 -2.4883C48.197 -11.6762 37.2149 -14.8197 28.197 -14.8197L28.197 51.8469ZM13.9793 -21.473C5.73286 -21.473 -3.46481 -18.6544 -10.869 -11.6745C-18.3357 -4.63553 -22.0833 4.90861 -22.0833 14.3669L44.5833 14.3669C44.5833 22.4031 41.3757 30.694 34.8613 36.8352C28.4094 42.9174 20.5764 45.1937 13.9793 45.1937L13.9793 -21.473ZM-22.0833 14.3669C-22.0833 34.9566 -5.31582 50.2089 13.9163 50.2089L13.9163 -16.4577C20.9791 -16.4577 28.9216 -13.8901 35.2485 -7.72034C41.5228 -1.60182 44.5833 6.51411 44.5833 14.3669L-22.0833 14.3669ZM13.9163 50.2089L13.9478 50.2089L13.9478 -16.4577L13.9163 -16.4577L13.9163 50.2089ZM13.9478 50.2089C22.3366 50.2089 31.6256 47.2965 39.0288 40.1889C46.4063 33.106 50.0103 23.6301 50.0103 14.3669L-16.6563 14.3669C-16.6563 6.49633 -13.5754 -1.72516 -7.14178 -7.90189C-0.682492 -14.1033 7.24186 -16.4577 13.9478 -16.4577L13.9478 50.2089ZM50.0022 13.6286C49.8118 5.03621 46.4976 -4.23339 39.1105 -11.3787C31.6569 -18.5883 22.3146 -21.473 13.9793 -21.473L13.9793 45.1937C7.29538 45.1937 -0.713816 42.8513 -7.23928 36.5394C-13.6982 30.2918 -16.4893 22.2755 -16.6482 15.1051L50.0022 13.6286ZM11.5357 66.6947L16.3598 66.6947L16.3598 0.028019L11.5357 0.028019L11.5357 66.6947ZM49.6931 33.3614L49.6931 18.8556L-16.9736 18.8556L-16.9736 33.3614L49.6931 33.3614ZM16.3598 -14.4777L11.5357 -14.4777L11.5357 52.1889L16.3598 52.1889L16.3598 -14.4777ZM-21.7976 18.8556L-21.7976 33.3614L44.8691 33.3614L44.8691 18.8556L-21.7976 18.8556Z" fill="#A5A5A5" mask="url(#path-1-inside-1_437_5438)"/>
<mask id="path-3-inside-2_437_5438" fill="white">
<path d="M22.5 40.5C27.2739 40.5 31.8523 38.6036 35.2279 35.2279C38.6036 31.8523 40.5 27.2739 40.5 22.5C40.5 17.7261 38.6036 13.1477 35.2279 9.77208C31.8523 6.39643 27.2739 4.5 22.5 4.5C17.7261 4.5 13.1477 6.39643 9.77208 9.77208C6.39643 13.1477 4.5 17.7261 4.5 22.5C4.5 27.2739 6.39643 31.8523 9.77208 35.2279C13.1477 38.6036 17.7261 40.5 22.5 40.5ZM22.5 45C10.0733 45 -1.66083e-09 34.9268 -1.06992e-09 22.5C-4.79002e-10 10.0733 10.0733 6.44674e-10 22.5 1.43997e-09C34.9268 2.23526e-09 45 10.0733 45 22.5C45 34.9268 34.9268 45 22.5 45Z"/>
</mask>
<path d="M22.5 40.5C27.2739 40.5 31.8523 38.6036 35.2279 35.2279C38.6036 31.8523 40.5 27.2739 40.5 22.5C40.5 17.7261 38.6036 13.1477 35.2279 9.77208C31.8523 6.39643 27.2739 4.5 22.5 4.5C17.7261 4.5 13.1477 6.39643 9.77208 9.77208C6.39643 13.1477 4.5 17.7261 4.5 22.5C4.5 27.2739 6.39643 31.8523 9.77208 35.2279C13.1477 38.6036 17.7261 40.5 22.5 40.5ZM22.5 45C10.0733 45 -1.66083e-09 34.9268 -1.06992e-09 22.5C-4.79002e-10 10.0733 10.0733 6.44674e-10 22.5 1.43997e-09C34.9268 2.23526e-09 45 10.0733 45 22.5C45 34.9268 34.9268 45 22.5 45Z" fill="white"/>
<path d="M22.5 40.5L22.5 73.8333L22.5 40.5ZM40.5 22.5L73.8333 22.5L40.5 22.5ZM22.5 4.5L22.5 -28.8333L22.5 4.5ZM4.5 22.5L-28.8333 22.5L4.5 22.5ZM22.5 73.8333C36.1144 73.8333 49.1713 68.425 58.7982 58.7982L11.6577 11.6577C14.5333 8.78214 18.4334 7.16668 22.5 7.16668L22.5 73.8333ZM58.7982 58.7982C68.425 49.1713 73.8333 36.1144 73.8333 22.5L7.16668 22.5C7.16668 18.4334 8.78214 14.5333 11.6577 11.6577L58.7982 58.7982ZM73.8333 22.5C73.8333 8.88557 68.425 -4.17127 58.7982 -13.7981L11.6577 33.3423C8.78215 30.4667 7.16668 26.5666 7.16668 22.5L73.8333 22.5ZM58.7982 -13.7981C49.1713 -23.425 36.1145 -28.8333 22.5 -28.8333L22.5 37.8333C18.4334 37.8333 14.5333 36.2179 11.6577 33.3423L58.7982 -13.7981ZM22.5 -28.8333C8.88555 -28.8333 -4.17128 -23.425 -13.7981 -13.7981L33.3423 33.3423C30.4668 36.2179 26.5667 37.8333 22.5 37.8333L22.5 -28.8333ZM-13.7981 -13.7981C-23.425 -4.17128 -28.8333 8.88555 -28.8333 22.5L37.8333 22.5C37.8333 26.5667 36.2179 30.4668 33.3423 33.3423L-13.7981 -13.7981ZM-28.8333 22.5C-28.8333 36.1145 -23.425 49.1713 -13.7981 58.7982L33.3423 11.6577C36.2179 14.5333 37.8333 18.4334 37.8333 22.5L-28.8333 22.5ZM-13.7981 58.7982C-4.17127 68.425 8.88557 73.8333 22.5 73.8333L22.5 7.16668C26.5666 7.16668 30.4667 8.78215 33.3423 11.6577L-13.7981 58.7982ZM22.5 11.6667C28.4827 11.6667 33.3333 16.5173 33.3333 22.5L-33.3333 22.5C-33.3333 53.3363 -8.33624 78.3333 22.5 78.3333L22.5 11.6667ZM33.3333 22.5C33.3333 28.4827 28.4827 33.3333 22.5 33.3333L22.5 -33.3333C-8.33624 -33.3333 -33.3333 -8.33624 -33.3333 22.5L33.3333 22.5ZM22.5 33.3333C16.5173 33.3333 11.6667 28.4827 11.6667 22.5L78.3333 22.5C78.3333 -8.33624 53.3363 -33.3333 22.5 -33.3333L22.5 33.3333ZM11.6667 22.5C11.6667 16.5173 16.5173 11.6667 22.5 11.6667L22.5 78.3333C53.3363 78.3333 78.3333 53.3363 78.3333 22.5L11.6667 22.5Z" fill="#A5A5A5" mask="url(#path-3-inside-2_437_5438)"/>
</svg>
