<svg width="46" height="46" viewBox="0 0 46 46" fill="none" xmlns="http://www.w3.org/2000/svg">
<mask id="path-1-inside-1_253_2499" fill="white">
<path d="M22.9961 41.1787C27.77 41.1787 32.3484 39.2823 35.724 35.9066C39.0997 32.531 40.9961 27.9526 40.9961 23.1787C40.9961 18.4048 39.0997 13.8264 35.724 10.4508C32.3484 7.07514 27.77 5.17871 22.9961 5.17871C18.2222 5.17871 13.6438 7.07514 10.2682 10.4508C6.89252 13.8264 4.9961 18.4048 4.9961 23.1787C4.9961 27.9526 6.89252 32.531 10.2682 35.9066C13.6438 39.2823 18.2222 41.1787 22.9961 41.1787ZM22.9961 45.6787C10.5693 45.6787 0.496094 35.6055 0.496094 23.1787C0.496094 10.752 10.5693 0.678711 22.9961 0.678711C35.4229 0.678711 45.4961 10.752 45.4961 23.1787C45.4961 35.6055 35.4229 45.6787 22.9961 45.6787Z"/>
</mask>
<path d="M22.9961 41.1787C27.77 41.1787 32.3484 39.2823 35.724 35.9066C39.0997 32.531 40.9961 27.9526 40.9961 23.1787C40.9961 18.4048 39.0997 13.8264 35.724 10.4508C32.3484 7.07514 27.77 5.17871 22.9961 5.17871C18.2222 5.17871 13.6438 7.07514 10.2682 10.4508C6.89252 13.8264 4.9961 18.4048 4.9961 23.1787C4.9961 27.9526 6.89252 32.531 10.2682 35.9066C13.6438 39.2823 18.2222 41.1787 22.9961 41.1787ZM22.9961 45.6787C10.5693 45.6787 0.496094 35.6055 0.496094 23.1787C0.496094 10.752 10.5693 0.678711 22.9961 0.678711C35.4229 0.678711 45.4961 10.752 45.4961 23.1787C45.4961 35.6055 35.4229 45.6787 22.9961 45.6787Z" fill="white"/>
<path d="M22.9961 41.1787L22.9961 74.5121L22.9961 41.1787ZM40.9961 23.1787L74.3294 23.1787L40.9961 23.1787ZM22.9961 5.17871L22.9961 -28.1546L22.9961 5.17871ZM4.9961 23.1787L-28.3372 23.1787L4.9961 23.1787ZM22.9961 74.5121C36.6105 74.5121 49.6674 69.1038 59.2943 59.4769L12.1538 12.3364C15.0294 9.46085 18.9295 7.84539 22.9961 7.84539L22.9961 74.5121ZM59.2943 59.4769C68.9211 49.85 74.3294 36.7931 74.3294 23.1787L7.66277 23.1787C7.66277 19.1121 9.27823 15.212 12.1538 12.3364L59.2943 59.4769ZM74.3294 23.1787C74.3294 9.56428 68.9211 -3.49256 59.2943 -13.1194L12.1538 34.021C9.27824 31.1455 7.66277 27.2454 7.66277 23.1787L74.3294 23.1787ZM59.2943 -13.1194C49.6674 -22.7463 36.6105 -28.1546 22.9961 -28.1546L22.9961 38.512C18.9295 38.512 15.0294 36.8966 12.1538 34.021L59.2943 -13.1194ZM22.9961 -28.1546C9.38165 -28.1546 -3.67519 -22.7463 -13.302 -13.1194L33.8384 34.021C30.9628 36.8966 27.0628 38.512 22.9961 38.512L22.9961 -28.1546ZM-13.302 -13.1194C-22.9289 -3.49257 -28.3372 9.56426 -28.3372 23.1787L38.3294 23.1787C38.3294 27.2454 36.714 31.1455 33.8384 34.021L-13.302 -13.1194ZM-28.3372 23.1787C-28.3372 36.7932 -22.9289 49.85 -13.302 59.4769L33.8384 12.3364C36.714 15.212 38.3294 19.1121 38.3294 23.1787L-28.3372 23.1787ZM-13.302 59.4769C-3.67517 69.1038 9.38167 74.5121 22.9961 74.5121L22.9961 7.84539C27.0627 7.84539 30.9628 9.46086 33.8384 12.3364L-13.302 59.4769ZM22.9961 12.3454C28.9788 12.3454 33.8294 17.196 33.8294 23.1787L-32.8372 23.1787C-32.8372 54.015 -7.84014 79.0121 22.9961 79.0121L22.9961 12.3454ZM33.8294 23.1787C33.8294 29.1615 28.9788 34.012 22.9961 34.012L22.9961 -32.6546C-7.84014 -32.6546 -32.8372 -7.65753 -32.8372 23.1787L33.8294 23.1787ZM22.9961 34.012C17.0134 34.012 12.1628 29.1615 12.1628 23.1787L78.8294 23.1787C78.8294 -7.65753 53.8323 -32.6546 22.9961 -32.6546L22.9961 34.012ZM12.1628 23.1787C12.1628 17.196 17.0134 12.3454 22.9961 12.3454L22.9961 79.0121C53.8323 79.0121 78.8294 54.015 78.8294 23.1787L12.1628 23.1787Z" fill="#A5A5A5" mask="url(#path-1-inside-1_253_2499)"/>
</svg>
