<svg width="46" height="47" viewBox="0 0 46 47" fill="none" xmlns="http://www.w3.org/2000/svg">
<mask id="path-1-inside-1_437_5462" fill="white">
<path fill-rule="evenodd" clip-rule="evenodd" d="M34.0056 27.7134C33.4399 27.4035 30.6583 25.9028 30.137 25.6908C29.6158 25.4787 29.2352 25.368 28.8296 25.9315C28.4235 26.4926 27.2696 27.7496 26.9198 28.1219C26.5686 28.4942 26.2309 28.5288 25.6652 28.2182C25.0995 27.909 23.2641 27.2298 21.1369 25.1845C19.4805 23.5929 18.3944 21.662 18.0792 21.0722C17.764 20.4833 18.0769 20.1824 18.3763 19.9064C18.6456 19.6574 18.9781 19.2542 19.279 18.9285C19.579 18.6028 19.6852 18.3666 19.8912 17.989C20.0981 17.6113 20.0146 17.2713 19.8814 16.978C19.7476 16.6838 18.7013 13.8045 18.2643 12.6326C17.8272 11.4614 17.3398 11.6351 17.0035 11.6223C16.6674 11.6096 16.2845 11.5471 15.9 11.5328C15.5157 11.5185 14.8861 11.6388 14.3363 12.197C13.7863 12.7529 12.2451 14.0919 12.139 16.9284C12.033 19.7641 13.9948 22.5827 14.2686 22.9769C14.5423 23.3725 18.016 29.5203 23.7891 32.0492C29.5631 34.5765 29.5924 33.8063 30.6523 33.7491C31.7129 33.6934 34.1154 32.4824 34.6465 31.1548C35.1775 29.8279 35.2204 28.6733 35.085 28.4273C34.9496 28.182 34.5706 28.0226 34.0056 27.7134ZM23.4176 41.381C19.5994 41.381 16.0437 40.2354 13.0748 38.2728L5.85059 40.5852L8.19901 33.6047C5.9484 30.5049 4.61925 26.6965 4.61925 22.5827C4.61925 12.2158 13.0523 3.78289 23.4176 3.78289C33.7837 3.78289 42.2166 12.2158 42.2166 22.5827C42.2166 32.948 33.7837 41.381 23.4176 41.381ZM23.4176 1.49869e-09C10.9461 7.00532e-10 0.835746 10.1104 0.835746 22.5827C0.835746 26.8491 2.02037 30.8389 4.0762 34.2434L-2.20443e-09 46.3583L12.5032 42.3558C15.7383 44.1446 19.4587 45.1646 23.4176 45.1646C35.8891 45.1646 46.0002 35.0535 46.0002 22.5827C46.0002 10.1104 35.8891 2.29685e-09 23.4176 1.49869e-09Z"/>
</mask>
<path fill-rule="evenodd" clip-rule="evenodd" d="M34.0056 27.7134C33.4399 27.4035 30.6583 25.9028 30.137 25.6908C29.6158 25.4787 29.2352 25.368 28.8296 25.9315C28.4235 26.4926 27.2696 27.7496 26.9198 28.1219C26.5686 28.4942 26.2309 28.5288 25.6652 28.2182C25.0995 27.909 23.2641 27.2298 21.1369 25.1845C19.4805 23.5929 18.3944 21.662 18.0792 21.0722C17.764 20.4833 18.0769 20.1824 18.3763 19.9064C18.6456 19.6574 18.9781 19.2542 19.279 18.9285C19.579 18.6028 19.6852 18.3666 19.8912 17.989C20.0981 17.6113 20.0146 17.2713 19.8814 16.978C19.7476 16.6838 18.7013 13.8045 18.2643 12.6326C17.8272 11.4614 17.3398 11.6351 17.0035 11.6223C16.6674 11.6096 16.2845 11.5471 15.9 11.5328C15.5157 11.5185 14.8861 11.6388 14.3363 12.197C13.7863 12.7529 12.2451 14.0919 12.139 16.9284C12.033 19.7641 13.9948 22.5827 14.2686 22.9769C14.5423 23.3725 18.016 29.5203 23.7891 32.0492C29.5631 34.5765 29.5924 33.8063 30.6523 33.7491C31.7129 33.6934 34.1154 32.4824 34.6465 31.1548C35.1775 29.8279 35.2204 28.6733 35.085 28.4273C34.9496 28.182 34.5706 28.0226 34.0056 27.7134ZM23.4176 41.381C19.5994 41.381 16.0437 40.2354 13.0748 38.2728L5.85059 40.5852L8.19901 33.6047C5.9484 30.5049 4.61925 26.6965 4.61925 22.5827C4.61925 12.2158 13.0523 3.78289 23.4176 3.78289C33.7837 3.78289 42.2166 12.2158 42.2166 22.5827C42.2166 32.948 33.7837 41.381 23.4176 41.381ZM23.4176 1.49869e-09C10.9461 7.00532e-10 0.835746 10.1104 0.835746 22.5827C0.835746 26.8491 2.02037 30.8389 4.0762 34.2434L-2.20443e-09 46.3583L12.5032 42.3558C15.7383 44.1446 19.4587 45.1646 23.4176 45.1646C35.8891 45.1646 46.0002 35.0535 46.0002 22.5827C46.0002 10.1104 35.8891 2.29685e-09 23.4176 1.49869e-09Z" fill="white"/>
<path d="M34.0056 27.7134L28.9482 36.9452L28.9523 36.9475L34.0056 27.7134ZM28.8296 25.9315L37.3566 32.1037L37.365 32.0919L37.3735 32.0802L28.8296 25.9315ZM26.9198 28.1219L34.5777 35.3441L34.5839 35.3374L34.5902 35.3308L26.9198 28.1219ZM25.6652 28.2182L30.7317 18.9914L30.7226 18.9864L30.7135 18.9814L25.6652 28.2182ZM21.1369 25.1845L28.4325 17.5966L28.4302 17.5944L21.1369 25.1845ZM18.0792 21.0722L27.3627 16.1104L27.3597 16.1048L18.0792 21.0722ZM18.3763 19.9064L25.5114 27.6455L25.5167 27.6406L25.522 27.6357L18.3763 19.9064ZM19.279 18.9285L27.011 26.0713L27.0159 26.0659L27.0209 26.0605L19.279 18.9285ZM19.8912 17.989L10.6592 12.9321L10.6552 12.9395L10.6511 12.9468L19.8912 17.989ZM19.8814 16.978L29.4663 12.6266L29.4621 12.6174L19.8814 16.978ZM18.2643 12.6326L28.1272 8.95474L28.1261 8.95184L18.2643 12.6326ZM17.0035 11.6223L17.4049 1.1036L17.4013 1.10346L17.0035 11.6223ZM15.9 11.5328L15.5091 22.0519L15.5092 22.0519L15.9 11.5328ZM14.3363 12.197L21.8193 19.6002L21.8274 19.5921L21.8354 19.5839L14.3363 12.197ZM12.139 16.9284L22.658 17.3217L22.658 17.3216L12.139 16.9284ZM14.2686 22.9769L22.9251 16.9878L22.9193 16.9795L22.9135 16.9711L14.2686 22.9769ZM23.7891 32.0492L19.5655 41.691L19.5683 41.6922L23.7891 32.0492ZM30.6523 33.7491L30.1004 23.2373L30.0931 23.2377L30.0857 23.2381L30.6523 33.7491ZM34.6465 31.1548L24.8737 27.2438L24.8731 27.2453L34.6465 31.1548ZM35.085 28.4273L44.3076 23.3531L44.3035 23.3455L44.2993 23.338L35.085 28.4273ZM13.0748 38.2728L18.8793 29.4916L14.6707 26.7096L9.86584 28.2476L13.0748 38.2728ZM5.85059 40.5852L-4.12625 37.2287L-10.7628 56.9553L9.05953 50.6105L5.85059 40.5852ZM8.19901 33.6047L18.1759 36.9612L19.9074 31.8144L16.717 27.4202L8.19901 33.6047ZM4.0762 34.2434L14.0529 37.6002L15.6083 32.9773L13.0871 28.8021L4.0762 34.2434ZM-2.20443e-09 46.3583L-9.97674 43.0015L-16.6144 62.7294L3.20923 56.3835L-2.20443e-09 46.3583ZM12.5032 42.3558L17.5967 33.1439L13.6208 30.9455L9.29393 32.3307L12.5032 42.3558ZM39.063 18.4816C38.7327 18.3007 37.8524 17.8247 36.9827 17.3639C36.4428 17.0779 34.9932 16.3024 34.1041 15.9406L26.1699 35.4409C25.8805 35.3231 25.7063 35.2337 25.8171 35.2877C25.8606 35.3089 25.9488 35.3529 26.0893 35.4247C26.3668 35.5666 26.7302 35.7569 27.1266 35.9669C27.9194 36.387 28.7128 36.8163 28.9482 36.9452L39.063 18.4816ZM34.1041 15.9406C33.9347 15.8717 33.3096 15.6139 32.5348 15.403C31.7244 15.1824 30.3419 14.8932 28.6308 15.0251C24.4026 15.3511 21.6781 17.8482 20.2858 19.7829L37.3735 32.0802C36.9472 32.6726 36.1531 33.617 34.8686 34.452C33.4787 35.3554 31.8836 35.8895 30.2491 36.0155C28.749 36.1311 27.5847 35.8742 27.005 35.7164C26.4608 35.5682 26.0787 35.4038 26.1699 35.4409L34.1041 15.9406ZM20.3027 19.7594C20.3486 19.696 20.3829 19.651 20.4003 19.6284C20.4098 19.616 20.4169 19.6069 20.4214 19.6012C20.4258 19.5955 20.4283 19.5924 20.4287 19.592C20.4289 19.5916 20.4233 19.5986 20.4109 19.6137C20.3987 19.6285 20.3821 19.6484 20.3608 19.6737C20.2692 19.7824 20.1408 19.9301 19.9855 20.1049C19.6719 20.4578 19.3622 20.793 19.2494 20.9129L34.5902 35.3308C34.802 35.1054 36.4737 33.3234 37.3566 32.1037L20.3027 19.7594ZM19.2619 20.8997C20.1353 19.9736 22.2193 18.206 25.51 17.9353C28.3626 17.7006 30.341 18.7769 30.7317 18.9914L20.5987 37.445C21.5551 37.9702 23.9852 39.1844 27.2359 38.917C30.9247 38.6136 33.3531 36.6425 34.5777 35.3441L19.2619 20.8997ZM30.7135 18.9814C30.3715 18.7945 30.05 18.6411 29.9566 18.5962C29.7778 18.5102 29.7438 18.4947 29.6374 18.4427C29.4944 18.3729 29.392 18.3192 29.2913 18.2605C29.1068 18.1528 28.8091 17.9587 28.4325 17.5966L13.8412 32.7725C15.5919 34.4557 17.2755 35.6238 18.6819 36.4444C19.3767 36.8497 19.9722 37.1517 20.3989 37.36C20.5773 37.4472 20.7962 37.5514 20.8343 37.5698C20.9579 37.6292 20.8175 37.5646 20.6169 37.455L30.7135 18.9814ZM28.4302 17.5944C28.2708 17.4412 28.038 17.1666 27.7866 16.7999C27.5515 16.4571 27.4007 16.1815 27.3627 16.1104L8.79571 26.0341C9.27047 26.9224 10.9795 30.0227 13.8435 32.7747L28.4302 17.5944ZM27.3597 16.1048C27.7928 16.914 28.2927 18.1512 28.435 19.7429C28.5845 21.4149 28.2972 23.0178 27.7166 24.4139C26.7623 26.7087 25.0707 28.0518 25.5114 27.6455L11.2412 12.1673C11.1997 12.2055 10.7211 12.6362 10.2276 13.2017C9.70223 13.8039 8.89414 14.8482 8.27791 16.33C6.75741 19.9862 7.45987 23.5384 8.79868 26.0397L27.3597 16.1048ZM25.522 27.6357C25.8206 27.3596 26.0663 27.1069 26.2329 26.9309C26.405 26.7491 26.556 26.5819 26.6618 26.4635C26.7531 26.3615 26.8801 26.2178 26.9199 26.173C26.9508 26.1382 26.9724 26.1139 26.9891 26.0955C27.0055 26.0772 27.012 26.0702 27.011 26.0713L11.5469 11.7857C11.3996 11.9452 11.2671 12.0938 11.1779 12.1943C11.1347 12.243 11.0846 12.2996 11.0542 12.3339C11.0182 12.3745 10.9921 12.4039 10.9698 12.4288C10.9212 12.4831 10.9198 12.4837 10.9443 12.4578C10.9635 12.4375 11.0666 12.3287 11.2306 12.1771L25.522 27.6357ZM27.0209 26.0605C27.6662 25.3601 28.1771 24.663 28.6023 23.9671C28.7849 23.6683 28.9256 23.412 29.0015 23.2722C29.0384 23.2042 29.0758 23.1343 29.0924 23.1034C29.1142 23.0629 29.124 23.0447 29.1313 23.0312L10.6511 12.9468C10.607 13.0277 10.5684 13.0996 10.5437 13.1455C10.5139 13.201 10.5069 13.2141 10.5002 13.2264C10.4889 13.2473 10.5456 13.1412 10.6384 12.9893C10.7414 12.8208 10.8786 12.6118 11.0504 12.3827C11.221 12.1551 11.3873 11.9591 11.537 11.7965L27.0209 26.0605ZM29.1233 23.0459C31.6375 18.456 30.2064 14.2569 29.4663 12.6266L10.2966 21.3293C10.1014 20.8995 9.62201 19.7616 9.51257 18.1773C9.39064 16.4124 9.75942 14.5748 10.6592 12.9321L29.1233 23.0459ZM29.4621 12.6174C29.5182 12.7408 29.5579 12.8349 29.5731 12.871C29.5918 12.9155 29.6046 12.9472 29.6095 12.9594C29.6189 12.9828 29.6194 12.9846 29.6075 12.9538C29.5843 12.894 29.5453 12.7915 29.4885 12.6401C29.3764 12.3416 29.2285 11.9422 29.0631 11.4935C28.7462 10.6338 28.3543 9.56372 28.1272 8.95474L8.40139 16.3104C8.6113 16.8733 8.96102 17.8289 9.30996 18.7754C9.47746 19.2298 9.64355 19.6786 9.77897 20.0393C9.84587 20.2175 9.91398 20.3974 9.97537 20.556C9.99304 20.6016 10.135 20.9743 10.3008 21.3386L29.4621 12.6174ZM28.1261 8.95184C27.5042 7.28541 25.9412 4.01709 22.1401 2.19802C20.3127 1.3235 18.6633 1.13971 17.6834 1.10222C17.2495 1.08562 16.8847 1.09797 16.8562 1.09874C16.7038 1.10279 17.0346 1.08947 17.4049 1.1036L16.6022 22.1409C16.8646 22.1509 17.0785 22.1499 17.2021 22.1483C17.2665 22.1475 17.3202 22.1463 17.3538 22.1455C17.3835 22.1448 17.4155 22.1439 17.4165 22.1439C17.4807 22.1422 17.2126 22.1522 16.8785 22.1395C16.0981 22.1096 14.6609 21.958 13.0521 21.188C9.68806 19.5781 8.58731 16.8085 8.40247 16.3133L28.1261 8.95184ZM17.4013 1.10346C17.5569 1.10935 17.6597 1.11857 17.6683 1.11933C17.6759 1.12 17.6722 1.11973 17.6488 1.1174C17.622 1.11474 17.5955 1.11202 17.5402 1.10636C17.4503 1.09718 17.2727 1.07894 17.0756 1.06225C16.872 1.04501 16.6019 1.0253 16.2908 1.01375L15.5092 22.0519C15.3904 22.0475 15.3123 22.0409 15.2991 22.0398C15.2925 22.0392 15.3037 22.0401 15.3996 22.0499C15.4664 22.0567 15.6403 22.0748 15.8184 22.0905C16.0054 22.107 16.2821 22.1288 16.6058 22.1411L17.4013 1.10346ZM16.291 1.01375C13.501 0.910065 9.81631 1.78567 6.83713 4.81011L21.8354 19.5839C19.9558 21.492 17.5303 22.127 15.5091 22.0519L16.291 1.01375ZM6.85321 4.79382C6.88094 4.7658 5.34762 6.17515 4.10827 8.18754C2.77106 10.3588 1.74655 13.1518 1.62007 16.5351L22.658 17.3216C22.6495 17.5477 22.606 17.8643 22.4894 18.2344C22.3735 18.602 22.2124 18.9379 22.0341 19.2274C21.7294 19.7222 21.2416 20.1841 21.8193 19.6002L6.85321 4.79382ZM1.62007 16.535C1.47856 20.3191 2.6758 23.4846 3.50342 25.2783C4.40058 27.2227 5.371 28.6189 5.6237 28.9826L22.9135 16.9711C22.89 16.9373 22.8842 16.9289 22.872 16.9105C22.858 16.8892 22.8347 16.8534 22.8056 16.8054C22.7423 16.7009 22.6742 16.5771 22.6193 16.4581C22.5934 16.402 22.5775 16.3622 22.5696 16.3406C22.5613 16.3183 22.5669 16.33 22.5787 16.3756C22.5904 16.4206 22.6136 16.52 22.6325 16.6696C22.6514 16.8195 22.6685 17.0405 22.658 17.3217L1.62007 16.535ZM5.61213 28.9659C5.10525 28.2333 10.3983 37.6753 19.5655 41.691L28.0127 22.4074C27.163 22.0351 26.0744 21.1693 24.9721 19.8782C24.4721 19.2926 24.0682 18.7357 23.7779 18.3068C23.6354 18.0961 23.5217 17.9185 23.4336 17.7782C23.3843 17.6997 23.3515 17.6466 23.2968 17.5586C23.2751 17.5237 23.236 17.4608 23.1944 17.3952C23.1708 17.3579 23.0629 17.187 22.9251 16.9878L5.61213 28.9659ZM19.5683 41.6922C22.5153 42.9821 25.1374 43.9705 27.5814 44.3002C29.1456 44.5112 30.4959 44.4447 31.6928 44.2432C31.885 44.2108 32.6595 44.0605 32.257 44.137C32.1325 44.1607 31.7398 44.2321 31.2189 44.2602L30.0857 23.2381C29.2999 23.2804 28.6744 23.3884 28.3229 23.4552C28.2402 23.471 28.1696 23.4851 28.1252 23.494C28.1032 23.4985 28.082 23.5028 28.0696 23.5053C28.0547 23.5083 28.0479 23.5097 28.0424 23.5108C28.0175 23.5158 28.0897 23.5009 28.1967 23.4829C28.4562 23.4392 28.8409 23.3895 29.3 23.3791C29.7451 23.3691 30.1183 23.3991 30.3956 23.4365C30.8829 23.5022 31.0088 23.5833 30.5332 23.4218C30.0839 23.2692 29.2955 22.9688 28.01 22.4062L19.5683 41.6922ZM31.2043 44.2609C34.211 44.1031 36.814 42.8177 38.2297 41.9755C39.5096 41.2141 42.8151 39.0761 44.4198 35.0644L24.8731 27.2453C25.5033 25.6699 26.3857 24.7775 26.692 24.486C27.0693 24.1271 27.3556 23.9482 27.4663 23.8824C27.5905 23.8084 27.7474 23.7272 27.9847 23.6391C28.0779 23.6045 28.8595 23.3024 30.1004 23.2373L31.2043 44.2609ZM44.4192 35.0659C45.0261 33.5494 45.3923 32.0489 45.5619 30.6811C45.6454 30.0083 45.7014 29.2068 45.6657 28.3388C45.6539 28.0505 45.6225 25.743 44.3076 23.3531L25.8625 33.5015C25.1007 32.1169 24.857 30.9098 24.7783 30.4873C24.6728 29.9206 24.6418 29.4691 24.6308 29.2025C24.6086 28.6616 24.6461 28.2778 24.6694 28.0902C24.7186 27.693 24.7979 27.4333 24.8737 27.2438L44.4192 35.0659ZM44.2993 23.338C43.4894 21.8717 42.5018 20.8735 41.7829 20.2583C41.086 19.6618 40.4493 19.264 40.114 19.0632C39.7695 18.8569 39.4532 18.6894 39.335 18.6265C39.1521 18.5293 39.126 18.5161 39.0589 18.4794L28.9523 36.9475C29.1677 37.0654 29.4009 37.188 29.4521 37.2153C29.5681 37.277 29.4609 37.2225 29.2988 37.1255C29.1457 37.0338 28.6646 36.7412 28.0944 36.2532C27.5023 35.7465 26.6129 34.8603 25.8708 33.5165L44.2993 23.338ZM23.4176 30.8547C21.7357 30.8547 20.1876 30.3564 18.8793 29.4916L7.27024 47.0541C11.8998 50.1143 17.4631 51.9073 23.4176 51.9073L23.4176 30.8547ZM9.86584 28.2476L2.64166 30.5599L9.05953 50.6105L16.2837 48.2981L9.86584 28.2476ZM15.8274 43.9417L18.1759 36.9612L-1.77783 30.2482L-4.12625 37.2287L15.8274 43.9417ZM16.717 27.4202C15.7223 26.0502 15.1456 24.392 15.1456 22.5827L-5.90707 22.5827C-5.90707 29.001 -3.82545 34.9596 -0.318943 39.7892L16.717 27.4202ZM15.1456 22.5827C15.1456 18.0288 18.8663 14.3092 23.4176 14.3092L23.4176 -6.74342C7.23824 -6.74342 -5.90707 6.40275 -5.90707 22.5827L15.1456 22.5827ZM23.4176 14.3092C27.9699 14.3092 31.6903 18.029 31.6903 22.5827L52.7429 22.5827C52.7429 6.40257 39.5976 -6.74342 23.4176 -6.74342L23.4176 14.3092ZM31.6903 22.5827C31.6903 27.1342 27.9704 30.8547 23.4176 30.8547L23.4176 51.9073C39.597 51.9073 52.7429 38.7617 52.7429 22.5827L31.6903 22.5827ZM23.4176 -10.5263C5.13224 -10.5263 -9.69057 4.29722 -9.69057 22.5827L11.3621 22.5827C11.3621 15.9237 16.7599 10.5263 23.4176 10.5263L23.4176 -10.5263ZM-9.69057 22.5827C-9.69057 28.8239 -7.95215 34.6877 -4.93465 39.6847L13.0871 28.8021C11.9929 26.9901 11.3621 24.8744 11.3621 22.5827L-9.69057 22.5827ZM-5.90054 30.8866L-9.97674 43.0015L9.97674 49.7151L14.0529 37.6002L-5.90054 30.8866ZM3.20923 56.3835L15.7124 52.381L9.29393 32.3307L-3.20923 36.3331L3.20923 56.3835ZM7.40963 51.5677C12.1614 54.1951 17.6289 55.6909 23.4176 55.6909L23.4176 34.6383C21.2885 34.6383 19.3152 34.0941 17.5967 33.1439L7.40963 51.5677ZM23.4176 55.6909C41.7024 55.6909 56.5265 40.8672 56.5265 22.5827L35.4739 22.5827C35.4739 29.2397 30.0758 34.6383 23.4176 34.6383L23.4176 55.6909ZM56.5265 22.5827C56.5265 4.29674 41.7024 -10.5263 23.4176 -10.5263L23.4176 10.5263C30.0757 10.5263 35.4739 15.9241 35.4739 22.5827L56.5265 22.5827Z" fill="#A5A5A5" mask="url(#path-1-inside-1_437_5462)"/>
</svg>
