<svg width="49" height="35" viewBox="0 0 49 35" fill="none" xmlns="http://www.w3.org/2000/svg">
<path d="M45.096 6.84C44.859 5.89082 44.3756 5.02114 43.6947 4.31881C43.0139 3.61648 42.1596 3.10637 41.2183 2.84C37.7787 2 24.0187 2 24.0187 2C24.0187 2 10.2587 2 6.81821 2.92C5.87655 3.18637 5.02173 3.69648 4.34007 4.39881C3.65842 5.10114 3.17408 5.97082 2.93597 6.92C2.30445 10.4111 1.99451 13.9526 2.01006 17.5C1.98562 21.0741 2.2916 24.6426 2.9241 28.16C3.1855 29.0797 3.67973 29.9163 4.35903 30.589C5.03832 31.2616 5.87973 31.7476 6.80195 32C10.2414 32.92 24.0014 32.92 24.0014 32.92C24.0014 32.92 37.7614 32.92 41.202 32C42.1436 31.7336 42.9984 31.2235 43.6801 30.5212C44.3617 29.8189 44.8461 28.9492 45.0842 28C45.7108 24.5352 46.0207 21.0207 46.0101 17.5C46.0345 13.9259 45.7285 10.3574 45.096 6.84Z" stroke="#A5A5A5" stroke-width="4" stroke-linecap="round" stroke-linejoin="round"/>
<path d="M19.5064 24.04L31.0101 17.5L19.5137 10.96L19.5064 24.04Z" stroke="#A5A5A5" stroke-width="4" stroke-linecap="round" stroke-linejoin="round"/>
</svg>
