<svg width="1920" height="936" viewBox="0 0 1920 936" fill="none" xmlns="http://www.w3.org/2000/svg">
<g clip-path="url(#clip0_384_5606)">
<rect width="1920" height="936" fill="white"/>
<rect width="1920" height="936" fill="#1D2431"/>
<g clip-path="url(#clip1_384_5606)">
<g opacity="0.73" clip-path="url(#clip2_384_5606)">
<path d="M1.98547 990.734L1920.84 986.999L1918.86 -32.9995L-0.000221003 -29.264L1.98547 990.734Z" fill="black"/>
<path opacity="0.19" d="M372.722 357.885L1272.15 678.397C1273.25 678.789 1274.74 678.632 1275.48 678.047C1276.22 677.462 1275.93 676.67 1274.83 676.278L375.401 355.766C374.302 355.374 372.811 355.531 372.071 356.116C371.332 356.701 371.623 357.493 372.722 357.885Z" fill="url(#paint0_linear_384_5606)"/>
<path opacity="0.48" d="M1569.23 816.509L2130.38 1016.47C2131.48 1016.87 2132.97 1016.71 2133.71 1016.12C2134.45 1015.54 2134.16 1014.75 2133.06 1014.36L1571.91 814.39C1570.81 813.998 1569.32 814.155 1568.58 814.741C1567.84 815.326 1568.13 816.118 1569.23 816.509Z" fill="url(#paint1_linear_384_5606)"/>
<path opacity="0.12" d="M1323.12 661.258L1977.79 894.552C1978.89 894.943 1980.38 894.786 1981.12 894.201C1981.86 893.616 1981.57 892.824 1980.47 892.432L1325.79 659.139C1324.7 658.747 1323.2 658.904 1322.46 659.49C1321.73 660.075 1322.02 660.867 1323.12 661.258Z" fill="url(#paint2_linear_384_5606)"/>
<path opacity="0.44" d="M321.927 393.482L1030.33 645.921C1031.43 646.312 1032.92 646.155 1033.66 645.57C1034.4 644.985 1034.11 644.193 1033.01 643.802L324.605 391.362C323.506 390.971 322.016 391.128 321.276 391.713C320.536 392.298 320.828 393.09 321.927 393.482Z" fill="url(#paint3_linear_384_5606)"/>
<path opacity="0.88" d="M825.469 793.86L1094.1 889.589C1095.2 889.98 1096.69 889.823 1097.43 889.238C1098.17 888.653 1097.88 887.861 1096.78 887.469L828.148 791.741C827.049 791.35 825.558 791.507 824.819 792.092C824.079 792.677 824.37 793.469 825.469 793.86Z" fill="url(#paint4_linear_384_5606)"/>
<path opacity="0.12" d="M-194.604 97.2639L336.698 286.593C337.797 286.985 339.287 286.828 340.027 286.243C340.766 285.657 340.475 284.866 339.376 284.474L-191.925 95.1446C-193.024 94.753 -194.515 94.9099 -195.254 95.4951C-195.994 96.0804 -195.703 96.8722 -194.604 97.2639Z" fill="url(#paint5_linear_384_5606)"/>
<path opacity="0.67" d="M1685.87 764.203L2018.18 882.622C2019.28 883.014 2020.77 882.857 2021.51 882.271C2022.25 881.686 2021.96 880.894 2020.86 880.503L1688.54 762.083C1687.45 761.692 1685.95 761.849 1685.22 762.434C1684.48 763.019 1684.77 763.811 1685.87 764.203Z" fill="url(#paint6_linear_384_5606)"/>
<path opacity="0.54" d="M78.048 463.966L338.724 556.858C339.823 557.249 341.313 557.092 342.053 556.507C342.793 555.922 342.501 555.13 341.402 554.739L80.7264 461.847C79.6274 461.455 78.1369 461.612 77.3973 462.197C76.6577 462.782 76.949 463.574 78.048 463.966Z" fill="url(#paint7_linear_384_5606)"/>
<path opacity="0.98" d="M1561.22 153.633L2150.22 363.526C2151.32 363.917 2152.81 363.76 2153.55 363.175C2154.29 362.59 2154 361.798 2152.9 361.407L1563.89 151.513C1562.8 151.122 1561.3 151.279 1560.57 151.864C1559.83 152.449 1560.12 153.241 1561.22 153.633Z" fill="url(#paint8_linear_384_5606)"/>
<path opacity="0.88" d="M721.058 397.384L1182.71 561.894C1183.81 562.286 1185.3 562.129 1186.04 561.544C1186.78 560.959 1186.49 560.167 1185.39 559.775L723.736 395.264C722.638 394.873 721.147 395.03 720.407 395.615C719.668 396.2 719.959 396.992 721.058 397.384Z" fill="url(#paint9_linear_384_5606)"/>
<path opacity="0.58" d="M983.968 382.082L1250.61 477.101C1251.71 477.493 1253.2 477.336 1253.94 476.751C1254.68 476.166 1254.39 475.374 1253.29 474.982L986.646 379.963C985.547 379.571 984.057 379.728 983.317 380.314C982.578 380.899 982.869 381.691 983.968 382.082Z" fill="url(#paint10_linear_384_5606)"/>
<path opacity="0.84" d="M1332.97 744.39L1872.23 936.556C1873.33 936.948 1874.82 936.791 1875.56 936.206C1876.3 935.62 1876.01 934.828 1874.91 934.437L1335.65 742.271C1334.55 741.879 1333.06 742.036 1332.32 742.622C1331.58 743.207 1331.87 743.999 1332.97 744.39Z" fill="url(#paint11_linear_384_5606)"/>
<path opacity="0.19" d="M714.347 74.3204L1605.82 391.996C1606.92 392.388 1608.41 392.231 1609.15 391.646C1609.89 391.061 1609.6 390.269 1608.5 389.877L717.025 72.2011C715.926 71.8095 714.436 71.9664 713.696 72.5517C712.956 73.1369 713.248 73.9287 714.347 74.3204Z" fill="url(#paint12_linear_384_5606)"/>
<path opacity="0.82" d="M-0.38862 231.657L248.348 320.294C249.447 320.686 250.937 320.529 251.677 319.944C252.417 319.359 252.125 318.567 251.026 318.175L2.28979 229.538C1.19083 229.146 -0.29968 229.303 -1.0393 229.888C-1.77893 230.474 -1.48759 231.265 -0.38862 231.657Z" fill="url(#paint13_linear_384_5606)"/>
<path opacity="0.84" d="M483.935 746.133L581.44 780.879C582.539 781.27 584.029 781.113 584.769 780.528C585.509 779.943 585.217 779.151 584.118 778.76L486.613 744.014C485.514 743.622 484.024 743.779 483.284 744.364C482.545 744.949 482.836 745.741 483.935 746.133Z" fill="url(#paint14_linear_384_5606)"/>
<path opacity="0.4" d="M243.41 755.456L462.298 833.456C463.397 833.848 464.888 833.691 465.627 833.106C466.367 832.521 466.076 831.729 464.977 831.337L246.088 753.336C244.989 752.945 243.499 753.102 242.759 753.687C242.02 754.272 242.311 755.064 243.41 755.456Z" fill="url(#paint15_linear_384_5606)"/>
<path opacity="0.42" d="M1588.38 293.393L2065.96 463.577C2067.06 463.969 2068.55 463.812 2069.29 463.227C2070.03 462.641 2069.73 461.849 2068.64 461.458L1591.06 291.274C1589.96 290.883 1588.47 291.039 1587.73 291.625C1586.99 292.21 1587.28 293.002 1588.38 293.393Z" fill="url(#paint16_linear_384_5606)"/>
<path opacity="0.91" d="M1440.12 282.316L1945.55 462.427C1946.65 462.819 1948.14 462.662 1948.88 462.077C1949.62 461.491 1949.33 460.699 1948.23 460.308L1442.8 280.197C1441.7 279.805 1440.21 279.962 1439.47 280.547C1438.73 281.133 1439.02 281.925 1440.12 282.316Z" fill="url(#paint17_linear_384_5606)"/>
<path opacity="0.14" d="M1189.53 -10.8802L1398.47 63.5751C1399.57 63.9667 1401.06 63.8098 1401.8 63.2245C1402.54 62.6393 1402.25 61.8474 1401.15 61.4558L1192.21 -12.9995C1191.11 -13.3911 1189.62 -13.2342 1188.88 -12.649C1188.14 -12.0638 1188.43 -11.2719 1189.53 -10.8802Z" fill="url(#paint18_linear_384_5606)"/>
<path opacity="0.08" d="M1652.52 705.357L1964.93 816.686C1966.03 817.078 1967.52 816.921 1968.26 816.335C1969 815.75 1968.71 814.958 1967.61 814.567L1655.2 703.238C1654.1 702.847 1652.61 703.004 1651.87 703.589C1651.13 704.174 1651.42 704.966 1652.52 705.357Z" fill="url(#paint19_linear_384_5606)"/>
<path opacity="0.24" d="M1327.81 455.575L2020.29 702.342C2021.39 702.733 2022.88 702.576 2023.62 701.991C2024.36 701.406 2024.07 700.614 2022.97 700.222L1330.49 453.456C1329.39 453.065 1327.9 453.222 1327.16 453.807C1326.42 454.392 1326.71 455.184 1327.81 455.575Z" fill="url(#paint20_linear_384_5606)"/>
<path opacity="0.19" d="M262.337 66.9142L666.285 210.861C667.384 211.253 668.875 211.096 669.615 210.511C670.354 209.925 670.063 209.134 668.964 208.742L265.016 64.795C263.917 64.4033 262.426 64.5603 261.687 65.1455C260.947 65.7307 261.238 66.5226 262.337 66.9142Z" fill="url(#paint21_linear_384_5606)"/>
<path opacity="0.2" d="M-384.835 586.172L572.303 927.248C573.402 927.64 574.893 927.483 575.632 926.898C576.372 926.313 576.08 925.521 574.981 925.129L-382.157 584.053C-383.256 583.661 -384.746 583.818 -385.486 584.403C-386.226 584.989 -385.934 585.78 -384.835 586.172Z" fill="url(#paint22_linear_384_5606)"/>
<path opacity="0.32" d="M1560.5 383.546L2161.44 597.693C2162.54 598.085 2164.03 597.928 2164.77 597.343C2165.51 596.757 2165.22 595.966 2164.12 595.574L1563.17 381.426C1562.07 381.035 1560.58 381.192 1559.84 381.777C1559.1 382.362 1559.4 383.154 1560.5 383.546Z" fill="url(#paint23_linear_384_5606)"/>
<path opacity="0.52" d="M197.408 704.947L983.415 985.04C984.514 985.432 986.005 985.275 986.744 984.69C987.484 984.105 987.193 983.313 986.094 982.921L200.086 702.827C198.987 702.436 197.497 702.593 196.757 703.178C196.017 703.763 196.309 704.555 197.408 704.947Z" fill="url(#paint24_linear_384_5606)"/>
<path opacity="0.7" d="M736.216 799.619L1500.34 1071.91C1501.43 1072.3 1502.92 1072.15 1503.66 1071.56C1504.4 1070.98 1504.11 1070.19 1503.01 1069.79L738.895 797.5C737.796 797.108 736.305 797.265 735.566 797.85C734.826 798.436 735.118 799.228 736.216 799.619Z" fill="url(#paint25_linear_384_5606)"/>
<path opacity="0.22" d="M33.1279 632L110.734 659.655C111.833 660.047 113.323 659.89 114.063 659.305C114.802 658.719 114.511 657.928 113.412 657.536L35.8063 629.881C34.7073 629.489 33.2169 629.646 32.4772 630.232C31.7376 630.817 32.0289 631.609 33.1279 632Z" fill="url(#paint26_linear_384_5606)"/>
<path opacity="0.91" d="M797.029 912.176L1031.84 995.85C1032.94 996.242 1034.43 996.085 1035.17 995.499C1035.91 994.914 1035.61 994.122 1034.51 993.731L799.707 910.057C798.608 909.665 797.118 909.822 796.378 910.408C795.639 910.993 795.93 911.785 797.029 912.176Z" fill="url(#paint27_linear_384_5606)"/>
<path opacity="0.5" d="M69.3198 859.558L598.631 1048.18C599.73 1048.57 601.221 1048.41 601.96 1047.83C602.7 1047.24 602.409 1046.45 601.31 1046.06L71.9982 857.439C70.8992 857.047 69.4087 857.204 68.6691 857.789C67.9294 858.374 68.2208 859.166 69.3198 859.558Z" fill="url(#paint28_linear_384_5606)"/>
<path opacity="0.37" d="M395.228 51.1694L1262.82 360.336C1263.92 360.728 1265.41 360.571 1266.15 359.986C1266.89 359.401 1266.6 358.609 1265.5 358.217L397.907 49.0501C396.808 48.6585 395.317 48.8154 394.578 49.4007C393.838 49.9859 394.129 50.7778 395.228 51.1694Z" fill="url(#paint29_linear_384_5606)"/>
<path opacity="0.32" d="M998.561 633.037L1308.98 743.656C1310.08 744.048 1311.57 743.891 1312.31 743.306C1313.05 742.72 1312.76 741.928 1311.66 741.537L1001.24 630.918C1000.14 630.526 998.65 630.683 997.911 631.268C997.171 631.853 997.462 632.645 998.561 633.037Z" fill="url(#paint30_linear_384_5606)"/>
<path opacity="0.33" d="M1188.07 383.606L1387.06 454.516C1388.16 454.907 1389.65 454.75 1390.39 454.165C1391.13 453.58 1390.84 452.788 1389.74 452.396L1190.75 381.486C1189.65 381.095 1188.16 381.252 1187.42 381.837C1186.68 382.422 1186.98 383.214 1188.07 383.606Z" fill="url(#paint31_linear_384_5606)"/>
<path opacity="0.22" d="M1437.57 641.245L1690.28 731.301C1691.38 731.692 1692.87 731.535 1693.61 730.95C1694.35 730.365 1694.06 729.573 1692.96 729.181L1440.25 639.126C1439.15 638.734 1437.66 638.891 1436.92 639.476C1436.18 640.062 1436.47 640.854 1437.57 641.245Z" fill="url(#paint32_linear_384_5606)"/>
<path opacity="0.13" d="M322.853 491.864L852.164 680.484C853.263 680.875 854.754 680.718 855.494 680.133C856.233 679.548 855.942 678.756 854.843 678.365L325.531 489.744C324.432 489.353 322.942 489.51 322.202 490.095C321.463 490.68 321.754 491.472 322.853 491.864Z" fill="url(#paint33_linear_384_5606)"/>
<path opacity="0.71" d="M-141.603 -43.4783L662.314 242.997C663.413 243.389 664.903 243.232 665.643 242.647C666.383 242.062 666.091 241.27 664.992 240.878L-138.925 -45.5976C-140.023 -45.9892 -141.514 -45.8323 -142.254 -45.247C-142.993 -44.6618 -142.702 -43.8699 -141.603 -43.4783Z" fill="url(#paint34_linear_384_5606)"/>
<path opacity="0.2" d="M144.929 475.757L751.846 692.032C752.945 692.424 754.436 692.267 755.175 691.682C755.915 691.096 755.623 690.304 754.524 689.913L147.607 473.638C146.508 473.246 145.018 473.403 144.278 473.988C143.538 474.574 143.83 475.365 144.929 475.757Z" fill="url(#paint35_linear_384_5606)"/>
<path opacity="0.37" d="M-90.9127 585.51L517.994 802.494C519.093 802.886 520.584 802.729 521.324 802.143C522.063 801.558 521.772 800.766 520.673 800.375L-88.2343 583.391C-89.3332 582.999 -90.8238 583.156 -91.5634 583.741C-92.303 584.326 -92.0117 585.118 -90.9127 585.51Z" fill="url(#paint36_linear_384_5606)"/>
<path opacity="0.8" d="M1506.85 889.434L1775.49 985.162C1776.59 985.554 1778.08 985.397 1778.82 984.812C1779.56 984.227 1779.26 983.435 1778.17 983.043L1509.53 887.315C1508.43 886.923 1506.94 887.08 1506.2 887.665C1505.46 888.251 1505.75 889.043 1506.85 889.434Z" fill="url(#paint37_linear_384_5606)"/>
<path opacity="0.61" d="M581.533 615.148L953.643 747.749C954.742 748.141 956.232 747.984 956.972 747.398C957.712 746.813 957.42 746.021 956.321 745.63L584.211 613.028C583.112 612.637 581.622 612.794 580.882 613.379C580.143 613.964 580.434 614.756 581.533 615.148Z" fill="url(#paint38_linear_384_5606)"/>
<path opacity="0.85" d="M934.582 515.084L1790.24 819.996C1791.33 820.388 1792.83 820.231 1793.56 819.646C1794.3 819.061 1794.01 818.269 1792.91 817.877L937.26 512.965C936.161 512.573 934.671 512.73 933.931 513.315C933.191 513.901 933.483 514.692 934.582 515.084Z" fill="url(#paint39_linear_384_5606)"/>
<path opacity="0.42" d="M-2.27636 909.522L320.086 1024.4C321.185 1024.79 322.676 1024.63 323.415 1024.05C324.155 1023.46 323.864 1022.67 322.765 1022.28L0.40205 907.403C-0.696943 907.011 -2.18742 907.168 -2.92704 907.753C-3.66667 908.338 -3.37536 909.13 -2.27636 909.522Z" fill="url(#paint40_linear_384_5606)"/>
<path opacity="0.75" d="M1089.97 456.796L1557.6 623.434C1558.7 623.826 1560.19 623.669 1560.93 623.084C1561.66 622.499 1561.37 621.707 1560.27 621.315L1092.65 454.677C1091.55 454.285 1090.06 454.442 1089.32 455.028C1088.58 455.613 1088.87 456.405 1089.97 456.796Z" fill="url(#paint41_linear_384_5606)"/>
<path opacity="0.52" d="M1543.67 886.754L1983.43 1043.47C1984.53 1043.86 1986.02 1043.7 1986.76 1043.11C1987.5 1042.53 1987.21 1041.74 1986.11 1041.35L1546.35 884.635C1545.25 884.244 1543.76 884.401 1543.02 884.986C1542.28 885.571 1542.57 886.363 1543.67 886.754Z" fill="url(#paint42_linear_384_5606)"/>
<path opacity="0.47" d="M415.073 492.223L663.81 580.861C664.909 581.252 666.399 581.095 667.139 580.51C667.879 579.925 667.587 579.133 666.488 578.741L417.752 490.104C416.653 489.713 415.162 489.869 414.423 490.455C413.683 491.04 413.974 491.832 415.073 492.223Z" fill="url(#paint43_linear_384_5606)"/>
<path opacity="0.92" d="M1806.29 9.78681L1971.45 68.642C1972.55 69.0336 1974.04 68.8767 1974.78 68.2914C1975.52 67.7062 1975.23 66.9143 1974.13 66.5227L1808.97 7.66754C1807.87 7.27592 1806.38 7.43286 1805.64 8.01808C1804.9 8.6033 1805.19 9.39518 1806.29 9.78681Z" fill="url(#paint44_linear_384_5606)"/>
<path opacity="0.69" d="M1556.87 328.002L2112.05 525.84C2113.15 526.232 2114.64 526.075 2115.38 525.49C2116.12 524.904 2115.83 524.113 2114.73 523.721L1559.55 325.883C1558.45 325.491 1556.96 325.648 1556.22 326.233C1555.48 326.818 1555.77 327.61 1556.87 328.002Z" fill="url(#paint45_linear_384_5606)"/>
<path opacity="0.32" d="M271.598 885.557L703.405 1039.43C704.504 1039.82 705.994 1039.67 706.734 1039.08C707.473 1038.5 707.182 1037.7 706.083 1037.31L274.276 883.438C273.177 883.046 271.687 883.203 270.947 883.788C270.208 884.374 270.499 885.166 271.598 885.557Z" fill="url(#paint46_linear_384_5606)"/>
<path opacity="0.85" d="M773.388 699.599L992.276 777.599C993.375 777.991 994.865 777.834 995.605 777.249C996.344 776.664 996.053 775.872 994.954 775.48L776.066 697.479C774.967 697.088 773.476 697.245 772.737 697.83C771.997 698.415 772.289 699.207 773.388 699.599Z" fill="url(#paint47_linear_384_5606)"/>
<path opacity="0.95" d="M1264.66 375.392L1636.77 507.994C1637.87 508.385 1639.36 508.228 1640.1 507.643C1640.84 507.058 1640.55 506.266 1639.45 505.874L1267.34 373.273C1266.24 372.881 1264.75 373.038 1264.01 373.623C1263.27 374.209 1263.56 375.001 1264.66 375.392Z" fill="url(#paint48_linear_384_5606)"/>
<path opacity="0.68" d="M214.957 532.145L883.561 770.402C884.66 770.793 886.15 770.636 886.89 770.051C887.63 769.466 887.338 768.674 886.239 768.282L217.635 530.025C216.536 529.634 215.046 529.791 214.306 530.376C213.567 530.961 213.858 531.753 214.957 532.145Z" fill="url(#paint49_linear_384_5606)"/>
<path opacity="0.99" d="M238.342 668.489L572.644 787.618C573.743 788.009 575.233 787.852 575.973 787.267C576.713 786.682 576.421 785.89 575.322 785.498L241.02 666.37C239.921 665.978 238.431 666.135 237.691 666.72C236.952 667.306 237.243 668.097 238.342 668.489Z" fill="url(#paint50_linear_384_5606)"/>
<path opacity="0.57" d="M1046.89 580.093L1303.59 671.566C1304.69 671.958 1306.18 671.801 1306.92 671.216C1307.66 670.631 1307.36 669.839 1306.26 669.447L1049.57 577.973C1048.47 577.582 1046.98 577.739 1046.24 578.324C1045.5 578.909 1045.79 579.701 1046.89 580.093Z" fill="url(#paint51_linear_384_5606)"/>
<path opacity="0.09" d="M1484.79 391.153L1944.45 554.955C1945.55 555.347 1947.04 555.19 1947.78 554.604C1948.52 554.019 1948.23 553.227 1947.13 552.836L1487.47 389.034C1486.37 388.642 1484.88 388.799 1484.14 389.384C1483.4 389.97 1483.69 390.762 1484.79 391.153Z" fill="url(#paint52_linear_384_5606)"/>
<path opacity="0.9" d="M512.34 266.426L824.753 377.755C825.852 378.146 827.343 377.989 828.082 377.404C828.822 376.819 828.531 376.027 827.432 375.636L515.019 264.307C513.92 263.915 512.429 264.072 511.689 264.658C510.95 265.243 511.241 266.035 512.34 266.426Z" fill="url(#paint53_linear_384_5606)"/>
<path opacity="0.36" d="M23.9501 444.987L248.808 525.116C249.907 525.507 251.397 525.35 252.137 524.765C252.877 524.18 252.585 523.388 251.486 522.996L26.6285 442.868C25.5295 442.477 24.039 442.634 23.2994 443.219C22.5598 443.804 22.8511 444.596 23.9501 444.987Z" fill="url(#paint54_linear_384_5606)"/>
<path opacity="0.33" d="M185.643 831.053L424.43 916.145C425.529 916.537 427.02 916.38 427.759 915.794C428.499 915.209 428.207 914.417 427.108 914.026L188.321 828.934C187.222 828.542 185.732 828.699 184.992 829.284C184.253 829.87 184.544 830.661 185.643 831.053Z" fill="url(#paint55_linear_384_5606)"/>
<path opacity="0.75" d="M515.316 0.577579L710.326 70.0692C711.425 70.4608 712.915 70.3039 713.655 69.7187C714.394 69.1335 714.103 68.3416 713.004 67.95L517.994 -1.54169C516.895 -1.93331 515.405 -1.77637 514.665 -1.19115C513.926 -0.605936 514.217 0.185953 515.316 0.577579Z" fill="url(#paint56_linear_384_5606)"/>
<path opacity="0.97" d="M-19.0102 326.561L454.584 495.326C455.683 495.718 457.174 495.561 457.913 494.976C458.653 494.39 458.362 493.598 457.263 493.207L-16.3318 324.441C-17.4307 324.05 -18.9213 324.207 -19.6609 324.792C-20.4005 325.377 -20.1092 326.169 -19.0102 326.561Z" fill="url(#paint57_linear_384_5606)"/>
<path opacity="0.83" d="M828.819 231.886L1501.4 471.561C1502.5 471.953 1503.99 471.796 1504.73 471.211C1505.47 470.626 1505.18 469.834 1504.08 469.442L831.497 229.767C830.398 229.375 828.908 229.532 828.168 230.117C827.429 230.703 827.72 231.495 828.819 231.886Z" fill="url(#paint58_linear_384_5606)"/>
<path opacity="0.35" d="M1586.26 72.9858L2105.63 258.06C2106.72 258.452 2108.21 258.295 2108.95 257.71C2109.69 257.125 2109.4 256.333 2108.3 255.941L1588.94 70.8665C1587.84 70.4749 1586.35 70.6318 1585.61 71.217C1584.87 71.8022 1585.16 72.5941 1586.26 72.9858Z" fill="url(#paint59_linear_384_5606)"/>
<path opacity="0.61" d="M1046.66 499.585L1581.94 690.332C1583.04 690.724 1584.53 690.567 1585.27 689.982C1586.01 689.397 1585.71 688.605 1584.62 688.213L1049.33 497.466C1048.24 497.074 1046.74 497.231 1046.01 497.816C1045.27 498.401 1045.56 499.193 1046.66 499.585Z" fill="url(#paint60_linear_384_5606)"/>
<path opacity="0.15" d="M-54.3472 396.366L691.863 662.278C692.962 662.669 694.452 662.512 695.192 661.927C695.931 661.342 695.64 660.55 694.541 660.158L-51.6688 394.247C-52.7678 393.855 -54.2582 394.012 -54.9978 394.597C-55.7375 395.182 -55.4462 395.974 -54.3472 396.366Z" fill="url(#paint61_linear_384_5606)"/>
<path opacity="0.38" d="M1515.26 -52.1923L1801.8 49.9179C1802.9 50.3095 1804.39 50.1525 1805.13 49.5673C1805.87 48.9821 1805.58 48.1902 1804.48 47.7986L1517.94 -54.3116C1516.84 -54.7032 1515.35 -54.5463 1514.61 -53.961C1513.87 -53.3758 1514.16 -52.5839 1515.26 -52.1923Z" fill="url(#paint62_linear_384_5606)"/>
<path opacity="0.3" d="M997.422 668.421L1459.08 832.932C1460.18 833.324 1461.67 833.167 1462.41 832.581C1463.15 831.996 1462.85 831.204 1461.76 830.813L1000.1 666.302C999.002 665.91 997.511 666.067 996.772 666.652C996.032 667.238 996.323 668.03 997.422 668.421Z" fill="url(#paint63_linear_384_5606)"/>
<path opacity="0.99" d="M1690.59 285.371L1891.57 356.99C1892.67 357.381 1894.16 357.224 1894.9 356.639C1895.64 356.054 1895.35 355.262 1894.25 354.87L1693.27 283.251C1692.17 282.86 1690.68 283.017 1689.94 283.602C1689.2 284.187 1689.49 284.979 1690.59 285.371Z" fill="url(#paint64_linear_384_5606)"/>
<path opacity="0.86" d="M1384.29 -14.2913L1702.68 99.1644C1703.77 99.5561 1705.26 99.3991 1706 98.8139C1706.74 98.2287 1706.45 97.4368 1705.35 97.0452L1386.97 -16.4106C1385.87 -16.8022 1384.38 -16.6452 1383.64 -16.06C1382.9 -15.4748 1383.19 -14.6829 1384.29 -14.2913Z" fill="url(#paint65_linear_384_5606)"/>
<path opacity="0.46" d="M948.344 443.407L1228.92 543.39C1230.02 543.781 1231.51 543.624 1232.25 543.039C1232.99 542.454 1232.7 541.662 1231.6 541.27L951.023 441.287C949.924 440.896 948.433 441.053 947.694 441.638C946.954 442.223 947.245 443.015 948.344 443.407Z" fill="url(#paint66_linear_384_5606)"/>
<path opacity="0.85" d="M1514.9 375.252L1650.21 423.471C1651.31 423.862 1652.8 423.705 1653.54 423.12C1654.28 422.535 1653.99 421.743 1652.89 421.351L1517.58 373.133C1516.48 372.741 1514.99 372.898 1514.25 373.483C1513.51 374.068 1513.8 374.86 1514.9 375.252Z" fill="url(#paint67_linear_384_5606)"/>
<path opacity="0.68" d="M1206.75 94.2818L1348.03 144.628C1349.13 145.019 1350.62 144.863 1351.36 144.277C1352.1 143.692 1351.81 142.9 1350.71 142.509L1209.43 92.1626C1208.33 91.7709 1206.84 91.9279 1206.1 92.5131C1205.36 93.0983 1205.65 93.8902 1206.75 94.2818Z" fill="url(#paint68_linear_384_5606)"/>
<path opacity="0.41" d="M320.555 -34.0301L511.584 34.0433C512.683 34.435 514.174 34.278 514.913 33.6928C515.653 33.1076 515.362 32.3157 514.263 31.9241L323.233 -36.1494C322.134 -36.541 320.644 -36.3841 319.904 -35.7988C319.164 -35.2136 319.456 -34.4217 320.555 -34.0301Z" fill="url(#paint69_linear_384_5606)"/>
<path opacity="0.78" d="M1370.8 494.137L1420.54 511.864C1421.64 512.256 1423.13 512.099 1423.87 511.514C1424.61 510.928 1424.32 510.137 1423.22 509.745L1373.47 492.017C1372.37 491.626 1370.88 491.783 1370.14 492.368C1369.4 492.953 1369.7 493.745 1370.8 494.137Z" fill="url(#paint70_linear_384_5606)"/>
<path opacity="0.93" d="M720.05 765.248L978.736 857.431C979.835 857.822 981.325 857.665 982.065 857.08C982.804 856.495 982.513 855.703 981.414 855.311L722.728 763.129C721.629 762.737 720.139 762.894 719.399 763.479C718.659 764.064 718.951 764.856 720.05 765.248Z" fill="url(#paint71_linear_384_5606)"/>
<path opacity="0.4" d="M10.1203 493.622L646.886 720.534C647.985 720.925 649.476 720.768 650.215 720.183C650.955 719.598 650.663 718.806 649.564 718.414L12.7987 491.503C11.6997 491.111 10.2092 491.268 9.46961 491.853C8.72999 492.439 9.02133 493.23 10.1203 493.622Z" fill="url(#paint72_linear_384_5606)"/>
<path opacity="0.76" d="M333.72 648.979L1081.92 915.6C1083.02 915.992 1084.51 915.835 1085.25 915.25C1085.99 914.665 1085.7 913.873 1084.6 913.481L336.398 646.86C335.299 646.469 333.809 646.626 333.069 647.211C332.329 647.796 332.621 648.588 333.72 648.979Z" fill="url(#paint73_linear_384_5606)"/>
<path opacity="0.67" d="M1249.46 364.875L1858.37 581.859C1859.47 582.251 1860.96 582.094 1861.7 581.509C1862.44 580.924 1862.15 580.132 1861.05 579.74L1252.14 362.756C1251.04 362.364 1249.55 362.521 1248.81 363.106C1248.07 363.692 1248.36 364.484 1249.46 364.875Z" fill="url(#paint74_linear_384_5606)"/>
<path opacity="0.1" d="M398.709 324.305L1015.58 544.126C1016.67 544.517 1018.17 544.361 1018.9 543.775C1019.64 543.19 1019.35 542.398 1018.25 542.007L401.387 322.186C400.288 321.794 398.798 321.951 398.058 322.537C397.318 323.122 397.61 323.914 398.709 324.305Z" fill="url(#paint75_linear_384_5606)"/>
<path opacity="0.88" d="M-119.38 491.369L296.508 639.571C297.607 639.962 299.098 639.805 299.837 639.22C300.577 638.635 300.286 637.843 299.187 637.451L-116.701 489.25C-117.8 488.858 -119.291 489.015 -120.03 489.6C-120.77 490.186 -120.479 490.977 -119.38 491.369Z" fill="url(#paint76_linear_384_5606)"/>
<path opacity="0.19" d="M373.636 854.215L481.09 892.507C482.189 892.898 483.68 892.741 484.419 892.156C485.159 891.571 484.868 890.779 483.769 890.387L376.314 852.096C375.215 851.705 373.725 851.861 372.985 852.447C372.246 853.032 372.537 853.824 373.636 854.215Z" fill="url(#paint77_linear_384_5606)"/>
<path opacity="0.78" d="M315.918 587.734L950.694 813.936C951.793 814.328 953.283 814.171 954.023 813.585C954.762 813 954.471 812.208 953.372 811.817L318.596 585.614C317.497 585.223 316.007 585.38 315.267 585.965C314.528 586.55 314.819 587.342 315.918 587.734Z" fill="url(#paint78_linear_384_5606)"/>
<path opacity="0.25" d="M-51.2203 805.356L205.476 896.829C206.575 897.221 208.065 897.064 208.805 896.479C209.545 895.894 209.253 895.102 208.154 894.71L-48.5419 803.237C-49.6409 802.845 -51.1313 803.002 -51.871 803.587C-52.6106 804.172 -52.3193 804.964 -51.2203 805.356Z" fill="url(#paint79_linear_384_5606)"/>
<path opacity="0.67" d="M1452.03 233.794L1573.41 277.049C1574.51 277.441 1576 277.284 1576.74 276.699C1577.48 276.113 1577.19 275.322 1576.09 274.93L1454.7 231.675C1453.6 231.283 1452.11 231.44 1451.37 232.025C1450.63 232.611 1450.93 233.403 1452.03 233.794Z" fill="url(#paint80_linear_384_5606)"/>
<path opacity="0.53" d="M824.169 466.21L1377.36 663.339C1378.46 663.731 1379.95 663.574 1380.69 662.989C1381.43 662.403 1381.14 661.612 1380.04 661.22L826.847 464.091C825.748 463.699 824.257 463.856 823.518 464.441C822.778 465.026 823.07 465.818 824.169 466.21Z" fill="url(#paint81_linear_384_5606)"/>
<path opacity="0.75" d="M1457.12 572.559L1900.86 730.688C1901.96 731.08 1903.45 730.923 1904.19 730.338C1904.93 729.753 1904.64 728.961 1903.54 728.569L1459.8 570.44C1458.7 570.049 1457.21 570.205 1456.47 570.791C1455.73 571.376 1456.02 572.168 1457.12 572.559Z" fill="url(#paint82_linear_384_5606)"/>
<path opacity="0.16" d="M-0.756566 510.167L437.02 666.169C438.119 666.56 439.609 666.404 440.349 665.818C441.089 665.233 440.797 664.441 439.698 664.05L1.92185 508.048C0.822852 507.656 -0.667626 507.813 -1.40725 508.398C-2.14687 508.984 -1.85556 509.776 -0.756566 510.167Z" fill="url(#paint83_linear_384_5606)"/>
<path opacity="0.97" d="M1027.65 78.637L1642.53 297.748C1643.63 298.14 1645.12 297.983 1645.86 297.398C1646.6 296.813 1646.31 296.021 1645.21 295.629L1030.33 76.5177C1029.23 76.1261 1027.74 76.2831 1027 76.8683C1026.26 77.4535 1026.55 78.2454 1027.65 78.637Z" fill="url(#paint84_linear_384_5606)"/>
<path opacity="0.31" d="M1627.94 53.2656L1737.38 92.266C1738.48 92.6576 1739.97 92.5007 1740.71 91.9155C1741.45 91.3302 1741.16 90.5384 1740.06 90.1467L1630.62 51.1463C1629.52 50.7547 1628.03 50.9116 1627.29 51.4969C1626.55 52.0821 1626.84 52.874 1627.94 53.2656Z" fill="url(#paint85_linear_384_5606)"/>
<path opacity="0.57" d="M841.204 814.872L1227.24 952.437C1228.34 952.829 1229.83 952.672 1230.57 952.087C1231.31 951.502 1231.02 950.71 1229.92 950.318L843.883 812.753C842.784 812.361 841.293 812.518 840.554 813.104C839.814 813.689 840.105 814.481 841.204 814.872Z" fill="url(#paint86_linear_384_5606)"/>
<path opacity="0.55" d="M-50.9326 -91.3468L528.126 115.001C529.225 115.392 530.716 115.236 531.455 114.65C532.195 114.065 531.904 113.273 530.805 112.882L-48.2542 -93.4661C-49.3532 -93.8577 -50.8436 -93.7007 -51.5832 -93.1155C-52.3229 -92.5303 -52.0316 -91.7384 -50.9326 -91.3468Z" fill="url(#paint87_linear_384_5606)"/>
<path opacity="0.81" d="M716.761 576.307L1005.3 679.126C1006.39 679.517 1007.88 679.361 1008.62 678.775C1009.36 678.19 1009.07 677.398 1007.97 677.007L719.439 574.187C718.34 573.796 716.85 573.953 716.11 574.538C715.371 575.123 715.662 575.915 716.761 576.307Z" fill="url(#paint88_linear_384_5606)"/>
<path opacity="0.92" d="M1520.44 650.652L1890.56 782.544C1891.66 782.935 1893.15 782.779 1893.89 782.193C1894.63 781.608 1894.34 780.816 1893.24 780.425L1523.12 648.532C1522.02 648.141 1520.53 648.298 1519.79 648.883C1519.05 649.468 1519.34 650.26 1520.44 650.652Z" fill="url(#paint89_linear_384_5606)"/>
<path opacity="0.44" d="M749.38 673.696L1597.07 975.772C1598.17 976.163 1599.66 976.007 1600.4 975.421C1601.14 974.836 1600.85 974.044 1599.75 973.653L752.059 671.577C750.96 671.185 749.469 671.342 748.729 671.927C747.99 672.512 748.281 673.304 749.38 673.696Z" fill="url(#paint90_linear_384_5606)"/>
<path opacity="0.23" d="M26.9594 544.451L721.432 791.927C722.531 792.318 724.021 792.161 724.761 791.576C725.501 790.991 725.209 790.199 724.11 789.807L29.6378 542.332C28.5388 541.94 27.0483 542.097 26.3087 542.683C25.569 543.268 25.8604 544.06 26.9594 544.451Z" fill="url(#paint91_linear_384_5606)"/>
<path d="M105.436 327.352L238.759 374.862C239.858 375.253 241.349 375.096 242.088 374.511C242.828 373.926 242.537 373.134 241.438 372.742L108.115 325.233C107.016 324.841 105.525 324.998 104.786 325.583C104.046 326.169 104.337 326.96 105.436 327.352Z" fill="url(#paint92_linear_384_5606)"/>
<path opacity="0.85" d="M1015.38 432.8L1411.37 573.911C1412.47 574.302 1413.96 574.145 1414.7 573.56C1415.44 572.975 1415.15 572.183 1414.05 571.791L1018.06 430.681C1016.96 430.289 1015.47 430.446 1014.73 431.031C1013.99 431.616 1014.28 432.408 1015.38 432.8Z" fill="url(#paint93_linear_384_5606)"/>
<path opacity="0.34" d="M1352.22 913.096L1632.8 1013.08C1633.89 1013.47 1635.38 1013.31 1636.12 1012.73C1636.86 1012.14 1636.57 1011.35 1635.47 1010.96L1354.9 910.977C1353.8 910.585 1352.31 910.742 1351.57 911.327C1350.83 911.913 1351.12 912.704 1352.22 913.096Z" fill="url(#paint94_linear_384_5606)"/>
<path opacity="0.72" d="M574.037 125.635L1429.69 430.548C1430.79 430.939 1432.28 430.782 1433.02 430.197C1433.76 429.612 1433.47 428.82 1432.37 428.428L576.715 123.516C575.616 123.124 574.126 123.281 573.386 123.867C572.646 124.452 572.938 125.244 574.037 125.635Z" fill="url(#paint95_linear_384_5606)"/>
<path opacity="0.45" d="M256.621 428.689L342.186 459.18C343.285 459.572 344.775 459.415 345.515 458.83C346.255 458.244 345.963 457.452 344.864 457.061L259.299 426.57C258.2 426.178 256.709 426.335 255.97 426.92C255.23 427.505 255.522 428.297 256.621 428.689Z" fill="url(#paint96_linear_384_5606)"/>
<path opacity="0.33" d="M-160.471 -66.016L321.083 105.586C322.182 105.977 323.673 105.821 324.412 105.235C325.152 104.65 324.861 103.858 323.762 103.467L-157.792 -68.1353C-158.891 -68.5269 -160.382 -68.3699 -161.121 -67.7847C-161.861 -67.1995 -161.57 -66.4076 -160.471 -66.016Z" fill="url(#paint97_linear_384_5606)"/>
<path opacity="0.15" d="M828.988 310.297L1199.11 442.189C1200.21 442.58 1201.7 442.424 1202.44 441.838C1203.18 441.253 1202.89 440.461 1201.79 440.07L831.666 308.177C830.567 307.786 829.077 307.943 828.337 308.528C827.597 309.113 827.889 309.905 828.988 310.297Z" fill="url(#paint98_linear_384_5606)"/>
<path opacity="0.32" d="M1009.82 614.458L1744.09 876.116C1745.19 876.507 1746.68 876.35 1747.42 875.765C1748.16 875.18 1747.86 874.388 1746.77 873.996L1012.5 612.339C1011.4 611.947 1009.91 612.104 1009.17 612.69C1008.43 613.275 1008.72 614.067 1009.82 614.458Z" fill="url(#paint99_linear_384_5606)"/>
<path opacity="0.74" d="M1298.67 838.043L1642.92 960.717C1644.02 961.108 1645.51 960.951 1646.25 960.366C1646.99 959.781 1646.7 958.989 1645.6 958.597L1301.35 835.923C1300.25 835.532 1298.76 835.689 1298.02 836.274C1297.28 836.859 1297.57 837.651 1298.67 838.043Z" fill="url(#paint100_linear_384_5606)"/>
<path opacity="0.79" d="M-315.226 -40.1243L514.559 255.57C515.658 255.961 517.148 255.804 517.888 255.219C518.628 254.634 518.336 253.842 517.237 253.45L-312.548 -42.2436C-313.647 -42.6352 -315.137 -42.4783 -315.877 -41.8931C-316.617 -41.3078 -316.325 -40.516 -315.226 -40.1243Z" fill="url(#paint101_linear_384_5606)"/>
<path opacity="0.36" d="M1547.54 -17.9713L2076.85 170.649C2077.95 171.04 2079.44 170.883 2080.18 170.298C2080.92 169.713 2080.62 168.921 2079.53 168.53L1550.21 -20.0906C1549.12 -20.4822 1547.62 -20.3253 1546.88 -19.7401C1546.15 -19.1549 1546.44 -18.363 1547.54 -17.9713Z" fill="url(#paint102_linear_384_5606)"/>
<path opacity="0.82" d="M-109.561 710.098L537.154 940.555C538.253 940.947 539.743 940.79 540.483 940.205C541.222 939.619 540.931 938.827 539.832 938.436L-106.883 707.979C-107.982 707.587 -109.472 707.744 -110.212 708.329C-110.952 708.915 -110.66 709.706 -109.561 710.098Z" fill="url(#paint103_linear_384_5606)"/>
<path opacity="0.45" d="M284.884 799.345L1126.61 1099.29C1127.71 1099.68 1129.2 1099.53 1129.94 1098.94C1130.68 1098.36 1130.39 1097.57 1129.29 1097.17L287.562 797.225C286.463 796.834 284.973 796.991 284.233 797.576C283.494 798.161 283.785 798.953 284.884 799.345Z" fill="url(#paint104_linear_384_5606)"/>
<path opacity="0.98" d="M1228.79 404.974L1927.24 653.867C1928.34 654.259 1929.83 654.102 1930.57 653.517C1931.31 652.931 1931.02 652.139 1929.92 651.748L1231.46 402.854C1230.37 402.463 1228.88 402.62 1228.14 403.205C1227.4 403.79 1227.69 404.582 1228.79 404.974Z" fill="url(#paint105_linear_384_5606)"/>
<path opacity="0.7" d="M207 351.823L871.624 588.662C872.723 589.054 874.214 588.897 874.953 588.311C875.693 587.726 875.402 586.934 874.303 586.543L209.679 349.704C208.58 349.312 207.089 349.469 206.349 350.054C205.61 350.64 205.901 351.432 207 351.823Z" fill="url(#paint106_linear_384_5606)"/>
<path opacity="0.1" d="M955.698 209.412L1859.11 531.343C1860.21 531.734 1861.7 531.577 1862.44 530.992C1863.18 530.407 1862.89 529.615 1861.79 529.223L958.376 207.293C957.277 206.901 955.786 207.058 955.047 207.643C954.307 208.229 954.599 209.02 955.698 209.412Z" fill="url(#paint107_linear_384_5606)"/>
<path opacity="0.29" d="M416.871 749.186L1167.06 1016.52C1168.16 1016.91 1169.65 1016.75 1170.39 1016.17C1171.13 1015.58 1170.84 1014.79 1169.74 1014.4L419.55 747.067C418.451 746.675 416.96 746.832 416.221 747.418C415.481 748.003 415.772 748.795 416.871 749.186Z" fill="url(#paint108_linear_384_5606)"/>
<path opacity="0.45" d="M1263.8 -6.20132L1588.15 109.382C1589.25 109.773 1590.74 109.616 1591.48 109.031C1592.22 108.446 1591.93 107.654 1590.83 107.262L1266.47 -8.32058C1265.37 -8.71221 1263.88 -8.55526 1263.14 -7.97005C1262.4 -7.38483 1262.7 -6.59294 1263.8 -6.20132Z" fill="url(#paint109_linear_384_5606)"/>
<path opacity="0.45" d="M54.1011 -56.2366L720.715 181.311C721.814 181.703 723.305 181.546 724.044 180.961C724.784 180.376 724.493 179.584 723.394 179.192L56.7795 -58.3558C55.6805 -58.7475 54.19 -58.5905 53.4504 -58.0053C52.7107 -57.4201 53.0021 -56.6282 54.1011 -56.2366Z" fill="url(#paint110_linear_384_5606)"/>
<path opacity="0.78" d="M107.074 149.61L620.466 332.558C621.565 332.949 623.056 332.792 623.795 332.207C624.535 331.622 624.244 330.83 623.145 330.438L109.752 147.491C108.653 147.099 107.163 147.256 106.423 147.841C105.684 148.427 105.975 149.218 107.074 149.61Z" fill="url(#paint111_linear_384_5606)"/>
<path opacity="0.92" d="M1117.45 37.7972L1859.68 302.291C1860.78 302.683 1862.27 302.526 1863.01 301.94C1863.75 301.355 1863.46 300.563 1862.36 300.172L1120.13 35.6779C1119.03 35.2863 1117.54 35.4433 1116.8 36.0285C1116.06 36.6137 1116.35 37.4056 1117.45 37.7972Z" fill="url(#paint112_linear_384_5606)"/>
<path opacity="0.25" d="M620.459 -40.6646L1080.12 123.137C1081.22 123.529 1082.71 123.372 1083.45 122.787C1084.19 122.201 1083.9 121.409 1082.8 121.018L623.138 -42.7839C622.039 -43.1755 620.548 -43.0186 619.808 -42.4334C619.069 -41.8482 619.36 -41.0563 620.459 -40.6646Z" fill="url(#paint113_linear_384_5606)"/>
<path opacity="0.16" d="M629.877 284.003L1163.17 474.041C1164.27 474.433 1165.76 474.276 1166.5 473.69C1167.24 473.105 1166.95 472.313 1165.85 471.922L632.555 281.883C631.456 281.492 629.966 281.649 629.226 282.234C628.487 282.819 628.778 283.611 629.877 284.003Z" fill="url(#paint114_linear_384_5606)"/>
<path opacity="0.91" d="M921.24 760.296L1689.34 1034.01C1690.44 1034.4 1691.93 1034.24 1692.67 1033.66C1693.41 1033.07 1693.12 1032.28 1692.02 1031.89L923.919 758.176C922.82 757.785 921.329 757.942 920.59 758.527C919.85 759.112 920.141 759.904 921.24 760.296Z" fill="url(#paint115_linear_384_5606)"/>
<path opacity="0.35" d="M47.1696 856.026L361.573 968.064C362.672 968.455 364.162 968.299 364.902 967.713C365.641 967.128 365.35 966.336 364.251 965.945L49.848 853.907C48.749 853.515 47.2585 853.672 46.5189 854.258C45.7793 854.843 46.0706 855.635 47.1696 856.026Z" fill="url(#paint116_linear_384_5606)"/>
<path opacity="0.65" d="M102.82 250.083L596.314 425.94C597.413 426.331 598.903 426.175 599.643 425.589C600.383 425.004 600.091 424.212 598.992 423.821L105.499 247.964C104.4 247.573 102.909 247.729 102.17 248.315C101.43 248.9 101.721 249.692 102.82 250.083Z" fill="url(#paint117_linear_384_5606)"/>
<path opacity="0.6" d="M1329.7 810.883L1405.32 837.828C1406.42 838.22 1407.91 838.063 1408.65 837.478C1409.39 836.893 1409.1 836.101 1408 835.709L1332.38 808.763C1331.28 808.372 1329.79 808.529 1329.05 809.114C1328.31 809.699 1328.6 810.491 1329.7 810.883Z" fill="url(#paint118_linear_384_5606)"/>
<path opacity="0.51" d="M814.178 14.3965L1476.81 250.526C1477.91 250.918 1479.4 250.761 1480.14 250.176C1480.88 249.591 1480.59 248.799 1479.49 248.407L816.856 12.2772C815.757 11.8856 814.266 12.0425 813.527 12.6278C812.787 13.213 813.079 14.0049 814.178 14.3965Z" fill="url(#paint119_linear_384_5606)"/>
<path opacity="0.09" d="M1862.19 333.805L1911.94 351.532C1913.04 351.924 1914.53 351.767 1915.27 351.182C1916.01 350.596 1915.72 349.804 1914.62 349.413L1864.87 331.685C1863.77 331.294 1862.28 331.451 1861.54 332.036C1860.8 332.621 1861.09 333.413 1862.19 333.805Z" fill="url(#paint120_linear_384_5606)"/>
<path opacity="0.89" d="M829.932 122.969L1783.09 462.627C1784.19 463.019 1785.68 462.862 1786.42 462.277C1787.16 461.692 1786.87 460.9 1785.77 460.508L832.611 120.85C831.512 120.458 830.021 120.615 829.282 121.2C828.542 121.786 828.833 122.578 829.932 122.969Z" fill="url(#paint121_linear_384_5606)"/>
<path opacity="0.33" d="M940.176 702.373L1113.3 764.065C1114.4 764.456 1115.89 764.3 1116.63 763.714C1117.36 763.129 1117.07 762.337 1115.97 761.946L942.854 700.254C941.755 699.862 940.265 700.019 939.525 700.605C938.785 701.19 939.077 701.982 940.176 702.373Z" fill="url(#paint122_linear_384_5606)"/>
<path opacity="0.72" d="M736.24 315.924L869.563 363.433C870.662 363.825 872.152 363.668 872.892 363.083C873.632 362.498 873.34 361.706 872.241 361.314L738.918 313.805C737.819 313.413 736.329 313.57 735.589 314.155C734.85 314.74 735.141 315.532 736.24 315.924Z" fill="url(#paint123_linear_384_5606)"/>
<path opacity="0.42" d="M1345.25 158.877L2049.68 409.898C2050.77 410.289 2052.26 410.133 2053 409.547C2053.74 408.962 2053.45 408.17 2052.35 407.779L1347.93 156.758C1346.83 156.366 1345.34 156.523 1344.6 157.108C1343.86 157.693 1344.15 158.485 1345.25 158.877Z" fill="url(#paint124_linear_384_5606)"/>
<path opacity="0.82" d="M344.695 838.651L788.441 996.78C789.54 997.171 791.03 997.014 791.77 996.429C792.509 995.844 792.218 995.052 791.119 994.66L347.373 836.531C346.274 836.14 344.784 836.297 344.044 836.882C343.304 837.467 343.596 838.259 344.695 838.651Z" fill="url(#paint125_linear_384_5606)"/>
<path opacity="0.56" d="M-221.237 269.646L316.035 461.103C317.134 461.495 318.624 461.338 319.364 460.752C320.103 460.167 319.812 459.375 318.713 458.984L-218.558 267.527C-219.657 267.135 -221.148 267.292 -221.887 267.878C-222.627 268.463 -222.336 269.255 -221.237 269.646Z" fill="url(#paint126_linear_384_5606)"/>
<path opacity="0.24" d="M-199.306 420.192L280.258 591.085C281.357 591.476 282.848 591.32 283.587 590.734C284.327 590.149 284.036 589.357 282.937 588.966L-196.628 418.073C-197.727 417.681 -199.217 417.838 -199.957 418.423C-200.696 419.009 -200.405 419.801 -199.306 420.192Z" fill="url(#paint127_linear_384_5606)"/>
<path opacity="0.25" d="M1165.6 612.511L1852.11 857.15C1853.21 857.541 1854.7 857.384 1855.44 856.799C1856.18 856.214 1855.89 855.422 1854.79 855.031L1168.28 610.392C1167.18 610 1165.69 610.157 1164.95 610.742C1164.21 611.327 1164.5 612.119 1165.6 612.511Z" fill="url(#paint128_linear_384_5606)"/>
<path opacity="0.92" d="M1194.41 936.369L1339.67 988.134C1340.77 988.525 1342.26 988.368 1343 987.783C1343.74 987.198 1343.45 986.406 1342.35 986.014L1197.09 934.25C1195.99 933.859 1194.5 934.016 1193.76 934.601C1193.02 935.186 1193.31 935.978 1194.41 936.369Z" fill="url(#paint129_linear_384_5606)"/>
<path opacity="0.54" d="M1723.72 624.415L1960.52 708.798C1961.62 709.189 1963.11 709.032 1963.85 708.447C1964.59 707.862 1964.3 707.07 1963.2 706.678L1726.4 622.296C1725.3 621.904 1723.81 622.061 1723.07 622.646C1722.33 623.232 1722.63 624.023 1723.72 624.415Z" fill="url(#paint130_linear_384_5606)"/>
<path opacity="0.97" d="M1671.17 -52.496L1957.71 49.6141C1958.81 50.0058 1960.3 49.8488 1961.04 49.2636C1961.78 48.6784 1961.49 47.8865 1960.39 47.4949L1673.84 -54.6153C1672.75 -55.0069 1671.25 -54.85 1670.52 -54.2648C1669.78 -53.6795 1670.07 -52.8876 1671.17 -52.496Z" fill="url(#paint131_linear_384_5606)"/>
<path opacity="0.39" d="M24.3457 339.098L790.454 612.1C791.553 612.492 793.044 612.335 793.784 611.75C794.523 611.165 794.232 610.373 793.133 609.981L27.0241 336.978C25.9251 336.587 24.4346 336.744 23.695 337.329C22.9554 337.914 23.2467 338.706 24.3457 339.098Z" fill="url(#paint132_linear_384_5606)"/>
<path opacity="0.84" d="M45.9032 222.356L965.234 549.96C966.333 550.351 967.823 550.195 968.563 549.609C969.302 549.024 969.011 548.232 967.912 547.841L48.5816 220.237C47.4826 219.845 45.9922 220.002 45.2526 220.588C44.5129 221.173 44.8042 221.965 45.9032 222.356Z" fill="url(#paint133_linear_384_5606)"/>
<path opacity="0.11" d="M26.5151 82.3748L1051.31 447.56C1052.41 447.952 1053.9 447.795 1054.64 447.21C1055.38 446.625 1055.09 445.833 1053.99 445.441L29.1935 80.2555C28.0945 79.8638 26.6041 80.0208 25.8644 80.606C25.1248 81.1913 25.416 81.9831 26.5151 82.3748Z" fill="url(#paint134_linear_384_5606)"/>
<path opacity="0.95" d="M1478.18 65.7676L1868.2 204.751C1869.3 205.142 1870.79 204.986 1871.53 204.4C1872.27 203.815 1871.98 203.023 1870.88 202.632L1480.86 63.6483C1479.76 63.2567 1478.27 63.4136 1477.53 63.9989C1476.79 64.5841 1477.08 65.376 1478.18 65.7676Z" fill="url(#paint135_linear_384_5606)"/>
<path opacity="0.51" d="M926.193 586.308L1035.64 625.308C1036.74 625.7 1038.23 625.543 1038.97 624.957C1039.71 624.372 1039.41 623.58 1038.32 623.189L928.871 584.188C927.772 583.797 926.282 583.954 925.542 584.539C924.803 585.124 925.094 585.916 926.193 586.308Z" fill="url(#paint136_linear_384_5606)"/>
<path opacity="0.5" d="M1594.32 836.716L1793.31 907.625C1794.4 908.017 1795.9 907.86 1796.64 907.275C1797.37 906.69 1797.08 905.898 1795.98 905.506L1597 834.596C1595.9 834.205 1594.41 834.362 1593.67 834.947C1592.93 835.532 1593.22 836.324 1594.32 836.716Z" fill="url(#paint137_linear_384_5606)"/>
<path opacity="0.98" d="M705.467 43.4001L1278.56 247.62C1279.65 248.012 1281.15 247.855 1281.89 247.27C1282.62 246.685 1282.33 245.893 1281.23 245.501L708.145 41.2809C707.046 40.8893 705.556 41.0462 704.816 41.6314C704.077 42.2166 704.368 43.0085 705.467 43.4001Z" fill="url(#paint138_linear_384_5606)"/>
<path opacity="0.2" d="M1472.29 305.965L1567.8 340.001C1568.9 340.393 1570.39 340.236 1571.13 339.651C1571.87 339.066 1571.58 338.274 1570.48 337.882L1474.97 303.845C1473.87 303.454 1472.38 303.611 1471.64 304.196C1470.9 304.781 1471.19 305.573 1472.29 305.965Z" fill="url(#paint139_linear_384_5606)"/>
<path opacity="0.15" d="M-164.996 858.357L266.811 1012.23C267.91 1012.62 269.4 1012.47 270.14 1011.88C270.88 1011.3 270.588 1010.5 269.489 1010.11L-162.317 856.238C-163.416 855.846 -164.907 856.003 -165.647 856.588C-166.386 857.173 -166.095 857.965 -164.996 858.357Z" fill="url(#paint140_linear_384_5606)"/>
<path opacity="0.97" d="M-254.325 8.14905L746.591 364.826C747.69 365.217 749.181 365.06 749.92 364.475C750.66 363.89 750.369 363.098 749.27 362.706L-251.647 6.02979C-252.746 5.63818 -254.236 5.79512 -254.976 6.38034C-255.715 6.96555 -255.424 7.75745 -254.325 8.14905Z" fill="url(#paint141_linear_384_5606)"/>
<path opacity="0.56" d="M536.516 543.315L868.828 661.734C869.927 662.126 871.418 661.969 872.158 661.384C872.897 660.799 872.606 660.007 871.507 659.615L539.195 541.196C538.096 540.804 536.605 540.961 535.866 541.546C535.126 542.131 535.417 542.923 536.516 543.315Z" fill="url(#paint142_linear_384_5606)"/>
<path opacity="0.33" d="M44.076 427.362L103.773 448.635C104.872 449.026 106.362 448.869 107.102 448.284C107.842 447.699 107.55 446.907 106.451 446.515L46.7544 425.242C45.6554 424.851 44.165 425.008 43.4253 425.593C42.6857 426.178 42.977 426.97 44.076 427.362Z" fill="url(#paint143_linear_384_5606)"/>
<path opacity="0.5" d="M966.717 418.94L2031.31 798.308C2032.41 798.7 2033.9 798.543 2034.64 797.957C2035.38 797.372 2035.09 796.58 2033.99 796.189L969.396 416.821C968.297 416.429 966.806 416.586 966.067 417.172C965.327 417.757 965.618 418.549 966.717 418.94Z" fill="url(#paint144_linear_384_5606)"/>
<path opacity="0.25" d="M1273.96 726.327L1729.64 888.711C1730.74 889.102 1732.23 888.946 1732.97 888.36C1733.71 887.775 1733.42 886.983 1732.32 886.592L1276.63 724.208C1275.54 723.816 1274.05 723.973 1273.31 724.559C1272.57 725.144 1272.86 725.936 1273.96 726.327Z" fill="url(#paint145_linear_384_5606)"/>
<path opacity="0.59" d="M1344.82 90.426L2011.44 327.974C2012.53 328.366 2014.03 328.209 2014.76 327.623C2015.5 327.038 2015.21 326.246 2014.11 325.855L1347.5 88.3068C1346.4 87.9151 1344.91 88.0721 1344.17 88.6573C1343.43 89.2425 1343.72 90.0344 1344.82 90.426Z" fill="url(#paint146_linear_384_5606)"/>
<path opacity="0.77" d="M1385.61 409.258L2279.07 727.643C2280.17 728.035 2281.66 727.878 2282.4 727.292C2283.14 726.707 2282.85 725.915 2281.75 725.524L1388.29 407.139C1387.19 406.747 1385.7 406.904 1384.96 407.489C1384.22 408.074 1384.51 408.866 1385.61 409.258Z" fill="url(#paint147_linear_384_5606)"/>
<path opacity="0.57" d="M983.706 -20.5703L1220.5 63.8124C1221.6 64.204 1223.09 64.0471 1223.83 63.4619C1224.57 62.8766 1224.28 62.0847 1223.18 61.6931L986.384 -22.6896C985.285 -23.0812 983.795 -22.9243 983.055 -22.3391C982.316 -21.7538 982.607 -20.962 983.706 -20.5703Z" fill="url(#paint148_linear_384_5606)"/>
<path opacity="0.69" d="M342.85 58.7062L969.666 282.072C970.765 282.464 972.256 282.307 972.995 281.722C973.735 281.136 973.444 280.345 972.345 279.953L345.529 56.5869C344.43 56.1953 342.939 56.3522 342.199 56.9374C341.46 57.5226 341.751 58.3145 342.85 58.7062Z" fill="url(#paint149_linear_384_5606)"/>
</g>
</g>
</g>
<defs>
<linearGradient id="paint0_linear_384_5606" x1="-30204.6" y1="25268.9" x2="-30426.8" y2="24988" gradientUnits="userSpaceOnUse">
<stop/>
<stop offset="0.45" stop-color="#FF5B57"/>
<stop offset="1" stop-color="#AAE4D7"/>
</linearGradient>
<linearGradient id="paint1_linear_384_5606" x1="-17141" y1="15883.4" x2="-17363.2" y2="15602.5" gradientUnits="userSpaceOnUse">
<stop/>
<stop offset="0.45" stop-color="#FF5B57"/>
<stop offset="1" stop-color="#AAE4D7"/>
</linearGradient>
<linearGradient id="paint2_linear_384_5606" x1="-20764.9" y1="18395" x2="-20987.1" y2="18114.2" gradientUnits="userSpaceOnUse">
<stop/>
<stop offset="0.45" stop-color="#FF5B57"/>
<stop offset="1" stop-color="#AAE4D7"/>
</linearGradient>
<linearGradient id="paint3_linear_384_5606" x1="-23944" y1="20342.6" x2="-24166.2" y2="20061.8" gradientUnits="userSpaceOnUse">
<stop/>
<stop offset="0.45" stop-color="#FF5B57"/>
<stop offset="1" stop-color="#AAE4D7"/>
</linearGradient>
<linearGradient id="paint4_linear_384_5606" x1="-8244.61" y1="8775.42" x2="-8466.85" y2="8494.55" gradientUnits="userSpaceOnUse">
<stop/>
<stop offset="0.45" stop-color="#FF5B57"/>
<stop offset="1" stop-color="#AAE4D7"/>
</linearGradient>
<linearGradient id="paint5_linear_384_5606" x1="-19344.1" y1="15882.8" x2="-19566.4" y2="15601.9" gradientUnits="userSpaceOnUse">
<stop/>
<stop offset="0.45" stop-color="#FF5B57"/>
<stop offset="1" stop-color="#AAE4D7"/>
</linearGradient>
<linearGradient id="paint6_linear_384_5606" x1="-9759.01" y1="9782.16" x2="-9981.25" y2="9501.28" gradientUnits="userSpaceOnUse">
<stop/>
<stop offset="0.45" stop-color="#FF5B57"/>
<stop offset="1" stop-color="#AAE4D7"/>
</linearGradient>
<linearGradient id="paint7_linear_384_5606" x1="-9396.08" y1="8879.41" x2="-9618.32" y2="8598.53" gradientUnits="userSpaceOnUse">
<stop/>
<stop offset="0.45" stop-color="#FF5B57"/>
<stop offset="1" stop-color="#AAE4D7"/>
</linearGradient>
<linearGradient id="paint8_linear_384_5606" x1="-19782.9" y1="16135.4" x2="-20005.1" y2="15854.5" gradientUnits="userSpaceOnUse">
<stop/>
<stop offset="0.45" stop-color="#FF5B57"/>
<stop offset="1" stop-color="#AAE4D7"/>
</linearGradient>
<linearGradient id="paint9_linear_384_5606" x1="-15626.2" y1="13606" x2="-15848.5" y2="13325.1" gradientUnits="userSpaceOnUse">
<stop/>
<stop offset="0.45" stop-color="#FF5B57"/>
<stop offset="1" stop-color="#AAE4D7"/>
</linearGradient>
<linearGradient id="paint10_linear_384_5606" x1="-9139.06" y1="8307.33" x2="-9361.3" y2="8026.45" gradientUnits="userSpaceOnUse">
<stop/>
<stop offset="0.45" stop-color="#FF5B57"/>
<stop offset="1" stop-color="#AAE4D7"/>
</linearGradient>
<linearGradient id="paint11_linear_384_5606" x1="-16791.7" y1="15433.6" x2="-17013.9" y2="15152.7" gradientUnits="userSpaceOnUse">
<stop/>
<stop offset="0.45" stop-color="#FF5B57"/>
<stop offset="1" stop-color="#AAE4D7"/>
</linearGradient>
<linearGradient id="paint12_linear_384_5606" x1="-30435.9" y1="24602.9" x2="-30658.2" y2="24322" gradientUnits="userSpaceOnUse">
<stop/>
<stop offset="0.45" stop-color="#FF5B57"/>
<stop offset="1" stop-color="#AAE4D7"/>
</linearGradient>
<linearGradient id="paint13_linear_384_5606" x1="-9672.52" y1="8456.66" x2="-9894.76" y2="8175.79" gradientUnits="userSpaceOnUse">
<stop/>
<stop offset="0.45" stop-color="#FF5B57"/>
<stop offset="1" stop-color="#AAE4D7"/>
</linearGradient>
<linearGradient id="paint14_linear_384_5606" x1="-3061.29" y1="4522.92" x2="-3283.53" y2="4242.05" gradientUnits="userSpaceOnUse">
<stop/>
<stop offset="0.45" stop-color="#FF5B57"/>
<stop offset="1" stop-color="#AAE4D7"/>
</linearGradient>
<linearGradient id="paint15_linear_384_5606" x1="-7156.16" y1="7877.67" x2="-7378.39" y2="7596.8" gradientUnits="userSpaceOnUse">
<stop/>
<stop offset="0.45" stop-color="#FF5B57"/>
<stop offset="1" stop-color="#AAE4D7"/>
</linearGradient>
<linearGradient id="paint16_linear_384_5606" x1="-15778.4" y1="13306.2" x2="-16000.7" y2="13025.4" gradientUnits="userSpaceOnUse">
<stop/>
<stop offset="0.45" stop-color="#FF5B57"/>
<stop offset="1" stop-color="#AAE4D7"/>
</linearGradient>
<linearGradient id="paint17_linear_384_5606" x1="-16821" y1="14135.2" x2="-17043.3" y2="13854.4" gradientUnits="userSpaceOnUse">
<stop/>
<stop offset="0.45" stop-color="#FF5B57"/>
<stop offset="1" stop-color="#AAE4D7"/>
</linearGradient>
<linearGradient id="paint18_linear_384_5606" x1="-8140.07" y1="6362.86" x2="-8362.3" y2="6081.99" gradientUnits="userSpaceOnUse">
<stop/>
<stop offset="0.45" stop-color="#FF5B57"/>
<stop offset="1" stop-color="#AAE4D7"/>
</linearGradient>
<linearGradient id="paint19_linear_384_5606" x1="-9290.81" y1="9244.26" x2="-9513.05" y2="8963.39" gradientUnits="userSpaceOnUse">
<stop/>
<stop offset="0.45" stop-color="#FF5B57"/>
<stop offset="1" stop-color="#AAE4D7"/>
</linearGradient>
<linearGradient id="paint20_linear_384_5606" x1="-22526.6" y1="19229.7" x2="-22748.9" y2="18948.8" gradientUnits="userSpaceOnUse">
<stop/>
<stop offset="0.45" stop-color="#FF5B57"/>
<stop offset="1" stop-color="#AAE4D7"/>
</linearGradient>
<linearGradient id="paint21_linear_384_5606" x1="-14951.5" y1="12197.2" x2="-15173.7" y2="11916.3" gradientUnits="userSpaceOnUse">
<stop/>
<stop offset="0.45" stop-color="#FF5B57"/>
<stop offset="1" stop-color="#AAE4D7"/>
</linearGradient>
<linearGradient id="paint22_linear_384_5606" x1="-32038.7" y1="27501.1" x2="-32261" y2="27220.2" gradientUnits="userSpaceOnUse">
<stop/>
<stop offset="0.45" stop-color="#FF5B57"/>
<stop offset="1" stop-color="#AAE4D7"/>
</linearGradient>
<linearGradient id="paint23_linear_384_5606" x1="-19570.8" y1="16614.8" x2="-19793" y2="16333.9" gradientUnits="userSpaceOnUse">
<stop/>
<stop offset="0.45" stop-color="#FF5B57"/>
<stop offset="1" stop-color="#AAE4D7"/>
</linearGradient>
<linearGradient id="paint24_linear_384_5606" x1="-25742.7" y1="22687.8" x2="-25964.9" y2="22407" gradientUnits="userSpaceOnUse">
<stop/>
<stop offset="0.45" stop-color="#FF5B57"/>
<stop offset="1" stop-color="#AAE4D7"/>
</linearGradient>
<linearGradient id="paint25_linear_384_5606" x1="-24389.1" y1="21787.3" x2="-24611.3" y2="21506.4" gradientUnits="userSpaceOnUse">
<stop/>
<stop offset="0.45" stop-color="#FF5B57"/>
<stop offset="1" stop-color="#AAE4D7"/>
</linearGradient>
<linearGradient id="paint26_linear_384_5606" x1="-3043.82" y1="4252.92" x2="-3266.05" y2="3972.04" gradientUnits="userSpaceOnUse">
<stop/>
<stop offset="0.45" stop-color="#FF5B57"/>
<stop offset="1" stop-color="#AAE4D7"/>
</linearGradient>
<linearGradient id="paint27_linear_384_5606" x1="-6857.7" y1="7998.79" x2="-7079.94" y2="7717.92" gradientUnits="userSpaceOnUse">
<stop/>
<stop offset="0.45" stop-color="#FF5B57"/>
<stop offset="1" stop-color="#AAE4D7"/>
</linearGradient>
<linearGradient id="paint28_linear_384_5606" x1="-17095" y1="16189.9" x2="-17317.3" y2="15909" gradientUnits="userSpaceOnUse">
<stop/>
<stop offset="0.45" stop-color="#FF5B57"/>
<stop offset="1" stop-color="#AAE4D7"/>
</linearGradient>
<linearGradient id="paint29_linear_384_5606" x1="-29955" y1="24197.9" x2="-30177.2" y2="23917" gradientUnits="userSpaceOnUse">
<stop/>
<stop offset="0.45" stop-color="#FF5B57"/>
<stop offset="1" stop-color="#AAE4D7"/>
</linearGradient>
<linearGradient id="paint30_linear_384_5606" x1="-9894.92" y1="9622.33" x2="-10117.2" y2="9341.46" gradientUnits="userSpaceOnUse">
<stop/>
<stop offset="0.45" stop-color="#FF5B57"/>
<stop offset="1" stop-color="#AAE4D7"/>
</linearGradient>
<linearGradient id="paint31_linear_384_5606" x1="-6787.73" y1="6390.66" x2="-7009.97" y2="6109.78" gradientUnits="userSpaceOnUse">
<stop/>
<stop offset="0.45" stop-color="#FF5B57"/>
<stop offset="1" stop-color="#AAE4D7"/>
</linearGradient>
<linearGradient id="paint32_linear_384_5606" x1="-7676.94" y1="7797.05" x2="-7899.18" y2="7516.18" gradientUnits="userSpaceOnUse">
<stop/>
<stop offset="0.45" stop-color="#FF5B57"/>
<stop offset="1" stop-color="#AAE4D7"/>
</linearGradient>
<linearGradient id="paint33_linear_384_5606" x1="-17869.3" y1="15735.7" x2="-18091.5" y2="15454.8" gradientUnits="userSpaceOnUse">
<stop/>
<stop offset="0.45" stop-color="#FF5B57"/>
<stop offset="1" stop-color="#AAE4D7"/>
</linearGradient>
<linearGradient id="paint34_linear_384_5606" x1="-28527.8" y1="22862.1" x2="-28750" y2="22581.2" gradientUnits="userSpaceOnUse">
<stop/>
<stop offset="0.45" stop-color="#FF5B57"/>
<stop offset="1" stop-color="#AAE4D7"/>
</linearGradient>
<linearGradient id="paint35_linear_384_5606" x1="-20562.6" y1="17882.3" x2="-20784.9" y2="17601.4" gradientUnits="userSpaceOnUse">
<stop/>
<stop offset="0.45" stop-color="#FF5B57"/>
<stop offset="1" stop-color="#AAE4D7"/>
</linearGradient>
<linearGradient id="paint36_linear_384_5606" x1="-20513.7" y1="18188" x2="-20735.9" y2="17907.2" gradientUnits="userSpaceOnUse">
<stop/>
<stop offset="0.45" stop-color="#FF5B57"/>
<stop offset="1" stop-color="#AAE4D7"/>
</linearGradient>
<linearGradient id="paint37_linear_384_5606" x1="-7495.01" y1="8342.04" x2="-7717.25" y2="8061.17" gradientUnits="userSpaceOnUse">
<stop/>
<stop offset="0.45" stop-color="#FF5B57"/>
<stop offset="1" stop-color="#AAE4D7"/>
</linearGradient>
<linearGradient id="paint38_linear_384_5606" x1="-12251.3" y1="11528.3" x2="-12473.6" y2="11247.4" gradientUnits="userSpaceOnUse">
<stop/>
<stop offset="0.45" stop-color="#FF5B57"/>
<stop offset="1" stop-color="#AAE4D7"/>
</linearGradient>
<linearGradient id="paint39_linear_384_5606" x1="-27959.8" y1="23825" x2="-28182.1" y2="23544.2" gradientUnits="userSpaceOnUse">
<stop/>
<stop offset="0.45" stop-color="#FF5B57"/>
<stop offset="1" stop-color="#AAE4D7"/>
</linearGradient>
<linearGradient id="paint40_linear_384_5606" x1="-10295.1" y1="10873.6" x2="-10517.3" y2="10592.7" gradientUnits="userSpaceOnUse">
<stop/>
<stop offset="0.45" stop-color="#FF5B57"/>
<stop offset="1" stop-color="#AAE4D7"/>
</linearGradient>
<linearGradient id="paint41_linear_384_5606" x1="-15394.3" y1="13532.9" x2="-15616.5" y2="13252" gradientUnits="userSpaceOnUse">
<stop/>
<stop offset="0.45" stop-color="#FF5B57"/>
<stop offset="1" stop-color="#AAE4D7"/>
</linearGradient>
<linearGradient id="paint42_linear_384_5606" x1="-13033.6" y1="12782.8" x2="-13255.8" y2="12501.9" gradientUnits="userSpaceOnUse">
<stop/>
<stop offset="0.45" stop-color="#FF5B57"/>
<stop offset="1" stop-color="#AAE4D7"/>
</linearGradient>
<linearGradient id="paint43_linear_384_5606" x1="-8687.16" y1="8339.38" x2="-8909.4" y2="8058.51" gradientUnits="userSpaceOnUse">
<stop/>
<stop offset="0.45" stop-color="#FF5B57"/>
<stop offset="1" stop-color="#AAE4D7"/>
</linearGradient>
<linearGradient id="paint44_linear_384_5606" x1="-6211.55" y1="4779.29" x2="-6433.79" y2="4498.42" gradientUnits="userSpaceOnUse">
<stop/>
<stop offset="0.45" stop-color="#FF5B57"/>
<stop offset="1" stop-color="#AAE4D7"/>
</linearGradient>
<linearGradient id="paint45_linear_384_5606" x1="-18231.9" y1="15381.7" x2="-18454.2" y2="15100.8" gradientUnits="userSpaceOnUse">
<stop/>
<stop offset="0.45" stop-color="#FF5B57"/>
<stop offset="1" stop-color="#AAE4D7"/>
</linearGradient>
<linearGradient id="paint46_linear_384_5606" x1="-13711.6" y1="13512.7" x2="-13933.8" y2="13231.9" gradientUnits="userSpaceOnUse">
<stop/>
<stop offset="0.45" stop-color="#FF5B57"/>
<stop offset="1" stop-color="#AAE4D7"/>
</linearGradient>
<linearGradient id="paint47_linear_384_5606" x1="-6913.13" y1="7446" x2="-7135.37" y2="7165.12" gradientUnits="userSpaceOnUse">
<stop/>
<stop offset="0.45" stop-color="#FF5B57"/>
<stop offset="1" stop-color="#AAE4D7"/>
</linearGradient>
<linearGradient id="paint48_linear_384_5606" x1="-12376.2" y1="10850" x2="-12598.4" y2="10569.1" gradientUnits="userSpaceOnUse">
<stop/>
<stop offset="0.45" stop-color="#FF5B57"/>
<stop offset="1" stop-color="#AAE4D7"/>
</linearGradient>
<linearGradient id="paint49_linear_384_5606" x1="-22367.7" y1="19482.8" x2="-22589.9" y2="19201.9" gradientUnits="userSpaceOnUse">
<stop/>
<stop offset="0.45" stop-color="#FF5B57"/>
<stop offset="1" stop-color="#AAE4D7"/>
</linearGradient>
<linearGradient id="paint50_linear_384_5606" x1="-11135.8" y1="10832.8" x2="-11358" y2="10551.9" gradientUnits="userSpaceOnUse">
<stop/>
<stop offset="0.45" stop-color="#FF5B57"/>
<stop offset="1" stop-color="#AAE4D7"/>
</linearGradient>
<linearGradient id="paint51_linear_384_5606" x1="-8252.59" y1="8144.87" x2="-8474.83" y2="7864" gradientUnits="userSpaceOnUse">
<stop/>
<stop offset="0.45" stop-color="#FF5B57"/>
<stop offset="1" stop-color="#AAE4D7"/>
</linearGradient>
<linearGradient id="paint52_linear_384_5606" x1="-15017.4" y1="12985.9" x2="-15239.7" y2="12705.1" gradientUnits="userSpaceOnUse">
<stop/>
<stop offset="0.45" stop-color="#FF5B57"/>
<stop offset="1" stop-color="#AAE4D7"/>
</linearGradient>
<linearGradient id="paint53_linear_384_5606" x1="-11273.8" y1="9766.76" x2="-11496" y2="9485.89" gradientUnits="userSpaceOnUse">
<stop/>
<stop offset="0.45" stop-color="#FF5B57"/>
<stop offset="1" stop-color="#AAE4D7"/>
</linearGradient>
<linearGradient id="paint54_linear_384_5606" x1="-8321.91" y1="7969.99" x2="-8544.15" y2="7689.11" gradientUnits="userSpaceOnUse">
<stop/>
<stop offset="0.45" stop-color="#FF5B57"/>
<stop offset="1" stop-color="#AAE4D7"/>
</linearGradient>
<linearGradient id="paint55_linear_384_5606" x1="-7647.46" y1="8494.97" x2="-7869.7" y2="8214.1" gradientUnits="userSpaceOnUse">
<stop/>
<stop offset="0.45" stop-color="#FF5B57"/>
<stop offset="1" stop-color="#AAE4D7"/>
</linearGradient>
<linearGradient id="paint56_linear_384_5606" x1="-8152.44" y1="6504.89" x2="-8374.68" y2="6224.02" gradientUnits="userSpaceOnUse">
<stop/>
<stop offset="0.45" stop-color="#FF5B57"/>
<stop offset="1" stop-color="#AAE4D7"/>
</linearGradient>
<linearGradient id="paint57_linear_384_5606" x1="-16742.1" y1="14412.5" x2="-16964.3" y2="14131.7" gradientUnits="userSpaceOnUse">
<stop/>
<stop offset="0.45" stop-color="#FF5B57"/>
<stop offset="1" stop-color="#AAE4D7"/>
</linearGradient>
<linearGradient id="paint58_linear_384_5606" x1="-22830.6" y1="18915.6" x2="-23052.9" y2="18634.8" gradientUnits="userSpaceOnUse">
<stop/>
<stop offset="0.45" stop-color="#FF5B57"/>
<stop offset="1" stop-color="#AAE4D7"/>
</linearGradient>
<linearGradient id="paint59_linear_384_5606" x1="-17712.9" y1="14239.2" x2="-17935.2" y2="13958.3" gradientUnits="userSpaceOnUse">
<stop/>
<stop offset="0.45" stop-color="#FF5B57"/>
<stop offset="1" stop-color="#AAE4D7"/>
</linearGradient>
<linearGradient id="paint60_linear_384_5606" x1="-17511.9" y1="15363.1" x2="-17734.1" y2="15082.2" gradientUnits="userSpaceOnUse">
<stop/>
<stop offset="0.45" stop-color="#FF5B57"/>
<stop offset="1" stop-color="#AAE4D7"/>
</linearGradient>
<linearGradient id="paint61_linear_384_5606" x1="-25440.6" y1="21609.9" x2="-25662.9" y2="21329.1" gradientUnits="userSpaceOnUse">
<stop/>
<stop offset="0.45" stop-color="#FF5B57"/>
<stop offset="1" stop-color="#AAE4D7"/>
</linearGradient>
<linearGradient id="paint62_linear_384_5606" x1="-10529.7" y1="8119.51" x2="-10751.9" y2="7838.64" gradientUnits="userSpaceOnUse">
<stop/>
<stop offset="0.45" stop-color="#FF5B57"/>
<stop offset="1" stop-color="#AAE4D7"/>
</linearGradient>
<linearGradient id="paint63_linear_384_5606" x1="-14715.6" y1="13599" x2="-14937.8" y2="13318.1" gradientUnits="userSpaceOnUse">
<stop/>
<stop offset="0.45" stop-color="#FF5B57"/>
<stop offset="1" stop-color="#AAE4D7"/>
</linearGradient>
<linearGradient id="paint64_linear_384_5606" x1="-6740.16" y1="6000.44" x2="-6962.4" y2="5719.56" gradientUnits="userSpaceOnUse">
<stop/>
<stop offset="0.45" stop-color="#FF5B57"/>
<stop offset="1" stop-color="#AAE4D7"/>
</linearGradient>
<linearGradient id="paint65_linear_384_5606" x1="-11561" y1="9075.29" x2="-11783.2" y2="8794.42" gradientUnits="userSpaceOnUse">
<stop/>
<stop offset="0.45" stop-color="#FF5B57"/>
<stop offset="1" stop-color="#AAE4D7"/>
</linearGradient>
<linearGradient id="paint66_linear_384_5606" x1="-9457.49" y1="8741.99" x2="-9679.73" y2="8461.12" gradientUnits="userSpaceOnUse">
<stop/>
<stop offset="0.45" stop-color="#FF5B57"/>
<stop offset="1" stop-color="#AAE4D7"/>
</linearGradient>
<linearGradient id="paint67_linear_384_5606" x1="-4501.41" y1="4480.21" x2="-4723.65" y2="4199.33" gradientUnits="userSpaceOnUse">
<stop/>
<stop offset="0.45" stop-color="#FF5B57"/>
<stop offset="1" stop-color="#AAE4D7"/>
</linearGradient>
<linearGradient id="paint68_linear_384_5606" x1="-5655.21" y1="4659.4" x2="-5877.45" y2="4378.53" gradientUnits="userSpaceOnUse">
<stop/>
<stop offset="0.45" stop-color="#FF5B57"/>
<stop offset="1" stop-color="#AAE4D7"/>
</linearGradient>
<linearGradient id="paint69_linear_384_5606" x1="-8256.47" y1="6519.52" x2="-8478.71" y2="6238.65" gradientUnits="userSpaceOnUse">
<stop/>
<stop offset="0.45" stop-color="#FF5B57"/>
<stop offset="1" stop-color="#AAE4D7"/>
</linearGradient>
<linearGradient id="paint70_linear_384_5606" x1="-1517.39" y1="2437.98" x2="-1739.63" y2="2157.11" gradientUnits="userSpaceOnUse">
<stop/>
<stop offset="0.45" stop-color="#FF5B57"/>
<stop offset="1" stop-color="#AAE4D7"/>
</linearGradient>
<linearGradient id="paint71_linear_384_5606" x1="-8073.52" y1="8572.55" x2="-8295.75" y2="8291.68" gradientUnits="userSpaceOnUse">
<stop/>
<stop offset="0.45" stop-color="#FF5B57"/>
<stop offset="1" stop-color="#AAE4D7"/>
</linearGradient>
<linearGradient id="paint72_linear_384_5606" x1="-21584.4" y1="18774.4" x2="-21806.7" y2="18493.5" gradientUnits="userSpaceOnUse">
<stop/>
<stop offset="0.45" stop-color="#FF5B57"/>
<stop offset="1" stop-color="#AAE4D7"/>
</linearGradient>
<linearGradient id="paint73_linear_384_5606" x1="-24560.8" y1="21559.1" x2="-24783" y2="21278.2" gradientUnits="userSpaceOnUse">
<stop/>
<stop offset="0.45" stop-color="#FF5B57"/>
<stop offset="1" stop-color="#AAE4D7"/>
</linearGradient>
<linearGradient id="paint74_linear_384_5606" x1="-20106.3" y1="17038.6" x2="-20328.6" y2="16757.8" gradientUnits="userSpaceOnUse">
<stop/>
<stop offset="0.45" stop-color="#FF5B57"/>
<stop offset="1" stop-color="#AAE4D7"/>
</linearGradient>
<linearGradient id="paint75_linear_384_5606" x1="-21095.1" y1="17844.9" x2="-21317.4" y2="17564" gradientUnits="userSpaceOnUse">
<stop/>
<stop offset="0.45" stop-color="#FF5B57"/>
<stop offset="1" stop-color="#AAE4D7"/>
</linearGradient>
<linearGradient id="paint76_linear_384_5606" x1="-14510.9" y1="13099.1" x2="-14733.1" y2="12818.2" gradientUnits="userSpaceOnUse">
<stop/>
<stop offset="0.45" stop-color="#FF5B57"/>
<stop offset="1" stop-color="#AAE4D7"/>
</linearGradient>
<linearGradient id="paint77_linear_384_5606" x1="-3183.14" y1="4942.71" x2="-3405.37" y2="4661.84" gradientUnits="userSpaceOnUse">
<stop/>
<stop offset="0.45" stop-color="#FF5B57"/>
<stop offset="1" stop-color="#AAE4D7"/>
</linearGradient>
<linearGradient id="paint78_linear_384_5606" x1="-21049.6" y1="18565.1" x2="-21271.8" y2="18284.2" gradientUnits="userSpaceOnUse">
<stop/>
<stop offset="0.45" stop-color="#FF5B57"/>
<stop offset="1" stop-color="#AAE4D7"/>
</linearGradient>
<linearGradient id="paint79_linear_384_5606" x1="-8470.1" y1="9118.87" x2="-8692.33" y2="8838" gradientUnits="userSpaceOnUse">
<stop/>
<stop offset="0.45" stop-color="#FF5B57"/>
<stop offset="1" stop-color="#AAE4D7"/>
</linearGradient>
<linearGradient id="paint80_linear_384_5606" x1="-4464.53" y1="4060.01" x2="-4686.77" y2="3779.13" gradientUnits="userSpaceOnUse">
<stop/>
<stop offset="0.45" stop-color="#FF5B57"/>
<stop offset="1" stop-color="#AAE4D7"/>
</linearGradient>
<linearGradient id="paint81_linear_384_5606" x1="-18344" y1="15970.8" x2="-18566.2" y2="15689.9" gradientUnits="userSpaceOnUse">
<stop/>
<stop offset="0.45" stop-color="#FF5B57"/>
<stop offset="1" stop-color="#AAE4D7"/>
</linearGradient>
<linearGradient id="paint82_linear_384_5606" x1="-14046.9" y1="12722.3" x2="-14269.1" y2="12441.5" gradientUnits="userSpaceOnUse">
<stop/>
<stop offset="0.45" stop-color="#FF5B57"/>
<stop offset="1" stop-color="#AAE4D7"/>
</linearGradient>
<linearGradient id="paint83_linear_384_5606" x1="-15085.7" y1="13596.9" x2="-15308" y2="13316" gradientUnits="userSpaceOnUse">
<stop/>
<stop offset="0.45" stop-color="#FF5B57"/>
<stop offset="1" stop-color="#AAE4D7"/>
</linearGradient>
<linearGradient id="paint84_linear_384_5606" x1="-21210.5" y1="17150.3" x2="-21432.8" y2="16869.4" gradientUnits="userSpaceOnUse">
<stop/>
<stop offset="0.45" stop-color="#FF5B57"/>
<stop offset="1" stop-color="#AAE4D7"/>
</linearGradient>
<linearGradient id="paint85_linear_384_5606" x1="-4419.11" y1="3487.19" x2="-4641.34" y2="3206.31" gradientUnits="userSpaceOnUse">
<stop/>
<stop offset="0.45" stop-color="#FF5B57"/>
<stop offset="1" stop-color="#AAE4D7"/>
</linearGradient>
<linearGradient id="paint86_linear_384_5606" x1="-11991.6" y1="11845.6" x2="-12213.9" y2="11564.7" gradientUnits="userSpaceOnUse">
<stop/>
<stop offset="0.45" stop-color="#FF5B57"/>
<stop offset="1" stop-color="#AAE4D7"/>
</linearGradient>
<linearGradient id="paint87_linear_384_5606" x1="-21282.5" y1="16887.2" x2="-21504.8" y2="16606.3" gradientUnits="userSpaceOnUse">
<stop/>
<stop offset="0.45" stop-color="#FF5B57"/>
<stop offset="1" stop-color="#AAE4D7"/>
</linearGradient>
<linearGradient id="paint88_linear_384_5606" x1="-9538.88" y1="9217.34" x2="-9761.12" y2="8936.47" gradientUnits="userSpaceOnUse">
<stop/>
<stop offset="0.45" stop-color="#FF5B57"/>
<stop offset="1" stop-color="#AAE4D7"/>
</linearGradient>
<linearGradient id="paint89_linear_384_5606" x1="-11405" y1="10809.3" x2="-11627.2" y2="10528.4" gradientUnits="userSpaceOnUse">
<stop/>
<stop offset="0.45" stop-color="#FF5B57"/>
<stop offset="1" stop-color="#AAE4D7"/>
</linearGradient>
<linearGradient id="paint90_linear_384_5606" x1="-27422.9" y1="23869" x2="-27645.2" y2="23588.2" gradientUnits="userSpaceOnUse">
<stop/>
<stop offset="0.45" stop-color="#FF5B57"/>
<stop offset="1" stop-color="#AAE4D7"/>
</linearGradient>
<linearGradient id="paint91_linear_384_5606" x1="-23313.7" y1="20306.2" x2="-23536" y2="20025.3" gradientUnits="userSpaceOnUse">
<stop/>
<stop offset="0.45" stop-color="#FF5B57"/>
<stop offset="1" stop-color="#AAE4D7"/>
</linearGradient>
<linearGradient id="paint92_linear_384_5606" x1="-5596.14" y1="5433.53" x2="-5818.38" y2="5152.66" gradientUnits="userSpaceOnUse">
<stop/>
<stop offset="0.45" stop-color="#FF5B57"/>
<stop offset="1" stop-color="#AAE4D7"/>
</linearGradient>
<linearGradient id="paint93_linear_384_5606" x1="-13184.8" y1="11699.4" x2="-13407" y2="11418.5" gradientUnits="userSpaceOnUse">
<stop/>
<stop offset="0.45" stop-color="#FF5B57"/>
<stop offset="1" stop-color="#AAE4D7"/>
</linearGradient>
<linearGradient id="paint94_linear_384_5606" x1="-7934.49" y1="8785.19" x2="-8156.73" y2="8504.31" gradientUnits="userSpaceOnUse">
<stop/>
<stop offset="0.45" stop-color="#FF5B57"/>
<stop offset="1" stop-color="#AAE4D7"/>
</linearGradient>
<linearGradient id="paint95_linear_384_5606" x1="-29241.5" y1="23808.2" x2="-29463.7" y2="23527.3" gradientUnits="userSpaceOnUse">
<stop/>
<stop offset="0.45" stop-color="#FF5B57"/>
<stop offset="1" stop-color="#AAE4D7"/>
</linearGradient>
<linearGradient id="paint96_linear_384_5606" x1="-3669.32" y1="4148.19" x2="-3891.56" y2="3867.31" gradientUnits="userSpaceOnUse">
<stop/>
<stop offset="0.45" stop-color="#FF5B57"/>
<stop offset="1" stop-color="#AAE4D7"/>
</linearGradient>
<linearGradient id="paint97_linear_384_5606" x1="-18129.6" y1="14439.6" x2="-18351.9" y2="14158.8" gradientUnits="userSpaceOnUse">
<stop/>
<stop offset="0.45" stop-color="#FF5B57"/>
<stop offset="1" stop-color="#AAE4D7"/>
</linearGradient>
<linearGradient id="paint98_linear_384_5606" x1="-12801.3" y1="11072.2" x2="-13023.5" y2="10791.4" gradientUnits="userSpaceOnUse">
<stop/>
<stop offset="0.45" stop-color="#FF5B57"/>
<stop offset="1" stop-color="#AAE4D7"/>
</linearGradient>
<linearGradient id="paint99_linear_384_5606" x1="-23702.4" y1="20671.2" x2="-23924.6" y2="20390.4" gradientUnits="userSpaceOnUse">
<stop/>
<stop offset="0.45" stop-color="#FF5B57"/>
<stop offset="1" stop-color="#AAE4D7"/>
</linearGradient>
<linearGradient id="paint100_linear_384_5606" x1="-10238.1" y1="10433.4" x2="-10460.3" y2="10152.5" gradientUnits="userSpaceOnUse">
<stop/>
<stop offset="0.45" stop-color="#FF5B57"/>
<stop offset="1" stop-color="#AAE4D7"/>
</linearGradient>
<linearGradient id="paint101_linear_384_5606" x1="-29486.6" y1="23668.3" x2="-29708.9" y2="23387.4" gradientUnits="userSpaceOnUse">
<stop/>
<stop offset="0.45" stop-color="#FF5B57"/>
<stop offset="1" stop-color="#AAE4D7"/>
</linearGradient>
<linearGradient id="paint102_linear_384_5606" x1="-18302.1" y1="14461.5" x2="-18524.3" y2="14180.7" gradientUnits="userSpaceOnUse">
<stop/>
<stop offset="0.45" stop-color="#FF5B57"/>
<stop offset="1" stop-color="#AAE4D7"/>
</linearGradient>
<linearGradient id="paint103_linear_384_5606" x1="-21430.1" y1="19279.8" x2="-21652.3" y2="18999" gradientUnits="userSpaceOnUse">
<stop/>
<stop offset="0.45" stop-color="#FF5B57"/>
<stop offset="1" stop-color="#AAE4D7"/>
</linearGradient>
<linearGradient id="paint104_linear_384_5606" x1="-27241.7" y1="24147.2" x2="-27464" y2="23866.3" gradientUnits="userSpaceOnUse">
<stop/>
<stop offset="0.45" stop-color="#FF5B57"/>
<stop offset="1" stop-color="#AAE4D7"/>
</linearGradient>
<linearGradient id="paint105_linear_384_5606" x1="-22925.3" y1="19421.9" x2="-23147.6" y2="19141" gradientUnits="userSpaceOnUse">
<stop/>
<stop offset="0.45" stop-color="#FF5B57"/>
<stop offset="1" stop-color="#AAE4D7"/>
</linearGradient>
<linearGradient id="paint106_linear_384_5606" x1="-22715.2" y1="19253.7" x2="-22937.4" y2="18972.9" gradientUnits="userSpaceOnUse">
<stop/>
<stop offset="0.45" stop-color="#FF5B57"/>
<stop offset="1" stop-color="#AAE4D7"/>
</linearGradient>
<linearGradient id="paint107_linear_384_5606" x1="-30293.8" y1="24834.8" x2="-30516.1" y2="24553.9" gradientUnits="userSpaceOnUse">
<stop/>
<stop offset="0.45" stop-color="#FF5B57"/>
<stop offset="1" stop-color="#AAE4D7"/>
</linearGradient>
<linearGradient id="paint108_linear_384_5606" x1="-24302.7" y1="21622.5" x2="-24524.9" y2="21341.6" gradientUnits="userSpaceOnUse">
<stop/>
<stop offset="0.45" stop-color="#FF5B57"/>
<stop offset="1" stop-color="#AAE4D7"/>
</linearGradient>
<linearGradient id="paint109_linear_384_5606" x1="-11822.2" y1="9326.02" x2="-12044.4" y2="9045.14" gradientUnits="userSpaceOnUse">
<stop/>
<stop offset="0.45" stop-color="#FF5B57"/>
<stop offset="1" stop-color="#AAE4D7"/>
</linearGradient>
<linearGradient id="paint110_linear_384_5606" x1="-23957.7" y1="19122.1" x2="-24179.9" y2="18841.2" gradientUnits="userSpaceOnUse">
<stop/>
<stop offset="0.45" stop-color="#FF5B57"/>
<stop offset="1" stop-color="#AAE4D7"/>
</linearGradient>
<linearGradient id="paint111_linear_384_5606" x1="-18404.3" y1="15230.5" x2="-18626.6" y2="14949.6" gradientUnits="userSpaceOnUse">
<stop/>
<stop offset="0.45" stop-color="#FF5B57"/>
<stop offset="1" stop-color="#AAE4D7"/>
</linearGradient>
<linearGradient id="paint112_linear_384_5606" x1="-25387.9" y1="20380.8" x2="-25610.2" y2="20099.9" gradientUnits="userSpaceOnUse">
<stop/>
<stop offset="0.45" stop-color="#FF5B57"/>
<stop offset="1" stop-color="#AAE4D7"/>
</linearGradient>
<linearGradient id="paint113_linear_384_5606" x1="-16779.4" y1="13310" x2="-17001.6" y2="13029.2" gradientUnits="userSpaceOnUse">
<stop/>
<stop offset="0.45" stop-color="#FF5B57"/>
<stop offset="1" stop-color="#AAE4D7"/>
</linearGradient>
<linearGradient id="paint114_linear_384_5606" x1="-18316.1" y1="15462" x2="-18538.3" y2="15181.2" gradientUnits="userSpaceOnUse">
<stop/>
<stop offset="0.45" stop-color="#FF5B57"/>
<stop offset="1" stop-color="#AAE4D7"/>
</linearGradient>
<linearGradient id="paint115_linear_384_5606" x1="-24485.3" y1="21726.1" x2="-24707.5" y2="21445.3" gradientUnits="userSpaceOnUse">
<stop/>
<stop offset="0.45" stop-color="#FF5B57"/>
<stop offset="1" stop-color="#AAE4D7"/>
</linearGradient>
<linearGradient id="paint116_linear_384_5606" x1="-10140" y1="10590.4" x2="-10362.2" y2="10309.5" gradientUnits="userSpaceOnUse">
<stop/>
<stop offset="0.45" stop-color="#FF5B57"/>
<stop offset="1" stop-color="#AAE4D7"/>
</linearGradient>
<linearGradient id="paint117_linear_384_5606" x1="-17498.7" y1="14786.8" x2="-17721" y2="14506" gradientUnits="userSpaceOnUse">
<stop/>
<stop offset="0.45" stop-color="#FF5B57"/>
<stop offset="1" stop-color="#AAE4D7"/>
</linearGradient>
<linearGradient id="paint118_linear_384_5606" x1="-1560.58" y1="3374.1" x2="-1782.82" y2="3093.23" gradientUnits="userSpaceOnUse">
<stop/>
<stop offset="0.45" stop-color="#FF5B57"/>
<stop offset="1" stop-color="#AAE4D7"/>
</linearGradient>
<linearGradient id="paint119_linear_384_5606" x1="-23086.2" y1="18508.5" x2="-23308.4" y2="18227.7" gradientUnits="userSpaceOnUse">
<stop/>
<stop offset="0.45" stop-color="#FF5B57"/>
<stop offset="1" stop-color="#AAE4D7"/>
</linearGradient>
<linearGradient id="paint120_linear_384_5606" x1="-1575.52" y1="1958.88" x2="-1797.76" y2="1678.01" gradientUnits="userSpaceOnUse">
<stop/>
<stop offset="0.45" stop-color="#FF5B57"/>
<stop offset="1" stop-color="#AAE4D7"/>
</linearGradient>
<linearGradient id="paint121_linear_384_5606" x1="-32227.7" y1="26164.2" x2="-32450" y2="25883.3" gradientUnits="userSpaceOnUse">
<stop/>
<stop offset="0.45" stop-color="#FF5B57"/>
<stop offset="1" stop-color="#AAE4D7"/>
</linearGradient>
<linearGradient id="paint122_linear_384_5606" x1="-5296.9" y1="6129.5" x2="-5519.14" y2="5848.63" gradientUnits="userSpaceOnUse">
<stop/>
<stop offset="0.45" stop-color="#FF5B57"/>
<stop offset="1" stop-color="#AAE4D7"/>
</linearGradient>
<linearGradient id="paint123_linear_384_5606" x1="-5163.1" y1="4959.73" x2="-5385.34" y2="4678.86" gradientUnits="userSpaceOnUse">
<stop/>
<stop offset="0.45" stop-color="#FF5B57"/>
<stop offset="1" stop-color="#AAE4D7"/>
</linearGradient>
<linearGradient id="paint124_linear_384_5606" x1="-23676.5" y1="19313.1" x2="-23898.7" y2="19032.2" gradientUnits="userSpaceOnUse">
<stop/>
<stop offset="0.45" stop-color="#FF5B57"/>
<stop offset="1" stop-color="#AAE4D7"/>
</linearGradient>
<linearGradient id="paint125_linear_384_5606" x1="-14168.3" y1="13736.6" x2="-14390.5" y2="13455.7" gradientUnits="userSpaceOnUse">
<stop/>
<stop offset="0.45" stop-color="#FF5B57"/>
<stop offset="1" stop-color="#AAE4D7"/>
</linearGradient>
<linearGradient id="paint126_linear_384_5606" x1="-19107.4" y1="16183.6" x2="-19329.6" y2="15902.8" gradientUnits="userSpaceOnUse">
<stop/>
<stop offset="0.45" stop-color="#FF5B57"/>
<stop offset="1" stop-color="#AAE4D7"/>
</linearGradient>
<linearGradient id="paint127_linear_384_5606" x1="-16823.7" y1="14769.5" x2="-17046" y2="14488.7" gradientUnits="userSpaceOnUse">
<stop/>
<stop offset="0.45" stop-color="#FF5B57"/>
<stop offset="1" stop-color="#AAE4D7"/>
</linearGradient>
<linearGradient id="paint128_linear_384_5606" x1="-22041.9" y1="19307.5" x2="-22264.1" y2="19026.6" gradientUnits="userSpaceOnUse">
<stop/>
<stop offset="0.45" stop-color="#FF5B57"/>
<stop offset="1" stop-color="#AAE4D7"/>
</linearGradient>
<linearGradient id="paint129_linear_384_5606" x1="-3594.36" y1="5384.24" x2="-3816.59" y2="5103.37" gradientUnits="userSpaceOnUse">
<stop/>
<stop offset="0.45" stop-color="#FF5B57"/>
<stop offset="1" stop-color="#AAE4D7"/>
</linearGradient>
<linearGradient id="paint130_linear_384_5606" x1="-6993.83" y1="7157.86" x2="-7216.07" y2="6876.98" gradientUnits="userSpaceOnUse">
<stop/>
<stop offset="0.45" stop-color="#FF5B57"/>
<stop offset="1" stop-color="#AAE4D7"/>
</linearGradient>
<linearGradient id="paint131_linear_384_5606" x1="-10416.1" y1="8004.24" x2="-10638.3" y2="7723.37" gradientUnits="userSpaceOnUse">
<stop/>
<stop offset="0.45" stop-color="#FF5B57"/>
<stop offset="1" stop-color="#AAE4D7"/>
</linearGradient>
<linearGradient id="paint132_linear_384_5606" x1="-26178.8" y1="22030" x2="-26401" y2="21749.1" gradientUnits="userSpaceOnUse">
<stop/>
<stop offset="0.45" stop-color="#FF5B57"/>
<stop offset="1" stop-color="#AAE4D7"/>
</linearGradient>
<linearGradient id="paint133_linear_384_5606" x1="-31444.7" y1="25931.4" x2="-31667" y2="25650.5" gradientUnits="userSpaceOnUse">
<stop/>
<stop offset="0.45" stop-color="#FF5B57"/>
<stop offset="1" stop-color="#AAE4D7"/>
</linearGradient>
<linearGradient id="paint134_linear_384_5606" x1="-35250.2" y1="28598.7" x2="-35472.4" y2="28317.8" gradientUnits="userSpaceOnUse">
<stop/>
<stop offset="0.45" stop-color="#FF5B57"/>
<stop offset="1" stop-color="#AAE4D7"/>
</linearGradient>
<linearGradient id="paint135_linear_384_5606" x1="-13609.8" y1="10935.3" x2="-13832.1" y2="10654.4" gradientUnits="userSpaceOnUse">
<stop/>
<stop offset="0.45" stop-color="#FF5B57"/>
<stop offset="1" stop-color="#AAE4D7"/>
</linearGradient>
<linearGradient id="paint136_linear_384_5606" x1="-3541.97" y1="4392.29" x2="-3764.2" y2="4111.42" gradientUnits="userSpaceOnUse">
<stop/>
<stop offset="0.45" stop-color="#FF5B57"/>
<stop offset="1" stop-color="#AAE4D7"/>
</linearGradient>
<linearGradient id="paint137_linear_384_5606" x1="-5306.29" y1="6420.06" x2="-5528.53" y2="6139.19" gradientUnits="userSpaceOnUse">
<stop/>
<stop offset="0.45" stop-color="#FF5B57"/>
<stop offset="1" stop-color="#AAE4D7"/>
</linearGradient>
<linearGradient id="paint138_linear_384_5606" x1="-20181.7" y1="16271" x2="-20403.9" y2="15990.1" gradientUnits="userSpaceOnUse">
<stop/>
<stop offset="0.45" stop-color="#FF5B57"/>
<stop offset="1" stop-color="#AAE4D7"/>
</linearGradient>
<linearGradient id="paint139_linear_384_5606" x1="-3420.94" y1="3421.81" x2="-3643.17" y2="3140.94" gradientUnits="userSpaceOnUse">
<stop/>
<stop offset="0.45" stop-color="#FF5B57"/>
<stop offset="1" stop-color="#AAE4D7"/>
</linearGradient>
<linearGradient id="paint140_linear_384_5606" x1="-14103" y1="13815.1" x2="-14325.3" y2="13534.3" gradientUnits="userSpaceOnUse">
<stop/>
<stop offset="0.45" stop-color="#FF5B57"/>
<stop offset="1" stop-color="#AAE4D7"/>
</linearGradient>
<linearGradient id="paint141_linear_384_5606" x1="-34874.5" y1="28128.3" x2="-35096.7" y2="27847.4" gradientUnits="userSpaceOnUse">
<stop/>
<stop offset="0.45" stop-color="#FF5B57"/>
<stop offset="1" stop-color="#AAE4D7"/>
</linearGradient>
<linearGradient id="paint142_linear_384_5606" x1="-11179.3" y1="10469.8" x2="-11401.5" y2="10189" gradientUnits="userSpaceOnUse">
<stop/>
<stop offset="0.45" stop-color="#FF5B57"/>
<stop offset="1" stop-color="#AAE4D7"/>
</linearGradient>
<linearGradient id="paint143_linear_384_5606" x1="-2988.5" y1="3628.39" x2="-3210.74" y2="3347.52" gradientUnits="userSpaceOnUse">
<stop/>
<stop offset="0.45" stop-color="#FF5B57"/>
<stop offset="1" stop-color="#AAE4D7"/>
</linearGradient>
<linearGradient id="paint144_linear_384_5606" x1="-34974" y1="29188.9" x2="-35196.2" y2="28908" gradientUnits="userSpaceOnUse">
<stop/>
<stop offset="0.45" stop-color="#FF5B57"/>
<stop offset="1" stop-color="#AAE4D7"/>
</linearGradient>
<linearGradient id="paint145_linear_384_5606" x1="-14167.5" y1="13281.1" x2="-14389.8" y2="13000.2" gradientUnits="userSpaceOnUse">
<stop/>
<stop offset="0.45" stop-color="#FF5B57"/>
<stop offset="1" stop-color="#AAE4D7"/>
</linearGradient>
<linearGradient id="paint146_linear_384_5606" x1="-22627.5" y1="18276.2" x2="-22849.8" y2="17995.3" gradientUnits="userSpaceOnUse">
<stop/>
<stop offset="0.45" stop-color="#FF5B57"/>
<stop offset="1" stop-color="#AAE4D7"/>
</linearGradient>
<linearGradient id="paint147_linear_384_5606" x1="-29133.3" y1="24402.9" x2="-29355.5" y2="24122" gradientUnits="userSpaceOnUse">
<stop/>
<stop offset="0.45" stop-color="#FF5B57"/>
<stop offset="1" stop-color="#AAE4D7"/>
</linearGradient>
<linearGradient id="paint148_linear_384_5606" x1="-9221.29" y1="7235.36" x2="-9443.53" y2="6954.49" gradientUnits="userSpaceOnUse">
<stop/>
<stop offset="0.45" stop-color="#FF5B57"/>
<stop offset="1" stop-color="#AAE4D7"/>
</linearGradient>
<linearGradient id="paint149_linear_384_5606" x1="-22152.9" y1="17953" x2="-22375.2" y2="17672.1" gradientUnits="userSpaceOnUse">
<stop/>
<stop offset="0.45" stop-color="#FF5B57"/>
<stop offset="1" stop-color="#AAE4D7"/>
</linearGradient>
<clipPath id="clip0_384_5606">
<rect width="1920" height="936" fill="white"/>
</clipPath>
<clipPath id="clip1_384_5606">
<rect width="1920" height="936" fill="white"/>
</clipPath>
<clipPath id="clip2_384_5606">
<rect width="1918.86" height="1020" fill="white" transform="translate(1920.84 986.697) rotate(179.888)"/>
</clipPath>
</defs>
</svg>
