<svg width="1920" height="1080" viewBox="0 0 1920 1080" fill="none" xmlns="http://www.w3.org/2000/svg">
<g clip-path="url(#clip0_421_5784)">
<rect width="1920" height="1080" fill="white"/>
<rect width="1920" height="1080" fill="#1D2431"/>
<g clip-path="url(#clip1_421_5784)">
<g opacity="0.73" clip-path="url(#clip2_421_5784)">
<path d="M1.98551 1142.81L1920.84 1138.5L1918.86 -38.4247L-0.00018357 -34.1145L1.98551 1142.81Z" fill="black"/>
<path opacity="0.19" d="M372.722 412.944L1272.15 782.766C1273.25 783.218 1274.74 783.037 1275.48 782.362C1276.22 781.687 1275.93 780.773 1274.83 780.321L375.401 410.499C374.302 410.047 372.811 410.228 372.071 410.903C371.332 411.579 371.623 412.492 372.722 412.944Z" fill="url(#paint0_linear_421_5784)"/>
<path opacity="0.48" d="M1569.23 942.125L2130.38 1172.86C2131.48 1173.31 2132.97 1173.13 2133.71 1172.45C2134.45 1171.78 2134.16 1170.86 2133.06 1170.41L1571.91 939.68C1570.81 939.228 1569.32 939.409 1568.58 940.085C1567.84 940.76 1568.13 941.674 1569.23 942.125Z" fill="url(#paint1_linear_421_5784)"/>
<path opacity="0.12" d="M1323.12 762.99L1977.79 1032.17C1978.89 1032.63 1980.38 1032.45 1981.12 1031.77C1981.86 1031.09 1981.57 1030.18 1980.47 1029.73L1325.79 760.545C1324.7 760.093 1323.2 760.274 1322.47 760.949C1321.73 761.624 1322.02 762.538 1323.12 762.99Z" fill="url(#paint2_linear_421_5784)"/>
<path opacity="0.44" d="M321.927 454.017L1030.33 745.293C1031.43 745.745 1032.92 745.563 1033.66 744.888C1034.4 744.213 1034.11 743.299 1033.01 742.847L324.605 451.572C323.506 451.12 322.016 451.301 321.276 451.976C320.536 452.651 320.828 453.565 321.927 454.017Z" fill="url(#paint3_linear_421_5784)"/>
<path opacity="0.88" d="M825.469 915.993L1094.1 1026.45C1095.2 1026.9 1096.69 1026.72 1097.43 1026.04C1098.17 1025.37 1097.88 1024.45 1096.78 1024L828.148 913.547C827.049 913.096 825.558 913.277 824.819 913.952C824.079 914.627 824.37 915.541 825.469 915.993Z" fill="url(#paint4_linear_421_5784)"/>
<path opacity="0.12" d="M-194.604 112.227L336.698 330.684C337.797 331.136 339.287 330.955 340.027 330.28C340.766 329.605 340.475 328.691 339.376 328.239L-191.925 109.782C-193.024 109.33 -194.515 109.511 -195.254 110.187C-195.994 110.862 -195.703 111.776 -194.604 112.227Z" fill="url(#paint5_linear_421_5784)"/>
<path opacity="0.67" d="M1685.87 881.772L2018.18 1018.41C2019.28 1018.86 2020.77 1018.68 2021.51 1018.01C2022.25 1017.33 2021.96 1016.42 2020.86 1015.96L1688.54 879.327C1687.45 878.875 1685.95 879.056 1685.22 879.731C1684.48 880.406 1684.77 881.32 1685.87 881.772Z" fill="url(#paint6_linear_421_5784)"/>
<path opacity="0.54" d="M78.048 535.345L338.724 642.528C339.823 642.979 341.313 642.798 342.053 642.123C342.793 641.448 342.501 640.534 341.402 640.082L80.7264 532.899C79.6274 532.447 78.1369 532.628 77.3973 533.304C76.6577 533.979 76.949 534.893 78.048 535.345Z" fill="url(#paint7_linear_421_5784)"/>
<path opacity="0.98" d="M1561.22 177.268L2150.22 419.453C2151.32 419.905 2152.81 419.724 2153.55 419.048C2154.29 418.373 2154 417.459 2152.9 417.008L1563.89 174.823C1562.8 174.371 1561.3 174.552 1560.56 175.228C1559.83 175.903 1560.12 176.817 1561.22 177.268Z" fill="url(#paint8_linear_421_5784)"/>
<path opacity="0.88" d="M721.058 458.519L1182.71 648.34C1183.81 648.791 1185.3 648.61 1186.04 647.935C1186.78 647.26 1186.49 646.346 1185.39 645.894L723.736 456.074C722.638 455.622 721.147 455.803 720.407 456.478C719.668 457.154 719.959 458.067 721.058 458.519Z" fill="url(#paint9_linear_421_5784)"/>
<path opacity="0.58" d="M983.968 440.864L1250.61 550.502C1251.71 550.954 1253.2 550.772 1253.94 550.097C1254.68 549.422 1254.39 548.508 1253.29 548.056L986.646 438.419C985.547 437.967 984.057 438.148 983.317 438.823C982.578 439.499 982.869 440.412 983.968 440.864Z" fill="url(#paint10_linear_421_5784)"/>
<path opacity="0.84" d="M1332.97 858.912L1872.23 1080.64C1873.33 1081.09 1874.82 1080.91 1875.56 1080.24C1876.3 1079.56 1876.01 1078.65 1874.91 1078.2L1335.65 856.466C1334.55 856.015 1333.06 856.196 1332.32 856.871C1331.58 857.546 1331.87 858.46 1332.97 858.912Z" fill="url(#paint11_linear_421_5784)"/>
<path opacity="0.19" d="M714.347 85.7541L1605.82 452.303C1606.92 452.755 1608.41 452.574 1609.15 451.899C1609.89 451.224 1609.6 450.31 1608.5 449.858L717.025 83.3087C715.926 82.8569 714.436 83.038 713.696 83.7132C712.956 84.3885 713.248 85.3022 714.347 85.7541Z" fill="url(#paint12_linear_421_5784)"/>
<path opacity="0.82" d="M-0.388593 267.296L248.348 369.57C249.447 370.022 250.937 369.841 251.677 369.166C252.417 368.49 252.125 367.577 251.026 367.125L2.28982 264.851C1.19082 264.399 -0.299672 264.58 -1.03929 265.255C-1.77892 265.931 -1.48759 266.844 -0.388593 267.296Z" fill="url(#paint13_linear_421_5784)"/>
<path opacity="0.84" d="M483.935 860.923L581.44 901.014C582.539 901.466 584.029 901.285 584.769 900.609C585.509 899.934 585.217 899.02 584.118 898.569L486.613 858.477C485.514 858.025 484.024 858.206 483.284 858.882C482.545 859.557 482.836 860.471 483.935 860.923Z" fill="url(#paint14_linear_421_5784)"/>
<path opacity="0.4" d="M243.41 871.679L462.298 961.68C463.397 962.132 464.888 961.951 465.627 961.276C466.367 960.601 466.076 959.687 464.977 959.235L246.088 869.234C244.989 868.782 243.499 868.963 242.759 869.639C242.02 870.314 242.311 871.228 243.41 871.679Z" fill="url(#paint15_linear_421_5784)"/>
<path opacity="0.42" d="M1588.38 338.53L2065.96 534.896C2067.06 535.348 2068.55 535.167 2069.29 534.492C2070.03 533.816 2069.73 532.903 2068.64 532.451L1591.06 336.085C1589.96 335.633 1588.47 335.814 1587.73 336.49C1586.99 337.165 1587.28 338.079 1588.38 338.53Z" fill="url(#paint16_linear_421_5784)"/>
<path opacity="0.91" d="M1440.12 325.749L1945.55 533.57C1946.65 534.021 1948.14 533.84 1948.88 533.165C1949.62 532.49 1949.33 531.576 1948.23 531.124L1442.8 323.304C1441.7 322.852 1440.21 323.033 1439.47 323.708C1438.73 324.384 1439.02 325.297 1440.12 325.749Z" fill="url(#paint17_linear_421_5784)"/>
<path opacity="0.14" d="M1189.53 -12.5544L1398.47 73.3556C1399.57 73.8075 1401.06 73.6264 1401.8 72.9512C1402.54 72.2759 1402.25 71.3622 1401.15 70.9103L1192.21 -14.9997C1191.11 -15.4515 1189.62 -15.2705 1188.88 -14.5952C1188.14 -13.9199 1188.43 -13.0062 1189.53 -12.5544Z" fill="url(#paint18_linear_421_5784)"/>
<path opacity="0.08" d="M1652.52 813.874L1964.93 942.33C1966.03 942.782 1967.52 942.601 1968.26 941.925C1969 941.25 1968.71 940.336 1967.61 939.884L1655.2 811.429C1654.1 810.977 1652.61 811.158 1651.87 811.833C1651.13 812.508 1651.42 813.422 1652.52 813.874Z" fill="url(#paint19_linear_421_5784)"/>
<path opacity="0.24" d="M1327.81 525.663L2020.29 810.394C2021.39 810.846 2022.88 810.665 2023.62 809.989C2024.36 809.314 2024.07 808.4 2022.97 807.948L1330.49 523.218C1329.39 522.766 1327.9 522.947 1327.16 523.623C1326.42 524.298 1326.71 525.212 1327.81 525.663Z" fill="url(#paint20_linear_421_5784)"/>
<path opacity="0.19" d="M262.337 77.2088L666.285 243.301C667.384 243.753 668.875 243.572 669.615 242.897C670.354 242.222 670.063 241.308 668.964 240.856L265.016 74.7635C263.917 74.3116 262.426 74.4927 261.687 75.1679C260.947 75.8432 261.238 76.7569 262.337 77.2088Z" fill="url(#paint21_linear_421_5784)"/>
<path opacity="0.2" d="M-384.835 676.352L572.303 1069.9C573.402 1070.35 574.893 1070.17 575.632 1069.5C576.372 1068.82 576.08 1067.91 574.981 1067.46L-382.157 673.907C-383.256 673.455 -384.746 673.636 -385.486 674.312C-386.226 674.987 -385.934 675.901 -384.835 676.352Z" fill="url(#paint22_linear_421_5784)"/>
<path opacity="0.32" d="M1560.5 442.552L2161.44 689.646C2162.54 690.098 2164.03 689.916 2164.77 689.241C2165.51 688.566 2165.22 687.652 2164.12 687.2L1563.17 440.107C1562.07 439.655 1560.58 439.836 1559.84 440.511C1559.1 441.187 1559.4 442.1 1560.5 442.552Z" fill="url(#paint23_linear_421_5784)"/>
<path opacity="0.52" d="M197.408 813.4L983.415 1136.59C984.514 1137.04 986.005 1136.86 986.744 1136.18C987.484 1135.51 987.193 1134.59 986.094 1134.14L200.086 810.955C198.987 810.503 197.497 810.684 196.757 811.359C196.017 812.034 196.309 812.948 197.408 813.4Z" fill="url(#paint24_linear_421_5784)"/>
<path opacity="0.7" d="M736.217 922.637L1500.34 1236.82C1501.43 1237.27 1502.92 1237.09 1503.66 1236.42C1504.4 1235.74 1504.11 1234.83 1503.01 1234.38L738.895 920.192C737.796 919.74 736.306 919.921 735.566 920.597C734.826 921.272 735.118 922.185 736.217 922.637Z" fill="url(#paint25_linear_421_5784)"/>
<path opacity="0.22" d="M33.1279 729.231L110.734 761.14C111.833 761.592 113.323 761.411 114.063 760.736C114.802 760.061 114.511 759.147 113.412 758.695L35.8063 726.786C34.7073 726.334 33.2169 726.515 32.4772 727.19C31.7376 727.865 32.0289 728.779 33.1279 729.231Z" fill="url(#paint26_linear_421_5784)"/>
<path opacity="0.91" d="M797.029 1052.51L1031.84 1149.06C1032.94 1149.51 1034.43 1149.33 1035.17 1148.65C1035.91 1147.98 1035.61 1147.06 1034.51 1146.61L799.707 1050.07C798.608 1049.61 797.118 1049.79 796.378 1050.47C795.639 1051.15 795.93 1052.06 797.029 1052.51Z" fill="url(#paint27_linear_421_5784)"/>
<path opacity="0.5" d="M69.3197 991.798L598.631 1209.44C599.73 1209.89 601.221 1209.71 601.96 1209.03C602.7 1208.36 602.409 1207.44 601.31 1206.99L71.9982 989.352C70.8992 988.9 69.4087 989.081 68.669 989.757C67.9294 990.432 68.2208 991.346 69.3197 991.798Z" fill="url(#paint28_linear_421_5784)"/>
<path opacity="0.37" d="M395.228 59.0416L1262.82 415.773C1263.92 416.225 1265.41 416.043 1266.15 415.368C1266.89 414.693 1266.6 413.779 1265.5 413.327L397.907 56.5963C396.808 56.1444 395.317 56.3255 394.578 57.0008C393.838 57.676 394.129 58.5897 395.228 59.0416Z" fill="url(#paint29_linear_421_5784)"/>
<path opacity="0.32" d="M998.561 730.427L1308.98 858.065C1310.08 858.516 1311.57 858.335 1312.31 857.66C1313.05 856.985 1312.76 856.071 1311.66 855.619L1001.24 727.982C1000.14 727.53 998.65 727.711 997.911 728.386C997.171 729.061 997.462 729.975 998.561 730.427Z" fill="url(#paint30_linear_421_5784)"/>
<path opacity="0.33" d="M1188.07 442.622L1387.06 524.441C1388.16 524.892 1389.65 524.711 1390.39 524.036C1391.13 523.361 1390.84 522.447 1389.74 521.995L1190.75 440.176C1189.65 439.724 1188.16 439.905 1187.42 440.581C1186.68 441.256 1186.98 442.17 1188.07 442.622Z" fill="url(#paint31_linear_421_5784)"/>
<path opacity="0.22" d="M1437.57 739.898L1690.28 843.808C1691.38 844.26 1692.87 844.079 1693.61 843.404C1694.35 842.729 1694.06 841.815 1692.96 841.363L1440.25 737.453C1439.15 737.001 1437.66 737.182 1436.92 737.857C1436.18 738.532 1436.47 739.446 1437.57 739.898Z" fill="url(#paint32_linear_421_5784)"/>
<path opacity="0.13" d="M322.853 567.535L852.164 785.174C853.263 785.625 854.754 785.444 855.494 784.769C856.233 784.094 855.942 783.18 854.843 782.728L325.531 565.09C324.432 564.638 322.942 564.819 322.202 565.494C321.463 566.169 321.754 567.083 322.853 567.535Z" fill="url(#paint33_linear_421_5784)"/>
<path opacity="0.71" d="M-141.603 -50.1674L662.314 280.382C663.413 280.833 664.903 280.652 665.643 279.977C666.383 279.302 666.091 278.388 664.992 277.936L-138.924 -52.6127C-140.023 -53.0646 -141.514 -52.8835 -142.254 -52.2083C-142.993 -51.533 -142.702 -50.6193 -141.603 -50.1674Z" fill="url(#paint34_linear_421_5784)"/>
<path opacity="0.2" d="M144.929 548.95L751.846 798.498C752.945 798.95 754.436 798.769 755.175 798.094C755.915 797.419 755.623 796.505 754.524 796.053L147.607 546.505C146.508 546.053 145.018 546.234 144.278 546.909C143.538 547.585 143.83 548.498 144.929 548.95Z" fill="url(#paint35_linear_421_5784)"/>
<path opacity="0.37" d="M-90.9127 675.588L517.994 925.954C519.093 926.406 520.584 926.225 521.324 925.55C522.063 924.875 521.772 923.961 520.673 923.509L-88.2343 673.143C-89.3333 672.691 -90.8237 672.872 -91.5634 673.547C-92.303 674.222 -92.0117 675.136 -90.9127 675.588Z" fill="url(#paint36_linear_421_5784)"/>
<path opacity="0.8" d="M1506.85 1026.27L1775.49 1136.73C1776.59 1137.18 1778.08 1137 1778.82 1136.32C1779.56 1135.65 1779.26 1134.73 1778.17 1134.28L1509.53 1023.82C1508.43 1023.37 1506.94 1023.55 1506.2 1024.23C1505.46 1024.9 1505.75 1025.82 1506.85 1026.27Z" fill="url(#paint37_linear_421_5784)"/>
<path opacity="0.61" d="M581.533 709.786L953.643 862.787C954.742 863.239 956.232 863.058 956.972 862.383C957.712 861.708 957.42 860.794 956.321 860.342L584.211 707.34C583.112 706.888 581.622 707.07 580.882 707.745C580.143 708.42 580.434 709.334 581.533 709.786Z" fill="url(#paint38_linear_421_5784)"/>
<path opacity="0.85" d="M934.582 594.328L1790.24 946.15C1791.33 946.601 1792.83 946.42 1793.56 945.745C1794.3 945.07 1794.01 944.156 1792.91 943.704L937.26 591.882C936.161 591.43 934.671 591.612 933.931 592.287C933.191 592.962 933.483 593.876 934.582 594.328Z" fill="url(#paint39_linear_421_5784)"/>
<path opacity="0.42" d="M-2.27638 1049.45L320.086 1181.99C321.185 1182.45 322.676 1182.27 323.415 1181.59C324.155 1180.92 323.864 1180 322.765 1179.55L0.40203 1047C-0.696968 1046.55 -2.18743 1046.73 -2.92706 1047.41C-3.66668 1048.08 -3.37538 1049 -2.27638 1049.45Z" fill="url(#paint40_linear_421_5784)"/>
<path opacity="0.75" d="M1089.97 527.073L1557.6 719.347C1558.7 719.799 1560.19 719.618 1560.93 718.943C1561.66 718.268 1561.37 717.354 1560.27 716.902L1092.65 524.627C1091.55 524.175 1090.06 524.356 1089.32 525.032C1088.58 525.707 1088.87 526.621 1089.97 527.073Z" fill="url(#paint41_linear_421_5784)"/>
<path opacity="0.52" d="M1543.67 1023.18L1983.43 1204C1984.53 1204.45 1986.02 1204.27 1986.76 1203.59C1987.5 1202.92 1987.21 1202 1986.11 1201.55L1546.35 1020.73C1545.25 1020.28 1543.76 1020.46 1543.02 1021.14C1542.28 1021.81 1542.57 1022.73 1543.67 1023.18Z" fill="url(#paint42_linear_421_5784)"/>
<path opacity="0.47" d="M415.072 567.95L663.809 670.224C664.908 670.676 666.398 670.495 667.138 669.819C667.878 669.144 667.586 668.23 666.487 667.778L417.751 565.505C416.652 565.053 415.161 565.234 414.422 565.909C413.682 566.584 413.973 567.498 415.072 567.95Z" fill="url(#paint43_linear_421_5784)"/>
<path opacity="0.92" d="M1806.29 11.292L1971.45 79.2018C1972.55 79.6537 1974.04 79.4726 1974.78 78.7974C1975.52 78.1221 1975.23 77.2084 1974.13 76.7565L1808.97 8.84672C1807.87 8.39484 1806.38 8.57592 1805.64 9.25118C1804.9 9.92643 1805.19 10.8401 1806.29 11.292Z" fill="url(#paint44_linear_421_5784)"/>
<path opacity="0.69" d="M1556.87 378.463L2112.05 606.738C2113.15 607.19 2114.64 607.009 2115.38 606.334C2116.12 605.659 2115.83 604.745 2114.73 604.293L1559.55 376.018C1558.45 375.566 1556.96 375.747 1556.22 376.422C1555.48 377.098 1555.77 378.011 1556.87 378.463Z" fill="url(#paint45_linear_421_5784)"/>
<path opacity="0.32" d="M271.598 1021.8L703.405 1199.34C704.504 1199.8 705.994 1199.61 706.734 1198.94C707.473 1198.26 707.182 1197.35 706.083 1196.9L274.276 1019.35C273.177 1018.9 271.687 1019.08 270.947 1019.76C270.208 1020.43 270.499 1021.34 271.598 1021.8Z" fill="url(#paint46_linear_421_5784)"/>
<path opacity="0.85" d="M773.388 807.229L992.276 897.23C993.375 897.682 994.865 897.501 995.605 896.826C996.344 896.15 996.053 895.237 994.954 894.785L776.066 804.784C774.967 804.332 773.476 804.513 772.737 805.188C771.997 805.864 772.289 806.777 773.388 807.229Z" fill="url(#paint47_linear_421_5784)"/>
<path opacity="0.95" d="M1264.66 433.145L1636.77 586.146C1637.87 586.598 1639.36 586.417 1640.1 585.742C1640.84 585.066 1640.55 584.153 1639.45 583.701L1267.34 430.699C1266.24 430.247 1264.75 430.428 1264.01 431.104C1263.27 431.779 1263.56 432.693 1264.66 433.145Z" fill="url(#paint48_linear_421_5784)"/>
<path opacity="0.68" d="M214.957 614.013L883.561 888.925C884.66 889.377 886.15 889.196 886.89 888.521C887.63 887.845 887.338 886.932 886.239 886.48L217.635 611.568C216.536 611.116 215.046 611.297 214.306 611.972C213.567 612.647 213.858 613.561 214.957 614.013Z" fill="url(#paint49_linear_421_5784)"/>
<path opacity="0.99" d="M238.343 771.333L572.645 908.789C573.744 909.241 575.234 909.06 575.974 908.385C576.714 907.71 576.422 906.796 575.323 906.344L241.021 768.888C239.922 768.436 238.432 768.617 237.692 769.292C236.953 769.968 237.244 770.881 238.343 771.333Z" fill="url(#paint50_linear_421_5784)"/>
<path opacity="0.57" d="M1046.89 669.337L1303.59 774.884C1304.69 775.336 1306.18 775.155 1306.92 774.479C1307.66 773.804 1307.36 772.891 1306.26 772.439L1049.57 666.892C1048.47 666.44 1046.98 666.621 1046.24 667.297C1045.5 667.972 1045.79 668.885 1046.89 669.337Z" fill="url(#paint51_linear_421_5784)"/>
<path opacity="0.09" d="M1484.79 451.331L1944.45 640.333C1945.55 640.785 1947.04 640.603 1947.78 639.928C1948.52 639.253 1948.23 638.339 1947.13 637.887L1487.47 448.885C1486.37 448.434 1484.88 448.615 1484.14 449.29C1483.4 449.965 1483.69 450.879 1484.79 451.331Z" fill="url(#paint52_linear_421_5784)"/>
<path opacity="0.9" d="M512.34 307.414L824.753 435.87C825.852 436.322 827.343 436.141 828.082 435.466C828.822 434.791 828.531 433.877 827.432 433.425L515.018 304.969C513.92 304.517 512.429 304.698 511.689 305.374C510.95 306.049 511.241 306.963 512.34 307.414Z" fill="url(#paint53_linear_421_5784)"/>
<path opacity="0.36" d="M23.9501 513.447L248.808 605.903C249.907 606.354 251.397 606.173 252.137 605.498C252.877 604.823 252.585 603.909 251.486 603.457L26.6285 511.002C25.5295 510.55 24.039 510.731 23.2994 511.406C22.5598 512.081 22.8511 512.995 23.9501 513.447Z" fill="url(#paint54_linear_421_5784)"/>
<path opacity="0.33" d="M185.643 958.907L424.43 1057.09C425.529 1057.54 427.02 1057.36 427.759 1056.69C428.499 1056.01 428.207 1055.1 427.108 1054.64L188.321 956.462C187.222 956.01 185.732 956.191 184.992 956.866C184.253 957.542 184.544 958.455 185.643 958.907Z" fill="url(#paint55_linear_421_5784)"/>
<path opacity="0.75" d="M515.317 0.666144L710.327 80.8488C711.426 81.3007 712.916 81.1196 713.656 80.4443C714.395 79.7691 714.104 78.8554 713.005 78.4035L517.995 -1.77916C516.896 -2.23104 515.406 -2.04995 514.666 -1.3747C513.927 -0.699447 514.218 0.214266 515.317 0.666144Z" fill="url(#paint56_linear_421_5784)"/>
<path opacity="0.97" d="M-19.0101 376.8L454.584 571.529C455.683 571.981 457.174 571.8 457.913 571.125C458.653 570.45 458.362 569.536 457.263 569.084L-16.3317 374.355C-17.4307 373.903 -18.9212 374.084 -19.6608 374.759C-20.4004 375.435 -20.1091 376.348 -19.0101 376.8Z" fill="url(#paint57_linear_421_5784)"/>
<path opacity="0.83" d="M828.819 267.561L1501.4 544.109C1502.5 544.561 1503.99 544.38 1504.73 543.705C1505.47 543.029 1505.18 542.116 1504.08 541.664L831.497 265.115C830.398 264.663 828.908 264.845 828.168 265.52C827.429 266.195 827.72 267.109 828.819 267.561Z" fill="url(#paint58_linear_421_5784)"/>
<path opacity="0.35" d="M1586.26 84.2142L2105.63 297.762C2106.72 298.214 2108.21 298.033 2108.95 297.357C2109.69 296.682 2109.4 295.768 2108.3 295.317L1588.94 81.7689C1587.84 81.317 1586.35 81.4981 1585.61 82.1733C1584.87 82.8486 1585.16 83.7623 1586.26 84.2142Z" fill="url(#paint59_linear_421_5784)"/>
<path opacity="0.61" d="M1046.65 576.444L1581.94 796.537C1583.03 796.989 1584.53 796.808 1585.26 796.133C1586 795.458 1585.71 794.544 1584.61 794.092L1049.33 573.999C1048.23 573.547 1046.74 573.728 1046 574.403C1045.26 575.078 1045.56 575.992 1046.65 576.444Z" fill="url(#paint60_linear_421_5784)"/>
<path opacity="0.15" d="M-54.3472 457.345L691.863 764.166C692.962 764.618 694.452 764.437 695.192 763.762C695.931 763.086 695.64 762.173 694.541 761.721L-51.6687 454.899C-52.7677 454.448 -54.2582 454.629 -54.9978 455.304C-55.7374 455.979 -55.4461 456.893 -54.3472 457.345Z" fill="url(#paint61_linear_421_5784)"/>
<path opacity="0.38" d="M1515.26 -60.2221L1801.8 57.5973C1802.9 58.0492 1804.39 57.8681 1805.13 57.1929C1805.87 56.5176 1805.58 55.6039 1804.48 55.152L1517.94 -62.6674C1516.84 -63.1193 1515.35 -62.9382 1514.61 -62.2629C1513.87 -61.5877 1514.16 -60.674 1515.26 -60.2221Z" fill="url(#paint62_linear_421_5784)"/>
<path opacity="0.3" d="M997.422 771.255L1459.08 961.075C1460.18 961.527 1461.67 961.346 1462.41 960.671C1463.15 959.996 1462.85 959.082 1461.76 958.63L1000.1 768.81C999.002 768.358 997.511 768.539 996.772 769.214C996.032 769.89 996.323 770.803 997.422 771.255Z" fill="url(#paint63_linear_421_5784)"/>
<path opacity="0.99" d="M1690.59 329.274L1891.57 411.911C1892.67 412.363 1894.16 412.182 1894.9 411.506C1895.64 410.831 1895.35 409.917 1894.25 409.466L1693.27 326.828C1692.17 326.376 1690.68 326.557 1689.94 327.233C1689.2 327.908 1689.49 328.822 1690.59 329.274Z" fill="url(#paint64_linear_421_5784)"/>
<path opacity="0.86" d="M1384.29 -16.4899L1702.68 114.421C1703.77 114.872 1705.26 114.691 1706 114.016C1706.74 113.341 1706.45 112.427 1705.35 111.975L1386.97 -18.9352C1385.87 -19.3871 1384.38 -19.206 1383.64 -18.5307C1382.9 -17.8555 1383.19 -16.9418 1384.29 -16.4899Z" fill="url(#paint65_linear_421_5784)"/>
<path opacity="0.46" d="M948.344 511.623L1228.92 626.987C1230.02 627.439 1231.51 627.258 1232.25 626.583C1232.99 625.908 1232.7 624.994 1231.6 624.542L951.023 509.177C949.924 508.725 948.433 508.907 947.694 509.582C946.954 510.257 947.245 511.171 948.344 511.623Z" fill="url(#paint66_linear_421_5784)"/>
<path opacity="0.85" d="M1514.9 432.983L1650.21 488.62C1651.31 489.072 1652.8 488.891 1653.54 488.215C1654.28 487.54 1653.99 486.626 1652.89 486.174L1517.58 430.538C1516.48 430.086 1514.99 430.267 1514.25 430.942C1513.51 431.617 1513.8 432.531 1514.9 432.983Z" fill="url(#paint67_linear_421_5784)"/>
<path opacity="0.68" d="M1206.75 108.787L1348.03 166.878C1349.13 167.33 1350.62 167.149 1351.36 166.474C1352.1 165.798 1351.81 164.885 1350.71 164.433L1209.43 106.341C1208.33 105.889 1206.84 106.07 1206.1 106.746C1205.36 107.421 1205.65 108.335 1206.75 108.787Z" fill="url(#paint68_linear_421_5784)"/>
<path opacity="0.41" d="M320.555 -39.2658L511.584 39.2804C512.683 39.7323 514.174 39.5512 514.913 38.876C515.653 38.2007 515.362 37.287 514.263 36.8351L323.233 -41.7112C322.134 -42.163 320.644 -41.9819 319.904 -41.3067C319.164 -40.6314 319.456 -39.7177 320.555 -39.2658Z" fill="url(#paint69_linear_421_5784)"/>
<path opacity="0.78" d="M1370.8 570.157L1420.54 590.612C1421.64 591.064 1423.13 590.883 1423.87 590.208C1424.61 589.532 1424.32 588.619 1423.22 588.167L1373.47 567.712C1372.37 567.26 1370.88 567.441 1370.14 568.116C1369.4 568.792 1369.7 569.705 1370.8 570.157Z" fill="url(#paint70_linear_421_5784)"/>
<path opacity="0.93" d="M720.05 882.978L978.736 989.343C979.835 989.795 981.325 989.614 982.065 988.938C982.804 988.263 982.513 987.35 981.414 986.898L722.728 880.533C721.629 880.081 720.139 880.262 719.399 880.937C718.659 881.613 718.951 882.526 720.05 882.978Z" fill="url(#paint71_linear_421_5784)"/>
<path opacity="0.4" d="M10.1203 569.564L646.886 831.385C647.985 831.837 649.476 831.656 650.215 830.98C650.955 830.305 650.663 829.392 649.564 828.94L12.7987 567.119C11.6997 566.667 10.2092 566.848 9.46959 567.523C8.72997 568.198 9.02127 569.112 10.1203 569.564Z" fill="url(#paint72_linear_421_5784)"/>
<path opacity="0.76" d="M333.721 748.822L1081.92 1056.46C1083.02 1056.91 1084.51 1056.73 1085.25 1056.06C1085.99 1055.38 1085.7 1054.47 1084.6 1054.02L336.399 746.377C335.3 745.925 333.81 746.106 333.07 746.781C332.33 747.456 332.622 748.37 333.721 748.822Z" fill="url(#paint73_linear_421_5784)"/>
<path opacity="0.67" d="M1249.46 421.009L1858.37 671.376C1859.47 671.828 1860.96 671.646 1861.7 670.971C1862.44 670.296 1862.15 669.382 1861.05 668.93L1252.14 418.564C1251.04 418.112 1249.55 418.293 1248.81 418.969C1248.07 419.644 1248.36 420.558 1249.46 421.009Z" fill="url(#paint74_linear_421_5784)"/>
<path opacity="0.1" d="M398.709 374.198L1015.58 627.837C1016.67 628.289 1018.17 628.108 1018.9 627.433C1019.64 626.757 1019.35 625.844 1018.25 625.392L401.387 371.753C400.288 371.301 398.798 371.482 398.058 372.157C397.318 372.832 397.61 373.746 398.709 374.198Z" fill="url(#paint75_linear_421_5784)"/>
<path opacity="0.88" d="M-119.379 566.964L296.508 737.966C297.607 738.418 299.098 738.237 299.837 737.562C300.577 736.886 300.286 735.973 299.187 735.521L-116.701 564.519C-117.8 564.067 -119.291 564.248 -120.03 564.923C-120.77 565.599 -120.478 566.512 -119.379 566.964Z" fill="url(#paint76_linear_421_5784)"/>
<path opacity="0.19" d="M373.636 985.633L481.09 1029.82C482.189 1030.27 483.68 1030.09 484.419 1029.41C485.159 1028.74 484.868 1027.82 483.769 1027.37L376.314 983.188C375.215 982.736 373.725 982.917 372.985 983.592C372.246 984.267 372.537 985.181 373.636 985.633Z" fill="url(#paint77_linear_421_5784)"/>
<path opacity="0.78" d="M315.918 678.154L950.694 939.157C951.793 939.609 953.283 939.428 954.023 938.752C954.762 938.077 954.471 937.163 953.372 936.712L318.596 675.709C317.497 675.257 316.007 675.438 315.267 676.113C314.528 676.789 314.819 677.702 315.918 678.154Z" fill="url(#paint78_linear_421_5784)"/>
<path opacity="0.25" d="M-51.2203 929.257L205.476 1034.8C206.575 1035.26 208.065 1035.07 208.805 1034.4C209.545 1033.72 209.253 1032.81 208.154 1032.36L-48.5419 926.812C-49.6409 926.36 -51.1313 926.541 -51.871 927.216C-52.6106 927.891 -52.3193 928.805 -51.2203 929.257Z" fill="url(#paint79_linear_421_5784)"/>
<path opacity="0.67" d="M1452.03 269.762L1573.41 319.672C1574.51 320.124 1576 319.943 1576.74 319.268C1577.48 318.592 1577.19 317.679 1576.09 317.227L1454.7 267.317C1453.6 266.865 1452.11 267.046 1451.37 267.722C1450.63 268.397 1450.93 269.311 1452.03 269.762Z" fill="url(#paint80_linear_421_5784)"/>
<path opacity="0.53" d="M824.169 537.934L1377.36 765.391C1378.46 765.843 1379.95 765.662 1380.69 764.987C1381.43 764.312 1381.14 763.398 1380.04 762.946L826.847 535.489C825.748 535.037 824.257 535.218 823.518 535.893C822.778 536.569 823.07 537.482 824.169 537.934Z" fill="url(#paint81_linear_421_5784)"/>
<path opacity="0.75" d="M1457.12 660.645L1900.86 843.102C1901.96 843.554 1903.45 843.373 1904.19 842.697C1904.93 842.022 1904.64 841.108 1903.54 840.656L1459.8 658.2C1458.7 657.748 1457.21 657.929 1456.47 658.604C1455.73 659.28 1456.02 660.193 1457.12 660.645Z" fill="url(#paint82_linear_421_5784)"/>
<path opacity="0.16" d="M-0.756577 588.654L437.02 768.656C438.119 769.108 439.609 768.927 440.349 768.251C441.089 767.576 440.797 766.662 439.698 766.211L1.92183 586.209C0.822837 585.757 -0.667656 585.938 -1.40728 586.613C-2.1469 587.288 -1.85558 588.202 -0.756577 588.654Z" fill="url(#paint83_linear_421_5784)"/>
<path opacity="0.97" d="M1027.65 90.7345L1642.53 343.555C1643.63 344.007 1645.12 343.826 1645.86 343.151C1646.6 342.476 1646.31 341.562 1645.21 341.11L1030.33 88.2892C1029.23 87.8373 1027.74 88.0184 1027 88.6937C1026.26 89.3689 1026.55 90.2826 1027.65 90.7345Z" fill="url(#paint84_linear_421_5784)"/>
<path opacity="0.31" d="M1627.94 61.4601L1737.38 106.461C1738.48 106.912 1739.97 106.731 1740.71 106.056C1741.45 105.381 1741.16 104.467 1740.06 104.015L1630.62 59.0148C1629.52 58.563 1628.03 58.744 1627.29 59.4193C1626.55 60.0946 1626.84 61.0083 1627.94 61.4601Z" fill="url(#paint85_linear_421_5784)"/>
<path opacity="0.57" d="M841.204 940.237L1227.24 1098.97C1228.34 1099.42 1229.83 1099.24 1230.57 1098.56C1231.31 1097.89 1231.02 1096.97 1229.92 1096.52L843.883 937.791C842.784 937.339 841.293 937.52 840.554 938.196C839.814 938.871 840.105 939.785 841.204 940.237Z" fill="url(#paint86_linear_421_5784)"/>
<path opacity="0.55" d="M-50.9325 -105.4L528.126 132.693C529.225 133.145 530.716 132.964 531.455 132.289C532.195 131.613 531.904 130.7 530.805 130.248L-48.2541 -107.846C-49.3531 -108.298 -50.8436 -108.116 -51.5832 -107.441C-52.3228 -106.766 -52.0315 -105.852 -50.9325 -105.4Z" fill="url(#paint87_linear_421_5784)"/>
<path opacity="0.81" d="M716.761 664.969L1005.3 783.607C1006.39 784.058 1007.88 783.877 1008.62 783.202C1009.36 782.527 1009.07 781.613 1007.97 781.161L719.439 662.524C718.34 662.072 716.85 662.253 716.11 662.928C715.371 663.603 715.662 664.517 716.761 664.969Z" fill="url(#paint88_linear_421_5784)"/>
<path opacity="0.92" d="M1520.44 750.751L1890.56 902.935C1891.66 903.387 1893.15 903.206 1893.89 902.53C1894.63 901.855 1894.34 900.941 1893.24 900.489L1523.12 748.306C1522.02 747.854 1520.53 748.035 1519.79 748.71C1519.05 749.386 1519.34 750.299 1520.44 750.751Z" fill="url(#paint89_linear_421_5784)"/>
<path opacity="0.44" d="M749.38 777.341L1597.07 1125.89C1598.17 1126.34 1599.66 1126.16 1600.4 1125.49C1601.14 1124.81 1600.85 1123.9 1599.75 1123.45L752.059 774.896C750.96 774.444 749.469 774.625 748.73 775.3C747.99 775.976 748.281 776.889 749.38 777.341Z" fill="url(#paint90_linear_421_5784)"/>
<path opacity="0.23" d="M26.9593 628.213L721.432 913.761C722.531 914.213 724.021 914.032 724.761 913.357C725.501 912.682 725.209 911.768 724.11 911.316L29.6377 625.768C28.5388 625.316 27.0482 625.497 26.3086 626.172C25.569 626.847 25.8604 627.761 26.9593 628.213Z" fill="url(#paint91_linear_421_5784)"/>
<path d="M105.436 377.714L238.759 432.532C239.858 432.984 241.349 432.803 242.088 432.128C242.828 431.453 242.537 430.539 241.438 430.087L108.115 375.268C107.016 374.816 105.525 374.998 104.786 375.673C104.046 376.348 104.337 377.262 105.436 377.714Z" fill="url(#paint92_linear_421_5784)"/>
<path opacity="0.85" d="M1015.38 499.384L1411.37 662.204C1412.47 662.656 1413.96 662.475 1414.7 661.8C1415.44 661.125 1415.15 660.211 1414.05 659.759L1018.06 496.939C1016.96 496.487 1015.47 496.668 1014.73 497.344C1013.99 498.019 1014.28 498.932 1015.38 499.384Z" fill="url(#paint93_linear_421_5784)"/>
<path opacity="0.34" d="M1352.22 1053.57L1632.8 1168.94C1633.89 1169.39 1635.38 1169.21 1636.12 1168.53C1636.86 1167.86 1636.57 1166.94 1635.47 1166.49L1354.9 1051.13C1353.8 1050.68 1352.31 1050.86 1351.57 1051.53C1350.83 1052.21 1351.12 1053.12 1352.22 1053.57Z" fill="url(#paint94_linear_421_5784)"/>
<path opacity="0.72" d="M574.037 144.963L1429.69 496.785C1430.79 497.237 1432.28 497.056 1433.02 496.381C1433.76 495.706 1433.47 494.792 1432.37 494.34L576.715 142.518C575.616 142.066 574.126 142.247 573.386 142.923C572.646 143.598 572.938 144.512 574.037 144.963Z" fill="url(#paint95_linear_421_5784)"/>
<path opacity="0.45" d="M256.62 494.641L342.186 529.823C343.285 530.275 344.775 530.094 345.515 529.418C346.255 528.743 345.963 527.829 344.864 527.378L259.299 492.195C258.2 491.744 256.709 491.925 255.97 492.6C255.23 493.275 255.522 494.189 256.62 494.641Z" fill="url(#paint96_linear_421_5784)"/>
<path opacity="0.33" d="M-160.471 -76.1723L321.083 121.83C322.182 122.282 323.673 122.101 324.412 121.425C325.152 120.75 324.861 119.836 323.762 119.384L-157.792 -78.6176C-158.891 -79.0695 -160.382 -78.8884 -161.121 -78.2132C-161.861 -77.5379 -161.57 -76.6242 -160.471 -76.1723Z" fill="url(#paint97_linear_421_5784)"/>
<path opacity="0.15" d="M828.988 358.035L1199.11 510.218C1200.21 510.67 1201.7 510.489 1202.44 509.813C1203.18 509.138 1202.89 508.225 1201.79 507.773L831.666 355.589C830.567 355.137 829.077 355.318 828.337 355.994C827.597 356.669 827.889 357.583 828.988 358.035Z" fill="url(#paint98_linear_421_5784)"/>
<path opacity="0.32" d="M1009.82 708.99L1744.09 1010.9C1745.19 1011.35 1746.68 1011.17 1747.42 1010.5C1748.16 1009.82 1747.86 1008.91 1746.77 1008.46L1012.5 706.545C1011.4 706.093 1009.91 706.274 1009.17 706.949C1008.43 707.625 1008.72 708.538 1009.82 708.99Z" fill="url(#paint99_linear_421_5784)"/>
<path opacity="0.74" d="M1298.67 966.972L1642.92 1108.52C1644.02 1108.97 1645.51 1108.79 1646.25 1108.11C1646.99 1107.44 1646.7 1106.53 1645.6 1106.07L1301.35 964.527C1300.25 964.075 1298.76 964.256 1298.02 964.931C1297.28 965.607 1297.57 966.52 1298.67 966.972Z" fill="url(#paint100_linear_421_5784)"/>
<path opacity="0.79" d="M-315.226 -46.2975L514.559 294.888C515.658 295.34 517.148 295.159 517.888 294.483C518.628 293.808 518.336 292.894 517.237 292.443L-312.548 -48.7428C-313.647 -49.1947 -315.137 -49.0136 -315.877 -48.3384C-316.617 -47.6631 -316.325 -46.7494 -315.226 -46.2975Z" fill="url(#paint101_linear_421_5784)"/>
<path opacity="0.36" d="M1547.54 -20.7366L2076.85 196.902C2077.95 197.354 2079.44 197.173 2080.18 196.498C2080.92 195.822 2080.62 194.909 2079.53 194.457L1550.21 -23.1819C1549.12 -23.6338 1547.62 -23.4527 1546.88 -22.7775C1546.15 -22.1022 1546.44 -21.1885 1547.54 -20.7366Z" fill="url(#paint102_linear_421_5784)"/>
<path opacity="0.82" d="M-109.561 819.344L537.154 1085.26C538.253 1085.71 539.743 1085.53 540.483 1084.85C541.222 1084.18 540.931 1083.26 539.832 1082.81L-106.883 816.899C-107.982 816.447 -109.473 816.628 -110.212 817.303C-110.952 817.979 -110.66 818.892 -109.561 819.344Z" fill="url(#paint103_linear_421_5784)"/>
<path opacity="0.45" d="M284.884 922.321L1126.61 1268.42C1127.71 1268.87 1129.2 1268.69 1129.94 1268.01C1130.68 1267.34 1130.39 1266.42 1129.29 1265.97L287.562 919.875C286.463 919.423 284.973 919.605 284.233 920.28C283.494 920.955 283.785 921.869 284.884 922.321Z" fill="url(#paint104_linear_421_5784)"/>
<path opacity="0.98" d="M1228.79 467.277L1927.24 754.462C1928.34 754.913 1929.83 754.732 1930.57 754.057C1931.31 753.382 1931.02 752.468 1929.92 752.016L1231.46 464.831C1230.37 464.38 1228.88 464.561 1228.14 465.236C1227.4 465.911 1227.69 466.825 1228.79 467.277Z" fill="url(#paint105_linear_421_5784)"/>
<path opacity="0.7" d="M207 405.949L871.624 679.225C872.723 679.677 874.214 679.496 874.953 678.82C875.693 678.145 875.402 677.231 874.303 676.779L209.679 403.504C208.58 403.052 207.089 403.233 206.349 403.908C205.61 404.584 205.901 405.497 207 405.949Z" fill="url(#paint106_linear_421_5784)"/>
<path opacity="0.1" d="M955.697 241.629L1859.11 613.087C1860.21 613.539 1861.7 613.358 1862.44 612.683C1863.18 612.007 1862.89 611.094 1861.79 610.642L958.376 239.183C957.277 238.731 955.786 238.913 955.047 239.588C954.307 240.263 954.598 241.177 955.697 241.629Z" fill="url(#paint107_linear_421_5784)"/>
<path opacity="0.29" d="M416.871 864.445L1167.06 1172.9C1168.16 1173.35 1169.65 1173.17 1170.39 1172.5C1171.13 1171.82 1170.84 1170.91 1169.74 1170.46L419.55 862C418.451 861.548 416.96 861.729 416.221 862.404C415.481 863.08 415.772 863.993 416.871 864.445Z" fill="url(#paint108_linear_421_5784)"/>
<path opacity="0.45" d="M1263.8 -7.15539L1588.15 126.21C1589.25 126.662 1590.74 126.48 1591.48 125.805C1592.22 125.13 1591.93 124.216 1590.83 123.764L1266.47 -9.6007C1265.37 -10.0526 1263.88 -9.87149 1263.14 -9.19624C1262.4 -8.52099 1262.7 -7.60727 1263.8 -7.15539Z" fill="url(#paint109_linear_421_5784)"/>
<path opacity="0.45" d="M54.1011 -64.8886L720.715 209.205C721.814 209.657 723.305 209.476 724.044 208.801C724.784 208.126 724.493 207.212 723.394 206.76L56.7795 -67.3339C55.6805 -67.7858 54.19 -67.6047 53.4504 -66.9294C52.7107 -66.2542 53.002 -65.3405 54.1011 -64.8886Z" fill="url(#paint110_linear_421_5784)"/>
<path opacity="0.78" d="M107.074 172.627L620.466 383.72C621.565 384.172 623.056 383.991 623.795 383.315C624.535 382.64 624.244 381.726 623.145 381.275L109.752 170.181C108.653 169.73 107.163 169.911 106.423 170.586C105.684 171.261 105.975 172.175 107.074 172.627Z" fill="url(#paint111_linear_421_5784)"/>
<path opacity="0.92" d="M1117.45 43.6115L1859.68 348.797C1860.78 349.248 1862.27 349.067 1863.01 348.392C1863.75 347.717 1863.46 346.803 1862.36 346.351L1120.13 41.1662C1119.03 40.7144 1117.54 40.8954 1116.8 41.5707C1116.06 42.2459 1116.35 43.1597 1117.45 43.6115Z" fill="url(#paint112_linear_421_5784)"/>
<path opacity="0.25" d="M620.459 -46.9208L1080.12 142.081C1081.22 142.533 1082.71 142.352 1083.45 141.677C1084.19 141.002 1083.9 140.088 1082.8 139.636L623.138 -49.3661C622.039 -49.8179 620.548 -49.6369 619.808 -48.9616C619.069 -48.2864 619.36 -47.3726 620.459 -46.9208Z" fill="url(#paint113_linear_421_5784)"/>
<path opacity="0.16" d="M629.877 327.695L1163.17 546.97C1164.27 547.422 1165.76 547.241 1166.5 546.565C1167.24 545.89 1166.95 544.976 1165.85 544.525L632.555 325.25C631.456 324.798 629.966 324.979 629.226 325.654C628.487 326.329 628.778 327.243 629.877 327.695Z" fill="url(#paint114_linear_421_5784)"/>
<path opacity="0.91" d="M921.24 877.265L1689.34 1193.09C1690.44 1193.54 1691.93 1193.36 1692.67 1192.68C1693.41 1192.01 1693.12 1191.09 1692.02 1190.64L923.919 874.819C922.82 874.367 921.329 874.548 920.59 875.224C919.85 875.899 920.141 876.813 921.24 877.265Z" fill="url(#paint115_linear_421_5784)"/>
<path opacity="0.35" d="M47.1695 987.723L361.573 1117C362.672 1117.45 364.162 1117.27 364.902 1116.59C365.641 1115.92 365.35 1115 364.251 1114.55L49.848 985.277C48.749 984.825 47.2585 985.007 46.5189 985.682C45.7793 986.357 46.0706 987.271 47.1695 987.723Z" fill="url(#paint116_linear_421_5784)"/>
<path opacity="0.65" d="M102.82 288.557L596.314 491.468C597.413 491.92 598.903 491.739 599.643 491.064C600.383 490.389 600.091 489.475 598.992 489.023L105.499 286.112C104.4 285.66 102.909 285.841 102.17 286.516C101.43 287.192 101.721 288.105 102.82 288.557Z" fill="url(#paint117_linear_421_5784)"/>
<path opacity="0.6" d="M1329.7 935.634L1405.32 966.725C1406.42 967.177 1407.91 966.996 1408.65 966.321C1409.39 965.646 1409.1 964.732 1408 964.28L1332.38 933.189C1331.28 932.737 1329.79 932.918 1329.05 933.593C1328.31 934.268 1328.6 935.182 1329.7 935.634Z" fill="url(#paint118_linear_421_5784)"/>
<path opacity="0.51" d="M814.178 16.6111L1476.81 289.069C1477.91 289.52 1479.4 289.339 1480.14 288.664C1480.88 287.989 1480.59 287.075 1479.49 286.623L816.856 14.1658C815.757 13.7139 814.266 13.895 813.527 14.5702C812.787 15.2455 813.079 16.1592 814.178 16.6111Z" fill="url(#paint119_linear_421_5784)"/>
<path opacity="0.09" d="M1862.19 385.159L1911.94 405.613C1913.04 406.065 1914.53 405.884 1915.27 405.209C1916.01 404.534 1915.72 403.62 1914.62 403.168L1864.87 382.713C1863.77 382.262 1862.28 382.443 1861.54 383.118C1860.8 383.793 1861.09 384.707 1862.19 385.159Z" fill="url(#paint120_linear_421_5784)"/>
<path opacity="0.89" d="M829.933 141.888L1783.09 533.801C1784.19 534.253 1785.68 534.072 1786.42 533.396C1787.16 532.721 1786.87 531.808 1785.77 531.356L832.611 139.442C831.512 138.991 830.021 139.172 829.282 139.847C828.542 140.522 828.834 141.436 829.933 141.888Z" fill="url(#paint121_linear_421_5784)"/>
<path opacity="0.33" d="M940.176 810.43L1113.3 881.613C1114.4 882.065 1115.89 881.884 1116.63 881.208C1117.36 880.533 1117.07 879.62 1115.97 879.168L942.854 807.985C941.755 807.533 940.265 807.714 939.525 808.39C938.785 809.065 939.077 809.979 940.176 810.43Z" fill="url(#paint122_linear_421_5784)"/>
<path opacity="0.72" d="M736.24 364.528L869.563 419.346C870.662 419.798 872.152 419.617 872.892 418.942C873.632 418.267 873.34 417.353 872.241 416.901L738.918 362.082C737.819 361.63 736.329 361.812 735.589 362.487C734.85 363.162 735.141 364.076 736.24 364.528Z" fill="url(#paint123_linear_421_5784)"/>
<path opacity="0.42" d="M1345.25 183.319L2049.68 472.959C2050.77 473.411 2052.26 473.229 2053 472.554C2053.74 471.879 2053.45 470.965 2052.35 470.513L1347.93 180.874C1346.83 180.422 1345.34 180.603 1344.6 181.278C1343.86 181.954 1344.15 182.867 1345.25 183.319Z" fill="url(#paint124_linear_421_5784)"/>
<path opacity="0.82" d="M344.695 967.674L788.441 1150.13C789.54 1150.58 791.03 1150.4 791.77 1149.73C792.509 1149.05 792.218 1148.14 791.119 1147.68L347.373 965.228C346.274 964.776 344.784 964.957 344.044 965.633C343.304 966.308 343.596 967.222 344.695 967.674Z" fill="url(#paint125_linear_421_5784)"/>
<path opacity="0.56" d="M-221.237 311.13L316.035 532.042C317.134 532.494 318.624 532.312 319.364 531.637C320.103 530.962 319.812 530.048 318.713 529.596L-218.558 308.685C-219.657 308.233 -221.148 308.414 -221.887 309.089C-222.627 309.765 -222.335 310.678 -221.237 311.13Z" fill="url(#paint126_linear_421_5784)"/>
<path opacity="0.24" d="M-199.306 484.837L280.258 682.021C281.357 682.473 282.848 682.291 283.587 681.616C284.327 680.941 284.036 680.027 282.937 679.575L-196.628 482.391C-197.727 481.94 -199.217 482.121 -199.957 482.796C-200.696 483.471 -200.405 484.385 -199.306 484.837Z" fill="url(#paint127_linear_421_5784)"/>
<path opacity="0.25" d="M1165.6 706.743L1852.11 989.019C1853.21 989.471 1854.7 989.29 1855.44 988.614C1856.18 987.939 1855.89 987.025 1854.79 986.573L1168.28 704.298C1167.18 703.846 1165.69 704.027 1164.95 704.702C1164.21 705.377 1164.5 706.291 1165.6 706.743Z" fill="url(#paint128_linear_421_5784)"/>
<path opacity="0.92" d="M1194.41 1080.43L1339.67 1140.15C1340.77 1140.61 1342.26 1140.42 1343 1139.75C1343.74 1139.07 1343.45 1138.16 1342.35 1137.71L1197.09 1077.98C1195.99 1077.53 1194.5 1077.71 1193.76 1078.39C1193.02 1079.06 1193.31 1079.97 1194.41 1080.43Z" fill="url(#paint129_linear_421_5784)"/>
<path opacity="0.54" d="M1723.72 720.479L1960.52 817.843C1961.62 818.295 1963.11 818.114 1963.85 817.439C1964.59 816.764 1964.3 815.85 1963.2 815.398L1726.4 718.033C1725.3 717.582 1723.81 717.763 1723.07 718.438C1722.33 719.113 1722.63 720.027 1723.72 720.479Z" fill="url(#paint130_linear_421_5784)"/>
<path opacity="0.97" d="M1671.17 -60.5727L1957.71 57.2468C1958.81 57.6986 1960.3 57.5175 1961.04 56.8423C1961.78 56.167 1961.49 55.2533 1960.39 54.8014L1673.84 -63.018C1672.75 -63.4698 1671.25 -63.2888 1670.52 -62.6135C1669.78 -61.9383 1670.07 -61.0245 1671.17 -60.5727Z" fill="url(#paint131_linear_421_5784)"/>
<path opacity="0.39" d="M24.3457 391.266L790.454 706.27C791.553 706.722 793.044 706.54 793.784 705.865C794.523 705.19 794.232 704.276 793.133 703.824L27.0241 388.821C25.9252 388.369 24.4347 388.55 23.695 389.226C22.9554 389.901 23.2468 390.815 24.3457 391.266Z" fill="url(#paint132_linear_421_5784)"/>
<path opacity="0.84" d="M45.9033 256.565L965.234 634.569C966.333 635.02 967.823 634.839 968.563 634.164C969.302 633.489 969.011 632.575 967.912 632.123L48.5817 254.119C47.4827 253.667 45.9922 253.848 45.2526 254.524C44.513 255.199 44.8043 256.113 45.9033 256.565Z" fill="url(#paint133_linear_421_5784)"/>
<path opacity="0.11" d="M26.5152 95.0477L1051.31 516.416C1052.41 516.868 1053.9 516.686 1054.64 516.011C1055.38 515.336 1055.09 514.422 1053.99 513.97L29.1936 92.6024C28.0945 92.1504 26.6041 92.3316 25.8645 93.0068C25.1249 93.6821 25.4161 94.5957 26.5152 95.0477Z" fill="url(#paint134_linear_421_5784)"/>
<path opacity="0.95" d="M1478.18 75.8858L1868.2 236.251C1869.3 236.703 1870.79 236.522 1871.53 235.847C1872.27 235.171 1871.98 234.258 1870.88 233.806L1480.86 73.4405C1479.76 72.9886 1478.27 73.1697 1477.53 73.845C1476.79 74.5202 1477.08 75.4339 1478.18 75.8858Z" fill="url(#paint135_linear_421_5784)"/>
<path opacity="0.51" d="M926.193 676.508L1035.64 721.509C1036.74 721.961 1038.23 721.78 1038.97 721.104C1039.71 720.429 1039.41 719.516 1038.32 719.064L928.871 674.063C927.772 673.611 926.282 673.792 925.542 674.468C924.803 675.143 925.094 676.057 926.193 676.508Z" fill="url(#paint136_linear_421_5784)"/>
<path opacity="0.5" d="M1594.32 965.441L1793.31 1047.26C1794.4 1047.71 1795.9 1047.53 1796.64 1046.86C1797.37 1046.18 1797.08 1045.27 1795.98 1044.81L1597 962.996C1595.9 962.544 1594.41 962.725 1593.67 963.4C1592.93 964.075 1593.22 964.989 1594.32 965.441Z" fill="url(#paint137_linear_421_5784)"/>
<path opacity="0.98" d="M705.467 50.0772L1278.56 285.716C1279.65 286.168 1281.15 285.987 1281.89 285.312C1282.62 284.636 1282.33 283.723 1281.23 283.271L708.145 47.6319C707.046 47.18 705.556 47.3611 704.816 48.0363C704.077 48.7116 704.368 49.6253 705.467 50.0772Z" fill="url(#paint138_linear_421_5784)"/>
<path opacity="0.2" d="M1472.29 353.036L1567.8 392.309C1568.9 392.761 1570.39 392.58 1571.13 391.904C1571.87 391.229 1571.58 390.315 1570.48 389.863L1474.97 350.59C1473.87 350.138 1472.38 350.32 1471.64 350.995C1470.9 351.67 1471.19 352.584 1472.29 353.036Z" fill="url(#paint139_linear_421_5784)"/>
<path opacity="0.15" d="M-164.996 990.411L266.811 1167.96C267.91 1168.41 269.4 1168.23 270.14 1167.55C270.88 1166.88 270.588 1165.97 269.489 1165.51L-162.317 987.966C-163.416 987.514 -164.907 987.695 -165.647 988.371C-166.386 989.046 -166.095 989.959 -164.996 990.411Z" fill="url(#paint140_linear_421_5784)"/>
<path opacity="0.97" d="M-254.325 9.40303L746.591 420.953C747.69 421.405 749.181 421.224 749.92 420.548C750.66 419.873 750.369 418.959 749.27 418.508L-251.646 6.95773C-252.745 6.50586 -254.236 6.68693 -254.976 7.36218C-255.715 8.03744 -255.424 8.95117 -254.325 9.40303Z" fill="url(#paint141_linear_421_5784)"/>
<path opacity="0.56" d="M536.517 626.901L868.829 763.539C869.928 763.991 871.419 763.81 872.159 763.135C872.898 762.46 872.607 761.546 871.508 761.094L539.196 624.456C538.097 624.004 536.606 624.185 535.867 624.861C535.127 625.536 535.418 626.45 536.517 626.901Z" fill="url(#paint142_linear_421_5784)"/>
<path opacity="0.33" d="M44.076 493.11L103.773 517.655C104.872 518.107 106.362 517.926 107.102 517.251C107.842 516.576 107.55 515.662 106.451 515.21L46.7544 490.664C45.6554 490.213 44.165 490.394 43.4253 491.069C42.6857 491.744 42.977 492.658 44.076 493.11Z" fill="url(#paint143_linear_421_5784)"/>
<path opacity="0.5" d="M966.717 483.393L2031.31 921.125C2032.41 921.577 2033.9 921.395 2034.64 920.72C2035.38 920.045 2035.09 919.131 2033.99 918.679L969.396 480.948C968.297 480.496 966.806 480.677 966.067 481.352C965.327 482.027 965.618 482.941 966.717 483.393Z" fill="url(#paint144_linear_421_5784)"/>
<path opacity="0.25" d="M1273.96 838.07L1729.64 1025.44C1730.74 1025.89 1732.23 1025.71 1732.97 1025.03C1733.71 1024.36 1733.42 1023.44 1732.32 1022.99L1276.63 835.625C1275.54 835.173 1274.05 835.354 1273.31 836.029C1272.57 836.705 1272.86 837.618 1273.96 838.07Z" fill="url(#paint145_linear_421_5784)"/>
<path opacity="0.59" d="M1344.82 104.338L2011.44 378.431C2012.53 378.883 2014.03 378.702 2014.76 378.027C2015.5 377.352 2015.21 376.438 2014.11 375.986L1347.5 101.892C1346.4 101.44 1344.91 101.621 1344.17 102.297C1343.43 102.972 1343.72 103.886 1344.82 104.338Z" fill="url(#paint146_linear_421_5784)"/>
<path opacity="0.77" d="M1385.61 472.22L2279.07 839.588C2280.17 840.039 2281.66 839.858 2282.4 839.183C2283.14 838.508 2282.85 837.594 2281.75 837.142L1388.29 469.775C1387.19 469.323 1385.7 469.504 1384.96 470.179C1384.22 470.854 1384.51 471.768 1385.61 472.22Z" fill="url(#paint147_linear_421_5784)"/>
<path opacity="0.57" d="M983.706 -23.7356L1220.5 73.6291C1221.6 74.0809 1223.09 73.8999 1223.83 73.2246C1224.57 72.5494 1224.28 71.6356 1223.18 71.1838L986.384 -26.1809C985.285 -26.6328 983.795 -26.4517 983.055 -25.7764C982.316 -25.1012 982.607 -24.1875 983.706 -23.7356Z" fill="url(#paint148_linear_421_5784)"/>
<path opacity="0.69" d="M342.85 67.7374L969.666 325.467C970.765 325.919 972.256 325.738 972.995 325.063C973.735 324.388 973.444 323.474 972.345 323.022L345.528 65.2921C344.429 64.8403 342.939 65.0214 342.199 65.6966C341.46 66.3719 341.751 67.2856 342.85 67.7374Z" fill="url(#paint149_linear_421_5784)"/>
</g>
<path opacity="0.82" d="M-8 7.5L1913 7.5L1913 1084.5L-8 1084.5L-8 7.5Z" fill="#080A0D"/>
</g>
</g>
<defs>
<linearGradient id="paint0_linear_421_5784" x1="-30204.6" y1="29156.4" x2="-30467" y2="28869" gradientUnits="userSpaceOnUse">
<stop/>
<stop offset="0.45" stop-color="#FF5B57"/>
<stop offset="1" stop-color="#AAE4D7"/>
</linearGradient>
<linearGradient id="paint1_linear_421_5784" x1="-17141" y1="18327" x2="-17403.4" y2="18039.6" gradientUnits="userSpaceOnUse">
<stop/>
<stop offset="0.45" stop-color="#FF5B57"/>
<stop offset="1" stop-color="#AAE4D7"/>
</linearGradient>
<linearGradient id="paint2_linear_421_5784" x1="-20764.9" y1="21225" x2="-21027.3" y2="20937.6" gradientUnits="userSpaceOnUse">
<stop/>
<stop offset="0.45" stop-color="#FF5B57"/>
<stop offset="1" stop-color="#AAE4D7"/>
</linearGradient>
<linearGradient id="paint3_linear_421_5784" x1="-23944" y1="23472.3" x2="-24206.4" y2="23184.9" gradientUnits="userSpaceOnUse">
<stop/>
<stop offset="0.45" stop-color="#FF5B57"/>
<stop offset="1" stop-color="#AAE4D7"/>
</linearGradient>
<linearGradient id="paint4_linear_421_5784" x1="-8244.61" y1="10125.5" x2="-8507.01" y2="9838.07" gradientUnits="userSpaceOnUse">
<stop/>
<stop offset="0.45" stop-color="#FF5B57"/>
<stop offset="1" stop-color="#AAE4D7"/>
</linearGradient>
<linearGradient id="paint5_linear_421_5784" x1="-19344.1" y1="18326.3" x2="-19606.5" y2="18038.9" gradientUnits="userSpaceOnUse">
<stop/>
<stop offset="0.45" stop-color="#FF5B57"/>
<stop offset="1" stop-color="#AAE4D7"/>
</linearGradient>
<linearGradient id="paint6_linear_421_5784" x1="-9759.01" y1="11287.1" x2="-10021.4" y2="10999.7" gradientUnits="userSpaceOnUse">
<stop/>
<stop offset="0.45" stop-color="#FF5B57"/>
<stop offset="1" stop-color="#AAE4D7"/>
</linearGradient>
<linearGradient id="paint7_linear_421_5784" x1="-9396.08" y1="10245.5" x2="-9658.48" y2="9958.05" gradientUnits="userSpaceOnUse">
<stop/>
<stop offset="0.45" stop-color="#FF5B57"/>
<stop offset="1" stop-color="#AAE4D7"/>
</linearGradient>
<linearGradient id="paint8_linear_421_5784" x1="-19782.9" y1="18617.7" x2="-20045.3" y2="18330.3" gradientUnits="userSpaceOnUse">
<stop/>
<stop offset="0.45" stop-color="#FF5B57"/>
<stop offset="1" stop-color="#AAE4D7"/>
</linearGradient>
<linearGradient id="paint9_linear_421_5784" x1="-15626.2" y1="15699.3" x2="-15888.6" y2="15411.8" gradientUnits="userSpaceOnUse">
<stop/>
<stop offset="0.45" stop-color="#FF5B57"/>
<stop offset="1" stop-color="#AAE4D7"/>
</linearGradient>
<linearGradient id="paint10_linear_421_5784" x1="-9139.06" y1="9585.38" x2="-9401.46" y2="9297.96" gradientUnits="userSpaceOnUse">
<stop/>
<stop offset="0.45" stop-color="#FF5B57"/>
<stop offset="1" stop-color="#AAE4D7"/>
</linearGradient>
<linearGradient id="paint11_linear_421_5784" x1="-16791.7" y1="17808" x2="-17054.1" y2="17520.6" gradientUnits="userSpaceOnUse">
<stop/>
<stop offset="0.45" stop-color="#FF5B57"/>
<stop offset="1" stop-color="#AAE4D7"/>
</linearGradient>
<linearGradient id="paint12_linear_421_5784" x1="-30435.9" y1="28388" x2="-30698.3" y2="28100.5" gradientUnits="userSpaceOnUse">
<stop/>
<stop offset="0.45" stop-color="#FF5B57"/>
<stop offset="1" stop-color="#AAE4D7"/>
</linearGradient>
<linearGradient id="paint13_linear_421_5784" x1="-9672.52" y1="9757.69" x2="-9934.92" y2="9470.27" gradientUnits="userSpaceOnUse">
<stop/>
<stop offset="0.45" stop-color="#FF5B57"/>
<stop offset="1" stop-color="#AAE4D7"/>
</linearGradient>
<linearGradient id="paint14_linear_421_5784" x1="-3061.29" y1="5218.75" x2="-3323.69" y2="4931.34" gradientUnits="userSpaceOnUse">
<stop/>
<stop offset="0.45" stop-color="#FF5B57"/>
<stop offset="1" stop-color="#AAE4D7"/>
</linearGradient>
<linearGradient id="paint15_linear_421_5784" x1="-7156.16" y1="9089.62" x2="-7418.56" y2="8802.2" gradientUnits="userSpaceOnUse">
<stop/>
<stop offset="0.45" stop-color="#FF5B57"/>
<stop offset="1" stop-color="#AAE4D7"/>
</linearGradient>
<linearGradient id="paint16_linear_421_5784" x1="-15778.4" y1="15353.3" x2="-16040.8" y2="15065.9" gradientUnits="userSpaceOnUse">
<stop/>
<stop offset="0.45" stop-color="#FF5B57"/>
<stop offset="1" stop-color="#AAE4D7"/>
</linearGradient>
<linearGradient id="paint17_linear_421_5784" x1="-16821" y1="16309.9" x2="-17083.4" y2="16022.5" gradientUnits="userSpaceOnUse">
<stop/>
<stop offset="0.45" stop-color="#FF5B57"/>
<stop offset="1" stop-color="#AAE4D7"/>
</linearGradient>
<linearGradient id="paint18_linear_421_5784" x1="-8140.07" y1="7341.76" x2="-8402.47" y2="7054.35" gradientUnits="userSpaceOnUse">
<stop/>
<stop offset="0.45" stop-color="#FF5B57"/>
<stop offset="1" stop-color="#AAE4D7"/>
</linearGradient>
<linearGradient id="paint19_linear_421_5784" x1="-9290.81" y1="10666.5" x2="-9553.22" y2="10379" gradientUnits="userSpaceOnUse">
<stop/>
<stop offset="0.45" stop-color="#FF5B57"/>
<stop offset="1" stop-color="#AAE4D7"/>
</linearGradient>
<linearGradient id="paint20_linear_421_5784" x1="-22526.6" y1="22188.1" x2="-22789" y2="21900.7" gradientUnits="userSpaceOnUse">
<stop/>
<stop offset="0.45" stop-color="#FF5B57"/>
<stop offset="1" stop-color="#AAE4D7"/>
</linearGradient>
<linearGradient id="paint21_linear_421_5784" x1="-14951.5" y1="14073.6" x2="-15213.9" y2="13786.2" gradientUnits="userSpaceOnUse">
<stop/>
<stop offset="0.45" stop-color="#FF5B57"/>
<stop offset="1" stop-color="#AAE4D7"/>
</linearGradient>
<linearGradient id="paint22_linear_421_5784" x1="-32038.7" y1="31732" x2="-32301.1" y2="31444.6" gradientUnits="userSpaceOnUse">
<stop/>
<stop offset="0.45" stop-color="#FF5B57"/>
<stop offset="1" stop-color="#AAE4D7"/>
</linearGradient>
<linearGradient id="paint23_linear_421_5784" x1="-19570.8" y1="19170.9" x2="-19833.2" y2="18883.5" gradientUnits="userSpaceOnUse">
<stop/>
<stop offset="0.45" stop-color="#FF5B57"/>
<stop offset="1" stop-color="#AAE4D7"/>
</linearGradient>
<linearGradient id="paint24_linear_421_5784" x1="-25742.7" y1="26178.3" x2="-26005.1" y2="25890.9" gradientUnits="userSpaceOnUse">
<stop/>
<stop offset="0.45" stop-color="#FF5B57"/>
<stop offset="1" stop-color="#AAE4D7"/>
</linearGradient>
<linearGradient id="paint25_linear_421_5784" x1="-24389.1" y1="25139.2" x2="-24651.5" y2="24851.8" gradientUnits="userSpaceOnUse">
<stop/>
<stop offset="0.45" stop-color="#FF5B57"/>
<stop offset="1" stop-color="#AAE4D7"/>
</linearGradient>
<linearGradient id="paint26_linear_421_5784" x1="-3043.82" y1="4907.21" x2="-3306.22" y2="4619.8" gradientUnits="userSpaceOnUse">
<stop/>
<stop offset="0.45" stop-color="#FF5B57"/>
<stop offset="1" stop-color="#AAE4D7"/>
</linearGradient>
<linearGradient id="paint27_linear_421_5784" x1="-6857.7" y1="9229.37" x2="-7120.1" y2="8941.96" gradientUnits="userSpaceOnUse">
<stop/>
<stop offset="0.45" stop-color="#FF5B57"/>
<stop offset="1" stop-color="#AAE4D7"/>
</linearGradient>
<linearGradient id="paint28_linear_421_5784" x1="-17095" y1="18680.6" x2="-17357.4" y2="18393.2" gradientUnits="userSpaceOnUse">
<stop/>
<stop offset="0.45" stop-color="#FF5B57"/>
<stop offset="1" stop-color="#AAE4D7"/>
</linearGradient>
<linearGradient id="paint29_linear_421_5784" x1="-29955" y1="27920.6" x2="-30217.4" y2="27633.2" gradientUnits="userSpaceOnUse">
<stop/>
<stop offset="0.45" stop-color="#FF5B57"/>
<stop offset="1" stop-color="#AAE4D7"/>
</linearGradient>
<linearGradient id="paint30_linear_421_5784" x1="-9894.92" y1="11102.7" x2="-10157.3" y2="10815.3" gradientUnits="userSpaceOnUse">
<stop/>
<stop offset="0.45" stop-color="#FF5B57"/>
<stop offset="1" stop-color="#AAE4D7"/>
</linearGradient>
<linearGradient id="paint31_linear_421_5784" x1="-6787.73" y1="7373.83" x2="-7050.13" y2="7086.42" gradientUnits="userSpaceOnUse">
<stop/>
<stop offset="0.45" stop-color="#FF5B57"/>
<stop offset="1" stop-color="#AAE4D7"/>
</linearGradient>
<linearGradient id="paint32_linear_421_5784" x1="-7676.94" y1="8996.6" x2="-7939.34" y2="8709.18" gradientUnits="userSpaceOnUse">
<stop/>
<stop offset="0.45" stop-color="#FF5B57"/>
<stop offset="1" stop-color="#AAE4D7"/>
</linearGradient>
<linearGradient id="paint33_linear_421_5784" x1="-17869.3" y1="18156.5" x2="-18131.7" y2="17869.1" gradientUnits="userSpaceOnUse">
<stop/>
<stop offset="0.45" stop-color="#FF5B57"/>
<stop offset="1" stop-color="#AAE4D7"/>
</linearGradient>
<linearGradient id="paint34_linear_421_5784" x1="-28527.8" y1="26379.3" x2="-28790.2" y2="26091.9" gradientUnits="userSpaceOnUse">
<stop/>
<stop offset="0.45" stop-color="#FF5B57"/>
<stop offset="1" stop-color="#AAE4D7"/>
</linearGradient>
<linearGradient id="paint35_linear_421_5784" x1="-20562.6" y1="20633.4" x2="-20825" y2="20346" gradientUnits="userSpaceOnUse">
<stop/>
<stop offset="0.45" stop-color="#FF5B57"/>
<stop offset="1" stop-color="#AAE4D7"/>
</linearGradient>
<linearGradient id="paint36_linear_421_5784" x1="-20513.7" y1="20986.2" x2="-20776.1" y2="20698.8" gradientUnits="userSpaceOnUse">
<stop/>
<stop offset="0.45" stop-color="#FF5B57"/>
<stop offset="1" stop-color="#AAE4D7"/>
</linearGradient>
<linearGradient id="paint37_linear_421_5784" x1="-7495.01" y1="9625.43" x2="-7757.41" y2="9338.01" gradientUnits="userSpaceOnUse">
<stop/>
<stop offset="0.45" stop-color="#FF5B57"/>
<stop offset="1" stop-color="#AAE4D7"/>
</linearGradient>
<linearGradient id="paint38_linear_421_5784" x1="-12251.3" y1="13301.9" x2="-12513.7" y2="13014.5" gradientUnits="userSpaceOnUse">
<stop/>
<stop offset="0.45" stop-color="#FF5B57"/>
<stop offset="1" stop-color="#AAE4D7"/>
</linearGradient>
<linearGradient id="paint39_linear_421_5784" x1="-27959.8" y1="27490.4" x2="-28222.2" y2="27203" gradientUnits="userSpaceOnUse">
<stop/>
<stop offset="0.45" stop-color="#FF5B57"/>
<stop offset="1" stop-color="#AAE4D7"/>
</linearGradient>
<linearGradient id="paint40_linear_421_5784" x1="-10295.1" y1="12546.5" x2="-10557.5" y2="12259.1" gradientUnits="userSpaceOnUse">
<stop/>
<stop offset="0.45" stop-color="#FF5B57"/>
<stop offset="1" stop-color="#AAE4D7"/>
</linearGradient>
<linearGradient id="paint41_linear_421_5784" x1="-15394.3" y1="15614.9" x2="-15656.7" y2="15327.4" gradientUnits="userSpaceOnUse">
<stop/>
<stop offset="0.45" stop-color="#FF5B57"/>
<stop offset="1" stop-color="#AAE4D7"/>
</linearGradient>
<linearGradient id="paint42_linear_421_5784" x1="-13033.6" y1="14749.4" x2="-13296" y2="14462" gradientUnits="userSpaceOnUse">
<stop/>
<stop offset="0.45" stop-color="#FF5B57"/>
<stop offset="1" stop-color="#AAE4D7"/>
</linearGradient>
<linearGradient id="paint43_linear_421_5784" x1="-8687.16" y1="9622.36" x2="-8949.56" y2="9334.94" gradientUnits="userSpaceOnUse">
<stop/>
<stop offset="0.45" stop-color="#FF5B57"/>
<stop offset="1" stop-color="#AAE4D7"/>
</linearGradient>
<linearGradient id="paint44_linear_421_5784" x1="-6211.55" y1="5514.56" x2="-6473.95" y2="5227.15" gradientUnits="userSpaceOnUse">
<stop/>
<stop offset="0.45" stop-color="#FF5B57"/>
<stop offset="1" stop-color="#AAE4D7"/>
</linearGradient>
<linearGradient id="paint45_linear_421_5784" x1="-18231.9" y1="17748.1" x2="-18494.3" y2="17460.7" gradientUnits="userSpaceOnUse">
<stop/>
<stop offset="0.45" stop-color="#FF5B57"/>
<stop offset="1" stop-color="#AAE4D7"/>
</linearGradient>
<linearGradient id="paint46_linear_421_5784" x1="-13711.6" y1="15591.6" x2="-13974" y2="15304.2" gradientUnits="userSpaceOnUse">
<stop/>
<stop offset="0.45" stop-color="#FF5B57"/>
<stop offset="1" stop-color="#AAE4D7"/>
</linearGradient>
<linearGradient id="paint47_linear_421_5784" x1="-6913.13" y1="8591.53" x2="-7175.53" y2="8304.12" gradientUnits="userSpaceOnUse">
<stop/>
<stop offset="0.45" stop-color="#FF5B57"/>
<stop offset="1" stop-color="#AAE4D7"/>
</linearGradient>
<linearGradient id="paint48_linear_421_5784" x1="-12376.2" y1="12519.2" x2="-12638.6" y2="12231.8" gradientUnits="userSpaceOnUse">
<stop/>
<stop offset="0.45" stop-color="#FF5B57"/>
<stop offset="1" stop-color="#AAE4D7"/>
</linearGradient>
<linearGradient id="paint49_linear_421_5784" x1="-22367.7" y1="22480.2" x2="-22630.1" y2="22192.8" gradientUnits="userSpaceOnUse">
<stop/>
<stop offset="0.45" stop-color="#FF5B57"/>
<stop offset="1" stop-color="#AAE4D7"/>
</linearGradient>
<linearGradient id="paint50_linear_421_5784" x1="-11135.8" y1="12499.4" x2="-11398.2" y2="12212" gradientUnits="userSpaceOnUse">
<stop/>
<stop offset="0.45" stop-color="#FF5B57"/>
<stop offset="1" stop-color="#AAE4D7"/>
</linearGradient>
<linearGradient id="paint51_linear_421_5784" x1="-8252.59" y1="9397.93" x2="-8515" y2="9110.51" gradientUnits="userSpaceOnUse">
<stop/>
<stop offset="0.45" stop-color="#FF5B57"/>
<stop offset="1" stop-color="#AAE4D7"/>
</linearGradient>
<linearGradient id="paint52_linear_421_5784" x1="-15017.4" y1="14983.8" x2="-15279.8" y2="14696.3" gradientUnits="userSpaceOnUse">
<stop/>
<stop offset="0.45" stop-color="#FF5B57"/>
<stop offset="1" stop-color="#AAE4D7"/>
</linearGradient>
<linearGradient id="paint53_linear_421_5784" x1="-11273.8" y1="11269.3" x2="-11536.2" y2="10981.9" gradientUnits="userSpaceOnUse">
<stop/>
<stop offset="0.45" stop-color="#FF5B57"/>
<stop offset="1" stop-color="#AAE4D7"/>
</linearGradient>
<linearGradient id="paint54_linear_421_5784" x1="-8321.91" y1="9196.14" x2="-8584.32" y2="8908.72" gradientUnits="userSpaceOnUse">
<stop/>
<stop offset="0.45" stop-color="#FF5B57"/>
<stop offset="1" stop-color="#AAE4D7"/>
</linearGradient>
<linearGradient id="paint55_linear_421_5784" x1="-7647.46" y1="9801.89" x2="-7909.86" y2="9514.47" gradientUnits="userSpaceOnUse">
<stop/>
<stop offset="0.45" stop-color="#FF5B57"/>
<stop offset="1" stop-color="#AAE4D7"/>
</linearGradient>
<linearGradient id="paint56_linear_421_5784" x1="-8152.44" y1="7505.64" x2="-8414.84" y2="7218.23" gradientUnits="userSpaceOnUse">
<stop/>
<stop offset="0.45" stop-color="#FF5B57"/>
<stop offset="1" stop-color="#AAE4D7"/>
</linearGradient>
<linearGradient id="paint57_linear_421_5784" x1="-16742.1" y1="16629.9" x2="-17004.5" y2="16342.4" gradientUnits="userSpaceOnUse">
<stop/>
<stop offset="0.45" stop-color="#FF5B57"/>
<stop offset="1" stop-color="#AAE4D7"/>
</linearGradient>
<linearGradient id="paint58_linear_421_5784" x1="-22830.6" y1="21825.7" x2="-23093" y2="21538.3" gradientUnits="userSpaceOnUse">
<stop/>
<stop offset="0.45" stop-color="#FF5B57"/>
<stop offset="1" stop-color="#AAE4D7"/>
</linearGradient>
<linearGradient id="paint59_linear_421_5784" x1="-17712.9" y1="16429.8" x2="-17975.3" y2="16142.4" gradientUnits="userSpaceOnUse">
<stop/>
<stop offset="0.45" stop-color="#FF5B57"/>
<stop offset="1" stop-color="#AAE4D7"/>
</linearGradient>
<linearGradient id="paint60_linear_421_5784" x1="-17511.9" y1="17726.6" x2="-17774.3" y2="17439.2" gradientUnits="userSpaceOnUse">
<stop/>
<stop offset="0.45" stop-color="#FF5B57"/>
<stop offset="1" stop-color="#AAE4D7"/>
</linearGradient>
<linearGradient id="paint61_linear_421_5784" x1="-25440.6" y1="24934.5" x2="-25703" y2="24647.1" gradientUnits="userSpaceOnUse">
<stop/>
<stop offset="0.45" stop-color="#FF5B57"/>
<stop offset="1" stop-color="#AAE4D7"/>
</linearGradient>
<linearGradient id="paint62_linear_421_5784" x1="-10529.7" y1="9368.66" x2="-10792.1" y2="9081.25" gradientUnits="userSpaceOnUse">
<stop/>
<stop offset="0.45" stop-color="#FF5B57"/>
<stop offset="1" stop-color="#AAE4D7"/>
</linearGradient>
<linearGradient id="paint63_linear_421_5784" x1="-14715.6" y1="15691.1" x2="-14978" y2="15403.7" gradientUnits="userSpaceOnUse">
<stop/>
<stop offset="0.45" stop-color="#FF5B57"/>
<stop offset="1" stop-color="#AAE4D7"/>
</linearGradient>
<linearGradient id="paint64_linear_421_5784" x1="-6740.16" y1="6923.58" x2="-7002.57" y2="6636.16" gradientUnits="userSpaceOnUse">
<stop/>
<stop offset="0.45" stop-color="#FF5B57"/>
<stop offset="1" stop-color="#AAE4D7"/>
</linearGradient>
<linearGradient id="paint65_linear_421_5784" x1="-11561" y1="10471.5" x2="-11823.4" y2="10184.1" gradientUnits="userSpaceOnUse">
<stop/>
<stop offset="0.45" stop-color="#FF5B57"/>
<stop offset="1" stop-color="#AAE4D7"/>
</linearGradient>
<linearGradient id="paint66_linear_421_5784" x1="-9457.49" y1="10086.9" x2="-9719.89" y2="9799.5" gradientUnits="userSpaceOnUse">
<stop/>
<stop offset="0.45" stop-color="#FF5B57"/>
<stop offset="1" stop-color="#AAE4D7"/>
</linearGradient>
<linearGradient id="paint67_linear_421_5784" x1="-4501.41" y1="5169.47" x2="-4763.81" y2="4882.05" gradientUnits="userSpaceOnUse">
<stop/>
<stop offset="0.45" stop-color="#FF5B57"/>
<stop offset="1" stop-color="#AAE4D7"/>
</linearGradient>
<linearGradient id="paint68_linear_421_5784" x1="-5655.21" y1="5376.23" x2="-5917.61" y2="5088.81" gradientUnits="userSpaceOnUse">
<stop/>
<stop offset="0.45" stop-color="#FF5B57"/>
<stop offset="1" stop-color="#AAE4D7"/>
</linearGradient>
<linearGradient id="paint69_linear_421_5784" x1="-8256.47" y1="7522.52" x2="-8518.87" y2="7235.11" gradientUnits="userSpaceOnUse">
<stop/>
<stop offset="0.45" stop-color="#FF5B57"/>
<stop offset="1" stop-color="#AAE4D7"/>
</linearGradient>
<linearGradient id="paint70_linear_421_5784" x1="-1517.39" y1="2813.06" x2="-1779.79" y2="2525.64" gradientUnits="userSpaceOnUse">
<stop/>
<stop offset="0.45" stop-color="#FF5B57"/>
<stop offset="1" stop-color="#AAE4D7"/>
</linearGradient>
<linearGradient id="paint71_linear_421_5784" x1="-8073.52" y1="9891.41" x2="-8335.92" y2="9603.99" gradientUnits="userSpaceOnUse">
<stop/>
<stop offset="0.45" stop-color="#FF5B57"/>
<stop offset="1" stop-color="#AAE4D7"/>
</linearGradient>
<linearGradient id="paint72_linear_421_5784" x1="-21584.4" y1="21662.8" x2="-21846.8" y2="21375.3" gradientUnits="userSpaceOnUse">
<stop/>
<stop offset="0.45" stop-color="#FF5B57"/>
<stop offset="1" stop-color="#AAE4D7"/>
</linearGradient>
<linearGradient id="paint73_linear_421_5784" x1="-24560.8" y1="24875.8" x2="-24823.2" y2="24588.4" gradientUnits="userSpaceOnUse">
<stop/>
<stop offset="0.45" stop-color="#FF5B57"/>
<stop offset="1" stop-color="#AAE4D7"/>
</linearGradient>
<linearGradient id="paint74_linear_421_5784" x1="-20106.3" y1="19660" x2="-20368.7" y2="19372.5" gradientUnits="userSpaceOnUse">
<stop/>
<stop offset="0.45" stop-color="#FF5B57"/>
<stop offset="1" stop-color="#AAE4D7"/>
</linearGradient>
<linearGradient id="paint75_linear_421_5784" x1="-21095.1" y1="20590.2" x2="-21357.5" y2="20302.8" gradientUnits="userSpaceOnUse">
<stop/>
<stop offset="0.45" stop-color="#FF5B57"/>
<stop offset="1" stop-color="#AAE4D7"/>
</linearGradient>
<linearGradient id="paint76_linear_421_5784" x1="-14510.9" y1="15114.3" x2="-14773.3" y2="14826.9" gradientUnits="userSpaceOnUse">
<stop/>
<stop offset="0.45" stop-color="#FF5B57"/>
<stop offset="1" stop-color="#AAE4D7"/>
</linearGradient>
<linearGradient id="paint77_linear_421_5784" x1="-3183.14" y1="5703.13" x2="-3445.54" y2="5415.71" gradientUnits="userSpaceOnUse">
<stop/>
<stop offset="0.45" stop-color="#FF5B57"/>
<stop offset="1" stop-color="#AAE4D7"/>
</linearGradient>
<linearGradient id="paint78_linear_421_5784" x1="-21049.6" y1="21421.3" x2="-21312" y2="21133.9" gradientUnits="userSpaceOnUse">
<stop/>
<stop offset="0.45" stop-color="#FF5B57"/>
<stop offset="1" stop-color="#AAE4D7"/>
</linearGradient>
<linearGradient id="paint79_linear_421_5784" x1="-8470.1" y1="10521.8" x2="-8732.5" y2="10234.4" gradientUnits="userSpaceOnUse">
<stop/>
<stop offset="0.45" stop-color="#FF5B57"/>
<stop offset="1" stop-color="#AAE4D7"/>
</linearGradient>
<linearGradient id="paint80_linear_421_5784" x1="-4464.53" y1="4684.62" x2="-4726.93" y2="4397.21" gradientUnits="userSpaceOnUse">
<stop/>
<stop offset="0.45" stop-color="#FF5B57"/>
<stop offset="1" stop-color="#AAE4D7"/>
</linearGradient>
<linearGradient id="paint81_linear_421_5784" x1="-18344" y1="18427.8" x2="-18606.4" y2="18140.4" gradientUnits="userSpaceOnUse">
<stop/>
<stop offset="0.45" stop-color="#FF5B57"/>
<stop offset="1" stop-color="#AAE4D7"/>
</linearGradient>
<linearGradient id="paint82_linear_421_5784" x1="-14046.9" y1="14679.6" x2="-14309.3" y2="14392.2" gradientUnits="userSpaceOnUse">
<stop/>
<stop offset="0.45" stop-color="#FF5B57"/>
<stop offset="1" stop-color="#AAE4D7"/>
</linearGradient>
<linearGradient id="paint83_linear_421_5784" x1="-15085.7" y1="15688.7" x2="-15348.1" y2="15401.3" gradientUnits="userSpaceOnUse">
<stop/>
<stop offset="0.45" stop-color="#FF5B57"/>
<stop offset="1" stop-color="#AAE4D7"/>
</linearGradient>
<linearGradient id="paint84_linear_421_5784" x1="-21210.5" y1="19788.8" x2="-21472.9" y2="19501.4" gradientUnits="userSpaceOnUse">
<stop/>
<stop offset="0.45" stop-color="#FF5B57"/>
<stop offset="1" stop-color="#AAE4D7"/>
</linearGradient>
<linearGradient id="paint85_linear_421_5784" x1="-4419.11" y1="4023.68" x2="-4681.51" y2="3736.26" gradientUnits="userSpaceOnUse">
<stop/>
<stop offset="0.45" stop-color="#FF5B57"/>
<stop offset="1" stop-color="#AAE4D7"/>
</linearGradient>
<linearGradient id="paint86_linear_421_5784" x1="-11991.6" y1="13668" x2="-12254" y2="13380.6" gradientUnits="userSpaceOnUse">
<stop/>
<stop offset="0.45" stop-color="#FF5B57"/>
<stop offset="1" stop-color="#AAE4D7"/>
</linearGradient>
<linearGradient id="paint87_linear_421_5784" x1="-21282.5" y1="19485.2" x2="-21544.9" y2="19197.8" gradientUnits="userSpaceOnUse">
<stop/>
<stop offset="0.45" stop-color="#FF5B57"/>
<stop offset="1" stop-color="#AAE4D7"/>
</linearGradient>
<linearGradient id="paint88_linear_421_5784" x1="-9538.88" y1="10635.4" x2="-9801.29" y2="10348" gradientUnits="userSpaceOnUse">
<stop/>
<stop offset="0.45" stop-color="#FF5B57"/>
<stop offset="1" stop-color="#AAE4D7"/>
</linearGradient>
<linearGradient id="paint89_linear_421_5784" x1="-11405" y1="12472.2" x2="-11667.4" y2="12184.8" gradientUnits="userSpaceOnUse">
<stop/>
<stop offset="0.45" stop-color="#FF5B57"/>
<stop offset="1" stop-color="#AAE4D7"/>
</linearGradient>
<linearGradient id="paint90_linear_421_5784" x1="-27422.9" y1="27541.2" x2="-27685.4" y2="27253.8" gradientUnits="userSpaceOnUse">
<stop/>
<stop offset="0.45" stop-color="#FF5B57"/>
<stop offset="1" stop-color="#AAE4D7"/>
</linearGradient>
<linearGradient id="paint91_linear_421_5784" x1="-23313.7" y1="23430.2" x2="-23576.1" y2="23142.8" gradientUnits="userSpaceOnUse">
<stop/>
<stop offset="0.45" stop-color="#FF5B57"/>
<stop offset="1" stop-color="#AAE4D7"/>
</linearGradient>
<linearGradient id="paint92_linear_421_5784" x1="-5596.14" y1="6269.46" x2="-5858.54" y2="5982.05" gradientUnits="userSpaceOnUse">
<stop/>
<stop offset="0.45" stop-color="#FF5B57"/>
<stop offset="1" stop-color="#AAE4D7"/>
</linearGradient>
<linearGradient id="paint93_linear_421_5784" x1="-13184.8" y1="13499.3" x2="-13447.2" y2="13211.9" gradientUnits="userSpaceOnUse">
<stop/>
<stop offset="0.45" stop-color="#FF5B57"/>
<stop offset="1" stop-color="#AAE4D7"/>
</linearGradient>
<linearGradient id="paint94_linear_421_5784" x1="-7934.49" y1="10136.8" x2="-8196.89" y2="9849.34" gradientUnits="userSpaceOnUse">
<stop/>
<stop offset="0.45" stop-color="#FF5B57"/>
<stop offset="1" stop-color="#AAE4D7"/>
</linearGradient>
<linearGradient id="paint95_linear_421_5784" x1="-29241.5" y1="27471" x2="-29503.9" y2="27183.5" gradientUnits="userSpaceOnUse">
<stop/>
<stop offset="0.45" stop-color="#FF5B57"/>
<stop offset="1" stop-color="#AAE4D7"/>
</linearGradient>
<linearGradient id="paint96_linear_421_5784" x1="-3669.32" y1="4786.37" x2="-3931.72" y2="4498.95" gradientUnits="userSpaceOnUse">
<stop/>
<stop offset="0.45" stop-color="#FF5B57"/>
<stop offset="1" stop-color="#AAE4D7"/>
</linearGradient>
<linearGradient id="paint97_linear_421_5784" x1="-18129.6" y1="16661.1" x2="-18392" y2="16373.7" gradientUnits="userSpaceOnUse">
<stop/>
<stop offset="0.45" stop-color="#FF5B57"/>
<stop offset="1" stop-color="#AAE4D7"/>
</linearGradient>
<linearGradient id="paint98_linear_421_5784" x1="-12801.3" y1="12775.7" x2="-13063.7" y2="12488.3" gradientUnits="userSpaceOnUse">
<stop/>
<stop offset="0.45" stop-color="#FF5B57"/>
<stop offset="1" stop-color="#AAE4D7"/>
</linearGradient>
<linearGradient id="paint99_linear_421_5784" x1="-23702.4" y1="23851.4" x2="-23964.8" y2="23564" gradientUnits="userSpaceOnUse">
<stop/>
<stop offset="0.45" stop-color="#FF5B57"/>
<stop offset="1" stop-color="#AAE4D7"/>
</linearGradient>
<linearGradient id="paint100_linear_421_5784" x1="-10238.1" y1="12038.5" x2="-10500.5" y2="11751.1" gradientUnits="userSpaceOnUse">
<stop/>
<stop offset="0.45" stop-color="#FF5B57"/>
<stop offset="1" stop-color="#AAE4D7"/>
</linearGradient>
<linearGradient id="paint101_linear_421_5784" x1="-29486.6" y1="27309.6" x2="-29749.1" y2="27022.1" gradientUnits="userSpaceOnUse">
<stop/>
<stop offset="0.45" stop-color="#FF5B57"/>
<stop offset="1" stop-color="#AAE4D7"/>
</linearGradient>
<linearGradient id="paint102_linear_421_5784" x1="-18302.1" y1="16686.4" x2="-18564.5" y2="16399" gradientUnits="userSpaceOnUse">
<stop/>
<stop offset="0.45" stop-color="#FF5B57"/>
<stop offset="1" stop-color="#AAE4D7"/>
</linearGradient>
<linearGradient id="paint103_linear_421_5784" x1="-21430.1" y1="22246" x2="-21692.5" y2="21958.6" gradientUnits="userSpaceOnUse">
<stop/>
<stop offset="0.45" stop-color="#FF5B57"/>
<stop offset="1" stop-color="#AAE4D7"/>
</linearGradient>
<linearGradient id="paint104_linear_421_5784" x1="-27241.7" y1="27862.1" x2="-27504.2" y2="27574.7" gradientUnits="userSpaceOnUse">
<stop/>
<stop offset="0.45" stop-color="#FF5B57"/>
<stop offset="1" stop-color="#AAE4D7"/>
</linearGradient>
<linearGradient id="paint105_linear_421_5784" x1="-22925.3" y1="22409.9" x2="-23187.7" y2="22122.5" gradientUnits="userSpaceOnUse">
<stop/>
<stop offset="0.45" stop-color="#FF5B57"/>
<stop offset="1" stop-color="#AAE4D7"/>
</linearGradient>
<linearGradient id="paint106_linear_421_5784" x1="-22715.2" y1="22215.8" x2="-22977.6" y2="21928.4" gradientUnits="userSpaceOnUse">
<stop/>
<stop offset="0.45" stop-color="#FF5B57"/>
<stop offset="1" stop-color="#AAE4D7"/>
</linearGradient>
<linearGradient id="paint107_linear_421_5784" x1="-30293.8" y1="28655.5" x2="-30556.2" y2="28368.1" gradientUnits="userSpaceOnUse">
<stop/>
<stop offset="0.45" stop-color="#FF5B57"/>
<stop offset="1" stop-color="#AAE4D7"/>
</linearGradient>
<linearGradient id="paint108_linear_421_5784" x1="-24302.7" y1="24949" x2="-24565.1" y2="24661.6" gradientUnits="userSpaceOnUse">
<stop/>
<stop offset="0.45" stop-color="#FF5B57"/>
<stop offset="1" stop-color="#AAE4D7"/>
</linearGradient>
<linearGradient id="paint109_linear_421_5784" x1="-11822.2" y1="10760.8" x2="-12084.6" y2="10473.4" gradientUnits="userSpaceOnUse">
<stop/>
<stop offset="0.45" stop-color="#FF5B57"/>
<stop offset="1" stop-color="#AAE4D7"/>
</linearGradient>
<linearGradient id="paint110_linear_421_5784" x1="-23957.7" y1="22063.9" x2="-24220.1" y2="21776.5" gradientUnits="userSpaceOnUse">
<stop/>
<stop offset="0.45" stop-color="#FF5B57"/>
<stop offset="1" stop-color="#AAE4D7"/>
</linearGradient>
<linearGradient id="paint111_linear_421_5784" x1="-18404.3" y1="17573.6" x2="-18666.7" y2="17286.2" gradientUnits="userSpaceOnUse">
<stop/>
<stop offset="0.45" stop-color="#FF5B57"/>
<stop offset="1" stop-color="#AAE4D7"/>
</linearGradient>
<linearGradient id="paint112_linear_421_5784" x1="-25387.9" y1="23516.3" x2="-25650.3" y2="23228.8" gradientUnits="userSpaceOnUse">
<stop/>
<stop offset="0.45" stop-color="#FF5B57"/>
<stop offset="1" stop-color="#AAE4D7"/>
</linearGradient>
<linearGradient id="paint113_linear_421_5784" x1="-16779.4" y1="15357.7" x2="-17041.8" y2="15070.3" gradientUnits="userSpaceOnUse">
<stop/>
<stop offset="0.45" stop-color="#FF5B57"/>
<stop offset="1" stop-color="#AAE4D7"/>
</linearGradient>
<linearGradient id="paint114_linear_421_5784" x1="-18316.1" y1="17840.8" x2="-18578.5" y2="17553.4" gradientUnits="userSpaceOnUse">
<stop/>
<stop offset="0.45" stop-color="#FF5B57"/>
<stop offset="1" stop-color="#AAE4D7"/>
</linearGradient>
<linearGradient id="paint115_linear_421_5784" x1="-24485.3" y1="25068.6" x2="-24747.7" y2="24781.2" gradientUnits="userSpaceOnUse">
<stop/>
<stop offset="0.45" stop-color="#FF5B57"/>
<stop offset="1" stop-color="#AAE4D7"/>
</linearGradient>
<linearGradient id="paint116_linear_421_5784" x1="-10140" y1="12219.6" x2="-10402.4" y2="11932.2" gradientUnits="userSpaceOnUse">
<stop/>
<stop offset="0.45" stop-color="#FF5B57"/>
<stop offset="1" stop-color="#AAE4D7"/>
</linearGradient>
<linearGradient id="paint117_linear_421_5784" x1="-17498.7" y1="17061.7" x2="-17761.1" y2="16774.3" gradientUnits="userSpaceOnUse">
<stop/>
<stop offset="0.45" stop-color="#FF5B57"/>
<stop offset="1" stop-color="#AAE4D7"/>
</linearGradient>
<linearGradient id="paint118_linear_421_5784" x1="-1560.58" y1="3893.2" x2="-1822.98" y2="3605.78" gradientUnits="userSpaceOnUse">
<stop/>
<stop offset="0.45" stop-color="#FF5B57"/>
<stop offset="1" stop-color="#AAE4D7"/>
</linearGradient>
<linearGradient id="paint119_linear_421_5784" x1="-23086.2" y1="21356" x2="-23348.6" y2="21068.6" gradientUnits="userSpaceOnUse">
<stop/>
<stop offset="0.45" stop-color="#FF5B57"/>
<stop offset="1" stop-color="#AAE4D7"/>
</linearGradient>
<linearGradient id="paint120_linear_421_5784" x1="-1575.52" y1="2260.25" x2="-1837.92" y2="1972.83" gradientUnits="userSpaceOnUse">
<stop/>
<stop offset="0.45" stop-color="#FF5B57"/>
<stop offset="1" stop-color="#AAE4D7"/>
</linearGradient>
<linearGradient id="paint121_linear_421_5784" x1="-32227.7" y1="30189.4" x2="-32490.1" y2="29902" gradientUnits="userSpaceOnUse">
<stop/>
<stop offset="0.45" stop-color="#FF5B57"/>
<stop offset="1" stop-color="#AAE4D7"/>
</linearGradient>
<linearGradient id="paint122_linear_421_5784" x1="-5296.9" y1="7072.5" x2="-5559.3" y2="6785.09" gradientUnits="userSpaceOnUse">
<stop/>
<stop offset="0.45" stop-color="#FF5B57"/>
<stop offset="1" stop-color="#AAE4D7"/>
</linearGradient>
<linearGradient id="paint123_linear_421_5784" x1="-5163.1" y1="5722.77" x2="-5425.5" y2="5435.35" gradientUnits="userSpaceOnUse">
<stop/>
<stop offset="0.45" stop-color="#FF5B57"/>
<stop offset="1" stop-color="#AAE4D7"/>
</linearGradient>
<linearGradient id="paint124_linear_421_5784" x1="-23676.5" y1="22284.3" x2="-23938.9" y2="21996.9" gradientUnits="userSpaceOnUse">
<stop/>
<stop offset="0.45" stop-color="#FF5B57"/>
<stop offset="1" stop-color="#AAE4D7"/>
</linearGradient>
<linearGradient id="paint125_linear_421_5784" x1="-14168.3" y1="15849.9" x2="-14430.7" y2="15562.5" gradientUnits="userSpaceOnUse">
<stop/>
<stop offset="0.45" stop-color="#FF5B57"/>
<stop offset="1" stop-color="#AAE4D7"/>
</linearGradient>
<linearGradient id="paint126_linear_421_5784" x1="-19107.4" y1="18673.4" x2="-19369.8" y2="18386" gradientUnits="userSpaceOnUse">
<stop/>
<stop offset="0.45" stop-color="#FF5B57"/>
<stop offset="1" stop-color="#AAE4D7"/>
</linearGradient>
<linearGradient id="paint127_linear_421_5784" x1="-16823.7" y1="17041.8" x2="-17086.1" y2="16754.4" gradientUnits="userSpaceOnUse">
<stop/>
<stop offset="0.45" stop-color="#FF5B57"/>
<stop offset="1" stop-color="#AAE4D7"/>
</linearGradient>
<linearGradient id="paint128_linear_421_5784" x1="-22041.9" y1="22277.8" x2="-22304.3" y2="21990.4" gradientUnits="userSpaceOnUse">
<stop/>
<stop offset="0.45" stop-color="#FF5B57"/>
<stop offset="1" stop-color="#AAE4D7"/>
</linearGradient>
<linearGradient id="paint129_linear_421_5784" x1="-3594.36" y1="6212.59" x2="-3856.76" y2="5925.17" gradientUnits="userSpaceOnUse">
<stop/>
<stop offset="0.45" stop-color="#FF5B57"/>
<stop offset="1" stop-color="#AAE4D7"/>
</linearGradient>
<linearGradient id="paint130_linear_421_5784" x1="-6993.83" y1="8259.06" x2="-7256.23" y2="7971.65" gradientUnits="userSpaceOnUse">
<stop/>
<stop offset="0.45" stop-color="#FF5B57"/>
<stop offset="1" stop-color="#AAE4D7"/>
</linearGradient>
<linearGradient id="paint131_linear_421_5784" x1="-10416.1" y1="9235.66" x2="-10678.5" y2="8948.24" gradientUnits="userSpaceOnUse">
<stop/>
<stop offset="0.45" stop-color="#FF5B57"/>
<stop offset="1" stop-color="#AAE4D7"/>
</linearGradient>
<linearGradient id="paint132_linear_421_5784" x1="-26178.8" y1="25419.2" x2="-26441.2" y2="25131.8" gradientUnits="userSpaceOnUse">
<stop/>
<stop offset="0.45" stop-color="#FF5B57"/>
<stop offset="1" stop-color="#AAE4D7"/>
</linearGradient>
<linearGradient id="paint133_linear_421_5784" x1="-31444.7" y1="29920.8" x2="-31707.1" y2="29633.4" gradientUnits="userSpaceOnUse">
<stop/>
<stop offset="0.45" stop-color="#FF5B57"/>
<stop offset="1" stop-color="#AAE4D7"/>
</linearGradient>
<linearGradient id="paint134_linear_421_5784" x1="-35250.2" y1="32998.5" x2="-35512.6" y2="32711" gradientUnits="userSpaceOnUse">
<stop/>
<stop offset="0.45" stop-color="#FF5B57"/>
<stop offset="1" stop-color="#AAE4D7"/>
</linearGradient>
<linearGradient id="paint135_linear_421_5784" x1="-13609.8" y1="12617.6" x2="-13872.2" y2="12330.2" gradientUnits="userSpaceOnUse">
<stop/>
<stop offset="0.45" stop-color="#FF5B57"/>
<stop offset="1" stop-color="#AAE4D7"/>
</linearGradient>
<linearGradient id="paint136_linear_421_5784" x1="-3541.97" y1="5068.03" x2="-3804.37" y2="4780.61" gradientUnits="userSpaceOnUse">
<stop/>
<stop offset="0.45" stop-color="#FF5B57"/>
<stop offset="1" stop-color="#AAE4D7"/>
</linearGradient>
<linearGradient id="paint137_linear_421_5784" x1="-5306.29" y1="7407.76" x2="-5568.7" y2="7120.35" gradientUnits="userSpaceOnUse">
<stop/>
<stop offset="0.45" stop-color="#FF5B57"/>
<stop offset="1" stop-color="#AAE4D7"/>
</linearGradient>
<linearGradient id="paint138_linear_421_5784" x1="-20181.7" y1="18774.2" x2="-20444.1" y2="18486.8" gradientUnits="userSpaceOnUse">
<stop/>
<stop offset="0.45" stop-color="#FF5B57"/>
<stop offset="1" stop-color="#AAE4D7"/>
</linearGradient>
<linearGradient id="paint139_linear_421_5784" x1="-3420.94" y1="3948.24" x2="-3683.34" y2="3660.83" gradientUnits="userSpaceOnUse">
<stop/>
<stop offset="0.45" stop-color="#FF5B57"/>
<stop offset="1" stop-color="#AAE4D7"/>
</linearGradient>
<linearGradient id="paint140_linear_421_5784" x1="-14103" y1="15940.6" x2="-14365.4" y2="15653.1" gradientUnits="userSpaceOnUse">
<stop/>
<stop offset="0.45" stop-color="#FF5B57"/>
<stop offset="1" stop-color="#AAE4D7"/>
</linearGradient>
<linearGradient id="paint141_linear_421_5784" x1="-34874.5" y1="32455.7" x2="-35136.9" y2="32168.3" gradientUnits="userSpaceOnUse">
<stop/>
<stop offset="0.45" stop-color="#FF5B57"/>
<stop offset="1" stop-color="#AAE4D7"/>
</linearGradient>
<linearGradient id="paint142_linear_421_5784" x1="-11179.3" y1="12080.6" x2="-11441.7" y2="11793.2" gradientUnits="userSpaceOnUse">
<stop/>
<stop offset="0.45" stop-color="#FF5B57"/>
<stop offset="1" stop-color="#AAE4D7"/>
</linearGradient>
<linearGradient id="paint143_linear_421_5784" x1="-2988.5" y1="4186.6" x2="-3250.9" y2="3899.19" gradientUnits="userSpaceOnUse">
<stop/>
<stop offset="0.45" stop-color="#FF5B57"/>
<stop offset="1" stop-color="#AAE4D7"/>
</linearGradient>
<linearGradient id="paint144_linear_421_5784" x1="-34974" y1="33679.5" x2="-35236.4" y2="33392.1" gradientUnits="userSpaceOnUse">
<stop/>
<stop offset="0.45" stop-color="#FF5B57"/>
<stop offset="1" stop-color="#AAE4D7"/>
</linearGradient>
<linearGradient id="paint145_linear_421_5784" x1="-14167.5" y1="15324.3" x2="-14429.9" y2="15036.9" gradientUnits="userSpaceOnUse">
<stop/>
<stop offset="0.45" stop-color="#FF5B57"/>
<stop offset="1" stop-color="#AAE4D7"/>
</linearGradient>
<linearGradient id="paint146_linear_421_5784" x1="-22627.5" y1="21087.9" x2="-22889.9" y2="20800.4" gradientUnits="userSpaceOnUse">
<stop/>
<stop offset="0.45" stop-color="#FF5B57"/>
<stop offset="1" stop-color="#AAE4D7"/>
</linearGradient>
<linearGradient id="paint147_linear_421_5784" x1="-29133.3" y1="28157.1" x2="-29395.7" y2="27869.7" gradientUnits="userSpaceOnUse">
<stop/>
<stop offset="0.45" stop-color="#FF5B57"/>
<stop offset="1" stop-color="#AAE4D7"/>
</linearGradient>
<linearGradient id="paint148_linear_421_5784" x1="-9221.29" y1="8348.49" x2="-9483.69" y2="8061.08" gradientUnits="userSpaceOnUse">
<stop/>
<stop offset="0.45" stop-color="#FF5B57"/>
<stop offset="1" stop-color="#AAE4D7"/>
</linearGradient>
<linearGradient id="paint149_linear_421_5784" x1="-22152.9" y1="20715" x2="-22415.3" y2="20427.6" gradientUnits="userSpaceOnUse">
<stop/>
<stop offset="0.45" stop-color="#FF5B57"/>
<stop offset="1" stop-color="#AAE4D7"/>
</linearGradient>
<clipPath id="clip0_421_5784">
<rect width="1920" height="1080" fill="white"/>
</clipPath>
<clipPath id="clip1_421_5784">
<rect width="1920" height="1080" fill="white"/>
</clipPath>
<clipPath id="clip2_421_5784">
<rect width="1918.86" height="1176.92" fill="white" transform="matrix(-0.999997 0.00224626 -0.00168719 -0.999999 1920.84 1138.5)"/>
</clipPath>
</defs>
</svg>
