<svg xmlns="http://www.w3.org/2000/svg" xmlns:xlink="http://www.w3.org/1999/xlink" version="1.1" x="0px" y="0px" viewBox="0 0 100 125" enable-background="new 0 0 100 100" xml:space="preserve"><g><g><g><path fill-rule="evenodd" clip-rule="evenodd" fill="#000000" d="M-635.667,279.816c0-136,0-271.999,0-407.999     c186.333,0,372.667,0,559,0c-3.46,5.13-6.921,10.261-10.523,15.602c-6.743-2.843-4.229,5.498-7.334,7.731     c-0.249-0.581-0.375-1.051-0.629-1.437c-1.079-1.638-2.195-3.25-3.299-4.873c-1.252,1.573-3.186,2.977-3.625,4.751     c-1.157,4.669-1.576,9.516-2.473,14.257c-0.383,2.025-1.222,3.965-1.854,5.943c-0.14-4.931,0.704-9.508,0.978-14.119     c0.086-1.449-1.361-2.989-2.106-4.487c-1.472,1.08-3.849,1.891-4.261,3.284c-1.885,6.37-3.208,12.905-4.758,19.374     c-0.703,2.936-1.464,5.858-2.199,8.787c-0.928-1.88-0.625-3.466-0.458-5.066c0.43-4.129,0.928-8.259,1.111-12.401     c0.049-1.124-0.707-3.047-1.476-3.267c-1.195-0.341-3.276-0.001-3.995,0.867c-2.079,2.511-4.168,5.239-5.31,8.241     c-1.22,3.208-1.318,6.833-1.985,10.26c-1.168,6.004-2.396,11.997-3.6,17.994c-0.516-0.091-1.031-0.183-1.547-0.274     c0.224-10.857,4.336-21.708,0.597-33.427c-5.238,5.95-8.011,12.175-9.25,19.166c-1.365,7.699-2.578,15.433-4.214,23.074     c-0.56,2.617-2.193,5.005-3.337,7.498c0.445-10.185,1.616-19.901,2.397-29.649c0.14-1.75-1.329-3.629-2.056-5.449     c-1.967,0.99-4.889,1.478-5.722,3.063c-2.437,4.637-4.654,9.57-5.823,14.649c-1.599,6.948-1.869,14.193-3.261,21.202     c-0.852,4.286-2.738,8.367-4.159,12.541c-0.495-0.175-0.989-0.349-1.483-0.523c0.805-4.397,1.991-8.766,2.334-13.198     c0.638-8.244,0.936-16.524,0.986-24.792c0.008-1.39-1.864-3.852-2.999-3.931c-1.563-0.109-3.995,1.177-4.748,2.57     c-2.275,4.21-4.602,8.605-5.658,13.214c-1.892,8.253-2.638,16.763-4.321,25.071c-0.945,4.669-2.811,9.151-4.261,13.718     c-0.542-0.167-1.083-0.335-1.625-0.502c0.241-1.923,0.503-3.843,0.72-5.768c1.266-11.243,2.604-22.479,3.68-33.74     c0.147-1.537-0.622-4.072-1.702-4.581c-1.276-0.601-4.021-0.088-4.958,0.975c-2.795,3.168-5.888,6.533-7.254,10.392     c-1.922,5.426-2.454,11.354-3.477,17.087c-1.428,8.013-2.511,16.098-4.279,24.032c-0.56,2.511-2.842,4.638-4.335,6.94     c-0.383-0.224-0.767-0.446-1.149-0.67c0.392-3.448,0.863-6.891,1.16-10.347c1.223-14.259,2.427-28.521,3.517-42.79     c0.088-1.145-0.744-2.359-1.148-3.542c-1.122,0.492-2.704,0.671-3.291,1.529c-3.614,5.285-8.142,10.329-10.181,16.211     c-2.582,7.447-2.892,15.656-4.528,23.464c-1.767,8.429-3.545,16.896-6.134,25.09c-0.946,2.997-4.231,5.256-6.449,7.851     c0.847-11.69,3.162-22.424,4.381-33.28c1.211-10.782,1.318-21.688,1.909-32.539c-11.04,8.15-18.452,17.737-20.465,30.864     c-2.066,13.48-4.647,26.882-6.774,40.354c-0.843,5.334-4.129,6.94-9.424,7.473c0.605-2.74,1.061-4.97,1.592-7.182     c4.337-18.061,6.415-36.377,5.835-54.939c-0.067-2.157-1.823-4.263-2.796-6.392c-2.044,1.176-4.572,1.924-6.048,3.6     c-7.544,8.568-10.533,19.141-12.313,30.103c-2.107,12.979-3.873,26.016-6.07,38.979c-0.954,5.63-3.013,6.854-9.768,6.974     c1.175-7.24,2.636-14.385,3.441-21.604c1.774-15.882,3.33-31.791,4.662-47.715c0.178-2.131-1.458-4.413-2.254-6.625     c-2.014,1.061-4.553,1.659-5.953,3.257c-7.896,9.007-12.396,19.814-14.346,31.44c-2.421,14.437-3.858,29.035-5.936,43.533     c-0.922,6.434-3.071,8.183-9.64,9.056c3.167-28.101,6.332-56.204,9.599-85.214c-1.876,1.433-2.919,2.208-3.938,3.012     c-13.718,10.811-19.737,25.746-21.855,42.394c-1.805,14.184-2.646,28.487-4.063,42.724c-0.179,1.791-0.766,4.295-2.026,5.079     c-3.269,2.03-7.019,3.285-11.238,5.142c7.206-28.486,7-56.71,7.843-85.292c-2.578,0.589-4.614,1.434-6.21,2.795     c-12.001,10.239-16.966,24.183-19.133,39.072c-2.275,15.635-3.359,31.44-5.099,47.156c-0.278,2.518-0.481,5.872-2.085,7.233     c-2.998,2.548-6.997,3.918-11.4,6.205c0.417-2.82,0.602-4.447,0.903-6.052c5.021-26.691,6.097-53.581,3.882-80.609     c-0.17-2.073-1.61-4.042-2.46-6.06c-1.865,1.102-4.2,1.806-5.521,3.367c-12.281,14.507-18.604,31.551-19.472,50.342     c-0.714,15.457-0.21,30.969-0.313,46.455c-0.011,1.605,0.101,3.949-0.836,4.682c-4.332,3.383-8.587,7.217-15.017,7.572     c9.199-35.828,6.443-71.985,8.298-108.853c-1.605,1.203-2.248,1.652-2.856,2.146c-15.488,12.558-22.542,29.65-26.22,48.599     c-4.283,22.066-4.08,44.401-4.126,66.722c-0.018,8.189-2.488,11.482-10.483,14.078c6.04-39.148,0.476-78.45,0.184-118.596     c-18.242,12.637-26.328,29.682-28.729,49.644c-3.317,27.583-2.665,55.185,0.843,82.735c0.242,1.898,0.636,4.426-0.318,5.719     c-4.629,6.273-10.559,11.115-17.909,14.957c7.504-46.381,1.035-91.122-6.977-136.825c-8.806,6.818-13.693,14.828-17.165,23.734     c-8.427,21.614-10.571,44.245-10.447,67.206c0.123,22.893,3.142,45.49,7.226,67.961c0.564,3.107-0.218,5.111-2.455,7.395     C-580.367,220.391-610.206,248.037-635.667,279.816z"/><path fill-rule="evenodd" clip-rule="evenodd" fill="#000000" d="M-71.667-94.183c0,127,0,253.999,0,380.999     c-186.5,0-373,0.008-559.5-0.141c-1.289-0.002-4.627,2.469-4.5-1.859c9.097,0.395,18.191,0.902,27.292,1.057     c1.336,0.023,2.957-1.395,4.01-2.545c5.735-6.264,11.449-12.553,16.957-19.016c18.363-21.539,36.674-43.125,54.9-64.783     c2.556-3.037,4.646-3.168,8.046-1.16c15.046,8.881,30.025,17.924,45.484,26.041c27.24,14.305,56.19,20.539,86.973,15.979     c2.076-0.309,3.958-1.934,5.93-2.945c-1.188-2.025-1.922-4.65-3.65-5.961c-5.165-3.916-10.668-7.402-16.133-10.908     c-25.832-16.572-51.993-32.52-81.879-40.975c-6.183-1.75-12.479-3.096-19.931-4.924c6.348-5.615,11.986-10.486,17.479-15.516     c2.475-2.268,4.172-1.797,6.759,0.189c13.33,10.238,26.507,20.742,40.434,30.119c23.252,15.658,49.129,21.678,77.033,18.127     c2.218-0.281,4.254-1.994,6.375-3.043c-1.398-1.826-2.442-4.18-4.251-5.396c-12.843-8.627-26.122-16.627-38.725-25.582     c-18.087-12.854-36.941-23.832-58.907-28.555c-1.99-0.43-3.944-1.025-6.165-1.609c9.284-10.99,14.617-11.959,26.216-5.156     c2.01,1.18,3.936,2.502,5.92,3.727c17.002,10.488,33.683,21.555,51.124,31.252c12.044,6.695,25.614,9.412,39.57,8.471     c2.395-0.16,4.691-1.771,7.033-2.713c-1.188-2.346-1.812-5.352-3.657-6.924c-8.234-7.014-16.724-13.738-25.294-20.344     c-17.212-13.264-35.234-25.172-55.989-32.324c-1.626-0.561-3.225-1.199-5.979-2.229c5.175-3.164,9.501-5.578,13.567-8.371     c3.168-2.176,5.36-1.48,8.222,0.816c12.456,10,24.698,20.359,37.845,29.383c16.615,11.406,35.319,16.992,55.739,15.477     c1.842-0.137,3.645-0.799,6.674-1.496c-2.108-1.926-3.199-3.076-4.438-4.033c-16.864-13.02-33.632-26.17-50.692-38.928     c-5.779-4.322-12.264-7.721-18.522-11.375c-3.04-1.775-6.302-3.172-10.667-5.336c3.694-1.627,6.07-2.4,8.164-3.648     c5.653-3.367,9.554-1.875,14.093,2.836c12.246,12.711,24.928,25.074,40.778,33.455c11.001,5.816,22.632,8.785,35.14,7.191     c1.312-0.168,3.563-1.268,3.545-1.881c-0.042-1.4-0.918-3.098-1.995-4.082c-2.695-2.463-5.704-4.582-8.564-6.867     c-14.437-11.527-28.786-23.166-43.348-34.533c-3.998-3.119-8.622-5.438-13.079-8.199c10.419-7.466,13.682-7.281,22.148,1.021     c0.355,0.35,0.644,0.771,1.015,1.103c10.792,9.635,21.234,19.707,32.494,28.762c9.965,8.012,22.336,10.098,35.63,11.631     c-15.844-22.871-35.88-40.216-57.671-56.879c7.34-2.791,13.021-1.841,17.978,2.271c5.249,4.355,10.491,8.792,15.202,13.706     c11.378,11.869,25.339,18.697,41.18,22.074c2.653,0.564,5.429,0.555,9.611,0.949c-1.392-3.156-1.772-5.404-3.079-6.76     c-8.872-9.195-17.61-18.563-27.057-27.146c-6.451-5.86-13.978-10.537-21.257-15.916c4.771-3.097,9.064-3.447,13.477-0.475     c10.08,6.793,20.109,13.665,30.295,20.296c9.995,6.507,20.919,10.326,32.995,9.762c2.046-0.096,4.025-1.615,6.035-2.477     c-1.134-1.717-1.91-3.908-3.459-5.071c-9.982-7.501-20.086-14.843-30.247-22.103c-5.765-4.118-11.712-7.98-18.429-12.536     c8.71-3.354,15.846-2.432,22.75,1.889c10.146,6.351,19.943,13.443,30.665,18.61c5.593,2.695,12.835,2.44,19.351,2.572     c3.956,0.08,4.272-3.113,2.275-6.079c-0.909-1.351-2.174-2.576-3.525-3.495c-11.133-7.567-22.291-15.1-33.521-22.521     c-2.673-1.766-5.648-3.074-8.934-4.833c6.261-3.793,11.818-3.41,17.265-0.524c7.94,4.208,15.737,8.687,23.677,12.896     c7.513,3.981,15.617,5.826,24.083,5.221c2.194-0.156,4.271-1.956,6.402-3.001c-1.288-1.773-2.207-4.124-3.927-5.224     c-9.393-6.01-18.953-11.76-28.517-17.497c-4.086-2.451-8.32-4.655-13.092-7.308c6.153-3.567,11.569-2.613,16.818-0.233     c8.641,3.917,16.952,8.672,25.823,11.925c5.079,1.862,10.99,1.848,16.528,1.86c1.935,0.005,3.874-2.441,5.811-3.769     c-1.429-1.706-2.522-4.049-4.345-5.012c-8.677-4.584-17.518-8.864-26.371-13.104c-4.276-2.049-8.71-3.769-13.551-5.842     c3.981-4.807,8.445-4.339,12.733-2.848c6.599,2.294,12.884,5.581,19.575,7.493c6.62,1.892,13.545,3.106,20.405,3.556     c2.395,0.157,4.995-2.853,7.502-4.416c-2.069-1.676-3.896-3.907-6.249-4.935c-11.1-4.848-22.344-9.366-33.73-14.083     c3.145-4.425,7.615-5.094,12.375-3.991c6.153,1.426,12.148,3.544,18.313,4.906c5.813,1.283,11.729,2.251,17.652,2.816     c3.446,0.329,7.756,0,8.495-4.317c0.801-4.67-3.812-5.534-6.916-6.355c-6.903-1.827-14.019-2.838-20.984-4.454     c-3.204-0.742-6.26-2.125-10.29-3.535c5.966-4.233,11.241-3.574,16.563-3.081c7.778,0.72,15.568,1.413,23.369,1.722     c2.55,0.101,5.356-0.619,7.651-1.759c1.476-0.732,2.233-2.914,3.313-4.446c-1.422-0.955-2.729-2.435-4.284-2.771     c-5.685-1.23-11.459-2.034-17.183-3.091c-3.758-0.694-7.485-1.549-11.227-2.332c0.037-0.612,0.074-1.224,0.112-1.836     c3.049-0.493,6.081-1.178,9.149-1.441c8.124-0.698,16.31-0.881,24.374-1.981c2.85-0.389,7.823-3.113,7.688-4.301     c-0.517-4.538-5.153-3.607-8.436-3.923c-5.496-0.528-11.027-0.684-16.544-0.996c-0.062-0.455-0.123-0.91-0.185-1.365     c5.988-1.842,12.037-3.512,17.947-5.579c5.006-1.75,9.933-3.79,14.709-6.088c1.149-0.554,2.363-2.833,2.085-3.956     c-0.262-1.054-2.504-2.356-3.795-2.274c-3.617,0.228-7.202,1.065-10.783,1.755c-2.563,0.493-5.098,1.135-7.645,1.71     c-0.14-0.513-0.278-1.026-0.418-1.539c3.444-1.508,6.938-2.911,10.32-4.547C-82.543-88.623-77.121-91.435-71.667-94.183z"/><path fill-rule="evenodd" clip-rule="evenodd" d="M-71.667-94.183c-5.454,2.748-10.876,5.56-16.373,8.219     c-3.382,1.636-6.876,3.04-10.32,4.547c0.14,0.513,0.278,1.026,0.418,1.539c2.547-0.575,5.082-1.217,7.645-1.71     c3.581-0.689,7.166-1.527,10.783-1.755c1.291-0.082,3.533,1.22,3.795,2.274c0.278,1.123-0.936,3.402-2.085,3.956     c-4.776,2.298-9.703,4.338-14.709,6.088c-5.91,2.067-11.959,3.737-17.947,5.579c0.062,0.455,0.123,0.91,0.185,1.365     c5.517,0.313,11.048,0.468,16.544,0.996c3.282,0.315,7.919-0.615,8.436,3.923c0.135,1.188-4.839,3.912-7.688,4.301     c-8.064,1.101-16.25,1.283-24.374,1.981c-3.068,0.264-6.101,0.948-9.149,1.441c-0.038,0.612-0.075,1.224-0.112,1.836     c3.741,0.783,7.469,1.638,11.227,2.332c5.724,1.057,11.498,1.86,17.183,3.091c1.555,0.337,2.862,1.816,4.284,2.771     c-1.079,1.532-1.837,3.714-3.313,4.446c-2.295,1.14-5.102,1.859-7.651,1.759c-7.801-0.309-15.591-1.002-23.369-1.722     c-5.321-0.493-10.597-1.152-16.563,3.081c4.03,1.41,7.086,2.793,10.29,3.535c6.966,1.616,14.081,2.627,20.984,4.454     c3.104,0.821,7.717,1.686,6.916,6.355c-0.739,4.317-5.049,4.646-8.495,4.317c-5.923-0.565-11.84-1.533-17.652-2.816     c-6.164-1.362-12.159-3.48-18.313-4.906c-4.76-1.103-9.23-0.434-12.375,3.991c11.387,4.717,22.631,9.235,33.73,14.083     c2.353,1.027,4.18,3.259,6.249,4.935c-2.507,1.563-5.107,4.573-7.502,4.416c-6.86-0.449-13.785-1.664-20.405-3.556     c-6.691-1.912-12.977-5.199-19.575-7.493c-4.288-1.491-8.752-1.959-12.733,2.848c4.841,2.073,9.274,3.793,13.551,5.842     c8.854,4.239,17.694,8.52,26.371,13.104c1.822,0.963,2.916,3.306,4.345,5.012c-1.937,1.327-3.876,3.773-5.811,3.769     c-5.538-0.013-11.449,0.002-16.528-1.86c-8.871-3.253-17.183-8.008-25.823-11.925c-5.249-2.38-10.665-3.334-16.818,0.233     c4.771,2.652,9.006,4.856,13.092,7.308c9.563,5.737,19.124,11.487,28.517,17.497c1.72,1.1,2.639,3.45,3.927,5.224     c-2.131,1.045-4.208,2.845-6.402,3.001c-8.466,0.605-16.57-1.239-24.083-5.221c-7.939-4.209-15.736-8.688-23.677-12.896     c-5.446-2.886-11.004-3.269-17.265,0.524c3.285,1.759,6.261,3.067,8.934,4.833c11.23,7.422,22.389,14.954,33.521,22.521     c1.352,0.919,2.616,2.145,3.525,3.495c1.997,2.966,1.681,6.159-2.275,6.079c-6.516-0.132-13.758,0.123-19.351-2.572     c-10.722-5.167-20.52-12.26-30.665-18.61c-6.904-4.32-14.04-5.242-22.75-1.889c6.717,4.556,12.664,8.418,18.429,12.536     c10.161,7.26,20.265,14.602,30.247,22.103c1.549,1.163,2.325,3.354,3.459,5.071c-2.01,0.861-3.989,2.381-6.035,2.477     c-12.076,0.564-23-3.255-32.995-9.762c-10.186-6.631-20.215-13.503-30.295-20.296c-4.412-2.973-8.706-2.622-13.477,0.475     c7.279,5.379,14.806,10.056,21.257,15.916c9.446,8.582,18.185,17.95,27.057,27.146c1.307,1.355,1.688,3.604,3.079,6.76     c-4.183-0.395-6.958-0.385-9.611-0.949c-15.841-3.377-29.802-10.205-41.18-22.074c-4.711-4.914-9.953-9.351-15.202-13.706     c-4.956-4.111-10.638-5.062-17.978-2.271c21.791,16.663,41.827,34.008,57.671,56.879c-13.294-1.533-25.665-3.619-35.63-11.631     c-11.26-9.055-21.702-19.127-32.494-28.762c-0.371-0.331-0.659-0.753-1.015-1.103c-8.467-8.302-11.729-8.486-22.148-1.021     c4.457,2.761,9.081,5.08,13.079,8.199c14.562,11.367,28.911,23.006,43.348,34.533c2.86,2.285,5.869,4.404,8.564,6.867     c1.077,0.984,1.953,2.682,1.995,4.082c0.019,0.613-2.233,1.713-3.545,1.881c-12.508,1.594-24.139-1.375-35.14-7.191     c-15.851-8.381-28.532-20.744-40.778-33.455c-4.539-4.711-8.439-6.203-14.093-2.836c-2.094,1.248-4.47,2.021-8.164,3.648     c4.365,2.164,7.627,3.561,10.667,5.336c6.259,3.654,12.743,7.053,18.522,11.375c17.061,12.758,33.828,25.908,50.692,38.928     c1.239,0.957,2.33,2.107,4.438,4.033c-3.029,0.697-4.832,1.359-6.674,1.496c-20.42,1.516-39.124-4.07-55.739-15.477     c-13.146-9.023-25.389-19.383-37.845-29.383c-2.861-2.297-5.054-2.992-8.222-0.816c-4.066,2.793-8.393,5.207-13.567,8.371     c2.754,1.029,4.353,1.668,5.979,2.229c20.755,7.152,38.777,19.061,55.989,32.324c8.57,6.605,17.06,13.33,25.294,20.344     c1.846,1.572,2.47,4.578,3.657,6.924c-2.342,0.941-4.639,2.553-7.033,2.713c-13.956,0.941-27.526-1.775-39.57-8.471     c-17.441-9.697-34.122-20.764-51.124-31.252c-1.984-1.225-3.91-2.547-5.92-3.727c-11.599-6.803-16.932-5.834-26.216,5.156     c2.221,0.584,4.175,1.18,6.165,1.609c21.966,4.723,40.82,15.701,58.907,28.555c12.603,8.955,25.882,16.955,38.725,25.582     c1.809,1.217,2.853,3.57,4.251,5.396c-2.121,1.049-4.157,2.762-6.375,3.043c-27.904,3.551-53.781-2.469-77.033-18.127     c-13.927-9.377-27.104-19.881-40.434-30.119c-2.587-1.986-4.284-2.457-6.759-0.189c-5.493,5.029-11.132,9.9-17.479,15.516     c7.451,1.828,13.748,3.174,19.931,4.924c29.886,8.455,56.047,24.402,81.879,40.975c5.465,3.506,10.968,6.992,16.133,10.908     c1.729,1.311,2.462,3.936,3.65,5.961c-1.972,1.012-3.854,2.637-5.93,2.945c-30.782,4.561-59.732-1.674-86.973-15.979     c-15.459-8.117-30.438-17.16-45.484-26.041c-3.399-2.008-5.49-1.877-8.046,1.16c-18.227,21.658-36.537,43.244-54.9,64.783     c-5.508,6.463-11.222,12.752-16.957,19.016c-1.053,1.15-2.674,2.568-4.01,2.545c-9.101-0.154-18.195-0.662-27.292-1.057     c0-1.666,0-3.332,0-5c25.461-31.779,55.3-59.426,83.703-88.422c2.237-2.283,3.02-4.287,2.455-7.395     c-4.084-22.471-7.103-45.068-7.226-67.961c-0.124-22.961,2.021-45.592,10.447-67.206c3.472-8.906,8.359-16.916,17.165-23.734     c8.012,45.703,14.48,90.444,6.977,136.825c7.351-3.842,13.28-8.684,17.909-14.957c0.954-1.293,0.561-3.82,0.318-5.719     c-3.508-27.551-4.16-55.152-0.843-82.735c2.401-19.962,10.487-37.007,28.729-49.644c0.292,40.146,5.856,79.447-0.184,118.596     c7.995-2.596,10.466-5.889,10.483-14.078c0.046-22.32-0.157-44.655,4.126-66.722c3.678-18.948,10.731-36.041,26.22-48.599     c0.608-0.493,1.251-0.942,2.856-2.146c-1.854,36.867,0.901,73.024-8.298,108.853c6.43-0.355,10.685-4.189,15.017-7.572     c0.937-0.732,0.825-3.076,0.836-4.682c0.104-15.486-0.4-30.998,0.313-46.455c0.868-18.791,7.19-35.835,19.472-50.342     c1.321-1.562,3.656-2.266,5.521-3.367c0.85,2.018,2.29,3.986,2.46,6.06c2.215,27.028,1.139,53.918-3.882,80.609     c-0.302,1.604-0.486,3.231-0.903,6.052c4.403-2.287,8.402-3.657,11.4-6.205c1.604-1.361,1.807-4.716,2.085-7.233     c1.739-15.716,2.823-31.521,5.099-47.156c2.167-14.89,7.132-28.833,19.133-39.072c1.596-1.361,3.632-2.206,6.21-2.795     c-0.843,28.582-0.637,56.806-7.843,85.292c4.22-1.856,7.97-3.111,11.238-5.142c1.261-0.784,1.848-3.288,2.026-5.079     c1.416-14.236,2.258-28.54,4.063-42.724c2.118-16.647,8.138-31.583,21.855-42.394c1.02-0.804,2.063-1.579,3.938-3.012     c-3.267,29.01-6.432,57.113-9.599,85.214c6.568-0.873,8.718-2.622,9.64-9.056c2.077-14.498,3.515-29.097,5.936-43.533     c1.95-11.626,6.45-22.434,14.346-31.44c1.4-1.598,3.939-2.196,5.953-3.257c0.796,2.212,2.432,4.494,2.254,6.625     c-1.332,15.924-2.888,31.833-4.662,47.715c-0.806,7.219-2.267,14.363-3.441,21.604c6.755-0.12,8.813-1.344,9.768-6.974     c2.197-12.964,3.963-26,6.07-38.979c1.78-10.962,4.77-21.534,12.313-30.103c1.476-1.676,4.004-2.424,6.048-3.6     c0.973,2.129,2.729,4.234,2.796,6.392c0.58,18.563-1.498,36.879-5.835,54.939c-0.531,2.212-0.986,4.441-1.592,7.182     c5.295-0.532,8.581-2.139,9.424-7.473c2.127-13.472,4.708-26.873,6.774-40.354c2.013-13.127,9.425-22.714,20.465-30.864     c-0.591,10.852-0.698,21.757-1.909,32.539c-1.219,10.856-3.534,21.59-4.381,33.28c2.218-2.595,5.503-4.854,6.449-7.851     c2.589-8.193,4.367-16.661,6.134-25.09c1.637-7.808,1.946-16.017,4.528-23.464c2.039-5.882,6.566-10.926,10.181-16.211     c0.587-0.858,2.169-1.037,3.291-1.529c0.404,1.183,1.236,2.397,1.148,3.542c-1.09,14.27-2.294,28.531-3.517,42.79     c-0.297,3.456-0.769,6.898-1.16,10.347c0.383,0.224,0.767,0.446,1.149,0.67c1.493-2.303,3.775-4.43,4.335-6.94     c1.769-7.935,2.852-16.02,4.279-24.032c1.022-5.732,1.555-11.661,3.477-17.087c1.366-3.858,4.459-7.224,7.254-10.392     c0.938-1.063,3.682-1.575,4.958-0.975c1.08,0.509,1.85,3.044,1.702,4.581c-1.076,11.261-2.414,22.497-3.68,33.74     c-0.217,1.925-0.479,3.845-0.72,5.768c0.542,0.167,1.083,0.335,1.625,0.502c1.45-4.566,3.315-9.049,4.261-13.718     c1.684-8.309,2.43-16.818,4.321-25.071c1.057-4.608,3.383-9.004,5.658-13.214c0.753-1.394,3.185-2.68,4.748-2.57     c1.135,0.079,3.007,2.541,2.999,3.931c-0.051,8.268-0.349,16.548-0.986,24.792c-0.343,4.433-1.529,8.801-2.334,13.198     c0.494,0.175,0.988,0.349,1.483,0.523c1.421-4.174,3.308-8.255,4.159-12.541c1.392-7.009,1.662-14.254,3.261-21.202     c1.169-5.079,3.387-10.013,5.823-14.649c0.833-1.586,3.755-2.073,5.722-3.063c0.727,1.82,2.195,3.699,2.056,5.449     c-0.781,9.748-1.952,19.465-2.397,29.649c1.144-2.493,2.777-4.881,3.337-7.498c1.636-7.642,2.849-15.375,4.214-23.074     c1.239-6.99,4.012-13.216,9.25-19.166c3.739,11.72-0.373,22.57-0.597,33.427c0.516,0.092,1.031,0.184,1.547,0.274     c1.203-5.997,2.432-11.99,3.6-17.994c0.667-3.428,0.766-7.053,1.985-10.26c1.142-3.002,3.23-5.73,5.31-8.241     c0.719-0.868,2.8-1.208,3.995-0.867c0.769,0.22,1.524,2.144,1.476,3.267c-0.184,4.142-0.682,8.272-1.111,12.401     c-0.167,1.6-0.47,3.186,0.458,5.066c0.735-2.929,1.496-5.851,2.199-8.787c1.55-6.469,2.873-13.004,4.758-19.374     c0.412-1.393,2.789-2.205,4.261-3.284c0.745,1.498,2.192,3.038,2.106,4.487c-0.273,4.61-1.117,9.188-0.978,14.119     c0.632-1.979,1.471-3.918,1.854-5.943c0.896-4.741,1.315-9.588,2.473-14.257c0.439-1.774,2.373-3.178,3.625-4.751     c1.104,1.622,2.22,3.235,3.299,4.873c0.254,0.386,0.38,0.856,0.629,1.437c3.105-2.233,0.591-10.574,7.334-7.731     c3.603-5.341,7.063-10.472,10.523-15.602c0.667,0,1.333,0,2,0c3.816,2.782,2.595,6.082,0.727,9.209     c-1.851,3.099-4.035,5.999-6.338,9.375c5.463,1.912,4.093,4.34,1.105,6.887c-2.896,2.469-5.778,4.954-8.668,7.431     c5.694-0.808,10.057-5.812,16.174-2.903C-71.667-96.849-71.667-95.516-71.667-94.183z"/><path fill-rule="evenodd" clip-rule="evenodd" fill="#000000" d="M-71.667-98.183c-6.117-2.909-10.479,2.095-16.174,2.903     c2.89-2.478,5.772-4.962,8.668-7.431c2.987-2.547,4.357-4.975-1.105-6.887c2.303-3.376,4.487-6.276,6.338-9.375     c1.868-3.128,3.09-6.427-0.727-9.209c1.654,0.048,3.244-0.639,3.124,2.505C-71.893-116.524-71.667-107.349-71.667-98.183z"/></g></g><g><g><path d="M15.302,67.686l1.578-0.873c0.204-0.113,0.331-0.328,0.331-0.563l-0.002-1.217l-1.578-22.333     c-0.02-0.282-0.221-0.517-0.497-0.581c-0.272-0.063-0.558,0.062-0.7,0.306c-5.423,9.434-0.271,24.285-0.048,24.912     c0.063,0.178,0.2,0.318,0.377,0.387c0.074,0.027,0.151,0.041,0.228,0.041C15.099,67.766,15.207,67.738,15.302,67.686z"/></g></g><g><g><path d="M22.733,63.322l1.599-0.836c0.207-0.107,0.339-0.318,0.345-0.553l0.028-1.215l-1.023-22.367     c-0.013-0.282-0.209-0.522-0.482-0.592c-0.275-0.072-0.561,0.046-0.708,0.288c-5.655,9.296-0.873,24.271-0.667,24.903     c0.059,0.18,0.193,0.324,0.368,0.396c0.079,0.031,0.161,0.047,0.243,0.047C22.539,63.395,22.641,63.371,22.733,63.322z"/></g></g><g><g><path d="M29.709,60.285l1.631-0.77c0.211-0.1,0.352-0.307,0.367-0.539l0.076-1.217L31.65,35.372     c-0.002-0.283-0.188-0.53-0.458-0.611c-0.27-0.08-0.562,0.024-0.718,0.26c-6.02,9.064-1.836,24.218-1.655,24.858     c0.051,0.182,0.18,0.332,0.352,0.41c0.084,0.039,0.175,0.059,0.266,0.059C29.528,60.348,29.623,60.326,29.709,60.285z"/></g></g><g><g><path d="M37.685,58.301l1.628-0.723c0.218-0.098,0.365-0.309,0.38-0.547l0.072-1.154l-0.211-21.186     c-0.003-0.279-0.186-0.525-0.452-0.607c-0.267-0.081-0.555,0.017-0.716,0.245c-6.003,8.58-1.76,22.962-1.576,23.571     c0.054,0.176,0.18,0.32,0.347,0.396c0.085,0.039,0.176,0.059,0.268,0.059C37.513,58.355,37.601,58.338,37.685,58.301z"/></g></g><g><g><path d="M44.345,56.998l1.659-0.662c0.221-0.088,0.375-0.291,0.4-0.527l0.125-1.164l0.74-21.443     c0.01-0.279-0.163-0.533-0.427-0.626c-0.263-0.094-0.557-0.006-0.727,0.217c-6.379,8.418-2.787,23.142-2.631,23.765     c0.045,0.18,0.165,0.33,0.329,0.416c0.093,0.045,0.193,0.07,0.293,0.07C44.188,57.043,44.269,57.027,44.345,56.998z"/></g></g><g><g><path d="M51.779,54.557l1.667-0.566c0.23-0.08,0.397-0.281,0.429-0.523l0.145-1.09l1.089-20.039     c0.016-0.275-0.146-0.53-0.403-0.631c-0.252-0.101-0.548-0.03-0.726,0.181c-6.532,7.699-3.176,21.625-3.03,22.213     c0.044,0.176,0.158,0.324,0.315,0.41c0.096,0.053,0.201,0.078,0.308,0.078C51.641,54.59,51.711,54.578,51.779,54.557z"/></g></g><g><g><path d="M60.09,51.176l1.656-0.52c0.24-0.075,0.415-0.285,0.444-0.537l0.119-1.008l0.647-18.36     c0.009-0.27-0.152-0.516-0.401-0.617c-0.247-0.102-0.535-0.036-0.719,0.166c-6.385,7.094-2.714,19.903-2.555,20.444     c0.049,0.166,0.162,0.305,0.313,0.385c0.094,0.051,0.198,0.076,0.302,0.076C59.962,51.205,60.027,51.195,60.09,51.176z"/></g></g><g><path d="M67.892,47.394c-0.093,0-0.185-0.02-0.27-0.06c-0.157-0.073-0.278-0.206-0.336-0.369    c-0.163-0.46-3.927-11.363,1.237-17.818c0.168-0.211,0.451-0.293,0.708-0.207c0.256,0.087,0.43,0.326,0.435,0.596l0.313,15.848    l-0.057,0.883c-0.016,0.251-0.178,0.468-0.412,0.557l-1.391,0.528C68.046,47.38,67.968,47.394,67.892,47.394z"/></g><g><g><path d="M76.407,26.854c-0.011-0.254-0.172-0.479-0.408-0.572c-0.241-0.093-0.508-0.034-0.688,0.145     c-4.722,4.741-1.107,12.857-0.95,13.2c0.106,0.233,0.339,0.376,0.584,0.376c0.061,0,0.12-0.008,0.181-0.026l1.253-0.366     c0.258-0.076,0.442-0.304,0.46-0.573l0.041-0.67"/></g></g><g><g><path d="M81.753,34.549l0.94-0.253c0.265-0.072,0.455-0.303,0.474-0.576l0.029-0.497l-0.394-8.087     c-0.012-0.25-0.168-0.47-0.4-0.563c-0.229-0.095-0.495-0.043-0.679,0.126c-3.647,3.418-0.834,9.267-0.714,9.514     c0.11,0.224,0.337,0.358,0.577,0.358C81.642,34.571,81.698,34.564,81.753,34.549z"/></g></g><g><g><path d="M40.457,78.715c0.092-0.266-0.001-0.563-0.229-0.729L22.097,64.775l-0.994-0.621c-0.199-0.125-0.448-0.131-0.651-0.018     l-1.577,0.873c-0.166,0.092-0.281,0.252-0.318,0.438s0.009,0.377,0.126,0.525c0.415,0.52,10.27,12.768,21.144,13.174     c0.008,0,0.016,0,0.024,0C40.123,79.146,40.366,78.975,40.457,78.715z"/></g></g><g><g><path d="M47.703,75.594c0.085-0.27-0.015-0.563-0.247-0.723L29.004,62.113l-1.008-0.598c-0.201-0.117-0.451-0.119-0.652,0     l-1.556,0.912c-0.163,0.096-0.275,0.258-0.308,0.443c-0.032,0.188,0.019,0.377,0.14,0.521     c0.427,0.512,10.582,12.51,21.463,12.648c0.003,0,0.006,0,0.009,0C47.37,76.041,47.618,75.859,47.703,75.594z"/></g></g><g><g><path d="M54.32,72.238c0.282-0.008,0.526-0.199,0.602-0.473c0.074-0.271-0.037-0.561-0.275-0.711L35.704,59.043l-1.033-0.559     c-0.207-0.113-0.456-0.102-0.652,0.025l-1.518,0.973c-0.159,0.102-0.265,0.27-0.29,0.457s0.034,0.375,0.161,0.516     c0.436,0.48,10.804,11.787,21.542,11.787L54.32,72.238z"/></g></g><g><g><path d="M62.805,67.938c0.277-0.035,0.501-0.244,0.552-0.52c0.052-0.273-0.079-0.549-0.324-0.682L44.37,56.605l-1.011-0.455     c-0.217-0.098-0.473-0.068-0.66,0.08l-1.401,1.1c-0.146,0.113-0.234,0.283-0.245,0.467s0.059,0.363,0.189,0.494     c0.402,0.396,9.96,9.754,19.779,9.754c0.001,0,0.001,0,0.001,0C61.625,68.045,62.225,68.008,62.805,67.938z"/></g></g><g><g><path d="M69.312,62.576c0.27-0.068,0.465-0.305,0.481-0.582c0.017-0.279-0.147-0.537-0.408-0.637l-17.382-6.752l-0.93-0.285     c-0.227-0.07-0.478-0.008-0.645,0.164l-1.099,1.111c-0.13,0.131-0.197,0.313-0.185,0.494c0.014,0.186,0.104,0.354,0.25,0.467     c0.343,0.262,8.48,6.428,16.534,6.428l0,0C67.114,62.984,68.252,62.848,69.312,62.576z"/></g></g><g><g><path d="M75.25,57.922c0.261-0.088,0.437-0.332,0.437-0.607s-0.174-0.52-0.435-0.607L59.94,51.508l-0.823-0.207     c-0.229-0.057-0.463,0.012-0.622,0.182l-1.074,1.131c-0.126,0.133-0.189,0.311-0.175,0.492c0.014,0.182,0.104,0.348,0.248,0.459     c0.267,0.205,6.604,5.021,13.555,5.021l0,0C72.527,58.586,73.941,58.363,75.25,57.922z"/></g></g><g><g><path d="M79.738,52.055c0.252-0.107,0.409-0.361,0.392-0.633c-0.017-0.271-0.204-0.503-0.467-0.578l-13.446-3.8l-0.729-0.135     c-0.224-0.038-0.442,0.035-0.592,0.197l-1.052,1.148c-0.121,0.132-0.181,0.31-0.166,0.488c0.016,0.179,0.104,0.343,0.247,0.453     c0.202,0.157,5.023,3.839,10.88,3.839l0,0C76.539,53.035,78.199,52.705,79.738,52.055z"/></g></g><g><g><path d="M85.397,45.613c0.241-0.125,0.376-0.389,0.339-0.657c-0.038-0.269-0.239-0.485-0.505-0.541l-11.6-2.411L73,41.941     c-0.218-0.021-0.41,0.059-0.545,0.213l-1.031,1.165c-0.117,0.133-0.175,0.309-0.159,0.485c0.017,0.176,0.105,0.338,0.245,0.447     c0.144,0.113,3.59,2.759,8.266,2.759h0.001C81.73,47.009,83.622,46.54,85.397,45.613z"/></g></g><g><g><path d="M89.878,38.592c0.232-0.143,0.348-0.417,0.29-0.682c-0.058-0.267-0.277-0.467-0.547-0.501l-9.816-1.233l-0.539-0.006     c-0.156,0.015-0.371,0.08-0.495,0.224l-0.984,1.148c-0.112,0.133-0.168,0.307-0.151,0.481c0.018,0.173,0.105,0.333,0.242,0.441     c0.101,0.079,2.476,1.918,6.038,1.919l0,0C85.948,40.382,87.954,39.779,89.878,38.592z"/></g></g><g><g><path d="M93.127,32.72c0.248-0.128,0.384-0.403,0.337-0.678c-0.048-0.275-0.269-0.487-0.544-0.526l-6.471-0.9l-0.371-0.005     c-0.155-0.029-0.306,0.052-0.424,0.152l-0.969,0.819c-0.13,0.111-0.212,0.269-0.225,0.44c-0.014,0.17,0.042,0.34,0.153,0.47     c0.054,0.061,1.329,1.505,3.928,1.505h0.001C89.959,33.996,91.502,33.567,93.127,32.72z"/></g></g><g><g><path d="M87.402,29.691l0.72-0.193c0.266-0.072,0.455-0.304,0.474-0.578l0.021-0.396l-0.301-6.187     c-0.012-0.25-0.168-0.47-0.4-0.563c-0.23-0.093-0.496-0.044-0.679,0.126c-2.87,2.69-0.673,7.261-0.578,7.455     c0.11,0.224,0.337,0.358,0.576,0.358C87.291,29.713,87.348,29.706,87.402,29.691z"/></g></g><g><path d="M94.039,28.048c0.221-0.129,0.341-0.403,0.3-0.678c-0.043-0.275-0.239-0.488-0.485-0.527l-3.861-0.601l-0.221-0.003    c-0.145-0.002-0.271,0.052-0.377,0.152l-0.575,0.545c-0.116,0.111-0.189,0.27-0.2,0.44c-0.013,0.171,0.037,0.34,0.138,0.469    c0.033,0.044,0.847,1.075,2.474,1.075l0,0C92.103,28.921,93.047,28.627,94.039,28.048z"/></g></g><g><path d="M9.952,76.727l0.336-0.359c4.285-4.59,12.261-13.135,32.757-18.467C64.64,52.285,70.204,47.333,78.63,39.839   c9.107-8.101,12.367-11.935,14.118-13.994c1.154-1.359,1.254-2.938,1.135-4.005c-0.004-0.214-0.051-1.281-0.663-1.281   c-0.242,0-0.494,0.175-0.794,0.549l-3.854,4.816C67.89,49.635,47.271,52.908,47.057,52.939   C11.513,59.475,4.306,75.164,4.237,75.322c-0.016,0.037-0.02,0.08-0.011,0.119c0.028,0.123,0.724,3.027,2.749,3.027l0,0   C7.869,78.469,8.87,77.883,9.952,76.727z"/></g></svg>