<svg width="1764" height="1020" viewBox="0 0 1764 1020" fill="none" xmlns="http://www.w3.org/2000/svg">
<path opacity="0.19" d="M341.711 389.227L1168.61 709.881C1169.62 710.273 1170.99 710.116 1171.67 709.531C1172.35 708.946 1172.08 708.154 1171.07 707.762L344.173 387.109C343.163 386.717 341.793 386.874 341.113 387.459C340.433 388.044 340.701 388.836 341.711 389.227Z" fill="url(#paint0_linear_101_966)"/>
<path opacity="0.48" d="M1441.73 848.04L1957.62 1048.09C1958.63 1048.49 1960 1048.33 1960.68 1047.74C1961.36 1047.16 1961.1 1046.37 1960.09 1045.97L1444.19 845.921C1443.18 845.529 1441.81 845.686 1441.13 846.271C1440.45 846.856 1440.72 847.648 1441.73 848.04Z" fill="url(#paint1_linear_101_966)"/>
<path opacity="0.12" d="M1215.45 692.75L1817.33 926.146C1818.34 926.538 1819.71 926.381 1820.39 925.796C1821.07 925.211 1820.8 924.419 1819.79 924.027L1217.91 690.631C1216.9 690.239 1215.53 690.396 1214.85 690.981C1214.17 691.566 1214.44 692.358 1215.45 692.75Z" fill="url(#paint2_linear_101_966)"/>
<path opacity="0.44" d="M295.021 424.816L946.292 677.366C947.302 677.758 948.672 677.601 949.352 677.016C950.032 676.431 949.764 675.639 948.754 675.247L297.483 422.697C296.472 422.305 295.102 422.462 294.422 423.047C293.743 423.632 294.011 424.424 295.021 424.816Z" fill="url(#paint3_linear_101_966)"/>
<path opacity="0.88" d="M757.988 825.274L1004.96 921.044C1005.97 921.436 1007.34 921.279 1008.02 920.694C1008.7 920.109 1008.43 919.317 1007.42 918.925L760.45 823.155C759.44 822.763 758.07 822.92 757.39 823.505C756.71 824.09 756.978 824.882 757.988 825.274Z" fill="url(#paint4_linear_101_966)"/>
<path opacity="0.12" d="M-179.869 128.517L308.584 317.93C309.594 318.322 310.964 318.165 311.644 317.58C312.324 316.995 312.056 316.203 311.046 315.811L-177.407 126.398C-178.418 126.006 -179.788 126.163 -180.468 126.748C-181.148 127.333 -180.88 128.125 -179.869 128.517Z" fill="url(#paint5_linear_101_966)"/>
<path opacity="0.67" d="M1548.94 795.751L1854.46 914.223C1855.47 914.615 1856.84 914.458 1857.52 913.873C1858.2 913.288 1857.93 912.496 1856.92 912.104L1551.41 793.633C1550.4 793.241 1549.03 793.397 1548.35 793.983C1547.67 794.568 1547.93 795.36 1548.94 795.751Z" fill="url(#paint6_linear_101_966)"/>
<path opacity="0.54" d="M70.8357 495.262L310.489 588.195C311.499 588.586 312.869 588.43 313.549 587.845C314.229 587.26 313.961 586.468 312.951 586.076L73.2976 493.143C72.2873 492.751 70.9171 492.908 70.2372 493.493C69.5574 494.078 69.8253 494.87 70.8357 495.262Z" fill="url(#paint7_linear_101_966)"/>
<path opacity="0.98" d="M1434.26 185.162L1975.76 395.148C1976.77 395.539 1978.14 395.383 1978.82 394.798C1979.5 394.212 1979.24 393.42 1978.23 393.029L1436.72 183.043C1435.71 182.651 1434.34 182.808 1433.66 183.393C1432.98 183.978 1433.25 184.77 1434.26 185.162Z" fill="url(#paint8_linear_101_966)"/>
<path opacity="0.88" d="M661.942 428.781L1086.37 593.364C1087.38 593.756 1088.75 593.599 1089.43 593.014C1090.11 592.429 1089.84 591.637 1088.83 591.245L664.404 426.662C663.394 426.27 662.023 426.427 661.344 427.012C660.664 427.597 660.932 428.389 661.942 428.781Z" fill="url(#paint9_linear_101_966)"/>
<path opacity="0.58" d="M903.631 413.521L1148.77 508.582C1149.78 508.974 1151.15 508.817 1151.83 508.232C1152.51 507.647 1152.24 506.855 1151.23 506.463L906.093 411.402C905.083 411.01 903.713 411.167 903.033 411.752C902.353 412.337 902.621 413.129 903.631 413.521Z" fill="url(#paint10_linear_101_966)"/>
<path opacity="0.84" d="M1224.53 775.884L1720.3 968.134C1721.31 968.526 1722.68 968.369 1723.36 967.784C1724.04 967.199 1723.77 966.407 1722.76 966.015L1226.99 773.765C1225.98 773.373 1224.61 773.53 1223.93 774.115C1223.25 774.7 1223.52 775.492 1224.53 775.884Z" fill="url(#paint11_linear_101_966)"/>
<path opacity="0.19" d="M655.721 105.716L1475.3 423.533C1476.31 423.924 1477.68 423.768 1478.36 423.183C1479.04 422.597 1478.77 421.805 1477.76 421.414L658.183 103.598C657.173 103.206 655.802 103.363 655.123 103.948C654.443 104.533 654.711 105.325 655.721 105.716Z" fill="url(#paint12_linear_101_966)"/>
<path opacity="0.82" d="M-1.30748 262.941L227.369 351.617C228.379 352.009 229.75 351.852 230.429 351.267C231.109 350.682 230.841 349.89 229.831 349.498L1.15445 260.822C0.144087 260.43 -1.22608 260.587 -1.90593 261.172C-2.58577 261.757 -2.31783 262.549 -1.30748 262.941Z" fill="url(#paint13_linear_101_966)"/>
<path opacity="0.84" d="M444.01 777.493L533.651 812.254C534.662 812.646 536.032 812.489 536.712 811.904C537.392 811.319 537.124 810.527 536.113 810.135L446.472 775.374C445.462 774.982 444.091 775.139 443.412 775.724C442.732 776.309 443 777.101 444.01 777.493Z" fill="url(#paint14_linear_101_966)"/>
<path opacity="0.4" d="M222.898 786.777L424.133 864.813C425.144 865.204 426.514 865.048 427.194 864.463C427.873 863.877 427.606 863.086 426.595 862.694L225.36 784.659C224.349 784.267 222.979 784.423 222.299 785.009C221.62 785.594 221.888 786.386 222.898 786.777Z" fill="url(#paint15_linear_101_966)"/>
<path opacity="0.42" d="M1459.25 324.927L1898.31 495.185C1899.32 495.577 1900.69 495.42 1901.37 494.835C1902.05 494.25 1901.79 493.458 1900.78 493.067L1461.72 322.808C1460.71 322.416 1459.34 322.573 1458.66 323.158C1457.98 323.743 1458.24 324.535 1459.25 324.927Z" fill="url(#paint16_linear_101_966)"/>
<path opacity="0.91" d="M1322.96 313.826L1787.63 494.016C1788.64 494.408 1790.01 494.252 1790.69 493.666C1791.37 493.081 1791.1 492.289 1790.09 491.898L1325.42 311.707C1324.41 311.315 1323.04 311.472 1322.36 312.057C1321.68 312.642 1321.95 313.434 1322.96 313.826Z" fill="url(#paint17_linear_101_966)"/>
<path opacity="0.14" d="M1092.54 20.5905L1284.63 95.0787C1285.64 95.4705 1287.01 95.3138 1287.69 94.7287C1288.37 94.1436 1288.1 93.3516 1287.09 92.9598L1095 18.4717C1093.99 18.0799 1092.62 18.2366 1091.94 18.8217C1091.26 19.4068 1091.53 20.1987 1092.54 20.5905Z" fill="url(#paint18_linear_101_966)"/>
<path opacity="0.08" d="M1518.28 736.901L1805.5 848.278C1806.51 848.67 1807.88 848.513 1808.56 847.928C1809.24 847.343 1808.97 846.551 1807.96 846.16L1520.74 734.782C1519.73 734.39 1518.36 734.547 1517.68 735.132C1517 735.717 1517.27 736.509 1518.28 736.901Z" fill="url(#paint19_linear_101_966)"/>
<path opacity="0.24" d="M1219.74 487.068L1856.37 733.943C1857.38 734.334 1858.75 734.178 1859.43 733.593C1860.11 733.008 1859.84 732.216 1858.83 731.824L1222.2 484.949C1221.19 484.557 1219.82 484.714 1219.14 485.299C1218.46 485.884 1218.73 486.676 1219.74 487.068Z" fill="url(#paint20_linear_101_966)"/>
<path opacity="0.19" d="M240.189 98.2394L611.56 242.25C612.57 242.642 613.941 242.485 614.62 241.9C615.3 241.315 615.032 240.523 614.022 240.131L242.651 96.1206C241.641 95.7288 240.271 95.8855 239.591 96.4706C238.911 97.0557 239.179 97.8476 240.189 98.2394Z" fill="url(#paint21_linear_101_966)"/>
<path opacity="0.2" d="M-354.672 617.396L525.275 958.622C526.286 959.014 527.656 958.857 528.336 958.272C529.016 957.687 528.748 956.895 527.737 956.503L-352.21 615.277C-353.22 614.885 -354.591 615.042 -355.27 615.627C-355.95 616.212 -355.682 617.004 -354.672 617.396Z" fill="url(#paint22_linear_101_966)"/>
<path opacity="0.32" d="M1433.63 415.075L1986.11 629.317C1987.12 629.709 1988.49 629.552 1989.17 628.967C1989.85 628.382 1989.59 627.59 1988.58 627.198L1436.09 412.956C1435.08 412.564 1433.71 412.721 1433.03 413.306C1432.35 413.891 1432.62 414.683 1433.63 415.075Z" fill="url(#paint23_linear_101_966)"/>
<path opacity="0.52" d="M180.601 736.261L903.218 1016.48C904.229 1016.87 905.599 1016.71 906.279 1016.13C906.959 1015.54 906.691 1014.75 905.68 1014.36L183.063 734.142C182.052 733.751 180.682 733.907 180.002 734.492C179.322 735.078 179.59 735.87 180.601 736.261Z" fill="url(#paint24_linear_101_966)"/>
<path opacity="0.7" d="M675.94 831.018L1378.43 1103.43C1379.44 1103.82 1380.82 1103.67 1381.49 1103.08C1382.17 1102.5 1381.91 1101.71 1380.9 1101.31L678.402 828.9C677.392 828.508 676.022 828.665 675.342 829.25C674.662 829.835 674.93 830.627 675.94 831.018Z" fill="url(#paint25_linear_101_966)"/>
<path opacity="0.22" d="M29.5672 663.289L100.914 690.956C101.925 691.348 103.295 691.191 103.975 690.606C104.654 690.021 104.387 689.229 103.376 688.837L32.0291 661.17C31.0187 660.778 29.6486 660.935 28.9687 661.52C28.2889 662.105 28.5568 662.897 29.5672 663.289Z" fill="url(#paint26_linear_101_966)"/>
<path opacity="0.91" d="M731.862 943.585L947.733 1027.3C948.743 1027.69 950.113 1027.53 950.793 1026.95C951.473 1026.36 951.205 1025.57 950.195 1025.18L734.324 941.466C733.314 941.074 731.944 941.231 731.264 941.816C730.584 942.401 730.852 943.193 731.862 943.585Z" fill="url(#paint27_linear_101_966)"/>
<path opacity="0.5" d="M62.8741 890.852L549.498 1079.56C550.508 1079.95 551.878 1079.79 552.558 1079.21C553.238 1078.62 552.97 1077.83 551.96 1077.44L65.336 888.734C64.3257 888.342 62.9555 888.499 62.2756 889.084C61.5958 889.669 61.8637 890.461 62.8741 890.852Z" fill="url(#paint28_linear_101_966)"/>
<path opacity="0.37" d="M362.354 82.5156L1159.98 391.819C1160.99 392.21 1162.36 392.054 1163.04 391.469C1163.72 390.884 1163.45 390.092 1162.44 389.7L364.816 80.3967C363.805 80.0049 362.435 80.1616 361.755 80.7467C361.075 81.3318 361.343 82.1237 362.354 82.5156Z" fill="url(#paint29_linear_101_966)"/>
<path opacity="0.32" d="M917.086 664.477L1202.47 775.146C1203.49 775.537 1204.86 775.381 1205.54 774.796C1206.22 774.21 1205.95 773.419 1204.94 773.027L919.548 662.359C918.538 661.967 917.168 662.124 916.488 662.709C915.808 663.294 916.076 664.086 917.086 664.477Z" fill="url(#paint30_linear_101_966)"/>
<path opacity="0.33" d="M1091.27 415.076L1274.21 486.017C1275.22 486.409 1276.59 486.252 1277.27 485.667C1277.95 485.082 1277.68 484.29 1276.67 483.898L1093.73 412.957C1092.72 412.565 1091.35 412.722 1090.67 413.307C1089.99 413.892 1090.26 414.684 1091.27 415.076Z" fill="url(#paint31_linear_101_966)"/>
<path opacity="0.22" d="M1320.66 672.755L1553 762.85C1554.01 763.242 1555.38 763.085 1556.06 762.5C1556.74 761.915 1556.47 761.123 1555.46 760.731L1323.13 670.636C1322.12 670.244 1320.75 670.401 1320.07 670.986C1319.39 671.571 1319.65 672.363 1320.66 672.755Z" fill="url(#paint32_linear_101_966)"/>
<path opacity="0.13" d="M295.889 523.198L782.512 711.901C783.523 712.293 784.893 712.137 785.573 711.551C786.253 710.966 785.985 710.174 784.974 709.783L298.351 521.079C297.34 520.688 295.97 520.844 295.29 521.429C294.61 522.014 294.878 522.806 295.889 523.198Z" fill="url(#paint33_linear_101_966)"/>
<path opacity="0.71" d="M-131.168 -12.2164L607.914 274.386C608.925 274.777 610.295 274.621 610.975 274.036C611.654 273.45 611.387 272.659 610.376 272.267L-128.706 -14.3353C-129.717 -14.7271 -131.087 -14.5703 -131.767 -13.9852C-132.447 -13.4001 -132.179 -12.6082 -131.168 -12.2164Z" fill="url(#paint34_linear_101_966)"/>
<path opacity="0.2" d="M132.32 507.064L690.291 723.434C691.302 723.826 692.672 723.669 693.352 723.084C694.031 722.499 693.763 721.707 692.753 721.315L134.782 504.945C133.772 504.553 132.402 504.71 131.722 505.295C131.042 505.88 131.31 506.672 132.32 507.064Z" fill="url(#paint35_linear_101_966)"/>
<path opacity="0.37" d="M-84.4701 616.78L475.33 833.859C476.34 834.251 477.711 834.094 478.39 833.509C479.07 832.924 478.802 832.132 477.792 831.74L-82.0082 614.661C-83.0185 614.269 -84.3887 614.426 -85.0685 615.011C-85.7484 615.596 -85.4804 616.388 -84.4701 616.78Z" fill="url(#paint36_linear_101_966)"/>
<path opacity="0.8" d="M1384.4 920.955L1631.37 1016.73C1632.38 1017.12 1633.75 1016.96 1634.43 1016.38C1635.11 1015.79 1634.84 1015 1633.83 1014.61L1386.86 918.836C1385.85 918.444 1384.48 918.601 1383.8 919.186C1383.12 919.771 1383.39 920.563 1384.4 920.955Z" fill="url(#paint37_linear_101_966)"/>
<path opacity="0.61" d="M533.711 646.523L875.811 779.183C876.822 779.574 878.192 779.418 878.872 778.833C879.552 778.248 879.284 777.456 878.273 777.064L536.173 644.404C535.163 644.012 533.793 644.169 533.113 644.754C532.433 645.339 532.701 646.131 533.711 646.523Z" fill="url(#paint38_linear_101_966)"/>
<path opacity="0.85" d="M858.252 546.515L1644.9 851.562C1645.91 851.953 1647.28 851.797 1647.96 851.212C1648.64 850.626 1648.37 849.835 1647.36 849.443L860.714 544.396C859.703 544.004 858.333 544.161 857.653 544.746C856.973 545.331 857.241 546.123 858.252 546.515Z" fill="url(#paint39_linear_101_966)"/>
<path opacity="0.42" d="M-2.93636 940.805L293.428 1055.73C294.439 1056.12 295.809 1055.96 296.489 1055.38C297.169 1054.79 296.901 1054 295.89 1053.61L-0.474437 938.686C-1.48481 938.294 -2.85498 938.451 -3.53482 939.036C-4.21466 939.621 -3.94673 940.413 -2.93636 940.805Z" fill="url(#paint40_linear_101_966)"/>
<path opacity="0.75" d="M1001.09 488.251L1431 654.963C1432.01 655.355 1433.38 655.198 1434.06 654.613C1434.74 654.028 1434.48 653.236 1433.47 652.844L1003.55 486.133C1002.54 485.741 1001.17 485.897 1000.49 486.483C999.813 487.068 1000.08 487.86 1001.09 488.251Z" fill="url(#paint41_linear_101_966)"/>
<path opacity="0.52" d="M1418.24 918.281L1822.54 1075.06C1823.55 1075.45 1824.92 1075.3 1825.6 1074.71C1826.28 1074.13 1826.01 1073.33 1825 1072.94L1420.7 916.162C1419.69 915.77 1418.32 915.927 1417.64 916.512C1416.96 917.097 1417.23 917.889 1418.24 918.281Z" fill="url(#paint42_linear_101_966)"/>
<path opacity="0.47" d="M380.666 523.573L609.342 612.249C610.353 612.641 611.723 612.484 612.403 611.899C613.082 611.314 612.814 610.522 611.804 610.13L383.128 521.454C382.117 521.062 380.747 521.219 380.067 521.804C379.387 522.389 379.655 523.181 380.666 523.573Z" fill="url(#paint43_linear_101_966)"/>
<path opacity="0.92" d="M1659.53 41.3546L1811.37 100.236C1812.38 100.627 1813.75 100.471 1814.43 99.8856C1815.11 99.3005 1814.85 98.5086 1813.84 98.1168L1661.99 39.2357C1660.98 38.8439 1659.61 39.0006 1658.93 39.5857C1658.25 40.1708 1658.52 40.9628 1659.53 41.3546Z" fill="url(#paint44_linear_101_966)"/>
<path opacity="0.69" d="M1430.29 359.53L1940.7 557.456C1941.71 557.848 1943.08 557.691 1943.76 557.106C1944.44 556.521 1944.17 555.729 1943.16 555.337L1432.75 357.411C1431.74 357.02 1430.37 357.176 1429.69 357.761C1429.01 358.347 1429.28 359.138 1430.29 359.53Z" fill="url(#paint45_linear_101_966)"/>
<path opacity="0.32" d="M248.832 916.883L645.814 1070.83C646.824 1071.22 648.195 1071.06 648.875 1070.48C649.554 1069.89 649.286 1069.1 648.276 1068.71L251.294 914.764C250.283 914.372 248.913 914.529 248.233 915.114C247.553 915.699 247.821 916.491 248.832 916.883Z" fill="url(#paint46_linear_101_966)"/>
<path opacity="0.85" d="M710.095 731.004L911.331 809.039C912.341 809.431 913.711 809.274 914.391 808.689C915.071 808.104 914.803 807.312 913.793 806.92L712.557 728.885C711.547 728.493 710.177 728.65 709.497 729.235C708.817 729.82 709.085 730.612 710.095 731.004Z" fill="url(#paint47_linear_101_966)"/>
<path opacity="0.95" d="M1161.67 406.875L1503.77 539.535C1504.78 539.927 1506.15 539.77 1506.83 539.185C1507.51 538.6 1507.24 537.808 1506.23 537.416L1164.13 404.756C1163.12 404.364 1161.75 404.521 1161.07 405.106C1160.39 405.691 1160.66 406.483 1161.67 406.875Z" fill="url(#paint48_linear_101_966)"/>
<path opacity="0.68" d="M196.706 563.462L811.389 801.824C812.399 802.216 813.769 802.059 814.449 801.474C815.129 800.889 814.861 800.097 813.851 799.705L199.168 561.343C198.158 560.952 196.787 561.108 196.108 561.693C195.428 562.279 195.696 563.07 196.706 563.462Z" fill="url(#paint49_linear_101_966)"/>
<path opacity="0.99" d="M218.226 699.81L525.567 818.991C526.577 819.383 527.948 819.226 528.627 818.641C529.307 818.056 529.039 817.264 528.029 816.872L220.688 697.691C219.677 697.3 218.307 697.456 217.627 698.041C216.948 698.627 217.215 699.418 218.226 699.81Z" fill="url(#paint50_linear_101_966)"/>
<path opacity="0.57" d="M961.507 611.541L1197.5 703.055C1198.51 703.447 1199.88 703.29 1200.56 702.705C1201.24 702.12 1200.97 701.328 1199.96 700.936L963.969 609.422C962.959 609.03 961.588 609.187 960.909 609.772C960.229 610.357 960.497 611.149 961.507 611.541Z" fill="url(#paint51_linear_101_966)"/>
<path opacity="0.09" d="M1364.04 422.671L1786.63 586.544C1787.64 586.936 1789.01 586.78 1789.69 586.194C1790.37 585.609 1790.1 584.817 1789.09 584.426L1366.5 420.552C1365.49 420.16 1364.12 420.317 1363.44 420.902C1362.76 421.487 1363.03 422.279 1364.04 422.671Z" fill="url(#paint52_linear_101_966)"/>
<path opacity="0.9" d="M470.048 297.791L757.266 409.168C758.276 409.56 759.646 409.403 760.326 408.818C761.006 408.233 760.738 407.441 759.727 407.049L472.51 295.672C471.499 295.28 470.129 295.437 469.449 296.022C468.77 296.607 469.037 297.399 470.048 297.791Z" fill="url(#paint53_linear_101_966)"/>
<path opacity="0.36" d="M21.1011 476.275L227.825 556.439C228.835 556.831 230.205 556.674 230.885 556.089C231.565 555.504 231.297 554.712 230.287 554.32L23.563 474.157C22.5526 473.765 21.1824 473.921 20.5026 474.507C19.8228 475.092 20.0907 475.884 21.1011 476.275Z" fill="url(#paint54_linear_101_966)"/>
<path opacity="0.33" d="M169.805 862.366L389.334 947.495C390.345 947.887 391.715 947.731 392.395 947.145C393.075 946.56 392.807 945.768 391.796 945.377L172.267 860.247C171.256 859.855 169.886 860.012 169.206 860.597C168.527 861.182 168.795 861.974 169.805 862.366Z" fill="url(#paint55_linear_101_966)"/>
<path opacity="0.75" d="M472.742 31.9424L652.025 101.465C653.035 101.856 654.405 101.7 655.085 101.115C655.765 100.53 655.497 99.7376 654.487 99.3458L475.204 29.8236C474.194 29.4318 472.824 29.5885 472.144 30.1736C471.464 30.7587 471.732 31.5506 472.742 31.9424Z" fill="url(#paint56_linear_101_966)"/>
<path opacity="0.97" d="M-18.4114 357.841L416.989 526.681C417.999 527.073 419.369 526.916 420.049 526.331C420.729 525.746 420.461 524.954 419.451 524.562L-15.9495 355.723C-16.9599 355.331 -18.33 355.488 -19.0099 356.073C-19.6897 356.658 -19.4218 357.45 -18.4114 357.841Z" fill="url(#paint57_linear_101_966)"/>
<path opacity="0.83" d="M760.98 263.3L1379.32 503.081C1380.33 503.473 1381.7 503.316 1382.38 502.731C1383.06 502.146 1382.79 501.354 1381.78 500.962L763.442 261.181C762.431 260.79 761.061 260.946 760.381 261.531C759.701 262.117 759.969 262.908 760.98 263.3Z" fill="url(#paint58_linear_101_966)"/>
<path opacity="0.35" d="M1457.27 104.519L1934.75 289.675C1935.76 290.067 1937.13 289.91 1937.81 289.325C1938.49 288.74 1938.22 287.948 1937.21 287.556L1459.73 102.4C1458.72 102.008 1457.35 102.165 1456.67 102.75C1455.99 103.335 1456.26 104.127 1457.27 104.519Z" fill="url(#paint59_linear_101_966)"/>
<path opacity="0.61" d="M961.278 531.033L1453.39 721.865C1454.4 722.257 1455.77 722.1 1456.45 721.515C1457.13 720.93 1456.86 720.138 1455.85 719.746L963.74 528.914C962.73 528.523 961.36 528.679 960.68 529.264C960 529.85 960.268 530.642 961.278 531.033Z" fill="url(#paint60_linear_101_966)"/>
<path opacity="0.15" d="M-50.8856 427.641L635.144 693.67C636.154 694.062 637.525 693.905 638.204 693.32C638.884 692.735 638.616 691.943 637.606 691.551L-48.4237 425.522C-49.4341 425.131 -50.8042 425.287 -51.4841 425.872C-52.1639 426.457 -51.896 427.249 -50.8856 427.641Z" fill="url(#paint61_linear_101_966)"/>
<path opacity="0.38" d="M1391.98 -20.6705L1655.41 81.4847C1656.42 81.8765 1657.79 81.7198 1658.47 81.1347C1659.15 80.5496 1658.88 79.7576 1657.87 79.3658L1394.44 -22.7893C1393.43 -23.1811 1392.06 -23.0244 1391.38 -22.4393C1390.7 -21.8542 1390.97 -21.0623 1391.98 -20.6705Z" fill="url(#paint62_linear_101_966)"/>
<path opacity="0.3" d="M916.045 699.862L1340.47 864.445C1341.48 864.837 1342.85 864.68 1343.53 864.095C1344.21 863.51 1343.94 862.718 1342.93 862.326L918.507 697.743C917.497 697.351 916.127 697.508 915.447 698.093C914.767 698.678 915.035 699.47 916.045 699.862Z" fill="url(#paint63_linear_101_966)"/>
<path opacity="0.99" d="M1553.21 316.92L1737.98 388.571C1738.99 388.962 1740.36 388.806 1741.04 388.221C1741.72 387.636 1741.45 386.844 1740.44 386.452L1555.67 314.801C1554.66 314.409 1553.29 314.566 1552.61 315.151C1551.93 315.736 1552.2 316.528 1553.21 316.92Z" fill="url(#paint64_linear_101_966)"/>
<path opacity="0.86" d="M1271.59 17.2102L1564.29 130.716C1565.3 131.108 1566.67 130.951 1567.35 130.366C1568.03 129.781 1567.76 128.989 1566.75 128.597L1274.05 15.0913C1273.04 14.6995 1271.67 14.8562 1270.99 15.4413C1270.31 16.0264 1270.58 16.8184 1271.59 17.2102Z" fill="url(#paint65_linear_101_966)"/>
<path opacity="0.46" d="M870.892 474.839L1128.84 574.866C1129.85 575.258 1131.22 575.101 1131.9 574.516C1132.58 573.931 1132.31 573.139 1131.3 572.747L873.354 472.72C872.344 472.329 870.974 472.485 870.294 473.071C869.614 473.656 869.882 474.448 870.892 474.839Z" fill="url(#paint66_linear_101_966)"/>
<path opacity="0.85" d="M1391.71 406.774L1516.11 455.014C1517.12 455.406 1518.49 455.249 1519.17 454.664C1519.85 454.079 1519.59 453.287 1518.58 452.895L1394.18 404.655C1393.17 404.263 1391.8 404.42 1391.12 405.005C1390.44 405.59 1390.7 406.382 1391.71 406.774Z" fill="url(#paint67_linear_101_966)"/>
<path opacity="0.68" d="M1108.39 125.755L1238.28 176.124C1239.29 176.515 1240.66 176.359 1241.34 175.774C1242.02 175.188 1241.75 174.397 1240.74 174.005L1110.85 123.637C1109.84 123.245 1108.47 123.401 1107.79 123.987C1107.11 124.572 1107.38 125.364 1108.39 125.755Z" fill="url(#paint68_linear_101_966)"/>
<path opacity="0.41" d="M293.692 -2.69591L469.316 65.4075C470.326 65.7993 471.696 65.6426 472.376 65.0575C473.056 64.4724 472.788 63.6805 471.778 63.2887L296.154 -4.81476C295.144 -5.20655 293.774 -5.04985 293.094 -4.46474C292.414 -3.87964 292.682 -3.08771 293.692 -2.69591Z" fill="url(#paint69_linear_101_966)"/>
<path opacity="0.78" d="M1259.26 525.636L1304.99 543.371C1306 543.763 1307.37 543.606 1308.05 543.021C1308.73 542.436 1308.47 541.644 1307.45 541.252L1261.72 523.517C1260.71 523.125 1259.34 523.282 1258.66 523.867C1257.98 524.452 1258.25 525.244 1259.26 525.636Z" fill="url(#paint70_linear_101_966)"/>
<path opacity="0.93" d="M661.073 796.645L898.896 888.868C899.907 889.26 901.277 889.103 901.957 888.518C902.636 887.933 902.368 887.141 901.358 886.749L663.535 794.526C662.524 794.134 661.154 794.291 660.474 794.876C659.794 795.461 660.062 796.253 661.073 796.645Z" fill="url(#paint71_linear_101_966)"/>
<path opacity="0.4" d="M8.39484 524.908L593.807 751.919C594.817 752.311 596.187 752.154 596.867 751.569C597.547 750.984 597.279 750.192 596.269 749.8L10.8568 522.789C9.84639 522.397 8.47622 522.554 7.79638 523.139C7.11654 523.724 7.38447 524.516 8.39484 524.908Z" fill="url(#paint72_linear_101_966)"/>
<path opacity="0.76" d="M305.903 680.316L993.762 947.054C994.772 947.446 996.143 947.289 996.823 946.704C997.502 946.119 997.234 945.327 996.224 944.935L308.365 678.197C307.355 677.805 305.985 677.962 305.305 678.547C304.625 679.132 304.893 679.924 305.903 680.316Z" fill="url(#paint73_linear_101_966)"/>
<path opacity="0.67" d="M1147.7 396.355L1707.5 613.435C1708.51 613.827 1709.88 613.67 1710.56 613.085C1711.24 612.5 1710.97 611.708 1709.96 611.316L1150.16 394.236C1149.15 393.845 1147.78 394.001 1147.1 394.586C1146.42 395.171 1146.69 395.963 1147.7 396.355Z" fill="url(#paint74_linear_101_966)"/>
<path opacity="0.1" d="M365.596 355.652L932.714 575.569C933.724 575.961 935.095 575.804 935.774 575.219C936.454 574.634 936.186 573.842 935.176 573.45L368.058 353.533C367.048 353.141 365.678 353.298 364.998 353.883C364.318 354.468 364.586 355.26 365.596 355.652Z" fill="url(#paint75_linear_101_966)"/>
<path opacity="0.88" d="M-110.654 522.634L271.693 670.901C272.703 671.293 274.074 671.136 274.753 670.551C275.433 669.966 275.165 669.174 274.155 668.782L-108.192 520.515C-109.203 520.124 -110.573 520.28 -111.253 520.865C-111.932 521.451 -111.665 522.243 -110.654 522.634Z" fill="url(#paint76_linear_101_966)"/>
<path opacity="0.19" d="M342.63 885.558L441.419 923.866C442.429 924.258 443.799 924.101 444.479 923.516C445.159 922.931 444.891 922.139 443.881 921.747L345.092 883.439C344.082 883.047 342.712 883.204 342.032 883.789C341.352 884.374 341.62 885.166 342.63 885.558Z" fill="url(#paint77_linear_101_966)"/>
<path opacity="0.78" d="M289.528 619.067L873.11 845.369C874.12 845.761 875.491 845.604 876.17 845.019C876.85 844.434 876.582 843.642 875.572 843.25L291.989 616.948C290.979 616.556 289.609 616.713 288.929 617.298C288.249 617.883 288.517 618.675 289.528 619.067Z" fill="url(#paint78_linear_101_966)"/>
<path opacity="0.25" d="M-47.9466 836.632L188.048 928.146C189.058 928.537 190.428 928.381 191.108 927.796C191.788 927.21 191.52 926.419 190.509 926.027L-45.4847 834.513C-46.4951 834.121 -47.8653 834.278 -48.5451 834.863C-49.2249 835.448 -48.957 836.24 -47.9466 836.632Z" fill="url(#paint79_linear_101_966)"/>
<path opacity="0.67" d="M1333.89 265.306L1445.49 308.58C1446.5 308.972 1447.87 308.815 1448.55 308.23C1449.23 307.645 1448.96 306.853 1447.95 306.462L1336.35 263.187C1335.34 262.796 1333.97 262.952 1333.29 263.537C1332.61 264.123 1332.88 264.915 1333.89 265.306Z" fill="url(#paint80_linear_101_966)"/>
<path opacity="0.53" d="M756.742 497.623L1265.32 694.839C1266.33 695.231 1267.7 695.075 1268.38 694.489C1269.06 693.904 1268.79 693.112 1267.78 692.721L759.204 495.504C758.193 495.113 756.823 495.269 756.143 495.854C755.463 496.439 755.731 497.231 756.742 497.623Z" fill="url(#paint81_linear_101_966)"/>
<path opacity="0.75" d="M1338.63 604.072L1746.58 762.271C1747.6 762.663 1748.97 762.506 1749.65 761.921C1750.32 761.336 1750.06 760.544 1749.05 760.152L1341.09 601.953C1340.08 601.562 1338.71 601.718 1338.03 602.303C1337.35 602.888 1337.62 603.68 1338.63 604.072Z" fill="url(#paint82_linear_101_966)"/>
<path opacity="0.16" d="M-1.60162 541.451L400.869 697.521C401.879 697.913 403.25 697.756 403.929 697.171C404.609 696.586 404.341 695.794 403.331 695.402L0.860301 539.332C-0.150071 538.94 -1.52024 539.097 -2.20008 539.682C-2.87992 540.267 -2.61199 541.059 -1.60162 541.451Z" fill="url(#paint83_linear_101_966)"/>
<path opacity="0.97" d="M943.743 110.082L1509.03 329.29C1510.04 329.682 1511.41 329.525 1512.09 328.94C1512.77 328.355 1512.5 327.563 1511.49 327.172L946.205 107.964C945.195 107.572 943.824 107.728 943.145 108.314C942.465 108.899 942.733 109.691 943.743 110.082Z" fill="url(#paint84_linear_101_966)"/>
<path opacity="0.31" d="M1495.58 84.8052L1596.2 123.823C1597.21 124.215 1598.58 124.058 1599.26 123.473C1599.94 122.888 1599.67 122.096 1598.66 121.704L1498.04 82.6864C1497.03 82.2946 1495.66 82.4513 1494.98 83.0364C1494.3 83.6215 1494.57 84.4134 1495.58 84.8052Z" fill="url(#paint85_linear_101_966)"/>
<path opacity="0.57" d="M772.457 846.288L1127.36 983.914C1128.37 984.305 1129.74 984.149 1130.42 983.564C1131.1 982.979 1130.84 982.187 1129.83 981.795L774.919 844.169C773.909 843.777 772.539 843.934 771.859 844.519C771.179 845.104 771.447 845.896 772.457 846.288Z" fill="url(#paint86_linear_101_966)"/>
<path opacity="0.55" d="M-47.8227 -60.0711L484.536 146.367C485.547 146.759 486.917 146.603 487.597 146.017C488.277 145.432 488.009 144.64 486.998 144.249L-45.3608 -62.1899C-46.3711 -62.5817 -47.7413 -62.425 -48.4212 -61.8399C-49.101 -61.2548 -48.8331 -60.4629 -47.8227 -60.0711Z" fill="url(#paint87_linear_101_966)"/>
<path opacity="0.81" d="M658.02 607.703L923.284 710.568C924.295 710.959 925.665 710.803 926.345 710.218C927.025 709.633 926.757 708.841 925.746 708.449L660.482 605.584C659.471 605.192 658.101 605.349 657.421 605.934C656.741 606.519 657.009 607.311 658.02 607.703Z" fill="url(#paint88_linear_101_966)"/>
<path opacity="0.92" d="M1396.85 682.174L1737.12 814.125C1738.13 814.516 1739.5 814.36 1740.18 813.775C1740.86 813.189 1740.59 812.398 1739.58 812.006L1399.31 680.055C1398.3 679.664 1396.93 679.82 1396.25 680.405C1395.57 680.99 1395.84 681.782 1396.85 682.174Z" fill="url(#paint89_linear_101_966)"/>
<path opacity="0.44" d="M688.021 705.098L1467.35 1007.31C1468.36 1007.7 1469.73 1007.54 1470.41 1006.96C1471.09 1006.37 1470.82 1005.58 1469.81 1005.19L690.483 702.979C689.473 702.587 688.103 702.744 687.423 703.329C686.743 703.914 687.011 704.706 688.021 705.098Z" fill="url(#paint90_linear_101_966)"/>
<path opacity="0.23" d="M23.8825 575.739L662.347 823.324C663.358 823.716 664.728 823.559 665.408 822.974C666.088 822.389 665.82 821.597 664.809 821.205L26.3444 573.621C25.334 573.229 23.9638 573.385 23.284 573.971C22.6042 574.556 22.8721 575.348 23.8825 575.739Z" fill="url(#paint91_linear_101_966)"/>
<path d="M95.9918 358.653L218.562 406.183C219.573 406.575 220.943 406.418 221.623 405.833C222.303 405.248 222.035 404.456 221.024 404.064L98.4537 356.534C97.4434 356.142 96.0732 356.299 95.3934 356.884C94.7135 357.469 94.9814 358.261 95.9918 358.653Z" fill="url(#paint92_linear_101_966)"/>
<path opacity="0.85" d="M932.519 464.243L1296.57 605.416C1297.58 605.808 1298.95 605.651 1299.63 605.066C1300.31 604.481 1300.04 603.689 1299.03 603.297L934.981 462.124C933.971 461.733 932.601 461.889 931.921 462.474C931.241 463.06 931.509 463.852 932.519 464.243Z" fill="url(#paint93_linear_101_966)"/>
<path opacity="0.34" d="M1242.25 944.592L1500.19 1044.62C1501.21 1045.01 1502.58 1044.85 1503.26 1044.27C1503.93 1043.68 1503.67 1042.89 1502.66 1042.5L1244.71 942.473C1243.7 942.082 1242.33 942.238 1241.65 942.823C1240.97 943.409 1241.24 944.2 1242.25 944.592Z" fill="url(#paint94_linear_101_966)"/>
<path opacity="0.72" d="M526.743 157.009L1313.39 462.056C1314.4 462.448 1315.77 462.291 1316.45 461.706C1317.13 461.121 1316.86 460.329 1315.85 459.937L529.205 154.89C528.195 154.499 526.824 154.655 526.145 155.24C525.465 155.826 525.733 156.618 526.743 157.009Z" fill="url(#paint95_linear_101_966)"/>
<path opacity="0.45" d="M234.991 460.013L313.656 490.518C314.666 490.909 316.036 490.753 316.716 490.168C317.396 489.583 317.128 488.791 316.118 488.399L237.453 457.894C236.443 457.502 235.072 457.659 234.393 458.244C233.713 458.829 233.981 459.621 234.991 460.013Z" fill="url(#paint96_linear_101_966)"/>
<path opacity="0.33" d="M-148.517 -34.757L294.201 136.92C295.211 137.312 296.581 137.156 297.261 136.57C297.941 135.985 297.673 135.193 296.663 134.802L-146.055 -36.8758C-147.065 -37.2676 -148.436 -37.1109 -149.115 -36.5258C-149.795 -35.9407 -149.527 -35.1488 -148.517 -34.757Z" fill="url(#paint97_linear_101_966)"/>
<path opacity="0.15" d="M761.147 341.711L1101.42 473.661C1102.43 474.053 1103.8 473.896 1104.48 473.311C1105.16 472.726 1104.89 471.934 1103.88 471.542L763.609 339.592C762.599 339.2 761.229 339.357 760.549 339.942C759.869 340.527 760.137 341.319 761.147 341.711Z" fill="url(#paint98_linear_101_966)"/>
<path opacity="0.32" d="M927.43 645.901L1602.48 907.674C1603.49 908.065 1604.86 907.909 1605.54 907.324C1606.22 906.739 1605.96 905.947 1604.95 905.555L929.892 643.782C928.882 643.39 927.512 643.547 926.832 644.132C926.152 644.717 926.42 645.509 927.43 645.901Z" fill="url(#paint99_linear_101_966)"/>
<path opacity="0.74" d="M1193.01 869.53L1509.5 992.258C1510.51 992.65 1511.88 992.493 1512.56 991.908C1513.24 991.323 1512.97 990.531 1511.96 990.14L1195.47 867.411C1194.46 867.02 1193.09 867.176 1192.41 867.761C1191.73 868.347 1192 869.139 1193.01 869.53Z" fill="url(#paint100_linear_101_966)"/>
<path opacity="0.79" d="M-290.779 -8.88992L472.086 286.934C473.096 287.326 474.466 287.169 475.146 286.584C475.826 285.999 475.558 285.207 474.548 284.816L-288.317 -11.0088C-289.328 -11.4006 -290.698 -11.2439 -291.378 -10.6588C-292.058 -10.0737 -291.79 -9.28172 -290.779 -8.88992Z" fill="url(#paint101_linear_101_966)"/>
<path opacity="0.36" d="M1421.65 13.5556L1908.28 202.259C1909.29 202.651 1910.66 202.494 1911.34 201.909C1912.02 201.324 1911.75 200.532 1910.74 200.14L1424.12 11.4367C1423.11 11.0449 1421.74 11.2016 1421.06 11.7868C1420.38 12.3719 1420.64 13.1638 1421.65 13.5556Z" fill="url(#paint102_linear_101_966)"/>
<path opacity="0.82" d="M-101.594 741.365L492.965 971.923C493.975 972.315 495.346 972.158 496.025 971.573C496.705 970.988 496.437 970.196 495.427 969.805L-99.132 739.246C-100.142 738.854 -101.513 739.011 -102.192 739.596C-102.872 740.181 -102.604 740.973 -101.594 741.365Z" fill="url(#paint103_linear_101_966)"/>
<path opacity="0.45" d="M261.032 830.673L1034.87 1130.75C1035.88 1131.15 1037.25 1130.99 1037.93 1130.4C1038.61 1129.82 1038.35 1129.03 1037.34 1128.64L263.494 828.554C262.484 828.163 261.113 828.319 260.434 828.904C259.754 829.489 260.022 830.281 261.032 830.673Z" fill="url(#paint104_linear_101_966)"/>
<path opacity="0.98" d="M1128.7 436.45L1770.82 685.454C1771.83 685.845 1773.2 685.689 1773.88 685.104C1774.56 684.519 1774.29 683.727 1773.28 683.335L1131.16 434.332C1130.15 433.94 1128.78 434.097 1128.1 434.682C1127.42 435.267 1127.68 436.059 1128.7 436.45Z" fill="url(#paint105_linear_101_966)"/>
<path opacity="0.7" d="M189.363 383.139L800.387 620.083C801.397 620.474 802.767 620.318 803.447 619.733C804.127 619.147 803.859 618.356 802.849 617.964L191.825 381.021C190.815 380.629 189.444 380.785 188.764 381.371C188.085 381.956 188.353 382.748 189.363 383.139Z" fill="url(#paint106_linear_101_966)"/>
<path opacity="0.1" d="M877.616 240.846L1708.17 562.918C1709.18 563.31 1710.55 563.153 1711.23 562.568C1711.91 561.983 1711.64 561.191 1710.63 560.799L880.077 238.727C879.067 238.335 877.697 238.492 877.017 239.077C876.337 239.662 876.605 240.454 877.616 240.846Z" fill="url(#paint107_linear_101_966)"/>
<path opacity="0.29" d="M382.359 780.536L1072.05 1047.98C1073.06 1048.38 1074.43 1048.22 1075.11 1047.63C1075.79 1047.05 1075.52 1046.26 1074.51 1045.86L384.821 778.417C383.811 778.025 382.441 778.182 381.761 778.767C381.081 779.352 381.349 780.144 382.359 780.536Z" fill="url(#paint108_linear_101_966)"/>
<path opacity="0.45" d="M1160.81 25.2814L1459.01 140.915C1460.02 141.307 1461.39 141.15 1462.07 140.565C1462.75 139.98 1462.48 139.188 1461.47 138.797L1163.28 23.1625C1162.27 22.7707 1160.9 22.9274 1160.22 23.5126C1159.54 24.0977 1159.8 24.8896 1160.81 25.2814Z" fill="url(#paint109_linear_101_966)"/>
<path opacity="0.45" d="M48.7393 -24.9443L661.592 212.708C662.603 213.1 663.973 212.943 664.653 212.358C665.333 211.773 665.065 210.981 664.054 210.589L51.2013 -27.0632C50.1909 -27.455 48.8207 -27.2983 48.1409 -26.7132C47.461 -26.128 47.729 -25.3361 48.7393 -24.9443Z" fill="url(#paint110_linear_101_966)"/>
<path opacity="0.78" d="M97.4693 180.911L569.458 363.939C570.468 364.33 571.838 364.174 572.518 363.589C573.198 363.003 572.93 362.211 571.92 361.82L99.9312 178.792C98.9209 178.4 97.5507 178.557 96.8709 179.142C96.1911 179.727 96.459 180.519 97.4693 180.911Z" fill="url(#paint111_linear_101_966)"/>
<path opacity="0.92" d="M1026.29 69.2565L1708.66 333.867C1709.67 334.259 1711.04 334.102 1711.72 333.517C1712.4 332.932 1712.13 332.14 1711.12 331.748L1028.75 67.1377C1027.74 66.7459 1026.37 66.9026 1025.69 67.4877C1025.01 68.0728 1025.28 68.8647 1026.29 69.2565Z" fill="url(#paint112_linear_101_966)"/>
<path opacity="0.25" d="M569.393 -9.28326L991.987 154.591C992.998 154.982 994.368 154.826 995.048 154.241C995.727 153.656 995.46 152.864 994.449 152.472L571.855 -11.4021C570.845 -11.7939 569.474 -11.6372 568.795 -11.0521C568.115 -10.467 568.383 -9.67506 569.393 -9.28326Z" fill="url(#paint113_linear_101_966)"/>
<path opacity="0.16" d="M578.102 315.385L1068.38 505.507C1069.39 505.899 1070.76 505.742 1071.44 505.157C1072.12 504.572 1071.86 503.78 1070.85 503.389L580.564 313.266C579.553 312.875 578.183 313.031 577.503 313.616C576.823 314.202 577.091 314.993 578.102 315.385Z" fill="url(#paint114_linear_101_966)"/>
<path opacity="0.91" d="M846.026 791.725L1552.18 1065.56C1553.19 1065.95 1554.56 1065.79 1555.24 1065.21C1555.92 1064.62 1555.65 1063.83 1554.64 1063.44L848.488 789.606C847.477 789.214 846.107 789.371 845.427 789.956C844.747 790.541 845.015 791.333 846.026 791.725Z" fill="url(#paint115_linear_101_966)"/>
<path opacity="0.35" d="M42.5107 887.317L331.558 999.404C332.568 999.796 333.938 999.639 334.618 999.054C335.298 998.469 335.03 997.677 334.02 997.286L44.9726 885.199C43.9622 884.807 42.5921 884.964 41.9122 885.549C41.2324 886.134 41.5003 886.926 42.5107 887.317Z" fill="url(#paint116_linear_101_966)"/>
<path opacity="0.65" d="M93.575 281.383L547.269 457.317C548.28 457.709 549.65 457.552 550.33 456.967C551.009 456.382 550.741 455.59 549.731 455.198L96.0369 279.264C95.0266 278.873 93.6564 279.029 92.9765 279.614C92.2967 280.2 92.5646 280.992 93.575 281.383Z" fill="url(#paint117_linear_101_966)"/>
<path opacity="0.6" d="M1221.53 842.375L1291.05 869.333C1292.06 869.725 1293.43 869.568 1294.11 868.983C1294.79 868.398 1294.52 867.606 1293.51 867.214L1223.99 840.257C1222.98 839.865 1221.61 840.022 1220.93 840.607C1220.25 841.192 1220.52 841.984 1221.53 842.375Z" fill="url(#paint118_linear_101_966)"/>
<path opacity="0.51" d="M747.486 45.8085L1356.68 282.042C1357.69 282.434 1359.06 282.277 1359.74 281.692C1360.42 281.107 1360.15 280.315 1359.14 279.923L749.948 43.6897C748.938 43.2979 747.568 43.4546 746.888 44.0397C746.208 44.6248 746.476 45.4167 747.486 45.8085Z" fill="url(#paint119_linear_101_966)"/>
<path opacity="0.09" d="M1710.97 365.381L1756.71 383.116C1757.72 383.508 1759.09 383.351 1759.77 382.766C1760.45 382.181 1760.18 381.389 1759.17 380.997L1713.43 363.262C1712.42 362.87 1711.05 363.027 1710.37 363.612C1709.69 364.197 1709.96 364.989 1710.97 365.381Z" fill="url(#paint120_linear_101_966)"/>
<path opacity="0.89" d="M761.987 154.384L1638.28 494.191C1639.29 494.583 1640.66 494.427 1641.34 493.841C1642.02 493.256 1641.75 492.464 1640.74 492.073L764.449 152.265C763.438 151.873 762.068 152.03 761.388 152.615C760.708 153.2 760.976 153.992 761.987 154.384Z" fill="url(#paint121_linear_101_966)"/>
<path opacity="0.33" d="M863.423 733.805L1022.58 795.523C1023.59 795.915 1024.96 795.759 1025.64 795.173C1026.32 794.588 1026.05 793.796 1025.04 793.405L865.885 731.686C864.875 731.294 863.505 731.451 862.825 732.036C862.145 732.621 862.413 733.413 863.423 733.805Z" fill="url(#paint122_linear_101_966)"/>
<path opacity="0.72" d="M675.886 347.324L798.456 394.854C799.467 395.246 800.837 395.089 801.517 394.504C802.197 393.919 801.929 393.127 800.918 392.735L678.348 345.205C677.337 344.813 675.967 344.97 675.287 345.555C674.608 346.14 674.875 346.932 675.886 347.324Z" fill="url(#paint123_linear_101_966)"/>
<path opacity="0.42" d="M1235.72 190.372L1883.34 441.504C1884.35 441.896 1885.72 441.739 1886.4 441.154C1887.08 440.569 1886.81 439.777 1885.8 439.385L1238.19 188.253C1237.18 187.862 1235.81 188.018 1235.13 188.603C1234.45 189.189 1234.71 189.981 1235.72 190.372Z" fill="url(#paint124_linear_101_966)"/>
<path opacity="0.82" d="M316.022 869.988L723.981 1028.19C724.991 1028.58 726.361 1028.42 727.041 1027.84C727.721 1027.25 727.453 1026.46 726.443 1026.07L318.484 867.87C317.473 867.478 316.103 867.635 315.423 868.22C314.743 868.805 315.011 869.597 316.022 869.988Z" fill="url(#paint125_linear_101_966)"/>
<path opacity="0.56" d="M-204.326 300.896L289.615 492.437C290.626 492.828 291.996 492.672 292.676 492.087C293.356 491.501 293.088 490.71 292.077 490.318L-201.864 298.777C-202.874 298.385 -204.245 298.542 -204.924 299.127C-205.604 299.712 -205.336 300.504 -204.326 300.896Z" fill="url(#paint126_linear_101_966)"/>
<path opacity="0.24" d="M-184.141 451.445L256.747 622.413C257.757 622.804 259.128 622.648 259.807 622.063C260.487 621.478 260.219 620.686 259.209 620.294L-181.679 449.326C-182.69 448.934 -184.06 449.091 -184.74 449.676C-185.42 450.261 -185.152 451.053 -184.141 451.445Z" fill="url(#paint127_linear_101_966)"/>
<path opacity="0.25" d="M1070.64 643.978L1701.79 888.725C1702.8 889.116 1704.17 888.96 1704.85 888.375C1705.53 887.79 1705.26 886.998 1704.25 886.606L1073.1 641.859C1072.09 641.467 1070.72 641.624 1070.04 642.209C1069.36 642.794 1069.63 643.586 1070.64 643.978Z" fill="url(#paint128_linear_101_966)"/>
<path opacity="0.92" d="M1097.18 967.841L1230.72 1019.63C1231.73 1020.02 1233.1 1019.86 1233.78 1019.28C1234.46 1018.69 1234.19 1017.9 1233.18 1017.51L1099.64 965.722C1098.63 965.33 1097.26 965.487 1096.58 966.072C1095.9 966.657 1096.17 967.449 1097.18 967.841Z" fill="url(#paint129_linear_101_966)"/>
<path opacity="0.54" d="M1583.72 655.97L1801.42 740.39C1802.44 740.782 1803.81 740.625 1804.49 740.04C1805.16 739.455 1804.9 738.663 1803.89 738.271L1586.19 653.851C1585.18 653.459 1583.81 653.616 1583.13 654.201C1582.45 654.786 1582.71 655.578 1583.72 655.97Z" fill="url(#paint130_linear_101_966)"/>
<path opacity="0.97" d="M1535.3 -20.9495L1798.74 81.2056C1799.75 81.5974 1801.12 81.4407 1801.8 80.8556C1802.48 80.2705 1802.21 79.4786 1801.2 79.0868L1537.76 -23.0684C1536.75 -23.4602 1535.38 -23.3035 1534.7 -22.7184C1534.02 -22.1333 1534.29 -21.3413 1535.3 -20.9495Z" fill="url(#paint131_linear_101_966)"/>
<path opacity="0.39" d="M21.4482 370.385L725.772 643.509C726.782 643.9 728.152 643.744 728.832 643.159C729.512 642.573 729.244 641.782 728.234 641.39L23.9101 368.267C22.8997 367.875 21.5296 368.032 20.8497 368.617C20.1699 369.202 20.4378 369.994 21.4482 370.385Z" fill="url(#paint132_linear_101_966)"/>
<path opacity="0.84" d="M41.2467 253.647L886.435 581.395C887.446 581.787 888.816 581.63 889.496 581.045C890.175 580.46 889.908 579.668 888.897 579.276L43.7087 251.528C42.6984 251.137 41.3282 251.293 40.6483 251.878C39.9685 252.464 40.2364 253.255 41.2467 253.647Z" fill="url(#paint133_linear_101_966)"/>
<path opacity="0.11" d="M23.4015 113.663L965.549 479.01C966.559 479.401 967.929 479.245 968.609 478.66C969.289 478.074 969.021 477.283 968.011 476.891L25.8634 111.544C24.853 111.152 23.4828 111.309 22.803 111.894C22.1232 112.479 22.3911 113.271 23.4015 113.663Z" fill="url(#paint134_linear_101_966)"/>
<path opacity="0.95" d="M1357.91 97.2839L1716.47 236.328C1717.48 236.72 1718.85 236.564 1719.53 235.978C1720.21 235.393 1719.94 234.601 1718.93 234.21L1360.37 95.1651C1359.36 94.7733 1357.99 94.93 1357.31 95.5151C1356.63 96.1002 1356.9 96.8921 1357.91 97.2839Z" fill="url(#paint135_linear_101_966)"/>
<path opacity="0.51" d="M850.551 617.737L951.169 656.754C952.179 657.146 953.549 656.99 954.229 656.404C954.909 655.819 954.641 655.027 953.631 654.636L853.013 615.618C852.003 615.226 850.632 615.383 849.953 615.968C849.273 616.553 849.541 617.345 850.551 617.737Z" fill="url(#paint136_linear_101_966)"/>
<path opacity="0.5" d="M1464.79 868.25L1647.74 939.191C1648.75 939.583 1650.12 939.426 1650.8 938.841C1651.48 938.256 1651.21 937.464 1650.2 937.072L1467.26 866.131C1466.25 865.739 1464.88 865.896 1464.2 866.481C1463.52 867.066 1463.78 867.858 1464.79 868.25Z" fill="url(#paint137_linear_101_966)"/>
<path opacity="0.98" d="M647.553 74.795L1174.42 279.105C1175.43 279.497 1176.8 279.34 1177.48 278.755C1178.16 278.17 1177.9 277.378 1176.89 276.986L650.015 72.6761C649.005 72.2843 647.634 72.4411 646.955 73.0262C646.275 73.6113 646.543 74.4032 647.553 74.795Z" fill="url(#paint138_linear_101_966)"/>
<path opacity="0.2" d="M1352.53 337.48L1440.34 371.532C1441.35 371.923 1442.72 371.767 1443.4 371.182C1444.08 370.596 1443.81 369.805 1442.8 369.413L1354.99 335.361C1353.98 334.969 1352.61 335.126 1351.93 335.711C1351.25 336.296 1351.52 337.088 1352.53 337.48Z" fill="url(#paint139_linear_101_966)"/>
<path opacity="0.15" d="M-152.532 889.615L244.45 1043.56C245.461 1043.95 246.831 1043.79 247.511 1043.21C248.191 1042.62 247.923 1041.83 246.912 1041.44L-150.07 887.496C-151.081 887.104 -152.451 887.261 -153.131 887.846C-153.81 888.431 -153.542 889.223 -152.532 889.615Z" fill="url(#paint140_linear_101_966)"/>
<path opacity="0.97" d="M-234.785 39.3932L685.409 396.227C686.419 396.619 687.79 396.462 688.469 395.877C689.149 395.292 688.881 394.5 687.871 394.108L-232.323 37.2744C-233.334 36.8826 -234.704 37.0393 -235.384 37.6244C-236.064 38.2095 -235.796 39.0015 -234.785 39.3932Z" fill="url(#paint141_linear_101_966)"/>
<path opacity="0.56" d="M492.317 574.683L797.829 693.155C798.839 693.546 800.209 693.39 800.889 692.805C801.569 692.219 801.301 691.428 800.29 691.036L494.779 572.564C493.768 572.172 492.398 572.329 491.718 572.914C491.038 573.499 491.306 574.291 492.317 574.683Z" fill="url(#paint142_linear_101_966)"/>
<path opacity="0.33" d="M39.5997 458.653L94.4821 479.935C95.4925 480.327 96.8626 480.17 97.5425 479.585C98.2223 479 97.9544 478.208 96.944 477.816L42.0617 456.534C41.0513 456.142 39.6811 456.299 39.0013 456.884C38.3215 457.469 38.5894 458.261 39.5997 458.653Z" fill="url(#paint143_linear_101_966)"/>
<path opacity="0.5" d="M887.778 450.376L1866.51 829.911C1867.52 830.303 1868.89 830.146 1869.57 829.561C1870.25 828.976 1869.99 828.184 1868.98 827.792L890.24 448.257C889.23 447.866 887.86 448.022 887.18 448.607C886.5 449.192 886.768 449.984 887.778 450.376Z" fill="url(#paint144_linear_101_966)"/>
<path opacity="0.25" d="M1170.27 757.811L1589.21 920.266C1590.22 920.658 1591.59 920.502 1592.27 919.916C1592.95 919.331 1592.68 918.539 1591.67 918.148L1172.73 755.693C1171.72 755.301 1170.35 755.457 1169.67 756.043C1168.99 756.628 1169.26 757.42 1170.27 757.811Z" fill="url(#paint145_linear_101_966)"/>
<path opacity="0.59" d="M1235.32 121.921L1848.17 359.574C1849.18 359.966 1850.55 359.809 1851.23 359.224C1851.91 358.639 1851.64 357.847 1850.63 357.455L1237.78 119.802C1236.77 119.411 1235.4 119.567 1234.72 120.152C1234.04 120.737 1234.31 121.529 1235.32 121.921Z" fill="url(#paint146_linear_101_966)"/>
<path opacity="0.77" d="M1272.86 440.759L2094.27 759.285C2095.28 759.677 2096.65 759.52 2097.33 758.935C2098.01 758.35 2097.74 757.558 2096.73 757.166L1275.32 438.64C1274.31 438.249 1272.94 438.405 1272.26 438.99C1271.58 439.576 1271.85 440.367 1272.86 440.759Z" fill="url(#paint147_linear_101_966)"/>
<path opacity="0.57" d="M903.327 10.868L1121.03 95.2879C1122.04 95.6797 1123.41 95.523 1124.09 94.9379C1124.77 94.3528 1124.5 93.5609 1123.49 93.1691L905.789 8.74917C904.779 8.35737 903.409 8.51408 902.729 9.09918C902.049 9.68428 902.317 10.4762 903.327 10.868Z" fill="url(#paint148_linear_101_966)"/>
<path opacity="0.69" d="M314.204 90.044L890.469 313.508C891.479 313.9 892.849 313.743 893.529 313.158C894.209 312.573 893.941 311.781 892.931 311.39L316.666 87.9251C315.655 87.5333 314.285 87.69 313.605 88.2751C312.926 88.8602 313.193 89.6522 314.204 90.044Z" fill="url(#paint149_linear_101_966)"/>
<defs>
<linearGradient id="paint0_linear_101_966" x1="-27764" y1="25295.4" x2="-27989.8" y2="25033" gradientUnits="userSpaceOnUse">
<stop/>
<stop offset="0.45" stop-color="#FF5B57"/>
<stop offset="1" stop-color="#AAE4D7"/>
</linearGradient>
<linearGradient id="paint1_linear_101_966" x1="-15756.1" y1="15912" x2="-15982" y2="15649.6" gradientUnits="userSpaceOnUse">
<stop/>
<stop offset="0.45" stop-color="#FF5B57"/>
<stop offset="1" stop-color="#AAE4D7"/>
</linearGradient>
<linearGradient id="paint2_linear_101_966" x1="-19087.2" y1="18423" x2="-19313" y2="18160.6" gradientUnits="userSpaceOnUse">
<stop/>
<stop offset="0.45" stop-color="#FF5B57"/>
<stop offset="1" stop-color="#AAE4D7"/>
</linearGradient>
<linearGradient id="paint3_linear_101_966" x1="-22009.4" y1="20370.2" x2="-22235.2" y2="20107.7" gradientUnits="userSpaceOnUse">
<stop/>
<stop offset="0.45" stop-color="#FF5B57"/>
<stop offset="1" stop-color="#AAE4D7"/>
</linearGradient>
<linearGradient id="paint4_linear_101_966" x1="-7578.85" y1="8805.41" x2="-7804.69" y2="8543" gradientUnits="userSpaceOnUse">
<stop/>
<stop offset="0.45" stop-color="#FF5B57"/>
<stop offset="1" stop-color="#AAE4D7"/>
</linearGradient>
<linearGradient id="paint5_linear_101_966" x1="-17781.5" y1="15911.1" x2="-18007.3" y2="15648.6" gradientUnits="userSpaceOnUse">
<stop/>
<stop offset="0.45" stop-color="#FF5B57"/>
<stop offset="1" stop-color="#AAE4D7"/>
</linearGradient>
<linearGradient id="paint6_linear_101_966" x1="-8970.87" y1="9811.9" x2="-9196.71" y2="9549.5" gradientUnits="userSpaceOnUse">
<stop/>
<stop offset="0.45" stop-color="#FF5B57"/>
<stop offset="1" stop-color="#AAE4D7"/>
</linearGradient>
<linearGradient id="paint7_linear_101_966" x1="-8637.37" y1="8909.21" x2="-8863.21" y2="8646.8" gradientUnits="userSpaceOnUse">
<stop/>
<stop offset="0.45" stop-color="#FF5B57"/>
<stop offset="1" stop-color="#AAE4D7"/>
</linearGradient>
<linearGradient id="paint8_linear_101_966" x1="-18184.8" y1="16163.5" x2="-18410.6" y2="15901.1" gradientUnits="userSpaceOnUse">
<stop/>
<stop offset="0.45" stop-color="#FF5B57"/>
<stop offset="1" stop-color="#AAE4D7"/>
</linearGradient>
<linearGradient id="paint9_linear_101_966" x1="-14364" y1="13634.8" x2="-14589.8" y2="13372.4" gradientUnits="userSpaceOnUse">
<stop/>
<stop offset="0.45" stop-color="#FF5B57"/>
<stop offset="1" stop-color="#AAE4D7"/>
</linearGradient>
<linearGradient id="paint10_linear_101_966" x1="-8401.18" y1="8337.17" x2="-8627.02" y2="8074.76" gradientUnits="userSpaceOnUse">
<stop/>
<stop offset="0.45" stop-color="#FF5B57"/>
<stop offset="1" stop-color="#AAE4D7"/>
</linearGradient>
<linearGradient id="paint11_linear_101_966" x1="-15435.1" y1="15462.2" x2="-15661" y2="15199.8" gradientUnits="userSpaceOnUse">
<stop/>
<stop offset="0.45" stop-color="#FF5B57"/>
<stop offset="1" stop-color="#AAE4D7"/>
</linearGradient>
<linearGradient id="paint12_linear_101_966" x1="-27976.8" y1="24629.4" x2="-28202.6" y2="24367" gradientUnits="userSpaceOnUse">
<stop/>
<stop offset="0.45" stop-color="#FF5B57"/>
<stop offset="1" stop-color="#AAE4D7"/>
</linearGradient>
<linearGradient id="paint13_linear_101_966" x1="-8891.57" y1="8486.42" x2="-9117.41" y2="8224.02" gradientUnits="userSpaceOnUse">
<stop/>
<stop offset="0.45" stop-color="#FF5B57"/>
<stop offset="1" stop-color="#AAE4D7"/>
</linearGradient>
<linearGradient id="paint14_linear_101_966" x1="-2814.51" y1="4553.72" x2="-3040.35" y2="4291.31" gradientUnits="userSpaceOnUse">
<stop/>
<stop offset="0.45" stop-color="#FF5B57"/>
<stop offset="1" stop-color="#AAE4D7"/>
</linearGradient>
<linearGradient id="paint15_linear_101_966" x1="-6578.38" y1="7907.83" x2="-6804.22" y2="7645.42" gradientUnits="userSpaceOnUse">
<stop/>
<stop offset="0.45" stop-color="#FF5B57"/>
<stop offset="1" stop-color="#AAE4D7"/>
</linearGradient>
<linearGradient id="paint16_linear_101_966" x1="-14503.9" y1="13335" x2="-14729.8" y2="13072.6" gradientUnits="userSpaceOnUse">
<stop/>
<stop offset="0.45" stop-color="#FF5B57"/>
<stop offset="1" stop-color="#AAE4D7"/>
</linearGradient>
<linearGradient id="paint17_linear_101_966" x1="-15462.3" y1="14163.9" x2="-15688.1" y2="13901.5" gradientUnits="userSpaceOnUse">
<stop/>
<stop offset="0.45" stop-color="#FF5B57"/>
<stop offset="1" stop-color="#AAE4D7"/>
</linearGradient>
<linearGradient id="paint18_linear_101_966" x1="-7483.12" y1="6392.86" x2="-7708.96" y2="6130.46" gradientUnits="userSpaceOnUse">
<stop/>
<stop offset="0.45" stop-color="#FF5B57"/>
<stop offset="1" stop-color="#AAE4D7"/>
</linearGradient>
<linearGradient id="paint19_linear_101_966" x1="-8540.54" y1="9274.08" x2="-8766.38" y2="9011.68" gradientUnits="userSpaceOnUse">
<stop/>
<stop offset="0.45" stop-color="#FF5B57"/>
<stop offset="1" stop-color="#AAE4D7"/>
</linearGradient>
<linearGradient id="paint20_linear_101_966" x1="-20706.6" y1="19257.4" x2="-20932.5" y2="18995" gradientUnits="userSpaceOnUse">
<stop/>
<stop offset="0.45" stop-color="#FF5B57"/>
<stop offset="1" stop-color="#AAE4D7"/>
</linearGradient>
<linearGradient id="paint21_linear_101_966" x1="-13743.9" y1="12226.1" x2="-13969.7" y2="11963.7" gradientUnits="userSpaceOnUse">
<stop/>
<stop offset="0.45" stop-color="#FF5B57"/>
<stop offset="1" stop-color="#AAE4D7"/>
</linearGradient>
<linearGradient id="paint22_linear_101_966" x1="-29449.7" y1="27527.3" x2="-29675.6" y2="27264.9" gradientUnits="userSpaceOnUse">
<stop/>
<stop offset="0.45" stop-color="#FF5B57"/>
<stop offset="1" stop-color="#AAE4D7"/>
</linearGradient>
<linearGradient id="paint23_linear_101_966" x1="-17989.7" y1="16643" x2="-18215.6" y2="16380.6" gradientUnits="userSpaceOnUse">
<stop/>
<stop offset="0.45" stop-color="#FF5B57"/>
<stop offset="1" stop-color="#AAE4D7"/>
</linearGradient>
<linearGradient id="paint24_linear_101_966" x1="-23662.6" y1="22715.1" x2="-23888.4" y2="22452.7" gradientUnits="userSpaceOnUse">
<stop/>
<stop offset="0.45" stop-color="#FF5B57"/>
<stop offset="1" stop-color="#AAE4D7"/>
</linearGradient>
<linearGradient id="paint25_linear_101_966" x1="-22418.4" y1="21814.7" x2="-22644.2" y2="21552.3" gradientUnits="userSpaceOnUse">
<stop/>
<stop offset="0.45" stop-color="#FF5B57"/>
<stop offset="1" stop-color="#AAE4D7"/>
</linearGradient>
<linearGradient id="paint26_linear_101_966" x1="-2798.49" y1="4283.72" x2="-3024.33" y2="4021.31" gradientUnits="userSpaceOnUse">
<stop/>
<stop offset="0.45" stop-color="#FF5B57"/>
<stop offset="1" stop-color="#AAE4D7"/>
</linearGradient>
<linearGradient id="paint27_linear_101_966" x1="-6303.99" y1="8028.99" x2="-6529.83" y2="7766.59" gradientUnits="userSpaceOnUse">
<stop/>
<stop offset="0.45" stop-color="#FF5B57"/>
<stop offset="1" stop-color="#AAE4D7"/>
</linearGradient>
<linearGradient id="paint28_linear_101_966" x1="-15713.8" y1="16218.5" x2="-15939.7" y2="15956.1" gradientUnits="userSpaceOnUse">
<stop/>
<stop offset="0.45" stop-color="#FF5B57"/>
<stop offset="1" stop-color="#AAE4D7"/>
</linearGradient>
<linearGradient id="paint29_linear_101_966" x1="-27534.7" y1="24224.4" x2="-27760.5" y2="23962" gradientUnits="userSpaceOnUse">
<stop/>
<stop offset="0.45" stop-color="#FF5B57"/>
<stop offset="1" stop-color="#AAE4D7"/>
</linearGradient>
<linearGradient id="paint30_linear_101_966" x1="-9095.84" y1="9652.06" x2="-9321.68" y2="9389.65" gradientUnits="userSpaceOnUse">
<stop/>
<stop offset="0.45" stop-color="#FF5B57"/>
<stop offset="1" stop-color="#AAE4D7"/>
</linearGradient>
<linearGradient id="paint31_linear_101_966" x1="-6239.91" y1="6420.87" x2="-6465.75" y2="6158.46" gradientUnits="userSpaceOnUse">
<stop/>
<stop offset="0.45" stop-color="#FF5B57"/>
<stop offset="1" stop-color="#AAE4D7"/>
</linearGradient>
<linearGradient id="paint32_linear_101_966" x1="-7057.14" y1="7827.13" x2="-7282.98" y2="7564.72" gradientUnits="userSpaceOnUse">
<stop/>
<stop offset="0.45" stop-color="#FF5B57"/>
<stop offset="1" stop-color="#AAE4D7"/>
</linearGradient>
<linearGradient id="paint33_linear_101_966" x1="-16425.7" y1="15764.1" x2="-16651.5" y2="15501.7" gradientUnits="userSpaceOnUse">
<stop/>
<stop offset="0.45" stop-color="#FF5B57"/>
<stop offset="1" stop-color="#AAE4D7"/>
</linearGradient>
<linearGradient id="paint34_linear_101_966" x1="-26222.8" y1="22888.8" x2="-26448.7" y2="22626.4" gradientUnits="userSpaceOnUse">
<stop/>
<stop offset="0.45" stop-color="#FF5B57"/>
<stop offset="1" stop-color="#AAE4D7"/>
</linearGradient>
<linearGradient id="paint35_linear_101_966" x1="-18901.3" y1="17910.3" x2="-19127.2" y2="17647.9" gradientUnits="userSpaceOnUse">
<stop/>
<stop offset="0.45" stop-color="#FF5B57"/>
<stop offset="1" stop-color="#AAE4D7"/>
</linearGradient>
<linearGradient id="paint36_linear_101_966" x1="-18856.3" y1="18216.1" x2="-19082.1" y2="17953.7" gradientUnits="userSpaceOnUse">
<stop/>
<stop offset="0.45" stop-color="#FF5B57"/>
<stop offset="1" stop-color="#AAE4D7"/>
</linearGradient>
<linearGradient id="paint37_linear_101_966" x1="-6889.81" y1="8372.14" x2="-7115.65" y2="8109.73" gradientUnits="userSpaceOnUse">
<stop/>
<stop offset="0.45" stop-color="#FF5B57"/>
<stop offset="1" stop-color="#AAE4D7"/>
</linearGradient>
<linearGradient id="paint38_linear_101_966" x1="-11261.8" y1="11557.7" x2="-11487.6" y2="11295.3" gradientUnits="userSpaceOnUse">
<stop/>
<stop offset="0.45" stop-color="#FF5B57"/>
<stop offset="1" stop-color="#AAE4D7"/>
</linearGradient>
<linearGradient id="paint39_linear_101_966" x1="-25700.6" y1="23851.9" x2="-25926.4" y2="23589.5" gradientUnits="userSpaceOnUse">
<stop/>
<stop offset="0.45" stop-color="#FF5B57"/>
<stop offset="1" stop-color="#AAE4D7"/>
</linearGradient>
<linearGradient id="paint40_linear_101_966" x1="-9463.51" y1="10903.3" x2="-9689.35" y2="10640.9" gradientUnits="userSpaceOnUse">
<stop/>
<stop offset="0.45" stop-color="#FF5B57"/>
<stop offset="1" stop-color="#AAE4D7"/>
</linearGradient>
<linearGradient id="paint41_linear_101_966" x1="-14150.7" y1="13561.7" x2="-14376.6" y2="13299.3" gradientUnits="userSpaceOnUse">
<stop/>
<stop offset="0.45" stop-color="#FF5B57"/>
<stop offset="1" stop-color="#AAE4D7"/>
</linearGradient>
<linearGradient id="paint42_linear_101_966" x1="-11980.7" y1="12812" x2="-12206.5" y2="12549.6" gradientUnits="userSpaceOnUse">
<stop/>
<stop offset="0.45" stop-color="#FF5B57"/>
<stop offset="1" stop-color="#AAE4D7"/>
</linearGradient>
<linearGradient id="paint43_linear_101_966" x1="-7985.75" y1="8369.3" x2="-8211.59" y2="8106.89" gradientUnits="userSpaceOnUse">
<stop/>
<stop offset="0.45" stop-color="#FF5B57"/>
<stop offset="1" stop-color="#AAE4D7"/>
</linearGradient>
<linearGradient id="paint44_linear_101_966" x1="-5710.49" y1="4809.59" x2="-5936.33" y2="4547.19" gradientUnits="userSpaceOnUse">
<stop/>
<stop offset="0.45" stop-color="#FF5B57"/>
<stop offset="1" stop-color="#AAE4D7"/>
</linearGradient>
<linearGradient id="paint45_linear_101_966" x1="-16759.1" y1="15410.1" x2="-16984.9" y2="15147.7" gradientUnits="userSpaceOnUse">
<stop/>
<stop offset="0.45" stop-color="#FF5B57"/>
<stop offset="1" stop-color="#AAE4D7"/>
</linearGradient>
<linearGradient id="paint46_linear_101_966" x1="-12603.9" y1="13541.9" x2="-12829.7" y2="13279.4" gradientUnits="userSpaceOnUse">
<stop/>
<stop offset="0.45" stop-color="#FF5B57"/>
<stop offset="1" stop-color="#AAE4D7"/>
</linearGradient>
<linearGradient id="paint47_linear_101_966" x1="-6355.03" y1="7476.19" x2="-6580.87" y2="7213.78" gradientUnits="userSpaceOnUse">
<stop/>
<stop offset="0.45" stop-color="#FF5B57"/>
<stop offset="1" stop-color="#AAE4D7"/>
</linearGradient>
<linearGradient id="paint48_linear_101_966" x1="-11376.7" y1="10879.3" x2="-11602.5" y2="10616.9" gradientUnits="userSpaceOnUse">
<stop/>
<stop offset="0.45" stop-color="#FF5B57"/>
<stop offset="1" stop-color="#AAE4D7"/>
</linearGradient>
<linearGradient id="paint49_linear_101_966" x1="-20560.4" y1="19510.6" x2="-20786.3" y2="19248.2" gradientUnits="userSpaceOnUse">
<stop/>
<stop offset="0.45" stop-color="#FF5B57"/>
<stop offset="1" stop-color="#AAE4D7"/>
</linearGradient>
<linearGradient id="paint50_linear_101_966" x1="-10236.4" y1="10862.3" x2="-10462.2" y2="10599.9" gradientUnits="userSpaceOnUse">
<stop/>
<stop offset="0.45" stop-color="#FF5B57"/>
<stop offset="1" stop-color="#AAE4D7"/>
</linearGradient>
<linearGradient id="paint51_linear_101_966" x1="-7586.28" y1="8174.86" x2="-7812.12" y2="7912.45" gradientUnits="userSpaceOnUse">
<stop/>
<stop offset="0.45" stop-color="#FF5B57"/>
<stop offset="1" stop-color="#AAE4D7"/>
</linearGradient>
<linearGradient id="paint52_linear_101_966" x1="-13804.4" y1="13014.8" x2="-14030.3" y2="12752.4" gradientUnits="userSpaceOnUse">
<stop/>
<stop offset="0.45" stop-color="#FF5B57"/>
<stop offset="1" stop-color="#AAE4D7"/>
</linearGradient>
<linearGradient id="paint53_linear_101_966" x1="-10363.4" y1="9796.27" x2="-10589.2" y2="9533.86" gradientUnits="userSpaceOnUse">
<stop/>
<stop offset="0.45" stop-color="#FF5B57"/>
<stop offset="1" stop-color="#AAE4D7"/>
</linearGradient>
<linearGradient id="paint54_linear_101_966" x1="-7650.04" y1="7999.96" x2="-7875.88" y2="7737.55" gradientUnits="userSpaceOnUse">
<stop/>
<stop offset="0.45" stop-color="#FF5B57"/>
<stop offset="1" stop-color="#AAE4D7"/>
</linearGradient>
<linearGradient id="paint55_linear_101_966" x1="-7029.93" y1="8525.05" x2="-7255.78" y2="8262.64" gradientUnits="userSpaceOnUse">
<stop/>
<stop offset="0.45" stop-color="#FF5B57"/>
<stop offset="1" stop-color="#AAE4D7"/>
</linearGradient>
<linearGradient id="paint56_linear_101_966" x1="-7494.47" y1="6534.89" x2="-7720.31" y2="6272.48" gradientUnits="userSpaceOnUse">
<stop/>
<stop offset="0.45" stop-color="#FF5B57"/>
<stop offset="1" stop-color="#AAE4D7"/>
</linearGradient>
<linearGradient id="paint57_linear_101_966" x1="-15389.6" y1="14441.2" x2="-15615.5" y2="14178.8" gradientUnits="userSpaceOnUse">
<stop/>
<stop offset="0.45" stop-color="#FF5B57"/>
<stop offset="1" stop-color="#AAE4D7"/>
</linearGradient>
<linearGradient id="paint58_linear_101_966" x1="-20986.1" y1="18943.3" x2="-21212" y2="18680.9" gradientUnits="userSpaceOnUse">
<stop/>
<stop offset="0.45" stop-color="#FF5B57"/>
<stop offset="1" stop-color="#AAE4D7"/>
</linearGradient>
<linearGradient id="paint59_linear_101_966" x1="-16282.2" y1="14267.6" x2="-16508" y2="14005.2" gradientUnits="userSpaceOnUse">
<stop/>
<stop offset="0.45" stop-color="#FF5B57"/>
<stop offset="1" stop-color="#AAE4D7"/>
</linearGradient>
<linearGradient id="paint60_linear_101_966" x1="-16097.2" y1="15391.6" x2="-16323" y2="15129.2" gradientUnits="userSpaceOnUse">
<stop/>
<stop offset="0.45" stop-color="#FF5B57"/>
<stop offset="1" stop-color="#AAE4D7"/>
</linearGradient>
<linearGradient id="paint61_linear_101_966" x1="-23385.1" y1="21637.2" x2="-23610.9" y2="21374.8" gradientUnits="userSpaceOnUse">
<stop/>
<stop offset="0.45" stop-color="#FF5B57"/>
<stop offset="1" stop-color="#AAE4D7"/>
</linearGradient>
<linearGradient id="paint62_linear_101_966" x1="-9679.61" y1="8149.14" x2="-9905.45" y2="7886.73" gradientUnits="userSpaceOnUse">
<stop/>
<stop offset="0.45" stop-color="#FF5B57"/>
<stop offset="1" stop-color="#AAE4D7"/>
</linearGradient>
<linearGradient id="paint63_linear_101_966" x1="-13526.8" y1="13628" x2="-13752.7" y2="13365.5" gradientUnits="userSpaceOnUse">
<stop/>
<stop offset="0.45" stop-color="#FF5B57"/>
<stop offset="1" stop-color="#AAE4D7"/>
</linearGradient>
<linearGradient id="paint64_linear_101_966" x1="-6196.25" y1="6030.66" x2="-6422.09" y2="5768.25" gradientUnits="userSpaceOnUse">
<stop/>
<stop offset="0.45" stop-color="#FF5B57"/>
<stop offset="1" stop-color="#AAE4D7"/>
</linearGradient>
<linearGradient id="paint65_linear_101_966" x1="-10627.5" y1="9104.76" x2="-10853.3" y2="8842.35" gradientUnits="userSpaceOnUse">
<stop/>
<stop offset="0.45" stop-color="#FF5B57"/>
<stop offset="1" stop-color="#AAE4D7"/>
</linearGradient>
<linearGradient id="paint66_linear_101_966" x1="-8693.85" y1="8771.79" x2="-8919.69" y2="8509.38" gradientUnits="userSpaceOnUse">
<stop/>
<stop offset="0.45" stop-color="#FF5B57"/>
<stop offset="1" stop-color="#AAE4D7"/>
</linearGradient>
<linearGradient id="paint67_linear_101_966" x1="-4138.41" y1="4510.78" x2="-4364.25" y2="4248.37" gradientUnits="userSpaceOnUse">
<stop/>
<stop offset="0.45" stop-color="#FF5B57"/>
<stop offset="1" stop-color="#AAE4D7"/>
</linearGradient>
<linearGradient id="paint68_linear_101_966" x1="-5199.07" y1="4689.79" x2="-5424.91" y2="4427.39" gradientUnits="userSpaceOnUse">
<stop/>
<stop offset="0.45" stop-color="#FF5B57"/>
<stop offset="1" stop-color="#AAE4D7"/>
</linearGradient>
<linearGradient id="paint69_linear_101_966" x1="-7590.1" y1="6549.51" x2="-7815.94" y2="6287.1" gradientUnits="userSpaceOnUse">
<stop/>
<stop offset="0.45" stop-color="#FF5B57"/>
<stop offset="1" stop-color="#AAE4D7"/>
</linearGradient>
<linearGradient id="paint70_linear_101_966" x1="-1395.53" y1="2469.03" x2="-1621.37" y2="2206.62" gradientUnits="userSpaceOnUse">
<stop/>
<stop offset="0.45" stop-color="#FF5B57"/>
<stop offset="1" stop-color="#AAE4D7"/>
</linearGradient>
<linearGradient id="paint71_linear_101_966" x1="-7421.59" y1="8602.57" x2="-7647.43" y2="8340.16" gradientUnits="userSpaceOnUse">
<stop/>
<stop offset="0.45" stop-color="#FF5B57"/>
<stop offset="1" stop-color="#AAE4D7"/>
</linearGradient>
<linearGradient id="paint72_linear_101_966" x1="-19840.5" y1="18802.3" x2="-20066.4" y2="18539.9" gradientUnits="userSpaceOnUse">
<stop/>
<stop offset="0.45" stop-color="#FF5B57"/>
<stop offset="1" stop-color="#AAE4D7"/>
</linearGradient>
<linearGradient id="paint73_linear_101_966" x1="-22576.2" y1="21586.5" x2="-22802.1" y2="21324.1" gradientUnits="userSpaceOnUse">
<stop/>
<stop offset="0.45" stop-color="#FF5B57"/>
<stop offset="1" stop-color="#AAE4D7"/>
</linearGradient>
<linearGradient id="paint74_linear_101_966" x1="-18482" y1="17066.7" x2="-18707.8" y2="16804.3" gradientUnits="userSpaceOnUse">
<stop/>
<stop offset="0.45" stop-color="#FF5B57"/>
<stop offset="1" stop-color="#AAE4D7"/>
</linearGradient>
<linearGradient id="paint75_linear_101_966" x1="-19390.8" y1="17872.8" x2="-19616.7" y2="17610.4" gradientUnits="userSpaceOnUse">
<stop/>
<stop offset="0.45" stop-color="#FF5B57"/>
<stop offset="1" stop-color="#AAE4D7"/>
</linearGradient>
<linearGradient id="paint76_linear_101_966" x1="-13338.7" y1="13128.1" x2="-13564.6" y2="12865.7" gradientUnits="userSpaceOnUse">
<stop/>
<stop offset="0.45" stop-color="#FF5B57"/>
<stop offset="1" stop-color="#AAE4D7"/>
</linearGradient>
<linearGradient id="paint77_linear_101_966" x1="-2926.45" y1="4973.49" x2="-3152.3" y2="4711.08" gradientUnits="userSpaceOnUse">
<stop/>
<stop offset="0.45" stop-color="#FF5B57"/>
<stop offset="1" stop-color="#AAE4D7"/>
</linearGradient>
<linearGradient id="paint78_linear_101_966" x1="-19348.9" y1="18593.1" x2="-19574.7" y2="18330.7" gradientUnits="userSpaceOnUse">
<stop/>
<stop offset="0.45" stop-color="#FF5B57"/>
<stop offset="1" stop-color="#AAE4D7"/>
</linearGradient>
<linearGradient id="paint79_linear_101_966" x1="-7786.08" y1="9148.82" x2="-8011.92" y2="8886.41" gradientUnits="userSpaceOnUse">
<stop/>
<stop offset="0.45" stop-color="#FF5B57"/>
<stop offset="1" stop-color="#AAE4D7"/>
</linearGradient>
<linearGradient id="paint80_linear_101_966" x1="-4104.58" y1="4090.59" x2="-4330.42" y2="3828.18" gradientUnits="userSpaceOnUse">
<stop/>
<stop offset="0.45" stop-color="#FF5B57"/>
<stop offset="1" stop-color="#AAE4D7"/>
</linearGradient>
<linearGradient id="paint81_linear_101_966" x1="-16862.1" y1="15999.2" x2="-17087.9" y2="15736.8" gradientUnits="userSpaceOnUse">
<stop/>
<stop offset="0.45" stop-color="#FF5B57"/>
<stop offset="1" stop-color="#AAE4D7"/>
</linearGradient>
<linearGradient id="paint82_linear_101_966" x1="-12912.2" y1="12751.4" x2="-13138.1" y2="12489" gradientUnits="userSpaceOnUse">
<stop/>
<stop offset="0.45" stop-color="#FF5B57"/>
<stop offset="1" stop-color="#AAE4D7"/>
</linearGradient>
<linearGradient id="paint83_linear_101_966" x1="-13867.1" y1="13625.8" x2="-14092.9" y2="13363.4" gradientUnits="userSpaceOnUse">
<stop/>
<stop offset="0.45" stop-color="#FF5B57"/>
<stop offset="1" stop-color="#AAE4D7"/>
</linearGradient>
<linearGradient id="paint84_linear_101_966" x1="-19497.1" y1="17178.2" x2="-19722.9" y2="16915.8" gradientUnits="userSpaceOnUse">
<stop/>
<stop offset="0.45" stop-color="#FF5B57"/>
<stop offset="1" stop-color="#AAE4D7"/>
</linearGradient>
<linearGradient id="paint85_linear_101_966" x1="-4062.9" y1="3517.77" x2="-4288.75" y2="3255.37" gradientUnits="userSpaceOnUse">
<stop/>
<stop offset="0.45" stop-color="#FF5B57"/>
<stop offset="1" stop-color="#AAE4D7"/>
</linearGradient>
<linearGradient id="paint86_linear_101_966" x1="-11023" y1="11875" x2="-11248.8" y2="11612.6" gradientUnits="userSpaceOnUse">
<stop/>
<stop offset="0.45" stop-color="#FF5B57"/>
<stop offset="1" stop-color="#AAE4D7"/>
</linearGradient>
<linearGradient id="paint87_linear_101_966" x1="-19563.3" y1="16915.1" x2="-19789.1" y2="16652.7" gradientUnits="userSpaceOnUse">
<stop/>
<stop offset="0.45" stop-color="#FF5B57"/>
<stop offset="1" stop-color="#AAE4D7"/>
</linearGradient>
<linearGradient id="paint88_linear_101_966" x1="-8768.6" y1="9247.12" x2="-8994.44" y2="8984.71" gradientUnits="userSpaceOnUse">
<stop/>
<stop offset="0.45" stop-color="#FF5B57"/>
<stop offset="1" stop-color="#AAE4D7"/>
</linearGradient>
<linearGradient id="paint89_linear_101_966" x1="-10483.9" y1="10838.8" x2="-10709.7" y2="10576.3" gradientUnits="userSpaceOnUse">
<stop/>
<stop offset="0.45" stop-color="#FF5B57"/>
<stop offset="1" stop-color="#AAE4D7"/>
</linearGradient>
<linearGradient id="paint90_linear_101_966" x1="-25207" y1="23896" x2="-25432.9" y2="23633.6" gradientUnits="userSpaceOnUse">
<stop/>
<stop offset="0.45" stop-color="#FF5B57"/>
<stop offset="1" stop-color="#AAE4D7"/>
</linearGradient>
<linearGradient id="paint91_linear_101_966" x1="-21430" y1="20333.8" x2="-21655.9" y2="20071.4" gradientUnits="userSpaceOnUse">
<stop/>
<stop offset="0.45" stop-color="#FF5B57"/>
<stop offset="1" stop-color="#AAE4D7"/>
</linearGradient>
<linearGradient id="paint92_linear_101_966" x1="-5144.64" y1="5463.94" x2="-5370.48" y2="5201.53" gradientUnits="userSpaceOnUse">
<stop/>
<stop offset="0.45" stop-color="#FF5B57"/>
<stop offset="1" stop-color="#AAE4D7"/>
</linearGradient>
<linearGradient id="paint93_linear_101_966" x1="-12119.9" y1="11728.6" x2="-12345.7" y2="11466.2" gradientUnits="userSpaceOnUse">
<stop/>
<stop offset="0.45" stop-color="#FF5B57"/>
<stop offset="1" stop-color="#AAE4D7"/>
</linearGradient>
<linearGradient id="paint94_linear_101_966" x1="-7293.75" y1="8815.22" x2="-7519.59" y2="8552.81" gradientUnits="userSpaceOnUse">
<stop/>
<stop offset="0.45" stop-color="#FF5B57"/>
<stop offset="1" stop-color="#AAE4D7"/>
</linearGradient>
<linearGradient id="paint95_linear_101_966" x1="-26878.8" y1="23834.9" x2="-27104.6" y2="23572.4" gradientUnits="userSpaceOnUse">
<stop/>
<stop offset="0.45" stop-color="#FF5B57"/>
<stop offset="1" stop-color="#AAE4D7"/>
</linearGradient>
<linearGradient id="paint96_linear_101_966" x1="-3373.52" y1="4178.89" x2="-3599.37" y2="3916.48" gradientUnits="userSpaceOnUse">
<stop/>
<stop offset="0.45" stop-color="#FF5B57"/>
<stop offset="1" stop-color="#AAE4D7"/>
</linearGradient>
<linearGradient id="paint97_linear_101_966" x1="-16665.2" y1="14468.1" x2="-16891.1" y2="14205.6" gradientUnits="userSpaceOnUse">
<stop/>
<stop offset="0.45" stop-color="#FF5B57"/>
<stop offset="1" stop-color="#AAE4D7"/>
</linearGradient>
<linearGradient id="paint98_linear_101_966" x1="-11767.4" y1="11101.5" x2="-11993.2" y2="10839.1" gradientUnits="userSpaceOnUse">
<stop/>
<stop offset="0.45" stop-color="#FF5B57"/>
<stop offset="1" stop-color="#AAE4D7"/>
</linearGradient>
<linearGradient id="paint99_linear_101_966" x1="-21787.2" y1="20698.8" x2="-22013.1" y2="20436.4" gradientUnits="userSpaceOnUse">
<stop/>
<stop offset="0.45" stop-color="#FF5B57"/>
<stop offset="1" stop-color="#AAE4D7"/>
</linearGradient>
<linearGradient id="paint100_linear_101_966" x1="-9411.2" y1="10463.1" x2="-9637.04" y2="10200.6" gradientUnits="userSpaceOnUse">
<stop/>
<stop offset="0.45" stop-color="#FF5B57"/>
<stop offset="1" stop-color="#AAE4D7"/>
</linearGradient>
<linearGradient id="paint101_linear_101_966" x1="-27104.2" y1="23694.9" x2="-27330.1" y2="23432.5" gradientUnits="userSpaceOnUse">
<stop/>
<stop offset="0.45" stop-color="#FF5B57"/>
<stop offset="1" stop-color="#AAE4D7"/>
</linearGradient>
<linearGradient id="paint102_linear_101_966" x1="-16823.7" y1="14489.9" x2="-17049.6" y2="14227.5" gradientUnits="userSpaceOnUse">
<stop/>
<stop offset="0.45" stop-color="#FF5B57"/>
<stop offset="1" stop-color="#AAE4D7"/>
</linearGradient>
<linearGradient id="paint103_linear_101_966" x1="-19698.5" y1="19307.8" x2="-19924.4" y2="19045.4" gradientUnits="userSpaceOnUse">
<stop/>
<stop offset="0.45" stop-color="#FF5B57"/>
<stop offset="1" stop-color="#AAE4D7"/>
</linearGradient>
<linearGradient id="paint104_linear_101_966" x1="-25040.4" y1="24174.2" x2="-25266.3" y2="23911.8" gradientUnits="userSpaceOnUse">
<stop/>
<stop offset="0.45" stop-color="#FF5B57"/>
<stop offset="1" stop-color="#AAE4D7"/>
</linearGradient>
<linearGradient id="paint105_linear_101_966" x1="-21073.1" y1="19449.6" x2="-21299" y2="19187.2" gradientUnits="userSpaceOnUse">
<stop/>
<stop offset="0.45" stop-color="#FF5B57"/>
<stop offset="1" stop-color="#AAE4D7"/>
</linearGradient>
<linearGradient id="paint106_linear_101_966" x1="-20879.9" y1="19281.4" x2="-21105.8" y2="19019" gradientUnits="userSpaceOnUse">
<stop/>
<stop offset="0.45" stop-color="#FF5B57"/>
<stop offset="1" stop-color="#AAE4D7"/>
</linearGradient>
<linearGradient id="paint107_linear_101_966" x1="-27846.1" y1="24861.3" x2="-28071.9" y2="24598.9" gradientUnits="userSpaceOnUse">
<stop/>
<stop offset="0.45" stop-color="#FF5B57"/>
<stop offset="1" stop-color="#AAE4D7"/>
</linearGradient>
<linearGradient id="paint108_linear_101_966" x1="-22339" y1="21649.9" x2="-22564.8" y2="21387.5" gradientUnits="userSpaceOnUse">
<stop/>
<stop offset="0.45" stop-color="#FF5B57"/>
<stop offset="1" stop-color="#AAE4D7"/>
</linearGradient>
<linearGradient id="paint109_linear_101_966" x1="-10867.6" y1="9355.44" x2="-11093.4" y2="9093.03" gradientUnits="userSpaceOnUse">
<stop/>
<stop offset="0.45" stop-color="#FF5B57"/>
<stop offset="1" stop-color="#AAE4D7"/>
</linearGradient>
<linearGradient id="paint110_linear_101_966" x1="-22022.2" y1="19149.6" x2="-22248" y2="18887.2" gradientUnits="userSpaceOnUse">
<stop/>
<stop offset="0.45" stop-color="#FF5B57"/>
<stop offset="1" stop-color="#AAE4D7"/>
</linearGradient>
<linearGradient id="paint111_linear_101_966" x1="-16917.6" y1="15258.8" x2="-17143.5" y2="14996.4" gradientUnits="userSpaceOnUse">
<stop/>
<stop offset="0.45" stop-color="#FF5B57"/>
<stop offset="1" stop-color="#AAE4D7"/>
</linearGradient>
<linearGradient id="paint112_linear_101_966" x1="-23336.8" y1="20408" x2="-23562.6" y2="20145.6" gradientUnits="userSpaceOnUse">
<stop/>
<stop offset="0.45" stop-color="#FF5B57"/>
<stop offset="1" stop-color="#AAE4D7"/>
</linearGradient>
<linearGradient id="paint113_linear_101_966" x1="-15424.1" y1="13338.7" x2="-15650" y2="13076.3" gradientUnits="userSpaceOnUse">
<stop/>
<stop offset="0.45" stop-color="#FF5B57"/>
<stop offset="1" stop-color="#AAE4D7"/>
</linearGradient>
<linearGradient id="paint114_linear_101_966" x1="-16836.5" y1="15490.4" x2="-17062.3" y2="15228" gradientUnits="userSpaceOnUse">
<stop/>
<stop offset="0.45" stop-color="#FF5B57"/>
<stop offset="1" stop-color="#AAE4D7"/>
</linearGradient>
<linearGradient id="paint115_linear_101_966" x1="-22506.8" y1="21753.6" x2="-22732.6" y2="21491.2" gradientUnits="userSpaceOnUse">
<stop/>
<stop offset="0.45" stop-color="#FF5B57"/>
<stop offset="1" stop-color="#AAE4D7"/>
</linearGradient>
<linearGradient id="paint116_linear_101_966" x1="-9320.96" y1="10620" x2="-9546.8" y2="10357.6" gradientUnits="userSpaceOnUse">
<stop/>
<stop offset="0.45" stop-color="#FF5B57"/>
<stop offset="1" stop-color="#AAE4D7"/>
</linearGradient>
<linearGradient id="paint117_linear_101_966" x1="-16085.2" y1="14815.4" x2="-16311" y2="14553" gradientUnits="userSpaceOnUse">
<stop/>
<stop offset="0.45" stop-color="#FF5B57"/>
<stop offset="1" stop-color="#AAE4D7"/>
</linearGradient>
<linearGradient id="paint118_linear_101_966" x1="-1435.09" y1="3405.14" x2="-1660.93" y2="3142.73" gradientUnits="userSpaceOnUse">
<stop/>
<stop offset="0.45" stop-color="#FF5B57"/>
<stop offset="1" stop-color="#AAE4D7"/>
</linearGradient>
<linearGradient id="paint119_linear_101_966" x1="-21221.1" y1="18536.2" x2="-21447" y2="18273.8" gradientUnits="userSpaceOnUse">
<stop/>
<stop offset="0.45" stop-color="#FF5B57"/>
<stop offset="1" stop-color="#AAE4D7"/>
</linearGradient>
<linearGradient id="paint120_linear_101_966" x1="-1449.05" y1="1989.92" x2="-1674.89" y2="1727.51" gradientUnits="userSpaceOnUse">
<stop/>
<stop offset="0.45" stop-color="#FF5B57"/>
<stop offset="1" stop-color="#AAE4D7"/>
</linearGradient>
<linearGradient id="paint121_linear_101_966" x1="-29623.7" y1="26190.4" x2="-29849.6" y2="25928" gradientUnits="userSpaceOnUse">
<stop/>
<stop offset="0.45" stop-color="#FF5B57"/>
<stop offset="1" stop-color="#AAE4D7"/>
</linearGradient>
<linearGradient id="paint122_linear_101_966" x1="-4869.44" y1="6159.95" x2="-5095.28" y2="5897.54" gradientUnits="userSpaceOnUse">
<stop/>
<stop offset="0.45" stop-color="#FF5B57"/>
<stop offset="1" stop-color="#AAE4D7"/>
</linearGradient>
<linearGradient id="paint123_linear_101_966" x1="-4746.62" y1="4990.21" x2="-4972.46" y2="4727.8" gradientUnits="userSpaceOnUse">
<stop/>
<stop offset="0.45" stop-color="#FF5B57"/>
<stop offset="1" stop-color="#AAE4D7"/>
</linearGradient>
<linearGradient id="paint124_linear_101_966" x1="-21763.7" y1="19340.6" x2="-21989.5" y2="19078.2" gradientUnits="userSpaceOnUse">
<stop/>
<stop offset="0.45" stop-color="#FF5B57"/>
<stop offset="1" stop-color="#AAE4D7"/>
</linearGradient>
<linearGradient id="paint125_linear_101_966" x1="-13023.7" y1="13765.6" x2="-13249.5" y2="13503.2" gradientUnits="userSpaceOnUse">
<stop/>
<stop offset="0.45" stop-color="#FF5B57"/>
<stop offset="1" stop-color="#AAE4D7"/>
</linearGradient>
<linearGradient id="paint126_linear_101_966" x1="-17563.8" y1="16211.9" x2="-17789.6" y2="15949.5" gradientUnits="userSpaceOnUse">
<stop/>
<stop offset="0.45" stop-color="#FF5B57"/>
<stop offset="1" stop-color="#AAE4D7"/>
</linearGradient>
<linearGradient id="paint127_linear_101_966" x1="-15464.7" y1="14798.2" x2="-15690.5" y2="14535.8" gradientUnits="userSpaceOnUse">
<stop/>
<stop offset="0.45" stop-color="#FF5B57"/>
<stop offset="1" stop-color="#AAE4D7"/>
</linearGradient>
<linearGradient id="paint128_linear_101_966" x1="-20261" y1="19335.3" x2="-20486.8" y2="19072.9" gradientUnits="userSpaceOnUse">
<stop/>
<stop offset="0.45" stop-color="#FF5B57"/>
<stop offset="1" stop-color="#AAE4D7"/>
</linearGradient>
<linearGradient id="paint129_linear_101_966" x1="-3304.42" y1="5414.96" x2="-3530.26" y2="5152.55" gradientUnits="userSpaceOnUse">
<stop/>
<stop offset="0.45" stop-color="#FF5B57"/>
<stop offset="1" stop-color="#AAE4D7"/>
</linearGradient>
<linearGradient id="paint130_linear_101_966" x1="-6429.26" y1="7188.04" x2="-6655.11" y2="6925.63" gradientUnits="userSpaceOnUse">
<stop/>
<stop offset="0.45" stop-color="#FF5B57"/>
<stop offset="1" stop-color="#AAE4D7"/>
</linearGradient>
<linearGradient id="paint131_linear_101_966" x1="-9575.19" y1="8033.88" x2="-9801.03" y2="7771.48" gradientUnits="userSpaceOnUse">
<stop/>
<stop offset="0.45" stop-color="#FF5B57"/>
<stop offset="1" stop-color="#AAE4D7"/>
</linearGradient>
<linearGradient id="paint132_linear_101_966" x1="-24063.6" y1="22057.2" x2="-24289.4" y2="21794.8" gradientUnits="userSpaceOnUse">
<stop/>
<stop offset="0.45" stop-color="#FF5B57"/>
<stop offset="1" stop-color="#AAE4D7"/>
</linearGradient>
<linearGradient id="paint133_linear_101_966" x1="-28903.9" y1="25957.7" x2="-29129.8" y2="25695.3" gradientUnits="userSpaceOnUse">
<stop/>
<stop offset="0.45" stop-color="#FF5B57"/>
<stop offset="1" stop-color="#AAE4D7"/>
</linearGradient>
<linearGradient id="paint134_linear_101_966" x1="-32401.8" y1="28624.4" x2="-32627.7" y2="28362" gradientUnits="userSpaceOnUse">
<stop/>
<stop offset="0.45" stop-color="#FF5B57"/>
<stop offset="1" stop-color="#AAE4D7"/>
</linearGradient>
<linearGradient id="paint135_linear_101_966" x1="-12510.7" y1="10964.4" x2="-12736.6" y2="10702" gradientUnits="userSpaceOnUse">
<stop/>
<stop offset="0.45" stop-color="#FF5B57"/>
<stop offset="1" stop-color="#AAE4D7"/>
</linearGradient>
<linearGradient id="paint136_linear_101_966" x1="-3256.41" y1="4423.02" x2="-3482.25" y2="4160.61" gradientUnits="userSpaceOnUse">
<stop/>
<stop offset="0.45" stop-color="#FF5B57"/>
<stop offset="1" stop-color="#AAE4D7"/>
</linearGradient>
<linearGradient id="paint137_linear_101_966" x1="-4878.03" y1="6450.51" x2="-5103.87" y2="6188.1" gradientUnits="userSpaceOnUse">
<stop/>
<stop offset="0.45" stop-color="#FF5B57"/>
<stop offset="1" stop-color="#AAE4D7"/>
</linearGradient>
<linearGradient id="paint138_linear_101_966" x1="-18551.4" y1="16299.1" x2="-18777.2" y2="16036.7" gradientUnits="userSpaceOnUse">
<stop/>
<stop offset="0.45" stop-color="#FF5B57"/>
<stop offset="1" stop-color="#AAE4D7"/>
</linearGradient>
<linearGradient id="paint139_linear_101_966" x1="-3145.3" y1="3452.56" x2="-3371.14" y2="3190.15" gradientUnits="userSpaceOnUse">
<stop/>
<stop offset="0.45" stop-color="#FF5B57"/>
<stop offset="1" stop-color="#AAE4D7"/>
</linearGradient>
<linearGradient id="paint140_linear_101_966" x1="-12963.7" y1="13844.2" x2="-13189.5" y2="13581.8" gradientUnits="userSpaceOnUse">
<stop/>
<stop offset="0.45" stop-color="#FF5B57"/>
<stop offset="1" stop-color="#AAE4D7"/>
</linearGradient>
<linearGradient id="paint141_linear_101_966" x1="-32056.5" y1="28154.1" x2="-32282.4" y2="27891.7" gradientUnits="userSpaceOnUse">
<stop/>
<stop offset="0.45" stop-color="#FF5B57"/>
<stop offset="1" stop-color="#AAE4D7"/>
</linearGradient>
<linearGradient id="paint142_linear_101_966" x1="-10276.4" y1="10499.4" x2="-10502.2" y2="10237" gradientUnits="userSpaceOnUse">
<stop/>
<stop offset="0.45" stop-color="#FF5B57"/>
<stop offset="1" stop-color="#AAE4D7"/>
</linearGradient>
<linearGradient id="paint143_linear_101_966" x1="-2747.73" y1="3659.2" x2="-2973.57" y2="3396.8" gradientUnits="userSpaceOnUse">
<stop/>
<stop offset="0.45" stop-color="#FF5B57"/>
<stop offset="1" stop-color="#AAE4D7"/>
</linearGradient>
<linearGradient id="paint144_linear_101_966" x1="-32147.8" y1="29214.7" x2="-32373.7" y2="28952.2" gradientUnits="userSpaceOnUse">
<stop/>
<stop offset="0.45" stop-color="#FF5B57"/>
<stop offset="1" stop-color="#AAE4D7"/>
</linearGradient>
<linearGradient id="paint145_linear_101_966" x1="-13023.1" y1="13310.1" x2="-13248.9" y2="13047.7" gradientUnits="userSpaceOnUse">
<stop/>
<stop offset="0.45" stop-color="#FF5B57"/>
<stop offset="1" stop-color="#AAE4D7"/>
</linearGradient>
<linearGradient id="paint146_linear_101_966" x1="-20799.5" y1="18303.9" x2="-21025.3" y2="18041.5" gradientUnits="userSpaceOnUse">
<stop/>
<stop offset="0.45" stop-color="#FF5B57"/>
<stop offset="1" stop-color="#AAE4D7"/>
</linearGradient>
<linearGradient id="paint147_linear_101_966" x1="-26779.3" y1="24429.6" x2="-27005.1" y2="24167.1" gradientUnits="userSpaceOnUse">
<stop/>
<stop offset="0.45" stop-color="#FF5B57"/>
<stop offset="1" stop-color="#AAE4D7"/>
</linearGradient>
<linearGradient id="paint148_linear_101_966" x1="-8476.95" y1="7265.19" x2="-8702.79" y2="7002.78" gradientUnits="userSpaceOnUse">
<stop/>
<stop offset="0.45" stop-color="#FF5B57"/>
<stop offset="1" stop-color="#AAE4D7"/>
</linearGradient>
<linearGradient id="paint149_linear_101_966" x1="-20363.3" y1="17980.8" x2="-20589.1" y2="17718.4" gradientUnits="userSpaceOnUse">
<stop/>
<stop offset="0.45" stop-color="#FF5B57"/>
<stop offset="1" stop-color="#AAE4D7"/>
</linearGradient>
</defs>
</svg>
